<svg width="24" height="24" viewBox="0 0 24 24" fill="none" xmlns="http://www.w3.org/2000/svg">
<path d="M12 3.0625C7.07191 3.0625 3.0625 7.07191 3.0625 12C3.0625 16.9281 7.07191 20.9375 12 20.9375C16.9281 20.9375 20.9375 16.9281 20.9375 12C20.9375 7.07191 16.9281 3.0625 12 3.0625ZM12 16.8086C11.83 16.8086 11.6639 16.7582 11.5226 16.6638C11.3812 16.5694 11.2711 16.4352 11.206 16.2781C11.141 16.1211 11.124 15.9483 11.1571 15.7816C11.1903 15.6149 11.2721 15.4618 11.3923 15.3416C11.5125 15.2214 11.6656 15.1396 11.8323 15.1064C11.999 15.0732 12.1718 15.0903 12.3289 15.1553C12.4859 15.2203 12.6201 15.3305 12.7145 15.4718C12.809 15.6131 12.8594 15.7793 12.8594 15.9493C12.8594 16.1772 12.7688 16.3958 12.6077 16.5569C12.4465 16.7181 12.2279 16.8086 12 16.8086ZM12.9333 8.16547L12.6866 13.4077C12.6866 13.59 12.6142 13.7649 12.4853 13.8938C12.3563 14.0227 12.1815 14.0952 11.9991 14.0952C11.8168 14.0952 11.6419 14.0227 11.513 13.8938C11.3841 13.7649 11.3116 13.59 11.3116 13.4077L11.065 8.16805V8.1659C11.0596 8.03997 11.0797 7.91425 11.1242 7.7963C11.1687 7.67836 11.2365 7.57064 11.3237 7.47962C11.4109 7.3886 11.5156 7.31617 11.6316 7.26669C11.7475 7.21721 11.8722 7.1917 11.9983 7.1917C12.1243 7.1917 12.2491 7.21721 12.365 7.26669C12.4809 7.31617 12.5856 7.3886 12.6728 7.47962C12.76 7.57064 12.8279 7.67836 12.8724 7.7963C12.9168 7.91425 12.937 8.03997 12.9316 8.1659L12.9333 8.16547Z" fill="#FF4242"/>
</svg>
