<svg width="16" height="16" viewBox="0 0 16 16" fill="none" xmlns="http://www.w3.org/2000/svg">
<path d="M6.42457 5.57602C6.19026 5.34171 5.81036 5.34171 5.57605 5.57602C5.34174 5.81034 5.34173 6.19023 5.57605 6.42455L7.15178 8.00029L5.57605 9.57603C5.34173 9.81034 5.34174 10.1902 5.57605 10.4246C5.81036 10.6589 6.19026 10.6589 6.42457 10.4246L8.00031 8.84881L9.57604 10.4246C9.81035 10.6589 10.1902 10.6589 10.4246 10.4246C10.6589 10.1902 10.6589 9.81034 10.4246 9.57603L8.84883 8.00029L10.4246 6.42455C10.6589 6.19023 10.6589 5.81034 10.4246 5.57602C10.1902 5.34171 9.81035 5.34171 9.57604 5.57602L8.00031 7.15176L6.42457 5.57602Z" fill="#FF4242"/>
<path fill-rule="evenodd" clip-rule="evenodd" d="M8.0003 1.40002C4.35524 1.40002 1.40033 4.35495 1.40033 8.00002C1.40033 11.6451 4.35524 14.6 8.0003 14.6C11.6454 14.6 14.6003 11.6451 14.6003 8.00002C14.6003 4.35495 11.6454 1.40002 8.0003 1.40002ZM2.60033 8.00002C2.60033 5.01769 5.01798 2.60002 8.0003 2.60002C10.9826 2.60002 13.4003 5.01769 13.4003 8.00002C13.4003 10.9824 10.9826 13.4 8.0003 13.4C5.01798 13.4 2.60033 10.9824 2.60033 8.00002Z" fill="#FF4242"/>
</svg>
