<svg width="20" height="20" viewBox="0 0 20 20" fill="none" xmlns="http://www.w3.org/2000/svg">
<path d="M3.58667 3.00391C3.90867 3.00391 4.16968 3.26492 4.16968 3.58691V14.0811C4.16968 14.5449 4.35439 14.9904 4.68237 15.3184C5.01033 15.6462 5.45497 15.8301 5.9187 15.8301H16.4128C16.7347 15.8301 16.9956 16.0913 16.9958 16.4131C16.9958 16.7351 16.7348 16.9961 16.4128 16.9961H5.9187C5.14558 16.9961 4.40386 16.6893 3.85718 16.1426C3.31058 15.5959 3.00366 14.8541 3.00366 14.0811V3.58691C3.00366 3.26492 3.26467 3.00391 3.58667 3.00391ZM16.0007 6.67285C16.2284 6.44538 16.5983 6.44542 16.8259 6.67285C17.0532 6.90041 17.0531 7.26945 16.8259 7.49707L12.5496 11.7725C12.3219 12.0001 11.953 12.0001 11.7253 11.7725L9.41675 9.46387L6.33081 12.5498C6.10313 12.7775 5.73428 12.7775 5.50659 12.5498C5.2792 12.3221 5.279 11.9532 5.50659 11.7256L9.00464 8.22754L9.09644 8.15234C9.32257 8.0034 9.62979 8.02875 9.82886 8.22754L12.1375 10.5361L16.0007 6.67285Z" fill="currentColor"/>
</svg>
