<svg width="24" height="24" viewBox="0 0 24 24" fill="none" xmlns="http://www.w3.org/2000/svg">
<path fill-rule="evenodd" clip-rule="evenodd" d="M12.0001 7.60003C9.29395 7.60003 7.10016 9.79384 7.10016 12.5C7.10016 15.2062 9.29395 17.4 12.0001 17.4C14.7063 17.4 16.9001 15.2062 16.9001 12.5C16.9001 9.79384 14.7063 7.60003 12.0001 7.60003ZM8.90015 12.5C8.90015 10.788 10.2881 9.40003 12.0001 9.40003C13.7122 9.40003 15.1001 10.788 15.1001 12.5C15.1001 14.2121 13.7122 15.6 12.0001 15.6C10.2881 15.6 8.90015 14.2121 8.90015 12.5Z" fill="#37383C" fill-opacity="0.61"/>
<path fill-rule="evenodd" clip-rule="evenodd" d="M10.6597 2.35015C10.1972 2.34974 9.80704 2.3494 9.4339 2.4498C9.10592 2.53805 8.79599 2.68324 8.51824 2.87873C8.20225 3.10114 7.9528 3.40108 7.65705 3.75668L6.32946 5.3502L5.66517 5.3502C5.1353 5.35018 4.68412 5.35017 4.31369 5.38044C3.92453 5.41223 3.54594 5.48187 3.18401 5.66628C2.63834 5.94431 2.1947 6.38796 1.91667 6.93363C1.73226 7.29556 1.66262 7.67415 1.63083 8.06332C1.60056 8.43373 1.60057 8.88489 1.60059 9.41472V17.0856C1.60057 17.6154 1.60056 18.0667 1.63083 18.4371C1.66262 18.8262 1.73226 19.2048 1.91667 19.5668C2.1947 20.1124 2.63834 20.5561 3.18401 20.8341C3.54594 21.0185 3.92453 21.0882 4.31369 21.12C4.6841 21.1502 5.13526 21.1502 5.6651 21.1502H18.3359C18.8657 21.1502 19.3169 21.1502 19.6874 21.12C20.0765 21.0882 20.4551 21.0185 20.817 20.8341C21.3627 20.5561 21.8063 20.1124 22.0844 19.5668C22.2688 19.2048 22.3384 18.8262 22.3702 18.4371C22.4005 18.0667 22.4005 17.6155 22.4004 17.0857V9.41479C22.4005 8.88495 22.4005 8.43373 22.3702 8.06332C22.3384 7.67415 22.2688 7.29556 22.0844 6.93363C21.8063 6.38796 21.3627 5.94431 20.817 5.66628C20.4551 5.48187 20.0765 5.41223 19.6874 5.38044C19.3169 5.35017 18.8657 5.35018 18.3359 5.3502L17.6725 5.3502L16.3439 3.75611C16.0481 3.40065 15.7987 3.10082 15.4827 2.87851C15.205 2.68309 14.8951 2.53797 14.5672 2.44976C14.1942 2.3494 13.8041 2.34974 13.3417 2.35015L10.6597 2.35015ZM9.99567 4.16711C10.0726 4.1535 10.1631 4.15027 10.5622 4.15027H13.4393C13.8382 4.15027 13.9287 4.15349 14.0056 4.16711C14.1965 4.20089 14.375 4.28451 14.5232 4.40949C14.5829 4.45985 14.6433 4.5273 14.8988 4.83378L16.3498 6.57468L16.3617 6.58908C16.4043 6.6406 16.4844 6.73767 16.5824 6.82035C16.771 6.97942 16.9982 7.08584 17.2411 7.12884C17.3674 7.15119 17.4933 7.15063 17.5601 7.15033L17.5788 7.15027H18.7005C19.5151 7.15027 19.7089 7.16137 19.8404 7.20411C20.1753 7.31292 20.4378 7.57547 20.5467 7.91035C20.5894 8.04187 20.6005 8.23571 20.6005 9.05027V17.4503C20.6005 18.2648 20.5894 18.4587 20.5467 18.5902C20.4378 18.9251 20.1753 19.1876 19.8404 19.2964C19.7089 19.3392 19.5151 19.3503 18.7005 19.3503H5.3006C4.48604 19.3503 4.29221 19.3392 4.16069 19.2964C3.82581 19.1876 3.56326 18.9251 3.45445 18.5902C3.41171 18.4587 3.40061 18.2648 3.40061 17.4503V9.05027C3.40061 8.23571 3.41171 8.04187 3.45445 7.91035C3.56326 7.57547 3.82581 7.31292 4.16069 7.20411C4.29221 7.16137 4.48604 7.15027 5.3006 7.15027H6.42317L6.44187 7.15033C6.5087 7.15063 6.63461 7.15119 6.76093 7.12883C7.00389 7.08581 7.23117 6.97935 7.41975 6.82021C7.51779 6.73748 7.59795 6.64038 7.6405 6.58884L7.65242 6.57445L9.10245 4.83406C9.3579 4.52745 9.41832 4.45998 9.47802 4.4096C9.62619 4.28457 9.80476 4.20091 9.99567 4.16711Z" fill="#37383C" fill-opacity="0.61"/>
</svg>
