<svg
  width="24"
  height="24"
  viewBox="0 0 24 24"
  fill="none"
  xmlns="http://www.w3.org/2000/svg"
>
  <path
    d="M12 3.0625C7.07191 3.0625 3.0625 7.07191 3.0625 12C3.0625 16.9281 7.07191 20.9375 12 20.9375C16.9281 20.9375 20.9375 16.9281 20.9375 12C20.9375 7.07191 16.9281 3.0625 12 3.0625Z"
    fill="#00BF40"
  />
  <path
    d="M17.0742 8.73234L10.7742 16.2323C10.7051 16.3147 10.6191 16.3812 10.5221 16.4273C10.425 16.4735 10.3192 16.4983 10.2117 16.5H10.1991C10.0939 16.4999 9.99001 16.4778 9.89399 16.435C9.79797 16.3922 9.71202 16.3297 9.64172 16.2516L6.94172 13.2516C6.87313 13.1788 6.8198 13.0931 6.78483 12.9995C6.74986 12.9059 6.73396 12.8062 6.73805 12.7063C6.74214 12.6064 6.76618 12.5084 6.8087 12.4179C6.85123 12.3275 6.91142 12.2464 6.98572 12.1796C7.06002 12.1127 7.14694 12.0614 7.24136 12.0286C7.33579 11.9958 7.43583 11.9822 7.53556 11.9886C7.63531 11.995 7.73277 12.0213 7.82222 12.0659C7.91166 12.1106 7.99129 12.1726 8.05641 12.2484L10.1794 14.6072L15.9258 7.76766Z"
    fill="#FFFFFF"
  />
</svg>
