<svg width="16" height="16" viewBox="0 0 16 16" fill="none" xmlns="http://www.w3.org/2000/svg">
<path d="M11.0981 6.58398C11.3286 6.34588 11.3224 5.96603 11.0843 5.73557C10.8462 5.5051 10.4664 5.5113 10.2359 5.7494L7.1186 8.97004L5.7654 7.56817C5.53526 7.32975 5.15542 7.32304 4.91701 7.55318C4.67859 7.78332 4.67188 8.16316 4.90202 8.40158L6.68633 10.2501C6.7993 10.3671 6.95494 10.4332 7.11761 10.4334C7.28027 10.4335 7.43601 10.3675 7.54914 10.2506L11.0981 6.58398Z" fill="#00BF40"/>
<path fill-rule="evenodd" clip-rule="evenodd" d="M8.00036 1.40002C4.3553 1.40002 1.40039 4.35495 1.40039 8.00002C1.40039 11.6451 4.3553 14.6 8.00036 14.6C11.6454 14.6 14.6003 11.6451 14.6003 8.00002C14.6003 4.35495 11.6454 1.40002 8.00036 1.40002ZM2.60039 8.00002C2.60039 5.01769 5.01804 2.60002 8.00036 2.60002C10.9827 2.60002 13.4003 5.01769 13.4003 8.00002C13.4003 10.9824 10.9827 13.4 8.00036 13.4C5.01804 13.4 2.60039 10.9824 2.60039 8.00002Z" fill="#00BF40"/>
</svg>
