<svg width="22" height="22" viewBox="0 0 22 22" fill="none" xmlns="http://www.w3.org/2000/svg">
<path d="M11 2.0625C6.07191 2.0625 2.0625 6.07191 2.0625 11C2.0625 15.9281 6.07191 19.9375 11 19.9375C15.9281 19.9375 19.9375 15.9281 19.9375 11C19.9375 6.07191 15.9281 2.0625 11 2.0625ZM14.236 13.264C14.3025 13.3272 14.3557 13.4031 14.3924 13.4872C14.4292 13.5713 14.4487 13.6619 14.4499 13.7536C14.4511 13.8454 14.4339 13.9365 14.3993 14.0215C14.3647 14.1065 14.3135 14.1837 14.2486 14.2486C14.1837 14.3135 14.1065 14.3647 14.0215 14.3993C13.9365 14.4339 13.8454 14.4511 13.7536 14.4499C13.6619 14.4487 13.5713 14.4292 13.4872 14.3924C13.4031 14.3557 13.3272 14.3025 13.264 14.236L11 11.9724L8.73598 14.236C8.606 14.3595 8.43292 14.4273 8.25364 14.425C8.07437 14.4227 7.90309 14.3505 7.77631 14.2237C7.64953 14.0969 7.5773 13.9256 7.575 13.7464C7.57271 13.5671 7.64053 13.394 7.76402 13.264L10.0276 11L7.76402 8.73598C7.64053 8.606 7.57271 8.43292 7.575 8.25364C7.5773 8.07437 7.64953 7.90309 7.77631 7.77631C7.90309 7.64953 8.07437 7.5773 8.25364 7.575C8.43292 7.57271 8.606 7.64053 8.73598 7.76402L11 10.0276L13.264 7.76402C13.394 7.64053 13.5671 7.57271 13.7464 7.575C13.9256 7.5773 14.0969 7.64953 14.2237 7.77631C14.3505 7.90309 14.4227 8.07437 14.425 8.25364C14.4273 8.43292 14.3595 8.606 14.236 8.73598L11.9724 11L14.236 13.264Z" fill="#37383C" fill-opacity="0.28"/>
</svg>
