<svg width="24" height="24" viewBox="0 0 24 24" fill="none" xmlns="http://www.w3.org/2000/svg">
<path fill-rule="evenodd" clip-rule="evenodd" d="M21.386 2.61396C20.3442 1.57208 18.6551 1.57203 17.6132 2.61387L8.36332 11.8639C8.19454 12.0326 8.09972 12.2616 8.09972 12.5003V15.0003C8.09972 15.4973 8.50266 15.9003 8.99971 15.9003H11.4997C11.7384 15.9003 11.9673 15.8054 12.1361 15.6366L21.3859 6.38653C22.4277 5.34477 22.4277 3.65576 21.386 2.61396ZM18.886 3.88666C19.2249 3.54779 19.7743 3.54781 20.1131 3.88669C20.452 4.22555 20.452 4.77491 20.1131 5.11375L11.1269 14.1003H9.89971V12.873L18.886 3.88666Z" fill="#37383C" fill-opacity="0.61"/>
<path d="M12.1023 3.10318C12.5979 3.10318 12.9996 3.5049 12.9996 4.00046C12.9996 4.49601 12.5979 4.89774 12.1023 4.89774H6.79971C5.98516 4.89774 5.79132 4.90884 5.6598 4.95158C5.32492 5.06039 5.06237 5.32294 4.95356 5.65782C4.91083 5.78934 4.89973 5.98318 4.89973 6.79774V17.1977C4.89973 18.0123 4.91083 18.2061 4.95356 18.3377C5.06237 18.6725 5.32492 18.9351 5.6598 19.0439C5.79132 19.0866 5.98516 19.0977 6.79971 19.0977H17.1996C18.0142 19.0977 18.208 19.0866 18.3395 19.0439C18.6744 18.9351 18.937 18.6725 19.0458 18.3377C19.0885 18.2061 19.0996 18.0123 19.0996 17.1977V11.9008C19.0996 11.4038 19.5025 11.0008 19.9995 11.0008C20.4966 11.0008 20.8995 11.4038 20.8995 11.9008V16.8386C20.8995 17.3684 20.8995 17.8197 20.8692 18.1901C20.8374 18.5792 20.7678 18.9578 20.5834 19.3197C20.3054 19.8654 19.8617 20.3091 19.3161 20.5871C18.9541 20.7715 18.5755 20.8411 18.1864 20.8729C17.816 20.9032 17.3648 20.9032 16.835 20.9032H7.16418C6.63434 20.9032 6.18312 20.9032 5.81271 20.8729C5.42355 20.8411 5.04496 20.7715 4.68303 20.5871C4.13736 20.3091 3.69372 19.8654 3.41569 19.3197C3.23128 18.9578 3.16165 18.5792 3.12985 18.1901C3.09959 17.8197 3.0996 17.3685 3.09961 16.8387V7.16778C3.0996 6.63795 3.09959 6.1867 3.12985 5.81629C3.16165 5.42713 3.23128 5.04854 3.41569 4.68661C3.69372 4.14094 4.13736 3.69729 4.68303 3.41926C5.04496 3.23485 5.42355 3.16521 5.81271 3.13342C6.18312 3.10315 6.63426 3.10316 7.16409 3.10318H12.1023Z" fill="#37383C" fill-opacity="0.61"/>
</svg>
