<svg width="16" height="16" viewBox="0 0 16 16" fill="none" xmlns="http://www.w3.org/2000/svg">
<path fill-rule="evenodd" clip-rule="evenodd" d="M2 2.5C2 2.22386 2.22386 2 2.5 2H6C6.27614 2 6.5 2.22386 6.5 2.5C6.5 2.77614 6.27614 3 6 3H3.70631L6.85351 6.1464C7.0488 6.34164 7.04884 6.65822 6.8536 6.85351C6.65836 7.0488 6.34178 7.04884 6.14649 6.8536L3 3.70791V6C3 6.27614 2.77614 6.5 2.5 6.5C2.22386 6.5 2 6.27614 2 6V2.5ZM9.5 2.5C9.5 2.22386 9.72386 2 10 2H13.5C13.7761 2 14 2.22386 14 2.5V6C14 6.27614 13.7761 6.5 13.5 6.5C13.2239 6.5 13 6.27614 13 6V3.70631L9.8536 6.85351C9.65836 7.0488 9.34178 7.04884 9.14649 6.8536C8.9512 6.65836 8.95116 6.34178 9.1464 6.14649L12.2921 3H10C9.72386 3 9.5 2.77614 9.5 2.5ZM6.85351 9.1464C7.0488 9.34164 7.04884 9.65822 6.8536 9.85351L3.70791 13H6C6.27614 13 6.5 13.2239 6.5 13.5C6.5 13.7761 6.27614 14 6 14H2.5C2.22386 14 2 13.7761 2 13.5V10C2 9.72386 2.22386 9.5 2.5 9.5C2.77614 9.5 3 9.72386 3 10V12.2937L6.1464 9.14649C6.34164 8.9512 6.65822 8.95116 6.85351 9.1464ZM9.1464 9.14649C9.34164 8.9512 9.65822 8.95116 9.85351 9.1464L13 12.2921V10C13 9.72386 13.2239 9.5 13.5 9.5C13.7761 9.5 14 9.72386 14 10V13.5C14 13.7761 13.7761 14 13.5 14H10C9.72386 14 9.5 13.7761 9.5 13.5C9.5 13.2239 9.72386 13 10 13H12.2937L9.14649 9.8536C8.9512 9.65836 8.95116 9.34178 9.1464 9.14649Z" fill="currentColor"/>
</svg>
