<svg width="24" height="24" viewBox="0 0 24 24" fill="none" xmlns="http://www.w3.org/2000/svg">
<path fill-rule="evenodd" clip-rule="evenodd" d="M16.2382 3.10022C17.0463 3.10021 17.7071 3.1002 18.2442 3.14408C18.8001 3.1895 19.3022 3.28638 19.7711 3.52529C20.5049 3.8992 21.1015 4.49583 21.4755 5.22966C21.7144 5.69855 21.8112 6.20062 21.8567 6.75654C21.9005 7.29361 21.9005 7.95446 21.9005 8.76252V15.2379C21.9005 16.046 21.9005 16.7068 21.8567 17.2439C21.8112 17.7998 21.7144 18.3019 21.4755 18.7708C21.1015 19.5046 20.5049 20.1012 19.7711 20.4751C19.3022 20.7141 18.8001 20.8109 18.2442 20.8564C17.7071 20.9002 17.0463 20.9002 16.2382 20.9002H7.76287C6.95482 20.9002 6.29397 20.9002 5.75689 20.8564C5.20098 20.8109 4.69891 20.7141 4.23002 20.4751C3.49619 20.1012 2.89957 19.5046 2.52566 18.7708C2.28675 18.3019 2.18987 17.7998 2.14445 17.2439C2.10057 16.7068 2.10058 16.046 2.10059 15.238V8.76252C2.10058 7.95448 2.10057 7.29361 2.14445 6.75654C2.18987 6.20062 2.28675 5.69855 2.52566 5.22966C2.89957 4.49583 3.49619 3.8992 4.23002 3.52529C4.69891 3.28638 5.20098 3.1895 5.75689 3.14408C6.29397 3.1002 6.95481 3.10021 7.76286 3.10022H16.2382ZM14.1002 4.90022H9.90022V19.1002H14.1002V4.90022ZM15.9002 19.1002V4.90022H16.2005C17.0555 4.90022 17.6425 4.90092 18.0976 4.9381C18.5422 4.97443 18.7811 5.04104 18.9539 5.12911C19.3491 5.33044 19.6703 5.6517 19.8716 6.04684C19.9597 6.21969 20.0263 6.45852 20.0627 6.90311C20.0998 7.35822 20.1005 7.94529 20.1005 8.80022V15.2002C20.1005 16.0552 20.0998 16.6422 20.0627 17.0973C20.0263 17.5419 19.9597 17.7808 19.8716 17.9536C19.6703 18.3487 19.3491 18.67 18.9539 18.8713C18.7811 18.9594 18.5422 19.026 18.0976 19.0623C17.6425 19.0995 17.0555 19.1002 16.2005 19.1002H15.9002ZM7.80057 4.90022H8.10023V19.1002H7.80057C6.94564 19.1002 6.35857 19.0995 5.90347 19.0623C5.45887 19.026 5.22004 18.9594 5.0472 18.8713C4.65206 18.67 4.3308 18.3487 4.12947 17.9536C4.0414 17.7808 3.97479 17.5419 3.93847 17.0973C3.90128 16.6422 3.90058 16.0552 3.90058 15.2002V8.80022C3.90058 7.94529 3.90128 7.35822 3.93847 6.90311C3.97479 6.45852 4.0414 6.21969 4.12947 6.04684C4.3308 5.6517 4.65206 5.33044 5.0472 5.12911C5.22004 5.04104 5.45887 4.97443 5.90347 4.9381C6.35858 4.90092 6.94564 4.90022 7.80057 4.90022Z" fill="#37383C" fill-opacity="0.61"/>
</svg>
