<svg width="20" height="20" viewBox="0 0 20 20" fill="none" xmlns="http://www.w3.org/2000/svg">
<path d="M16.4583 8.33376C16.4583 8.168 16.3925 8.00903 16.2752 7.89182C16.158 7.77461 15.9991 7.70876 15.8333 7.70876C15.6675 7.70876 15.5086 7.77461 15.3914 7.89182C15.2741 8.00903 15.2083 8.168 15.2083 8.33376H16.4583ZM4.79163 8.33376C4.79163 8.168 4.72578 8.00903 4.60857 7.89182C4.49136 7.77461 4.33239 7.70876 4.16663 7.70876C4.00087 7.70876 3.8419 7.77461 3.72469 7.89182C3.60748 8.00903 3.54163 8.168 3.54163 8.33376H4.79163ZM17.0583 10.4421C17.1155 10.5035 17.1845 10.5528 17.2612 10.5869C17.3378 10.6211 17.4206 10.6394 17.5045 10.6409C17.5884 10.6424 17.6718 10.627 17.7496 10.5955C17.8275 10.5641 17.8981 10.5173 17.9575 10.458C18.0168 10.3986 18.0636 10.3279 18.0951 10.2501C18.1265 10.1723 18.1419 10.0889 18.1405 10.005C18.139 9.92107 18.1206 9.83831 18.0865 9.76164C18.0523 9.68498 18.003 9.61598 17.9416 9.55876L17.0583 10.4421ZM9.99996 2.50043L10.4416 2.05876C10.3244 1.94172 10.1656 1.87598 9.99996 1.87598C9.83434 1.87598 9.67549 1.94172 9.5583 2.05876L9.99996 2.50043ZM2.0583 9.55876C1.99689 9.61598 1.94764 9.68498 1.91348 9.76164C1.87932 9.83831 1.86095 9.92107 1.85947 10.005C1.85799 10.0889 1.87343 10.1723 1.90486 10.2501C1.9363 10.3279 1.98308 10.3986 2.04243 10.458C2.10178 10.5173 2.17248 10.5641 2.2503 10.5955C2.32812 10.627 2.41148 10.6424 2.4954 10.6409C2.57932 10.6394 2.66208 10.6211 2.73875 10.5869C2.81541 10.5528 2.88441 10.5035 2.94163 10.4421L2.0583 9.55876ZM5.8333 18.1254H14.1666V16.8754H5.8333V18.1254ZM16.4583 15.8338V8.33376H15.2083V15.8338H16.4583ZM4.79163 15.8338V8.33376H3.54163V15.8338H4.79163ZM17.9416 9.55876L10.4416 2.05876L9.5583 2.94209L17.0583 10.4421L17.9416 9.55876ZM9.5583 2.05876L2.0583 9.55876L2.94163 10.4421L10.4416 2.94209L9.5583 2.05876ZM14.1666 18.1254C14.7744 18.1254 15.3573 17.884 15.7871 17.4542C16.2169 17.0244 16.4583 16.4415 16.4583 15.8338H15.2083C15.2083 16.4088 14.7416 16.8754 14.1666 16.8754V18.1254ZM5.8333 16.8754C5.2583 16.8754 4.79163 16.4088 4.79163 15.8338H3.54163C3.54163 16.4415 3.78307 17.0244 4.21285 17.4542C4.64262 17.884 5.22551 18.1254 5.8333 18.1254V16.8754Z" fill="currentColor"/>
</svg>
