<svg viewBox="0 0 16 16" fill="none" xmlns="http://www.w3.org/2000/svg">
<path fill-rule="evenodd" clip-rule="evenodd" d="M1.5 7.75C1.5 4.29855 4.29855 1.5 7.75 1.5C11.2015 1.5 14 4.29855 14 7.75C14 11.2015 11.2015 14 7.75 14C4.29855 14 1.5 11.2015 1.5 7.75ZM7.75 2.5C4.85083 2.5 2.5 4.85083 2.5 7.75C2.5 10.6492 4.85083 13 7.75 13C10.6492 13 13 10.6492 13 7.75C13 4.85083 10.6492 2.5 7.75 2.5ZM6.375 6.875C6.375 6.59886 6.59886 6.375 6.875 6.375H7.875C8.15114 6.375 8.375 6.59886 8.375 6.875V10.125H9.25C9.52614 10.125 9.75 10.3489 9.75 10.625C9.75 10.9011 9.52614 11.125 9.25 11.125H6.5C6.22386 11.125 6 10.9011 6 10.625C6 10.3489 6.22386 10.125 6.5 10.125H7.375V7.375H6.875C6.59886 7.375 6.375 7.15114 6.375 6.875Z" fill="currentColor" fill-opacity="0.28"/>
<path d="M7.75 4.0625C7.5893 4.0625 7.43221 4.11015 7.2986 4.19943C7.16498 4.28871 7.06084 4.4156 6.99935 4.56407C6.93785 4.71253 6.92176 4.8759 6.95311 5.03351C6.98446 5.19112 7.06185 5.33589 7.17548 5.44952C7.28911 5.56315 7.43388 5.64054 7.59149 5.67189C7.7491 5.70324 7.91247 5.68715 8.06093 5.62565C8.2094 5.56416 8.33629 5.46002 8.42557 5.3264C8.51485 5.19279 8.5625 5.0357 8.5625 4.875C8.5625 4.65951 8.4769 4.45285 8.32452 4.30048C8.17215 4.1481 7.96549 4.0625 7.75 4.0625Z" fill="currentColor" fill-opacity="0.28"/>
</svg>
