<svg width="12" height="12" viewBox="0 0 12 12" fill="none" xmlns="http://www.w3.org/2000/svg">
<path d="M5.35714 0.642857C5.35714 0.287817 5.64496 0 6 0C7.18669 0 8.34672 0.351894 9.33342 1.01118C10.3201 1.67047 11.0891 2.60754 11.5433 3.7039C11.9974 4.80025 12.1162 6.00665 11.8847 7.17054C11.6532 8.33442 11.0818 9.40352 10.2426 10.2426C9.40353 11.0818 8.33443 11.6532 7.17054 11.8847C6.00666 12.1162 4.80026 11.9974 3.7039 11.5433C2.60755 11.0892 1.67047 10.3201 1.01118 9.33342C0.351896 8.34673 1.10341e-06 7.18669 0 6C0 5.64496 0.287816 5.35715 0.642855 5.35715C0.997894 5.35715 1.28571 5.64496 1.28571 6C1.28571 6.9324 1.5622 7.84386 2.08021 8.61912C2.59823 9.39438 3.3345 9.99862 4.19592 10.3554C5.05734 10.7122 6.00523 10.8056 6.91971 10.6237C7.8342 10.4418 8.6742 9.9928 9.33351 9.3335C9.99281 8.67419 10.4418 7.83419 10.6237 6.91971C10.8056 6.00523 10.7122 5.05734 10.3554 4.19592C9.99862 3.3345 9.39438 2.59823 8.61912 2.08021C7.84386 1.5622 6.9324 1.28571 6 1.28571C5.64496 1.28571 5.35714 0.997897 5.35714 0.642857Z" fill="currentColor" />
</svg>
