<svg viewBox="0 0 96 23" fill="none" xmlns="http://www.w3.org/2000/svg">
<path d="M2.15609 5.54397V12.056C2.15609 12.892 2.40543 13.5666 2.90409 14.08C3.41743 14.5933 4.05543 14.85 4.81809 14.85C5.56609 14.85 6.18943 14.5933 6.68809 14.08C7.20143 13.5666 7.45809 12.892 7.45809 12.056V5.54397H9.61409V16.522H7.45809V15.422C7.07676 15.862 6.61476 16.2066 6.07209 16.456C5.54409 16.6906 4.97209 16.808 4.35609 16.808C3.74009 16.808 3.16809 16.6906 2.64009 16.456C2.11209 16.2213 1.65009 15.8986 1.25409 15.488C0.872761 15.0626 0.564761 14.564 0.330094 13.992C0.110094 13.42 9.38326e-05 12.804 9.38326e-05 12.144V5.54397H2.15609ZM19.9037 16.522V10.054C19.9037 9.65797 19.8304 9.29131 19.6837 8.95397C19.5371 8.60197 19.3317 8.29397 19.0677 8.02997C18.8184 7.76597 18.5177 7.56064 18.1657 7.41397C17.8284 7.26731 17.4617 7.19397 17.0657 7.19397C16.6844 7.19397 16.3177 7.26731 15.9657 7.41397C15.6284 7.54597 15.3277 7.73664 15.0637 7.98597C14.8144 8.23531 14.6091 8.52864 14.4477 8.86597C14.2864 9.20331 14.1984 9.56264 14.1837 9.94397V16.522H12.0277V5.54397H14.1837V6.64397C14.5944 6.21864 15.0784 5.88131 15.6357 5.63197C16.1931 5.36797 16.8017 5.23597 17.4617 5.23597C18.0924 5.23597 18.6864 5.35331 19.2437 5.58797C19.8011 5.82264 20.2851 6.15264 20.6957 6.57797C21.1211 6.98864 21.4511 7.47997 21.6857 8.05197C21.9351 8.60931 22.0597 9.21797 22.0597 9.87797V16.522H19.9037ZM24.2431 1.25397C24.2431 0.916639 24.3604 0.623306 24.5951 0.373972C24.8444 0.124638 25.1377 -2.83718e-05 25.4751 -2.83718e-05C25.8124 -2.83718e-05 26.1057 0.124638 26.3551 0.373972C26.6044 0.623306 26.7291 0.916639 26.7291 1.25397C26.7291 1.59131 26.6044 1.88464 26.3551 2.13397C26.1057 2.36864 25.8124 2.48597 25.4751 2.48597C25.1377 2.48597 24.8444 2.36864 24.5951 2.13397C24.3604 1.88464 24.2431 1.59131 24.2431 1.25397ZM24.3971 16.522V5.54397H26.5531V16.522H24.3971ZM35.0841 5.23597C35.8761 5.23597 36.6167 5.38997 37.3061 5.69797C38.0101 5.99131 38.6261 6.40197 39.1541 6.92997C39.6821 7.44331 40.0927 8.05197 40.3861 8.75597C40.6941 9.45997 40.8481 10.2226 40.8481 11.044C40.8481 11.8653 40.6941 12.628 40.3861 13.332C40.0927 14.0213 39.6821 14.63 39.1541 15.158C38.6261 15.6713 38.0101 16.0746 37.3061 16.368C36.6167 16.6613 35.8761 16.808 35.0841 16.808C34.2921 16.808 33.5587 16.6833 32.8841 16.434C32.2094 16.17 31.6301 15.796 31.1461 15.312V22.066H28.9901V5.54397H31.1461V6.75397C31.6447 6.28464 32.2241 5.91797 32.8841 5.65397C33.5587 5.37531 34.2921 5.23597 35.0841 5.23597ZM38.6261 11.022C38.6261 10.4793 38.5307 9.97331 38.3401 9.50397C38.1494 9.03464 37.8854 8.63131 37.5481 8.29397C37.2107 7.95664 36.8147 7.69264 36.3601 7.50197C35.9054 7.29664 35.4141 7.19397 34.8861 7.19397C34.3581 7.19397 33.8667 7.29664 33.4121 7.50197C32.9574 7.69264 32.5614 7.95664 32.2241 8.29397C31.8867 8.63131 31.6227 9.03464 31.4321 9.50397C31.2414 9.97331 31.1461 10.4793 31.1461 11.022C31.1461 11.5646 31.2414 12.0706 31.4321 12.54C31.6227 13.0093 31.8867 13.4126 32.2241 13.75C32.5614 14.0873 32.9574 14.3586 33.4121 14.564C33.8667 14.7546 34.3581 14.85 34.8861 14.85C35.4141 14.85 35.9054 14.7546 36.3601 14.564C36.8147 14.3586 37.2107 14.0873 37.5481 13.75C37.8854 13.4126 38.1494 13.0093 38.3401 12.54C38.5307 12.0706 38.6261 11.5646 38.6261 11.022ZM54.2389 11.022C54.2389 11.8433 54.0849 12.606 53.7769 13.31C53.4689 14.014 53.0435 14.6226 52.5009 15.136C51.9729 15.6493 51.3422 16.06 50.6089 16.368C49.8902 16.6613 49.1202 16.808 48.2989 16.808C47.4775 16.808 46.7002 16.6613 45.9669 16.368C45.2482 16.06 44.6175 15.6493 44.0749 15.136C43.5469 14.6226 43.1289 14.014 42.8209 13.31C42.5129 12.606 42.3589 11.8433 42.3589 11.022C42.3589 10.2153 42.5129 9.45997 42.8209 8.75597C43.1289 8.03731 43.5469 7.42131 44.0749 6.90797C44.6175 6.39464 45.2482 5.99131 45.9669 5.69797C46.7002 5.38997 47.4775 5.23597 48.2989 5.23597C49.1202 5.23597 49.8902 5.38997 50.6089 5.69797C51.3422 5.99131 51.9729 6.39464 52.5009 6.90797C53.0435 7.42131 53.4689 8.03731 53.7769 8.75597C54.0849 9.45997 54.2389 10.2153 54.2389 11.022ZM44.5809 11.022C44.5809 11.5353 44.6689 12.0266 44.8449 12.496C45.0355 12.9506 45.2922 13.354 45.6149 13.706C45.9522 14.058 46.3482 14.3366 46.8029 14.542C47.2575 14.7473 47.7562 14.85 48.2989 14.85C48.8415 14.85 49.3402 14.7473 49.7949 14.542C50.2495 14.3366 50.6382 14.058 50.9609 13.706C51.2982 13.354 51.5549 12.9506 51.7309 12.496C51.9215 12.0266 52.0169 11.5353 52.0169 11.022C52.0169 10.5086 51.9215 10.0246 51.7309 9.56997C51.5549 9.10064 51.2982 8.68997 50.9609 8.33797C50.6382 7.98597 50.2495 7.70731 49.7949 7.50197C49.3402 7.29664 48.8415 7.19397 48.2989 7.19397C47.7562 7.19397 47.2575 7.29664 46.8029 7.50197C46.3482 7.70731 45.9522 7.98597 45.6149 8.33797C45.2922 8.68997 45.0355 9.10064 44.8449 9.56997C44.6689 10.0246 44.5809 10.5086 44.5809 11.022ZM66.188 14.872C65.616 15.532 64.9266 16.0233 64.12 16.346C63.328 16.654 62.5286 16.808 61.722 16.808C60.9006 16.808 60.1306 16.6613 59.412 16.368C58.6933 16.0746 58.0626 15.6713 57.52 15.158C56.9773 14.63 56.552 14.014 56.244 13.31C55.936 12.606 55.782 11.8433 55.782 11.022C55.782 10.2006 55.936 9.43797 56.244 8.73397C56.552 8.02997 56.9773 7.42131 57.52 6.90797C58.0626 6.37997 58.6933 5.96931 59.412 5.67597C60.1306 5.38264 60.9006 5.23597 61.722 5.23597C62.558 5.23597 63.3573 5.39731 64.12 5.71997C64.8973 6.02797 65.572 6.51197 66.144 7.17197L64.604 8.55797C64.252 8.14731 63.834 7.81731 63.35 7.56797C62.8806 7.31864 62.338 7.19397 61.722 7.19397C61.1793 7.19397 60.6806 7.29664 60.226 7.50197C59.786 7.70731 59.3973 7.98597 59.06 8.33797C58.7373 8.68997 58.4806 9.10064 58.29 9.56997C58.114 10.0246 58.026 10.5086 58.026 11.022C58.026 11.5353 58.1213 12.0266 58.312 12.496C58.5026 12.9506 58.7593 13.354 59.082 13.706C59.4193 14.058 59.808 14.3366 60.248 14.542C60.7026 14.7473 61.194 14.85 61.722 14.85C62.2793 14.85 62.8073 14.7326 63.306 14.498C63.8193 14.2486 64.252 13.9113 64.604 13.486L66.188 14.872ZM70.8559 12.1L69.9099 13.09V16.522H67.7539V-2.83718e-05H69.9099V10.34L74.3319 5.54397H77.0599L72.3079 10.538L77.7859 16.522H74.9479L70.8559 12.1ZM83.2405 14.85C83.9739 14.85 84.6412 14.6886 85.2425 14.366C85.8439 14.0286 86.3205 13.574 86.6725 13.002L88.4545 14.08C87.9119 15.004 87.1712 15.6933 86.2325 16.148C85.2939 16.588 84.2965 16.808 83.2405 16.808C82.3752 16.808 81.5759 16.6686 80.8425 16.39C80.1092 16.1113 79.4712 15.7226 78.9285 15.224C78.4005 14.7106 77.9825 14.102 77.6745 13.398C77.3665 12.6793 77.2125 11.8873 77.2125 11.022C77.2125 10.186 77.3592 9.41597 77.6525 8.71197C77.9605 8.00797 78.3712 7.39931 78.8845 6.88597C79.4125 6.37264 80.0359 5.96931 80.7545 5.67597C81.4732 5.38264 82.2505 5.23597 83.0865 5.23597C83.9079 5.23597 84.6779 5.38264 85.3965 5.67597C86.1152 5.95464 86.7385 6.35064 87.2665 6.86397C87.7945 7.36264 88.2052 7.96397 88.4985 8.66797C88.8065 9.35731 88.9605 10.12 88.9605 10.956C88.9605 11.1026 88.9532 11.2713 88.9385 11.462C88.9239 11.638 88.9019 11.8066 88.8725 11.968H79.5225C79.7132 12.848 80.1459 13.552 80.8205 14.08C81.5099 14.5933 82.3165 14.85 83.2405 14.85ZM86.6505 9.94397C86.4452 9.13731 86.0199 8.48464 85.3745 7.98597C84.7292 7.47264 83.9665 7.21597 83.0865 7.21597C82.2065 7.21597 81.4512 7.47264 80.8205 7.98597C80.1899 8.48464 79.7719 9.13731 79.5665 9.94397H86.6505ZM93.0367 7.56797V12.804C93.0367 13.3466 93.1834 13.7646 93.4767 14.058C93.7847 14.3513 94.1514 14.498 94.5767 14.498H95.6547V16.522H94.5767C94.0634 16.522 93.5794 16.434 93.1247 16.258C92.6847 16.082 92.2961 15.8326 91.9587 15.51C91.6214 15.1873 91.3574 14.7986 91.1667 14.344C90.9761 13.8893 90.8807 13.3833 90.8807 12.826V2.63997H93.0367V5.54397H95.6547V7.56797H93.0367Z" fill="#44A3B6"/>
</svg>
