<svg viewBox="0 0 32 32" fill="none" xmlns="http://www.w3.org/2000/svg">
<path d="M4.00001 11.3338H20C23.7707 11.3338 25.6573 11.3338 26.828 12.5058C28 13.6765 28 15.5631 28 19.3338V20.6671C28 24.4378 28 26.3245 26.828 27.4951C25.6573 28.6671 23.7707 28.6671 20 28.6671H12C8.22934 28.6671 6.34267 28.6671 5.17201 27.4951C4.00001 26.3245 4.00001 24.4378 4.00001 20.6671V11.3338ZM4.00001 11.3338C3.99919 10.9892 4.09381 10.651 4.27337 10.3568C4.45293 10.0627 4.71043 9.82394 5.01734 9.66713L16.8707 3.57113C17.198 3.40261 17.5631 3.3211 17.931 3.33441C18.2989 3.34773 18.6572 3.45543 18.9714 3.64717C19.2857 3.83891 19.5453 4.10825 19.7255 4.4293C19.9056 4.75035 20.0001 5.11233 20 5.48046V11.3311" stroke="#44A3B6" stroke-width="1.9" stroke-linecap="round" stroke-linejoin="round"/>
<path d="M23.3327 20.6673C23.5095 20.6673 23.6791 20.5971 23.8041 20.4721C23.9291 20.347 23.9993 20.1775 23.9993 20.0007C23.9993 19.8238 23.9291 19.6543 23.8041 19.5292C23.6791 19.4042 23.5095 19.334 23.3327 19.334M23.3327 20.6673C23.1559 20.6673 22.9863 20.5971 22.8613 20.4721C22.7363 20.347 22.666 20.1775 22.666 20.0007C22.666 19.8238 22.7363 19.6543 22.8613 19.5292C22.9863 19.4042 23.1559 19.334 23.3327 19.334M23.3327 20.6673V19.334" stroke="#44A3B6" stroke-width="0.875" stroke-linecap="round" stroke-linejoin="round"/>
</svg>
