<svg width="24" height="24" viewBox="0 0 24 24" fill="none" xmlns="http://www.w3.org/2000/svg">
<path d="M9.99963 17.3255C9.62684 17.3255 9.32463 17.6277 9.32463 18.0005C9.32463 18.3733 9.62684 18.6755 9.99963 18.6755H13.9996C14.3724 18.6755 14.6746 18.3733 14.6746 18.0005C14.6746 17.6277 14.3724 17.3255 13.9996 17.3255H9.99963Z" fill="#37383C" fill-opacity="0.61"/>
<path fill-rule="evenodd" clip-rule="evenodd" d="M9.41419 2.09961C8.88436 2.0996 8.43313 2.09959 8.06272 2.12985C7.67356 2.16165 7.29497 2.23128 6.93303 2.41569C6.38737 2.69373 5.94372 3.13737 5.66569 3.68304C5.48128 4.04497 5.41165 4.42357 5.37985 4.81273C5.34959 5.18314 5.3496 5.63429 5.34961 6.16413V17.835C5.3496 18.3648 5.34959 18.8161 5.37985 19.1865C5.41165 19.5757 5.48128 19.9543 5.66569 20.3162C5.94372 20.8619 6.38737 21.3055 6.93303 21.5835C7.29497 21.7679 7.67356 21.8376 8.06272 21.8694C8.43313 21.8996 8.88429 21.8996 9.41413 21.8996H14.585C15.1148 21.8996 15.566 21.8996 15.9365 21.8694C16.3256 21.8376 16.7042 21.7679 17.0661 21.5835C17.6118 21.3055 18.0555 20.8619 18.3335 20.3162C18.5179 19.9543 18.5875 19.5757 18.6193 19.1865C18.6496 18.8161 18.6496 18.3649 18.6496 17.835V6.16421C18.6496 5.63434 18.6496 5.18316 18.6193 4.81273C18.5875 4.42357 18.5179 4.04497 18.3335 3.68304C18.0555 3.13737 17.6118 2.69373 17.0661 2.41569C16.7042 2.23128 16.3256 2.16165 15.9365 2.12985C15.566 2.09959 15.1149 2.0996 14.5851 2.09961H9.41419ZM7.90969 3.95436C8.04122 3.91163 8.23505 3.90053 9.04961 3.90053H14.9496C15.7641 3.90053 15.958 3.91163 16.0895 3.95436C16.4244 4.06317 16.6869 4.32573 16.7957 4.66061C16.8385 4.79213 16.8496 4.98596 16.8496 5.80053V18.2005C16.8496 19.0151 16.8385 19.2089 16.7957 19.3404C16.6869 19.6753 16.4244 19.9379 16.0895 20.0467C15.958 20.0894 15.7641 20.1005 14.9496 20.1005H9.04961C8.23505 20.1005 8.04122 20.0894 7.90969 20.0467C7.57481 19.9379 7.31226 19.6753 7.20345 19.3404C7.16072 19.2089 7.14962 19.0151 7.14962 18.2005V5.80053C7.14962 4.98596 7.16072 4.79213 7.20345 4.66061C7.31226 4.32573 7.57481 4.06317 7.90969 3.95436Z" fill="#37383C" fill-opacity="0.61"/>
</svg>
