<svg width="20" height="20" viewBox="0 0 20 20" fill="none" xmlns="http://www.w3.org/2000/svg">
<path fill-rule="evenodd" clip-rule="evenodd" d="M9.55806 1.82368C9.80214 1.57961 10.1979 1.57961 10.4419 1.82368L13.5669 4.94868C13.811 5.19276 13.811 5.58849 13.5669 5.83257L10.4419 8.95757C10.1979 9.20164 9.80214 9.20164 9.55806 8.95757C9.31398 8.71349 9.31398 8.31776 9.55806 8.07368L11.7101 5.92166C11.3455 5.88507 10.8009 5.85938 10 5.85938C8.88748 5.85938 7.79995 6.18928 6.87492 6.80736C5.94989 7.42544 5.22892 8.30395 4.80318 9.33178C4.37744 10.3596 4.26604 11.4906 4.48309 12.5818C4.70013 13.6729 5.23586 14.6752 6.02253 15.4619C6.8092 16.2485 7.81148 16.7843 8.90262 17.0013C9.99376 17.2183 11.1248 17.1069 12.1526 16.6812C13.1804 16.2555 14.0589 15.5345 14.677 14.6095C15.2951 13.6844 15.625 12.5969 15.625 11.4844C15.625 11.1392 15.9048 10.8594 16.25 10.8594C16.5952 10.8594 16.875 11.1392 16.875 11.4844C16.875 12.8441 16.4718 14.1733 15.7164 15.3039C14.9609 16.4345 13.8872 17.3157 12.631 17.836C11.3747 18.3564 9.99238 18.4925 8.65876 18.2273C7.32514 17.962 6.10013 17.3072 5.13864 16.3457C4.17716 15.3842 3.52238 14.1592 3.2571 12.8256C2.99183 11.492 3.12798 10.1097 3.64833 8.85343C4.16868 7.59718 5.04987 6.52346 6.18046 5.76802C7.31105 5.01259 8.64026 4.60938 10 4.60938C10.6238 4.60938 11.1149 4.62442 11.5008 4.65033L9.55806 2.70757C9.31398 2.46349 9.31398 2.06776 9.55806 1.82368Z" fill="#2E2F33" fill-opacity="0.88"/>
</svg>
