<svg viewBox="0 0 24 24" fill="none" xmlns="http://www.w3.org/2000/svg">
<path fill-rule="evenodd" clip-rule="evenodd" d="M10.1228 3C10.0738 2.99986 10.0253 3.0094 9.97997 3.02809C9.93467 3.04677 9.89352 3.07423 9.85887 3.10887C9.82422 3.14352 9.79677 3.18468 9.77808 3.22997C9.7594 3.27527 9.74985 3.32381 9.75 3.37281L9.75 3.375V4.50001H14.25V3.375L14.25 3.37281C14.2501 3.32381 14.2406 3.27527 14.2219 3.22997C14.2032 3.18467 14.1758 3.14352 14.1411 3.10887C14.1065 3.07423 14.0653 3.04677 14.02 3.02809C13.9747 3.0094 13.9262 2.99986 13.8772 3L13.875 3H10.125L10.1228 3ZM6.04834 6L6.93604 20.2032C6.93621 20.206 6.93637 20.2088 6.93651 20.2115C6.96245 20.7163 7.29756 21 7.6875 21H16.3125C16.6986 21 17.0322 20.7226 17.0639 20.2043L17.9517 6H6.04834ZM18.7431 4.50001H15.75V3.37612C15.7506 3.12977 15.7025 2.88572 15.6086 2.65798C15.5145 2.4299 15.3763 2.22267 15.2018 2.04821C15.0273 1.87375 14.8201 1.73551 14.592 1.64143C14.3643 1.5475 14.1203 1.49945 13.874 1.5H10.126C9.87966 1.49945 9.63567 1.5475 9.40797 1.64143C9.17989 1.73551 8.97267 1.87376 8.79821 2.04821C8.62375 2.22267 8.48551 2.4299 8.39142 2.65798C8.2975 2.88567 8.24944 3.12966 8.25 3.37596V4.50001H5.25693C5.25279 4.49997 5.24865 4.49997 5.24451 4.50001H3.75C3.33579 4.50001 3 4.83579 3 5.25001C3 5.66422 3.33579 6 3.75 6H4.54541L5.43872 20.293C5.50388 21.5196 6.42898 22.5 7.6875 22.5H16.3125C17.5829 22.5 18.4868 21.5109 18.5611 20.2959C18.5611 20.2958 18.5611 20.2958 18.5611 20.2958L19.4546 6H20.25C20.6642 6 21 5.66422 21 5.25001C21 4.83579 20.6642 4.50001 20.25 4.50001H18.7555C18.7513 4.49997 18.7472 4.49997 18.7431 4.50001ZM8.59823 7.50048C9.01218 7.4857 9.35974 7.80929 9.37452 8.22324L9.74952 18.7232C9.76431 19.1372 9.44072 19.4847 9.02677 19.4995C8.61282 19.5143 8.26526 19.1907 8.25048 18.7768L7.87548 8.27677C7.86069 7.86282 8.18428 7.51527 8.59823 7.50048ZM15.4018 7.50048C15.8157 7.51527 16.1393 7.86282 16.1245 8.27677L15.7495 18.7768C15.7347 19.1907 15.3872 19.5143 14.9732 19.4995C14.5593 19.4847 14.2357 19.1372 14.2505 18.7232L14.6255 8.22324C14.6403 7.80929 14.9878 7.4857 15.4018 7.50048ZM12 7.5C12.4142 7.5 12.75 7.83579 12.75 8.25V18.75C12.75 19.1642 12.4142 19.5 12 19.5C11.5858 19.5 11.25 19.1642 11.25 18.75V8.25C11.25 7.83579 11.5858 7.5 12 7.5Z" fill="#37383C" fill-opacity="0.61"/>
</svg>
