<svg width="20" height="20" viewBox="0 0 20 20" fill="none" xmlns="http://www.w3.org/2000/svg">
<path d="M15.8337 2.67938C16.2255 2.71459 16.5602 2.8723 16.8386 3.15106C17.1569 3.47008 17.3175 3.86218 17.3181 4.32782C17.3187 4.78738 17.1621 5.17472 16.8513 5.49091C16.847 5.49555 16.8431 5.50106 16.8386 5.50555L14.2546 8.10907H14.2556L15.5671 15.5827L15.5681 15.5876C15.5961 15.7564 15.5839 15.9236 15.5359 16.0876V16.0886C15.4872 16.2541 15.4081 16.3891 15.3034 16.4968C15.2978 16.5025 15.2917 16.5078 15.2859 16.5134L14.9656 16.8132L14.9665 16.8141C14.9644 16.8163 14.9618 16.819 14.9587 16.822C14.8475 16.9321 14.7097 17.0333 14.5359 17.0886C14.356 17.1456 14.1878 17.1373 14.0466 17.1091C13.8101 17.0617 13.5878 16.9468 13.4206 16.7184C13.4088 16.7022 13.3974 16.6851 13.3874 16.6677L13.32 16.5505C13.3094 16.5319 13.3002 16.5125 13.2917 16.4929L11.0681 11.2975L11.0525 11.3112L8.94309 13.4001V13.4011L9.4011 15.9841L9.40208 15.989L9.40403 16.0007H9.40305C9.42667 16.1318 9.42099 16.2619 9.38059 16.3903C9.34024 16.5185 9.27251 16.6346 9.17259 16.7341C9.16749 16.7391 9.16225 16.7448 9.15696 16.7497L8.81712 17.0886C8.7475 17.1581 8.64304 17.2425 8.49387 17.2907C8.34818 17.3377 8.21069 17.3334 8.09934 17.3171H8.09837C7.98925 17.3009 7.85891 17.2661 7.73313 17.1813C7.60607 17.0957 7.52405 16.9867 7.46848 16.8893L7.46262 16.8786L5.94407 14.07L5.91966 14.0544L3.13645 12.5495L3.13059 12.5466C3.03264 12.4921 2.92083 12.4114 2.83274 12.2829C2.7452 12.1552 2.70932 12.0223 2.69309 11.9118C2.67705 11.8022 2.67263 11.6653 2.71848 11.5202C2.76585 11.3704 2.85021 11.265 2.92063 11.194L3.2761 10.8386L3.35032 10.7722C3.4277 10.7107 3.51698 10.6621 3.61985 10.6296L3.72141 10.6042C3.82276 10.5861 3.92455 10.5887 4.0261 10.6091L6.5886 11.0466L8.7136 8.94305V8.94208L3.51438 6.69501L3.50169 6.68915C3.35684 6.6222 3.2162 6.52917 3.10227 6.39227C3.01516 6.28749 2.95824 6.17463 2.92161 6.06317L2.89134 5.95282C2.86177 5.82055 2.84836 5.65429 2.90403 5.47235C2.95824 5.29535 3.06215 5.15604 3.17259 5.04559L3.50657 4.71259C3.6163 4.60313 3.75049 4.51944 3.91087 4.46356H3.91184C4.06324 4.41102 4.22274 4.39276 4.38938 4.41864L4.4011 4.42059V4.42157L11.9001 5.75458H11.9011L14.4831 3.15204L14.4841 3.15106C14.8034 2.83176 15.197 2.67157 15.6628 2.67157L15.8337 2.67938ZM15.6618 3.77118C15.4787 3.77129 15.3686 3.82229 15.2624 3.92841L12.6814 6.52997C12.4278 6.78514 12.0648 6.90182 11.7087 6.83856V6.83759L4.26048 5.51337L4.04661 5.72626L9.15012 7.93231L9.27122 7.99384C9.54349 8.15391 9.73551 8.42523 9.79466 8.73895C9.86207 9.09715 9.74796 9.46679 9.48802 9.7243L7.36302 11.8278C7.11092 12.0774 6.75375 12.1902 6.40403 12.1306L3.95677 11.7126L3.93626 11.7331L6.46555 13.1003L6.50071 13.1198L6.56809 13.1628L6.60032 13.1852C6.72583 13.2788 6.83333 13.4004 6.91087 13.5436L8.27708 16.072L8.29563 16.0534L7.86009 13.5925C7.79729 13.2379 7.91169 12.8735 8.16868 12.6188L10.2937 10.5153L10.3161 10.4938L10.3669 10.4489C10.3761 10.4408 10.3856 10.4329 10.3952 10.4255C10.6439 10.2335 10.9656 10.1557 11.2781 10.2165H11.279C11.6358 10.2863 11.9354 10.5286 12.0788 10.863L14.2624 15.9655L14.4812 15.7595L13.1726 8.29852C13.1116 7.94939 13.2216 7.58858 13.4743 7.33368L16.0583 4.73016C16.0597 4.72873 16.0608 4.7267 16.0622 4.72528C16.1679 4.61988 16.2177 4.51174 16.2175 4.32977C16.2173 4.19168 16.1887 4.09502 16.1296 4.01044L16.0603 3.92841C15.9542 3.82212 15.8444 3.77121 15.6618 3.77118Z" fill="currentColor"/>
</svg>
