<svg viewBox="0 0 24 24" fill="none" xmlns="http://www.w3.org/2000/svg">
<mask id="mask0_18821_1241" style="mask-type:alpha" maskUnits="userSpaceOnUse" x="0" y="0" width="24" height="24">
<rect width="24" height="24" fill="#D9D9D9"/>
</mask>
<g mask="url(#mask0_18821_1241)">
<path d="M2 23.9983V20.9983H22V23.9983H2ZM6 16.4118H7.2365L15.5365 8.1271L14.9078 7.48884L14.2848 6.87534L6 15.1753V16.4118ZM4.5 17.9118V14.5368L15.7098 3.34259C15.8546 3.19776 16.019 3.08818 16.203 3.01384C16.3868 2.93951 16.5782 2.90234 16.777 2.90234C16.976 2.90234 17.1687 2.93951 17.355 3.01384C17.5413 3.08818 17.7121 3.20293 17.8673 3.35809L19.0693 4.57534C19.2244 4.72018 19.3366 4.88609 19.4058 5.07309C19.4749 5.25993 19.5095 5.45309 19.5095 5.65259C19.5095 5.83959 19.4744 6.02551 19.4042 6.21034C19.3341 6.39534 19.2224 6.56443 19.0693 6.71759L7.875 17.9118H4.5ZM15.5365 8.1271L14.9078 7.48884L14.2848 6.87534L15.5365 8.1271Z" fill="#37383C" fill-opacity="0.61"/>
</g>
</svg>
