<svg viewBox="0 0 48 48" fill="none" xmlns="http://www.w3.org/2000/svg">
<mask id="mask0_16773_2202" style="mask-type:alpha" maskUnits="userSpaceOnUse" x="0" y="0" width="48" height="48">
<rect width="48" height="48" fill="#D9D9D9"/>
</mask>
<g mask="url(#mask0_16773_2202)">
<path d="M23 35.5385H25V26.15L29.2 30.35L30.6155 28.923L24 22.3075L17.3845 28.923L18.8115 30.3385L23 26.15V35.5385ZM13.231 42C12.3103 42 11.5417 41.6917 10.925 41.075C10.3083 40.4583 10 39.6897 10 38.769V9.231C10 8.31033 10.3083 7.54167 10.925 6.925C11.5417 6.30833 12.3103 6 13.231 6H29L38 15V38.769C38 39.6897 37.6917 40.4583 37.075 41.075C36.4583 41.6917 35.6897 42 34.769 42H13.231ZM28 16V8H13.231C12.923 8 12.6408 8.12817 12.3845 8.3845C12.1282 8.64083 12 8.923 12 9.231V38.769C12 39.077 12.1282 39.3592 12.3845 39.6155C12.6408 39.8718 12.923 40 13.231 40H34.769C35.077 40 35.3592 39.8718 35.6155 39.6155C35.8718 39.3592 36 39.077 36 38.769V16H28Z" fill="currentColor" fill-opacity="0.61"/>
</g>
</svg>
