<svg width="28" height="20" viewBox="0 0 28 20" fill="none" xmlns="http://www.w3.org/2000/svg">
<rect width="28" height="20" rx="2" fill="white"/>
<mask id="mask0_16378_5574" style="mask-type:luminance" maskUnits="userSpaceOnUse" x="0" y="0" width="28" height="20">
<rect width="28" height="20" rx="2" fill="white"/>
</mask>
<g mask="url(#mask0_16378_5574)">
<path fill-rule="evenodd" clip-rule="evenodd" d="M0 6.66667H28V0H0V6.66667Z" fill="#24AAD5"/>
<path fill-rule="evenodd" clip-rule="evenodd" d="M0 20H28V13.3333H0V20Z" fill="#21BF75"/>
<path fill-rule="evenodd" clip-rule="evenodd" d="M0 13.3333H28V6.66667H0V13.3333Z" fill="#ED1845"/>
<g filter="url(#filter0_d_16378_5574)">
<path d="M14 8C14.4122 8 14.795 8.12513 15.1133 8.33887C15.0758 8.33635 15.0381 8.33301 15 8.33301C14.0795 8.33301 13.333 9.07953 13.333 10C13.333 10.9205 14.0795 11.667 15 11.667C15.0381 11.667 15.0758 11.6627 15.1133 11.6602C14.7949 11.8741 14.4124 12 14 12C12.8954 12 12 11.1046 12 10C12 8.89543 12.8954 8 14 8ZM15.333 9.33301C15.7012 9.33301 16 9.63181 16 10C16 10.3682 15.7012 10.667 15.333 10.667C14.965 10.6668 14.667 10.3681 14.667 10C14.667 9.63192 14.965 9.33318 15.333 9.33301Z" fill="white"/>
</g>
</g>
<defs>
<filter id="filter0_d_16378_5574" x="12" y="8" width="4" height="5" filterUnits="userSpaceOnUse" color-interpolation-filters="sRGB">
<feFlood flood-opacity="0" result="BackgroundImageFix"/>
<feColorMatrix in="SourceAlpha" type="matrix" values="0 0 0 0 0 0 0 0 0 0 0 0 0 0 0 0 0 0 127 0" result="hardAlpha"/>
<feOffset dy="1"/>
<feColorMatrix type="matrix" values="0 0 0 0 0 0 0 0 0 0 0 0 0 0 0 0 0 0 0.06 0"/>
<feBlend mode="normal" in2="BackgroundImageFix" result="effect1_dropShadow_16378_5574"/>
<feBlend mode="normal" in="SourceGraphic" in2="effect1_dropShadow_16378_5574" result="shape"/>
</filter>
</defs>
</svg>
