<svg width="28" height="20" viewBox="0 0 28 20" fill="none" xmlns="http://www.w3.org/2000/svg">
<rect width="28" height="20" rx="2" fill="white"/>
<mask id="mask0_16378_5626" style="mask-type:luminance" maskUnits="userSpaceOnUse" x="0" y="0" width="28" height="20">
<rect width="28" height="20" rx="2" fill="white"/>
</mask>
<g mask="url(#mask0_16378_5626)">
<rect width="28" height="20" fill="#E4233B"/>
<path fill-rule="evenodd" clip-rule="evenodd" d="M0 0L12 10L0 20V0Z" fill="#34CD4E"/>
<path fill-rule="evenodd" clip-rule="evenodd" d="M28 0L16 10L28 20V0Z" fill="#34CD4E"/>
<path d="M30.7732 0.294495L18.4539 8.60309C18.592 9.04402 18.6667 9.51309 18.6668 9.99957C18.6668 10.4857 18.5908 10.9544 18.4529 11.3951L30.7732 19.7056L29.282 21.9166L16.9617 13.606C16.156 14.2686 15.1244 14.6666 13.9998 14.6666C12.875 14.6665 11.8437 14.2679 11.0379 13.605L-1.28244 21.9166L-2.77365 19.7056L9.54471 11.3951C9.40693 10.9546 9.33377 10.4854 9.33377 9.99957C9.33381 9.51324 9.40663 9.04391 9.54471 8.60309L-2.77365 0.294495L-1.28244 -1.91644L11.0379 6.39313C11.8435 5.73072 12.8754 5.33361 13.9998 5.33356C15.1239 5.33356 16.1551 5.73109 16.9607 6.39313L29.282 -1.91644L30.7732 0.294495Z" fill="white"/>
<path d="M12.6666 11.3336L12.9429 12.2759L11.9996 11.9996L11.0572 12.2759L11.3336 11.3336L11.0572 10.3902L11.9996 10.6666L12.9429 10.3902L12.6666 11.3336ZM16.6666 11.3336L16.9429 12.2759L15.9996 11.9996L15.0572 12.2759L15.3336 11.3336L15.0572 10.3902L15.9996 10.6666L16.9429 10.3902L16.6666 11.3336ZM14.6666 7.99957L14.9429 8.94293L13.9996 8.66656L13.0572 8.94293L13.3336 7.99957L13.0572 7.05719L13.9996 7.33356L14.9429 7.05719L14.6666 7.99957Z" fill="#DF2239"/>
</g>
</svg>
