<svg width="28" height="20" viewBox="0 0 28 20" fill="none" xmlns="http://www.w3.org/2000/svg">
<rect width="28" height="20" rx="2" fill="white"/>
<mask id="mask0_16378_5675" style="mask-type:luminance" maskUnits="userSpaceOnUse" x="0" y="0" width="28" height="20">
<rect width="28" height="20" rx="2" fill="white"/>
</mask>
<g mask="url(#mask0_16378_5675)">
<path fill-rule="evenodd" clip-rule="evenodd" d="M0 13.3333H28V0H0V13.3333Z" fill="#E54252"/>
<path fill-rule="evenodd" clip-rule="evenodd" d="M0 20H28V13.3333H0V20Z" fill="#5CBE6B"/>
<path d="M4 3L3.33301 4L4 5V7L3.33301 8L4 9V11L3.33301 12L4 13V15L3.33301 16L4 17V20H0V0H4V3Z" fill="white"/>
<path d="M0.666992 16L-0.666992 18L-2 16L-0.666992 14L0.666992 16ZM0.666992 12L-0.666992 14L-2 12L-0.666992 10L0.666992 12ZM0.666992 8L-0.666992 10L-2 8L-0.666992 6L0.666992 8ZM0.666992 4L-0.666992 6L-2 4L-0.666992 2L0.666992 4Z" fill="#E54252"/>
<path d="M3.33368 18L1.99969 20L0.666687 18L1.99969 16L3.33368 18ZM3.33368 14L1.99969 16L0.666687 14L1.99969 12L3.33368 14ZM3.33368 10L1.99969 12L0.666687 10L1.99969 8L3.33368 10ZM3.33368 6L1.99969 8L0.666687 6L1.99969 4L3.33368 6ZM3.33368 2L1.99969 4L0.666687 2L1.99969 0L3.33368 2Z" fill="#E54252"/>
</g>
</svg>
