<svg width="28" height="20" viewBox="0 0 28 20" fill="none" xmlns="http://www.w3.org/2000/svg">
<rect width="28" height="20" rx="2" fill="white"/>
<mask id="mask0_16378_7416" style="mask-type:luminance" maskUnits="userSpaceOnUse" x="0" y="0" width="28" height="20">
<rect width="28" height="20" rx="2" fill="white"/>
</mask>
<g mask="url(#mask0_16378_7416)">
<rect width="28" height="20" fill="#19BFBF"/>
<path d="M17 2.66663C17.184 2.66663 17.3328 2.81569 17.333 2.99963V3.86194C17.333 3.95033 17.2979 4.03479 17.2354 4.09729L17.1699 4.1637C16.9704 4.36345 17.0939 4.7052 17.375 4.73108L23.5137 5.2887C23.7475 5.30996 23.8862 5.56018 23.7812 5.77014L23.4258 6.48206C23.3693 6.59498 23.2532 6.66663 23.127 6.66663H21.4717C21.3833 6.66663 21.2979 6.70177 21.2354 6.76428L20.3818 7.61877C20.2066 7.79399 20.2766 8.09217 20.5117 8.17053L21.8691 8.62268C21.9528 8.65059 22.022 8.71083 22.0615 8.78967L22.5176 9.70178C22.5999 9.86644 22.5328 10.0667 22.3682 10.149L21.6318 10.5172C21.4673 10.5995 21.4003 10.7999 21.4824 10.9645L21.7842 11.569C21.8829 11.7671 21.7391 11.9996 21.5176 11.9996C21.4048 11.9996 21.3015 11.9364 21.251 11.8356L20.873 11.0807C20.7713 10.8772 20.5007 10.8329 20.3398 10.9938L19.5693 11.7643C19.4392 11.8945 19.4392 12.1058 19.5693 12.236L19.9023 12.569C19.9648 12.6314 19.9999 12.7161 20 12.8043V13.7936C20 13.9198 19.9284 14.0359 19.8154 14.0924L18.7373 14.6315C18.691 14.6546 18.6396 14.6666 18.5879 14.6666H17.4717C17.3833 14.6666 17.2979 14.7018 17.2354 14.7643L16.9023 15.0973C16.7722 15.2275 16.7722 15.4388 16.9023 15.569L17.2354 15.902C17.2979 15.9645 17.333 16.0499 17.333 16.1383V16.7936C17.333 17.0414 17.0722 17.2032 16.8506 17.0924L16.0488 16.691C16.0169 16.6751 15.9872 16.6538 15.9619 16.6285L14.7051 15.3717C14.6797 15.3464 14.6586 15.3168 14.6426 15.2848L14.332 14.6637C14.2034 14.4066 13.8315 14.4222 13.7246 14.6891L12.75 17.1237C12.6994 17.25 12.5775 17.3334 12.4414 17.3336H12.1787C12.0674 17.3336 11.9632 17.2777 11.9014 17.1852L10.7227 15.4176C10.6862 15.3628 10.667 15.2979 10.667 15.2321V14.2604C10.667 14.1074 10.5625 13.9742 10.4141 13.9371L8.41406 13.4371C8.20369 13.3846 8 13.5435 8 13.7604V13.7936C8 13.9198 8.07164 14.0359 8.18457 14.0924L8.91992 14.4596C9.12333 14.5614 9.16671 14.8329 9.00586 14.9938L8.66699 15.3336L7.50293 16.4967C7.40147 16.5981 7.24644 16.6233 7.11816 16.5592L6.12305 16.0621C6.04407 16.0226 5.98399 15.9526 5.95605 15.8688L5.35059 14.0514C5.33926 14.0174 5.33301 13.9817 5.33301 13.9459V13.4713C5.33302 13.3831 5.36835 13.2984 5.43066 13.236L5.61816 13.0485C5.79338 12.8732 5.72336 12.5741 5.48828 12.4957L4.22754 12.0758C4.09164 12.0303 4 11.9027 4 11.7594V10.9996C4.00018 10.8158 4.14917 10.6668 4.33301 10.6666H5.9209C5.97262 10.6666 6.02405 10.6787 6.07031 10.7018L7.03516 11.1842C7.19982 11.2665 7.40009 11.1994 7.48242 11.0348L7.85059 10.2985C7.93286 10.1339 7.86655 9.93364 7.70215 9.8512L5.63184 8.81604C5.46725 8.73375 5.40027 8.53339 5.48242 8.36877L5.93848 7.45667C5.97788 7.37774 5.98387 7.28647 5.95605 7.20276L5.58789 6.09631C5.49439 5.81486 5.78733 5.56067 6.05273 5.69299L6.55664 5.94495C6.62768 5.98039 6.7091 5.98954 6.78613 5.97034L9.33301 5.33362L11.9102 4.68909C11.9688 4.67443 12.0227 4.64392 12.0654 4.6012L13.9023 2.76428C13.9648 2.70186 14.0494 2.66673 14.1377 2.66663H17ZM14 15.9996C14.3682 15.9996 14.667 16.2984 14.667 16.6666C14.667 17.0348 14.3682 17.3336 14 17.3336C13.6318 17.3336 13.333 17.0348 13.333 16.6666C13.333 16.2984 13.6318 15.9996 14 15.9996ZM22.9209 11.9996C23.1896 11.9996 23.2754 12.3618 23.0352 12.4821L22.667 12.6666L23.333 13.3336L22.7588 14.4821C22.7024 14.5949 22.5871 14.6665 22.4609 14.6666H22.1377C21.841 14.6663 21.6924 14.3072 21.9023 14.0973L22.667 13.3336V12.2545C22.667 12.1141 22.7805 11.9999 22.9209 11.9996ZM10 9.33362C9.63192 9.33362 9.33318 9.63159 9.33301 9.99963C9.33301 10.3678 9.63181 10.6666 10 10.6666C10.3682 10.6666 10.667 10.3678 10.667 9.99963C10.6668 9.63159 10.3681 9.33362 10 9.33362Z" fill="white"/>
</g>
</svg>
