<svg width="28" height="20" viewBox="0 0 28 20" fill="none" xmlns="http://www.w3.org/2000/svg">
<rect width="28" height="20" rx="2" fill="white"/>
<mask id="mask0_16378_7407" style="mask-type:luminance" maskUnits="userSpaceOnUse" x="0" y="0" width="28" height="20">
<rect width="28" height="20" rx="2" fill="white"/>
</mask>
<g mask="url(#mask0_16378_7407)">
<rect width="28" height="20" fill="#19BFBF"/>
<path d="M18.4606 2.66663C18.5869 2.66663 18.702 2.73827 18.7585 2.8512L19.2985 3.92932C19.3217 3.97561 19.3337 4.02699 19.3337 4.07874V5.86194C19.3337 5.95033 19.3688 6.03479 19.4313 6.09729L19.8542 6.52112C19.9434 6.61034 19.9751 6.74222 19.9352 6.86194L19.4138 8.42542C19.3664 8.56793 19.4206 8.72491 19.5456 8.80823L21.3337 9.99963L22.3288 10.4977C22.5081 10.5873 22.5689 10.8143 22.4577 10.9811L21.3893 12.5826C21.3529 12.6373 21.3337 12.7015 21.3337 12.7672V14.4264C21.3337 14.5699 21.2413 14.6974 21.1052 14.7428L19.4645 15.2897C19.3807 15.3176 19.3107 15.3776 19.2712 15.4567L18.6911 16.6178C18.6751 16.6498 18.6539 16.6794 18.6286 16.7047L17.569 17.7643C17.4389 17.8944 17.2275 17.8944 17.0974 17.7643L16.0554 16.7223C16.0189 16.6858 15.9916 16.6413 15.9753 16.5924L15.4089 14.8942C15.3635 14.7584 15.2366 14.6667 15.0934 14.6666C14.8768 14.6666 14.7176 14.8705 14.7702 15.0807L15.2878 17.15C15.3162 17.2635 15.2826 17.3836 15.1999 17.4664L14.902 17.7643C14.7719 17.8942 14.5615 17.8942 14.4313 17.7643L14.0974 17.4313C14.0348 17.3688 13.9997 17.2834 13.9997 17.1949V16.0787C13.9997 16.027 13.9877 15.9756 13.9645 15.9293L13.4255 14.8512C13.3691 14.7384 13.2538 14.6667 13.1276 14.6666H11.4118C11.3603 14.6667 11.3095 14.6788 11.2634 14.7018L10.1237 15.2711C10.0446 15.3107 9.98468 15.3806 9.95673 15.4645L9.37665 17.2028C9.34862 17.2864 9.28857 17.3557 9.20966 17.3951L8.14911 17.9254C8.05535 17.9723 7.94505 17.9722 7.85126 17.9254L6.85126 17.4254C6.73841 17.369 6.66679 17.2537 6.66669 17.1276V14.9996C6.66686 14.8158 6.81586 14.6668 6.99969 14.6666H8.33368C8.51752 14.6665 8.66651 14.5175 8.66669 14.3336V13.3873C8.66669 13.3515 8.67294 13.3158 8.68427 13.2819L9.25751 11.5612C9.30291 11.4251 9.43047 11.3336 9.57391 11.3336H10.5876C10.6393 11.3336 10.6908 11.3215 10.737 11.2985L11.9294 10.7018C11.9757 10.6786 12.027 10.6666 12.0788 10.6666H12.9997C13.1837 10.6666 13.3335 10.5176 13.3337 10.3336V10.1383C13.3337 10.0499 13.3688 9.96449 13.4313 9.90198L13.6725 9.66077C13.8334 9.49995 14.1049 9.54341 14.2067 9.7467L14.5749 10.4821C14.6314 10.595 14.7465 10.6666 14.8727 10.6666H16.4265C16.5698 10.6666 16.6974 10.575 16.7429 10.4391L17.2575 8.89417C17.303 8.75826 17.4306 8.66663 17.5739 8.66663H18.3337C18.5175 8.66645 18.6665 8.51745 18.6667 8.33362C18.6667 8.14963 18.5176 7.99981 18.3337 7.99963H17.6667C17.4826 7.99963 17.3337 7.85072 17.3337 7.66663V6.74573C17.3337 6.69398 17.3457 6.6426 17.3688 6.59631L17.8923 5.54846C17.9564 5.42013 17.9312 5.26515 17.8298 5.1637L17.569 4.90198C17.4388 4.772 17.2275 4.77189 17.0974 4.90198L16.0974 5.90198C16.0348 5.96449 15.9997 6.0499 15.9997 6.13831V7.27893C15.9997 7.31467 15.9944 7.35048 15.9831 7.3844L15.4089 9.1051C15.3635 9.24111 15.2368 9.33347 15.0934 9.33362H14.8044C14.7162 9.33352 14.6314 9.2983 14.569 9.23596L14.0964 8.76233C14.0349 8.70085 13.9997 8.61781 13.9997 8.53088C13.9997 8.28703 13.7432 8.12789 13.5251 8.23694L12.8815 8.5592C12.7532 8.62334 12.5982 8.59815 12.4968 8.4967L12.0974 8.09729C12.035 8.03482 11.9997 7.95018 11.9997 7.86194V6.80432C11.9998 6.71612 12.035 6.63138 12.0974 6.56897L13.3337 5.33362L15.278 3.38928C15.3146 3.3527 15.3588 3.32459 15.4079 3.30823L17.2819 2.6842C17.3159 2.67288 17.3516 2.66663 17.3874 2.66663H18.4606ZM11.3337 15.9996C11.7017 15.9998 11.9997 16.2985 11.9997 16.6666C11.9997 17.0347 11.7017 17.3334 11.3337 17.3336C10.9655 17.3336 10.6667 17.0348 10.6667 16.6666C10.6667 16.2984 10.9655 15.9996 11.3337 15.9996ZM8.66669 7.99963C9.03488 7.99963 9.33368 8.29844 9.33368 8.66663C9.33368 9.03482 9.03488 9.33362 8.66669 9.33362C8.2985 9.33362 7.99969 9.03482 7.99969 8.66663C7.99969 8.29844 8.2985 7.99963 8.66669 7.99963Z" fill="white"/>
<path fill-rule="evenodd" clip-rule="evenodd" d="M9.96479 8.73701C9.98793 8.69072 9.99998 8.63969 9.99998 8.58794V8.07865C9.99998 8.0269 9.98793 7.97586 9.96479 7.92958L9.57452 7.14903C9.4637 6.9274 9.62486 6.66663 9.87266 6.66663H10.3333C10.5174 6.66663 10.6666 6.81586 10.6666 6.99996V8.58794C10.6666 8.63969 10.6787 8.69072 10.7018 8.73701L11.0921 9.51755C11.2029 9.73919 11.0418 9.99996 10.794 9.99996H9.87266C9.62486 9.99996 9.4637 9.73919 9.57452 9.51755L9.96479 8.73701Z" fill="white"/>
</g>
</svg>
