<svg width="28" height="20" viewBox="0 0 28 20" fill="none" xmlns="http://www.w3.org/2000/svg">
<rect width="28" height="20" rx="2" fill="white"/>
<mask id="mask0_16378_7427" style="mask-type:luminance" maskUnits="userSpaceOnUse" x="0" y="0" width="28" height="20">
<rect width="28" height="20" rx="2" fill="white"/>
</mask>
<g mask="url(#mask0_16378_7427)">
<rect width="28" height="20" fill="url(#paint0_linear_16378_7427)"/>
<path d="M18.9019 17.7643C18.7718 17.8942 18.5613 17.8942 18.4312 17.7643L17.9996 17.3336H19.3336L18.9019 17.7643ZM17.8111 2.66663C17.9282 2.66663 18.037 2.72833 18.0972 2.82874L19.9996 5.99963L22.6109 9.91565C22.6474 9.97041 22.6666 10.0354 22.6666 10.1012V12.566C22.6665 12.6317 22.6473 12.696 22.6109 12.7506L20.0992 16.5182C20.0374 16.6109 19.9332 16.6666 19.8218 16.6666H17.4537C17.3759 16.6665 17.3006 16.6392 17.2408 16.5895L13.4263 13.4108C13.3664 13.3608 13.2904 13.3336 13.2125 13.3336H10.7457C10.6939 13.3336 10.6425 13.3456 10.5963 13.3688L6.88141 15.2262C6.75316 15.2902 6.59803 15.265 6.49664 15.1637L5.43121 14.0973C5.36873 14.0348 5.33357 13.9503 5.33356 13.8619V12.1012C5.33356 12.0354 5.31342 11.9704 5.27692 11.9156L4.10699 10.1608C4.04079 10.0613 4.03304 9.93368 4.08649 9.82678L5.28375 7.43225C5.31602 7.36791 5.36878 7.31601 5.43317 7.28381L7.96735 6.01624C7.98907 6.00538 8.01214 5.99674 8.03571 5.99084L10.6011 5.34924C10.6442 5.33847 10.6847 5.31925 10.7203 5.2926L13.2447 3.40002C13.3024 3.35681 13.3728 3.33362 13.4449 3.33362H13.7935C13.9197 3.33362 14.0358 3.4044 14.0923 3.51721L14.5748 4.48206C14.6312 4.59496 14.7464 4.6666 14.8726 4.66663H16.4605C16.5868 4.66663 16.7019 4.59498 16.7584 4.48206L17.2369 3.52698C17.2945 3.41136 17.2715 3.27174 17.1802 3.1803C16.9908 2.99084 17.1252 2.66663 17.3931 2.66663H17.8111Z" fill="white"/>
</g>
<defs>
<linearGradient id="paint0_linear_16378_7427" x1="0" y1="0" x2="0" y2="20" gradientUnits="userSpaceOnUse">
<stop stop-color="#19BFBF"/>
<stop offset="1" stop-color="#10ACAC"/>
</linearGradient>
</defs>
</svg>
