<svg width="28" height="20" viewBox="0 0 28 20" fill="none" xmlns="http://www.w3.org/2000/svg">
<rect x="0.25" y="0.25" width="27.5" height="19.5" rx="1.75" fill="white" stroke="#F5F5F5" stroke-width="0.5"/>
<mask id="mask0_16378_5863" style="mask-type:luminance" maskUnits="userSpaceOnUse" x="0" y="0" width="28" height="20">
<rect x="0.25" y="0.25" width="27.5" height="19.5" rx="1.75" fill="white" stroke="white" stroke-width="0.5"/>
</mask>
<g mask="url(#mask0_16378_5863)">
<path fill-rule="evenodd" clip-rule="evenodd" d="M20 3.33334C20.3631 3.15179 20.7317 3.56924 20.5065 3.90702L20.0673 4.5658C20.0229 4.63239 19.9658 4.68953 19.8992 4.73392L18.055 5.96339C18.0184 5.98774 17.9844 6.01564 17.9534 6.04668L17.8048 6.19527C17.5444 6.45562 17.5444 6.87773 17.8048 7.13808L18.1953 7.5286C18.4557 7.78895 18.4557 8.21106 18.1953 8.47141L17.6731 8.99357C17.4702 9.19648 17.1603 9.24678 16.9036 9.11845L16.5963 8.96481C16.267 8.80015 15.8666 8.93364 15.7019 9.26296L15.4569 9.75302C15.3778 9.91116 15.2391 10.0314 15.0714 10.0873L13.436 10.6325C13.368 10.6551 13.2968 10.6667 13.2252 10.6667H12.4121C12.1595 10.6667 11.9287 10.8093 11.8158 11.0352L11.6315 11.4037C11.4669 11.733 11.0664 11.8665 10.7371 11.7019L8.76347 10.7151C8.69938 10.683 8.64088 10.6408 8.59021 10.5902L7.52864 9.5286C7.40361 9.40358 7.33337 9.23401 7.33337 9.0572V8.47141C7.33337 8.21106 7.54443 8.00001 7.80478 8.00001C7.9298 8.00001 8.04971 7.95034 8.13811 7.86193L9.13811 6.86193C9.26314 6.73691 9.43271 6.66667 9.60952 6.66667H10.1862C10.4732 6.66667 10.7279 6.48305 10.8187 6.21082L11.1473 5.22499C11.2536 4.90603 11.5808 4.71615 11.9105 4.78209L14.5197 5.30394C14.6165 5.3233 14.7164 5.32092 14.8121 5.29698L17.2624 4.68442C17.3096 4.67262 17.3553 4.6557 17.3988 4.63394L18.6667 4.00001L20 3.33334Z" fill="#E7832C"/>
<path fill-rule="evenodd" clip-rule="evenodd" d="M14 16C14.3682 16 14.6667 15.7015 14.6667 15.3333C14.6667 14.9651 14.3682 14.6667 14 14.6667C13.6319 14.6667 13.3334 14.9651 13.3334 15.3333C13.3334 15.7015 13.6319 16 14 16Z" fill="#445128"/>
<path opacity="0.75" d="M16 14.6667C16 14.6667 18 14 18.6667 12.6667" stroke="#445128" stroke-width="1.33333" stroke-linecap="round"/>
<path opacity="0.75" d="M12 14.6667C12 14.6667 10 14 9.33333 12.6667" stroke="#445128" stroke-width="1.33333" stroke-linecap="round"/>
</g>
</svg>
