<svg width="28" height="20" viewBox="0 0 28 20" fill="none" xmlns="http://www.w3.org/2000/svg">
<rect x="0.25" y="0.25" width="27.5" height="19.5" rx="1.75" fill="white" stroke="#F5F5F5" stroke-width="0.5"/>
<mask id="mask0_16378_5875" style="mask-type:luminance" maskUnits="userSpaceOnUse" x="0" y="0" width="28" height="20">
<rect x="0.25" y="0.25" width="27.5" height="19.5" rx="1.75" fill="white" stroke="white" stroke-width="0.5"/>
</mask>
<g mask="url(#mask0_16378_5875)">
<path d="M0 12H8V20H2C0.895431 20 1.61067e-08 19.1046 0 18V12ZM28 18C28 19.1046 27.1046 20 26 20H12V12H28V18ZM8 0V8H0V2C2.57706e-07 0.895431 0.895431 4.83192e-08 2 0H8ZM26 0C27.1046 3.86553e-07 28 0.895431 28 2V8H12V0H26Z" fill="#EF264D"/>
</g>
</svg>
