<svg width="28" height="20" viewBox="0 0 28 20" fill="none" xmlns="http://www.w3.org/2000/svg">
<rect width="28" height="20" rx="2" fill="white"/>
<mask id="mask0_16378_5888" style="mask-type:luminance" maskUnits="userSpaceOnUse" x="0" y="0" width="28" height="20">
<rect width="28" height="20" rx="2" fill="white"/>
</mask>
<g mask="url(#mask0_16378_5888)">
<path fill-rule="evenodd" clip-rule="evenodd" d="M0 8H28V0H0V8Z" fill="#108753"/>
<path fill-rule="evenodd" clip-rule="evenodd" d="M0 20H28V12H0V20Z" fill="#108753"/>
<path d="M16 0V8H28V12H16V20H12V12H0V8H12V0H16Z" fill="white"/>
<path d="M14.667 0V9.33301H28V10.667H14.667V20H13.333V10.667H0V9.33301H13.333V0H14.667Z" fill="#262626"/>
<path d="M13.333 0V8H28V9.33301H13.333V20H12V9.33301H0V8H12V0H13.333Z" fill="#FCD449"/>
<path fill-rule="evenodd" clip-rule="evenodd" d="M14 14.6667C16.5773 14.6667 18.6667 12.5773 18.6667 9.99999C18.6667 7.42267 16.5773 5.33333 14 5.33333C11.4227 5.33333 9.33334 7.42267 9.33334 9.99999C9.33334 12.5773 11.4227 14.6667 14 14.6667Z" fill="url(#paint0_linear_16378_5888)"/>
<path fill-rule="evenodd" clip-rule="evenodd" d="M14 13.3333C15.8409 13.3333 17.3333 11.841 17.3333 10C17.3333 8.15906 15.8409 6.66667 14 6.66667C12.159 6.66667 10.6667 8.15906 10.6667 10C10.6667 11.841 12.159 13.3333 14 13.3333Z" stroke="#0E673F" stroke-width="1.33333" stroke-linecap="round" stroke-dasharray="0.67 2.67"/>
<path fill-rule="evenodd" clip-rule="evenodd" d="M14 11.3333C14.7364 11.3333 14.6667 10.7364 14.6667 10C14.6667 9.26363 14.7364 8.66667 14 8.66667C13.2636 8.66667 13.3333 9.26363 13.3333 10C13.3333 10.7364 13.2636 11.3333 14 11.3333Z" fill="#0E673F"/>
</g>
<defs>
<linearGradient id="paint0_linear_16378_5888" x1="9.33334" y1="5.33333" x2="9.33334" y2="14.6667" gradientUnits="userSpaceOnUse">
<stop stop-color="#E02C42"/>
<stop offset="1" stop-color="#D22036"/>
</linearGradient>
</defs>
</svg>
