<svg width="28" height="20" viewBox="0 0 28 20" fill="none" xmlns="http://www.w3.org/2000/svg">
<rect width="28" height="20" rx="2" fill="white"/>
<mask id="mask0_16378_5928" style="mask-type:luminance" maskUnits="userSpaceOnUse" x="0" y="0" width="28" height="20">
<rect width="28" height="20" rx="2" fill="white"/>
</mask>
<g mask="url(#mask0_16378_5928)">
<path fill-rule="evenodd" clip-rule="evenodd" d="M0 14.6667H28V9.33333H0V14.6667Z" fill="#0748AE"/>
<path fill-rule="evenodd" clip-rule="evenodd" d="M0 20H28V14.6667H0V20Z" fill="#DE2035"/>
<path fill-rule="evenodd" clip-rule="evenodd" d="M0 9.33333H28V0H0V9.33333Z" fill="#FFD935"/>
<path d="M15.599 8.00293C16.2462 8.48947 16.6664 9.26169 16.6664 10.1338C16.6662 11.6063 15.4728 12.7996 14.0003 12.7998C12.5277 12.7998 11.3335 11.6064 11.3333 10.1338C11.3333 9.26179 11.7536 8.48948 12.4007 8.00293L13.3333 10.7998H14.6664L15.599 8.00293Z" fill="#FFD935"/>
<path fill-rule="evenodd" clip-rule="evenodd" d="M14 7.33333L14.6667 10.6667H13.3333L14 7.33333Z" fill="#5FC0DC"/>
<path opacity="0.66" d="M17.3333 5.99999L15.3333 5.33333L14 6.66666L12.6667 5.33333L10.6667 5.99999" stroke="#3F2821" stroke-width="0.666667" stroke-linecap="round" stroke-linejoin="round"/>
</g>
</svg>
