<svg width="28" height="20" viewBox="0 0 28 20" fill="none" xmlns="http://www.w3.org/2000/svg">
<rect x="0.25" y="0.25" width="27.5" height="19.5" rx="1.75" fill="white" stroke="#F5F5F5" stroke-width="0.5"/>
<mask id="mask0_16378_5939" style="mask-type:luminance" maskUnits="userSpaceOnUse" x="0" y="0" width="28" height="20">
<rect x="0.25" y="0.25" width="27.5" height="19.5" rx="1.75" fill="white" stroke="white" stroke-width="0.5"/>
</mask>
<g mask="url(#mask0_16378_5939)">
<path fill-rule="evenodd" clip-rule="evenodd" d="M0 6.66667H28V0H0V6.66667Z" fill="#E41D33"/>
<path fill-rule="evenodd" clip-rule="evenodd" d="M0 20H28V13.3333H0V20Z" fill="#262626"/>
<path d="M11.3336 8.33301H11.7936L12.3688 9.48242L12.653 10.0508L12.9586 9.49414C12.9589 9.49377 12.9591 9.49219 12.9596 9.49121C12.9607 9.48925 12.9631 9.48656 12.9655 9.48242C12.9703 9.47383 12.9771 9.46026 12.987 9.44336C13.0066 9.40956 13.0361 9.36077 13.0729 9.30176C13.1472 9.18286 13.2516 9.02617 13.3717 8.87109C13.4933 8.71413 13.6232 8.56922 13.7487 8.4668C13.8823 8.35777 13.9656 8.33316 13.9997 8.33301C14.057 8.33301 14.1507 8.36466 14.2809 8.46875C14.4065 8.56921 14.5337 8.71106 14.6501 8.86621C14.765 9.01945 14.8616 9.17516 14.9303 9.29297C14.9645 9.35154 14.9915 9.4002 15.0094 9.43359C15.0183 9.45024 15.0256 9.46331 15.0299 9.47168C15.0319 9.47554 15.0329 9.47865 15.0338 9.48047L15.0348 9.48242L15.3336 10.0791L15.6315 9.48242L16.2057 8.33301H16.6667C16.8508 8.33301 16.9997 8.4829 16.9997 8.66699V10.7539C16.9997 11.0201 16.7036 11.1789 16.4821 11.0312L15.5182 10.3896L15.4342 10.333H14.3336V11.333C14.3336 11.5171 14.1838 11.667 13.9997 11.667C13.8157 11.6668 13.6667 11.517 13.6667 11.333V10.333H12.5661L12.4821 10.3896L11.5182 11.0312C11.2967 11.1789 10.9997 11.0201 10.9997 10.7539V8.66699C10.9997 8.4829 11.1496 8.33301 11.3336 8.33301Z" fill="#F4B32E" fill-opacity="0.25" stroke="#C6A846" stroke-width="0.666667"/>
</g>
</svg>
