<svg width="28" height="20" viewBox="0 0 28 20" fill="none" xmlns="http://www.w3.org/2000/svg">
<rect width="28" height="20" rx="2" fill="white"/>
<mask id="mask0_16378_7363" style="mask-type:luminance" maskUnits="userSpaceOnUse" x="0" y="0" width="28" height="20">
<rect width="28" height="20" rx="2" fill="white"/>
</mask>
<g mask="url(#mask0_16378_7363)">
<rect width="28" height="20" fill="#043CAE"/>
<path d="M14.6669 16.6669L14.9433 17.6093L13.9999 17.3329L13.0575 17.6093L13.3329 16.6669L13.0575 15.7235L13.9999 15.9999L14.9433 15.7235L14.6669 16.6669ZM11.3329 15.7733L11.6093 16.7167L10.6669 16.4403L9.72354 16.7167L9.99991 15.7733L9.72354 14.8309L10.6669 15.1073L11.6093 14.8309L11.3329 15.7733ZM17.9999 15.7733L18.2763 16.7167L17.3329 16.4403L16.3905 16.7167L16.6669 15.7733L16.3905 14.8309L17.3329 15.1073L18.2763 14.8309L17.9999 15.7733ZM8.89346 13.3329L9.16885 14.2762L8.22647 13.9999L7.28409 14.2762L7.55948 13.3329L7.28409 12.3905L8.22647 12.6669L9.16885 12.3905L8.89346 13.3329ZM20.4403 13.3329L20.7167 14.2762L19.7733 13.9999L18.831 14.2762L19.1073 13.3329L18.831 12.3905L19.7733 12.6669L20.7167 12.3905L20.4403 13.3329ZM7.99991 9.99988L8.27628 10.9432L7.33292 10.6669L6.39053 10.9432L6.6669 9.99988L6.39053 9.0575L7.33292 9.33289L8.27628 9.0575L7.99991 9.99988ZM21.3329 9.99988L21.6093 10.9432L20.6669 10.6669L19.7235 10.9432L19.9999 9.99988L19.7235 9.0575L20.6669 9.33289L21.6093 9.0575L21.3329 9.99988ZM8.89346 6.66687L9.16885 7.60925L8.22647 7.33289L7.28409 7.60925L7.55948 6.66687L7.28409 5.72351L8.22647 5.99988L9.16885 5.72351L8.89346 6.66687ZM20.4403 6.66687L20.7167 7.60925L19.7733 7.33289L18.831 7.60925L19.1073 6.66687L18.831 5.72351L19.7733 5.99988L20.7167 5.72351L20.4403 6.66687ZM11.3329 4.22644L11.6093 5.16882L10.6669 4.89343L9.72354 5.16882L9.99991 4.22644L9.72354 3.28406L10.6669 3.55945L11.6093 3.28406L11.3329 4.22644ZM17.9999 4.22644L18.2763 5.16882L17.3329 4.89343L16.3905 5.16882L16.6669 4.22644L16.3905 3.28406L17.3329 3.55945L18.2763 3.28406L17.9999 4.22644ZM14.6669 3.33289L14.9433 4.27625L13.9999 3.99988L13.0575 4.27625L13.3329 3.33289L13.0575 2.3905L13.9999 2.66687L14.9433 2.3905L14.6669 3.33289Z" fill="#FFD429"/>
</g>
</svg>
