<svg width="28" height="20" viewBox="0 0 28 20" fill="none" xmlns="http://www.w3.org/2000/svg">
<rect width="28" height="20" rx="2" fill="white"/>
<mask id="mask0_16378_6017" style="mask-type:luminance" maskUnits="userSpaceOnUse" x="0" y="0" width="28" height="20">
<rect width="28" height="20" rx="2" fill="white"/>
</mask>
<g mask="url(#mask0_16378_6017)">
<rect width="28" height="20" fill="#95CEF5"/>
<path d="M14.6422 14.4492L16.5358 14.5098L15.0397 15.6709L15.567 17.4902L13.9997 16.4268L12.4323 17.4902L12.9606 15.6709L11.4635 14.5098L13.3571 14.4492L13.9997 12.667L14.6422 14.4492ZM9.30923 9.11523L11.2028 9.17578L9.7067 10.3379L10.234 12.1572L8.66666 11.0938L7.09927 12.1572L7.62662 10.3379L6.13052 9.17578L8.02408 9.11523L8.66666 7.33301L9.30923 9.11523ZM19.9762 9.11523L21.8698 9.17578L20.3727 10.3379L20.901 12.1572L19.3336 11.0938L17.7663 12.1572L18.2936 10.3379L16.7975 9.17578L18.6911 9.11523L19.3336 7.33301L19.9762 9.11523ZM14.6422 3.78223L16.5358 3.84277L15.0397 5.00488L15.567 6.82422L13.9997 5.75977L12.4323 6.82422L12.9606 5.00488L11.4635 3.84277L13.3571 3.78223L13.9997 2L14.6422 3.78223Z" fill="white"/>
</g>
</svg>
