<svg width="28" height="20" viewBox="0 0 28 20" fill="none" xmlns="http://www.w3.org/2000/svg">
<rect x="0.25" y="0.25" width="27.5" height="19.5" rx="1.75" fill="white" stroke="#F5F5F5" stroke-width="0.5"/>
<mask id="mask0_16378_6059" style="mask-type:luminance" maskUnits="userSpaceOnUse" x="0" y="0" width="28" height="20">
<rect x="0.25" y="0.25" width="27.5" height="19.5" rx="1.75" fill="white" stroke="white" stroke-width="0.5"/>
</mask>
<g mask="url(#mask0_16378_6059)">
<path d="M15.9997 -1.33334V7.99966H29.3337V11.9997H15.9997V21.3336H11.9997V11.9997H-1.33331V7.99966H11.9997V-1.33334H15.9997Z" fill="#FF2B37"/>
<path d="M22.3994 3.59961L24 3.33301V4.66699L22.3994 4.39941L22.667 6H21.333L21.5996 4.39941L20 4.66699V3.33301L21.5996 3.59961L21.333 2H22.667L22.3994 3.59961Z" fill="#FD0D1B"/>
<path d="M6.39941 3.59961L8 3.33301V4.66699L6.39941 4.39941L6.66699 6H5.33301L5.59961 4.39941L4 4.66699V3.33301L5.59961 3.59961L5.33301 2H6.66699L6.39941 3.59961Z" fill="#FD0D1B"/>
<path d="M6.39941 15.5996L8 15.333V16.667L6.39941 16.3994L6.66699 18H5.33301L5.59961 16.3994L4 16.667V15.333L5.59961 15.5996L5.33301 14H6.66699L6.39941 15.5996Z" fill="#FD0D1B"/>
<path d="M22.3994 15.5996L24 15.333V16.667L22.3994 16.3994L22.667 18H21.333L21.5996 16.3994L20 16.667V15.333L21.5996 15.5996L21.333 14H22.667L22.3994 15.5996Z" fill="#FD0D1B"/>
</g>
</svg>
