<svg width="28" height="20" viewBox="0 0 28 20" fill="none" xmlns="http://www.w3.org/2000/svg">
<rect width="28" height="20" rx="2" fill="white"/>
<mask id="mask0_16378_6219" style="mask-type:luminance" maskUnits="userSpaceOnUse" x="0" y="0" width="28" height="20">
<rect width="28" height="20" rx="2" fill="white"/>
</mask>
<g mask="url(#mask0_16378_6219)">
<path fill-rule="evenodd" clip-rule="evenodd" d="M0 20H28V0H0V20Z" fill="#F0371D"/>
<path d="M14.8409 10.6813C15.891 10.3409 17.1114 11.1994 17.5665 12.5993C18.0215 13.9997 17.5384 15.4119 16.4884 15.7536C16.0974 14.5511 15.4245 14.6357 15.2364 14.0573C15.0059 13.3479 14.9469 13.1662 15.252 11.9489C15.5563 10.7322 14.3231 10.8496 14.8409 10.6813ZM12.7745 11.9684C14.0257 11.882 13.5334 10.7452 13.8526 11.1842C14.5017 12.0777 14.0621 13.5041 12.8712 14.3698C11.6797 15.2354 10.1875 15.2125 9.53818 14.319C10.5608 13.5756 10.2727 12.9617 10.7647 12.6042C11.3679 12.1659 11.5226 12.0544 12.7745 11.9684ZM12.0411 13.2272C11.933 13.0788 11.7241 13.0456 11.5753 13.153C11.4265 13.2611 11.3932 13.4699 11.5011 13.6188C11.6093 13.7676 11.818 13.8002 11.9669 13.692C12.115 13.5838 12.1487 13.3758 12.0411 13.2272ZM16.2227 13.0358C16.048 13.0927 15.9526 13.2809 16.0089 13.4557C16.0658 13.6307 16.2538 13.7264 16.4288 13.6696C16.6035 13.6125 16.6994 13.4245 16.6427 13.2497C16.5855 13.0754 16.3974 12.9794 16.2227 13.0358ZM8.754 7.26627C9.7771 8.00956 10.2717 7.54507 10.7638 7.90201C11.3676 8.34073 11.5215 8.4534 11.9903 9.61783C12.4592 10.7816 13.388 9.96107 13.0685 10.401C12.4192 11.2943 10.9277 11.3171 9.73642 10.4518C8.54508 9.58619 8.10493 8.15986 8.754 7.26627ZM17.3341 7.58658C18.8062 7.58688 19.9996 8.48254 20.0001 9.58658C18.7356 9.58669 18.6082 10.2533 18.0001 10.2536C17.2539 10.2536 17.0638 10.2531 16.0001 9.58658C14.9365 8.92042 14.6671 10.1309 14.6671 9.58658C14.6676 8.48235 15.8616 7.58658 17.3341 7.58658ZM10.4923 8.84341C10.3436 8.73554 10.1357 8.7683 10.0274 8.91666C9.91934 9.06553 9.95193 9.27425 10.1007 9.38248C10.2496 9.4906 10.4583 9.4571 10.5665 9.30826C10.6741 9.15939 10.6409 8.95149 10.4923 8.84341ZM12.4942 6.25943C12.9494 4.85911 14.1695 4.00042 15.2198 4.34146C14.8289 5.54458 15.4244 5.87118 15.2364 6.44986C15.0058 7.15973 14.9471 7.3404 13.9845 8.14615C13.0219 8.95184 14.0896 9.58167 13.5724 9.41373C12.5219 9.07241 12.0392 7.66007 12.4942 6.25943ZM17.6671 8.66568C17.4832 8.66568 17.3345 8.81591 17.3341 8.99966C17.3343 9.18358 17.4831 9.33267 17.6671 9.33267C17.8509 9.33245 17.9999 9.18344 18.0001 8.99966C17.9997 8.81605 17.8507 8.66591 17.6671 8.66568ZM14.044 6.06216C13.869 6.00528 13.68 6.10095 13.6231 6.27603C13.5662 6.45112 13.6629 6.63907 13.838 6.69595C14.013 6.75265 14.201 6.65708 14.2579 6.48209C14.3146 6.30719 14.2188 6.11919 14.044 6.06216Z" fill="white"/>
</g>
</svg>
