<svg width="28" height="20" viewBox="0 0 28 20" fill="none" xmlns="http://www.w3.org/2000/svg">
<rect x="0.25" y="0.25" width="27.5" height="19.5" rx="1.75" fill="white" stroke="#F5F5F5" stroke-width="0.5"/>
<mask id="mask0_16378_6176" style="mask-type:luminance" maskUnits="userSpaceOnUse" x="0" y="0" width="28" height="20">
<rect x="0.25" y="0.25" width="27.5" height="19.5" rx="1.75" fill="white" stroke="white" stroke-width="0.5"/>
</mask>
<g mask="url(#mask0_16378_6176)">
<path fill-rule="evenodd" clip-rule="evenodd" d="M0 6.66667H28V0H0V6.66667Z" fill="#FF202D"/>
<path opacity="0.5" d="M11.9997 5.33365V6.66666H10.6667V5.33365L11.3337 4.66666L11.9997 5.33365ZM14.6667 5.33365V6.66666H13.3337V5.33365L13.9997 4.66666L14.6667 5.33365ZM17.3337 5.33365V6.66666H15.9997V5.33365L16.6667 4.66666L17.3337 5.33365Z" fill="#1895DB"/>
<path opacity="0.5" d="M13.333 5.33365V6.66666H12V5.33365L12.667 4.66666L13.333 5.33365ZM16 5.33365V6.66666H14.667V5.33365L15.333 4.66666L16 5.33365Z" fill="#191F94"/>
<path fill-rule="evenodd" clip-rule="evenodd" d="M0 20H28V13.3333H0V20Z" fill="#2027AC"/>
<path d="M13.3337 14.6667H11.9997V13.3336H13.3337V14.6667ZM15.9997 14.6667H14.6667V13.3336H15.9997V14.6667ZM11.9997 13.3336H10.6667V11.9997H11.9997V13.3336ZM14.6667 13.3336H13.3337V11.9997H14.6667V13.3336ZM17.3337 13.3336H15.9997V11.9997H17.3337V13.3336ZM13.3337 11.9997H11.9997V10.6667H13.3337V11.9997ZM15.9997 11.9997H14.6667V10.6667H15.9997V11.9997ZM11.9997 10.6667H10.6667V9.33365H11.9997V10.6667ZM14.6667 10.6667H13.3337V9.33365H14.6667V10.6667ZM17.3337 10.6667H15.9997V9.33365H17.3337V10.6667ZM13.3337 9.33365H11.9997V7.99966H13.3337V9.33365ZM15.9997 9.33365H14.6667V7.99966H15.9997V9.33365ZM11.9997 7.99966H10.6667L11.3337 6.66666H11.9997V7.99966ZM14.6667 7.99966H13.3337V6.66666H14.6667V7.99966ZM17.3337 7.99966H15.9997V6.66666H16.6667L17.3337 7.99966Z" fill="url(#paint0_linear_16378_6176)"/>
</g>
<defs>
<linearGradient id="paint0_linear_16378_6176" x1="10.6667" y1="6.66666" x2="10.6667" y2="14.6667" gradientUnits="userSpaceOnUse">
<stop stop-color="#FF212E"/>
<stop offset="1" stop-color="#FD0D1B"/>
</linearGradient>
</defs>
</svg>
