<svg width="28" height="20" viewBox="0 0 28 20" fill="none" xmlns="http://www.w3.org/2000/svg">
<rect width="28" height="20" rx="2" fill="#D01129"/>
<mask id="mask0_16378_7537" style="mask-type:luminance" maskUnits="userSpaceOnUse" x="0" y="0" width="28" height="20">
<rect width="28" height="20" rx="2" fill="white"/>
</mask>
<g mask="url(#mask0_16378_7537)">
<path fill-rule="evenodd" clip-rule="evenodd" d="M13.8882 10.0409C14.5491 10.0409 15.0849 9.47829 15.0849 8.78447C15.0849 8.09052 14.5491 7.52795 13.8882 7.52795C13.2273 7.52795 12.6916 8.09052 12.6916 8.78447C12.6916 9.47829 13.2273 10.0409 13.8882 10.0409Z" fill="#FFF101"/>
<path fill-rule="evenodd" clip-rule="evenodd" d="M12.7974 8.27925C13.1363 8.16573 13.576 8.29784 13.8652 8.58934C14.1723 8.53063 14.4803 8.12573 14.5757 7.76524C14.4708 6.56732 13.7245 5.6598 13.4975 5.03705C13.4258 4.84023 13.093 4.53075 12.747 4.67485C12.4625 4.79338 12.3186 4.70115 11.3631 5.20157C10.8464 5.47216 10.4114 5.75008 10.1823 5.79852C9.953 5.84696 9.71114 5.89014 9.52776 5.73931C9.27553 5.53185 8.99265 5.47448 8.82605 5.31815C8.62193 5.12659 8.49098 4.982 8.35292 4.92341C8.21487 4.86469 7.98116 4.99509 8.07984 5.30543C8.30248 6.00634 8.82733 6.11986 9.05265 6.77503C9.15902 7.08475 9.31024 7.31754 9.64822 7.0828C9.9862 6.84806 10.4639 6.53625 11.2782 6.50347C11.8251 6.48133 12.3903 6.2702 12.65 5.92378C12.6474 6.22347 12.7481 6.4691 12.7215 6.85894C12.6951 7.24891 12.6993 7.73393 12.7974 8.27925Z" fill="white"/>
<path fill-rule="evenodd" clip-rule="evenodd" d="M13.438 8.31217C13.3376 7.72244 13.5197 7.63743 13.3023 6.94617C13.1715 6.53051 13.088 6.00954 13.0859 5.76709L12.9985 5.79376C13.0006 6.0362 13.0843 6.5573 13.2149 6.97296C13.4252 7.64134 13.2617 7.74287 13.3416 8.2822C13.3663 8.28746 13.4182 8.30483 13.438 8.31217Z" fill="#FFF101"/>
<path fill-rule="evenodd" clip-rule="evenodd" d="M12.9235 8.24744C12.9242 8.17245 12.9197 8.09416 12.9086 8.02689C13.0623 7.98811 13.3254 8.13722 13.3181 8.0264C13.3159 7.99129 13.3193 7.87777 13.3214 7.81759C13.318 7.91166 12.952 7.75288 12.889 7.79386C12.8213 7.45074 12.9052 7.09771 12.8515 6.8823C12.9737 6.84719 13.1983 6.92377 13.1708 6.82322C13.1552 6.77172 13.1254 6.64364 13.1057 6.56352C13.1249 6.64744 12.9466 6.57796 12.8862 6.62591C12.8549 6.43985 12.8091 6.08683 12.81 5.92548L12.65 5.92377C12.6474 6.22346 12.748 6.46909 12.7215 6.85894C12.695 7.2489 12.6992 7.73392 12.7973 8.27924C12.8324 8.26848 12.8902 8.25465 12.9235 8.24744Z" fill="#FFF101"/>
<path fill-rule="evenodd" clip-rule="evenodd" d="M12.5193 5.50799C12.2807 5.86971 11.7107 6.11937 11.1838 6.17454C10.567 6.23912 10.1529 6.45466 9.84803 6.66567C9.82182 6.61613 9.77452 6.58946 9.73269 6.5568C9.28659 6.20989 9.46997 5.7398 9.6389 5.80695C9.57518 5.78102 9.53813 5.74604 9.50329 5.71974C9.44434 5.67386 9.27424 5.84964 9.29556 6.12879C9.30465 6.24769 9.40158 6.4231 9.48046 6.51607C9.33646 6.48854 9.26749 6.44989 9.1829 6.34261C9.23044 6.31154 9.29195 6.29393 9.34158 6.28989C9.32469 6.24732 9.30116 6.2001 9.29556 6.12879C9.22508 6.12818 9.1391 6.15399 9.06535 6.20659C8.88838 6.02151 8.70617 5.87386 8.6005 5.65539C8.43145 5.30542 8.60341 5.08451 8.82605 5.31815C8.62193 5.12659 8.49098 4.982 8.35292 4.92341C8.21487 4.86469 7.98116 4.99509 8.07984 5.30542C8.30248 6.00634 8.82733 6.11986 9.05265 6.77503C9.15902 7.08475 9.31584 7.3261 9.64822 7.08279C9.69203 7.05075 9.70368 7.04316 9.74178 7.01478C9.84721 6.95081 10.0143 7.05821 9.99646 7.29172C10.0819 7.07729 10.0273 7.0116 9.95487 6.88304C9.90127 6.91301 9.90558 6.73747 9.8725 6.71435C10.0622 6.59056 10.2928 6.4664 10.5839 6.37796C10.5946 6.48279 10.6221 6.59411 10.714 6.57796C10.7633 6.56646 10.8133 6.55607 10.8658 6.54689C10.7739 6.56304 10.748 6.4412 10.7374 6.33649C10.8754 6.30322 11.0261 6.27802 11.1913 6.26383C11.3817 6.24744 11.5785 6.20683 11.7633 6.14383C11.7907 6.24438 11.8476 6.4138 11.9423 6.38053C12.0263 6.35227 12.108 6.32035 12.1847 6.28328C12.0529 6.34922 12.001 6.16096 11.9694 6.06139C12.2102 5.95142 12.4153 5.80145 12.538 5.62249L12.5193 5.50799Z" fill="#FFF101"/>
<path fill-rule="evenodd" clip-rule="evenodd" d="M13.5732 5.68759C13.6894 5.59291 13.7893 5.54814 13.689 5.34765C13.5249 5.01982 13.6269 5.0187 13.2677 4.81014C12.9018 4.59803 12.9481 4.58139 12.464 4.76059C12.3449 4.80463 12.3715 4.84965 12.3924 5.03093C12.4372 5.42163 12.5225 5.73627 12.6004 6.05773C12.9047 6.01602 13.3729 5.85089 13.5732 5.68759Z" fill="#FFF101"/>
<path fill-rule="evenodd" clip-rule="evenodd" d="M12.4376 5.59878C12.3738 5.40697 12.3909 5.43303 12.6223 5.4915C12.698 5.23866 12.8026 5.02525 12.8612 4.8206C12.9267 4.59149 12.9472 4.55027 13.0435 4.60641C13.1668 4.67809 13.3022 4.75381 13.3903 4.79932C13.5444 4.87858 13.5217 4.90635 13.4481 5.03235C13.3746 5.15834 13.1342 5.4137 12.9859 5.68012C13.1815 5.82471 13.2443 5.8378 13.1053 5.90006C12.9498 5.96967 12.6914 6.0559 12.5825 6.07633C12.5626 5.95046 12.4983 5.78067 12.4376 5.59878Z" fill="#FFF101"/>
<path fill-rule="evenodd" clip-rule="evenodd" d="M10.1409 7.40245L10.1255 7.59975L9.98701 7.46764L9.83206 7.5781L9.84231 7.38116L9.66394 7.32453L9.81633 7.20979L9.74911 7.02679L9.92794 7.08159L10.0224 6.91217L10.0942 7.09309L10.2787 7.06385L10.1883 7.23645L10.3244 7.36979L10.1409 7.40245Z" fill="#FFF101"/>
<path fill-rule="evenodd" clip-rule="evenodd" d="M14.0171 10.029C13.7539 9.7775 13.643 9.31169 13.7388 8.90288C13.5368 8.65309 13.0489 8.57542 12.7038 8.66887C11.7682 9.36331 11.3928 10.4957 10.9926 11.0135C10.8661 11.1771 10.7772 11.6343 11.0691 11.8769C11.3091 12.0763 11.3051 12.2532 12.1955 12.8719C12.677 13.2065 13.1237 13.463 13.2783 13.6472C13.433 13.8314 13.5895 14.0299 13.5568 14.2719C13.5118 14.605 13.6058 14.891 13.5602 15.1205C13.5042 15.4018 13.4505 15.5933 13.4711 15.7481C13.4919 15.903 13.7161 16.0503 13.9228 15.8054C14.3895 15.2525 14.2208 14.7185 14.6486 14.1861C14.8508 13.9344 14.9673 13.6805 14.6047 13.4905C14.242 13.3007 13.7461 13.0221 13.3117 12.2982C13.0201 11.812 12.5634 11.4036 12.1477 11.3407C12.3962 11.1933 12.5486 10.9788 12.8835 10.808C13.2183 10.6371 13.6163 10.391 14.0171 10.029Z" fill="white"/>
<path fill-rule="evenodd" clip-rule="evenodd" d="M13.7237 9.42996C13.2876 9.81614 13.1264 9.69296 12.6649 10.2363C12.3875 10.5631 11.9995 10.8996 11.8005 11.0226L11.8662 11.0887C12.0652 10.9656 12.4532 10.6291 12.7307 10.3024C13.1769 9.777 13.3424 9.87486 13.7473 9.53247C13.7393 9.50752 13.7275 9.45161 13.7237 9.42996Z" fill="#FFF101"/>
<path fill-rule="evenodd" clip-rule="evenodd" d="M13.9276 9.93014C13.8655 9.96696 13.8031 10.0103 13.7532 10.0539C13.6444 9.93357 13.6357 9.61968 13.5481 9.68195C13.5202 9.70127 13.4249 9.7551 13.3741 9.78323C13.4535 9.73932 13.5054 10.1514 13.5707 10.1882C13.3215 10.4214 12.9884 10.5216 12.8377 10.6782C12.7476 10.5845 12.6985 10.3421 12.6292 10.4174C12.5946 10.4572 12.5039 10.5484 12.4476 10.6063C12.5073 10.5469 12.5391 10.7438 12.6087 10.7747C12.471 10.8963 12.2027 11.1144 12.0691 11.1942L12.1477 11.3407C12.3962 11.1933 12.5486 10.9788 12.8835 10.8079C13.2183 10.6371 13.6163 10.3909 14.0171 10.029C13.9906 10.0024 13.9502 9.95681 13.9276 9.93014Z" fill="#FFF101"/>
<path fill-rule="evenodd" clip-rule="evenodd" d="M11.8702 11.6674C12.2878 11.7035 12.7787 12.0969 13.0877 12.5485C13.4493 13.077 13.8342 13.3457 14.1607 13.5174C14.1329 13.5661 14.1346 13.6224 14.1286 13.6768C14.0655 14.2559 13.5861 14.3241 13.5569 14.137C13.5674 14.2079 13.5571 14.2591 13.5529 14.304C13.5445 14.3805 13.7746 14.4472 13.9941 14.2883C14.0876 14.2205 14.1837 14.0447 14.2211 13.9266C14.2703 14.0712 14.2729 14.1533 14.2268 14.2838C14.1773 14.2561 14.1321 14.2089 14.1039 14.166C14.0772 14.2025 14.0501 14.2476 13.9941 14.2883C14.0288 14.3528 14.0931 14.418 14.1734 14.4587C14.1092 14.7121 14.0785 14.9517 13.9511 15.1569C13.7471 15.4856 13.4788 15.4397 13.5602 15.1205C13.5042 15.4018 13.4505 15.5933 13.4711 15.7481C13.4918 15.903 13.7161 16.0503 13.9228 15.8054C14.3895 15.2525 14.2208 14.7185 14.6486 14.186C14.8507 13.9344 14.9715 13.6712 14.6047 13.4905C14.5562 13.4668 14.5442 13.46 14.5018 13.4395C14.3962 13.3756 14.4014 13.17 14.6028 13.0695C14.3833 13.0991 14.3564 13.1815 14.2866 13.3117C14.338 13.3453 14.1911 13.4292 14.1885 13.4709C13.9916 13.3603 13.774 13.2127 13.5554 12.9921C13.6366 12.9301 13.7147 12.8494 13.6553 12.7739C13.6211 12.7349 13.5876 12.6945 13.5537 12.6514C13.6131 12.727 13.5256 12.8112 13.4444 12.8734C13.348 12.7646 13.2519 12.6401 13.1576 12.497C13.0489 12.332 12.917 12.1734 12.7726 12.0369C12.8418 11.9616 12.9531 11.8253 12.8783 11.7557C12.8131 11.6934 12.7458 11.6351 12.677 11.5841C12.7972 11.6709 12.6678 11.8122 12.6016 11.8907C12.3904 11.7268 12.1641 11.6151 11.9552 11.5933L11.8702 11.6674Z" fill="#FFF101"/>
<path fill-rule="evenodd" clip-rule="evenodd" d="M11.3218 10.6977C11.1855 10.6394 11.2528 10.5605 11.1375 10.752C10.9492 11.065 10.9127 10.9929 10.9204 11.4238C10.9282 11.8624 11.0093 11.7924 11.3993 12.143C11.6991 11.907 12.0568 11.5503 12.283 11.3187C12.0965 11.0629 11.5566 10.7984 11.3218 10.6977Z" fill="#FFF101"/>
<path fill-rule="evenodd" clip-rule="evenodd" d="M11.9859 11.6963C11.8596 11.8503 11.8725 11.8218 11.8051 11.582C11.5587 11.6395 11.3686 11.7059 11.1707 11.755C10.9488 11.8099 10.9047 11.8119 10.9027 11.6963C10.9003 11.5482 10.8951 11.3874 10.8885 11.2844C10.877 11.1048 10.9111 11.1114 11.0518 11.1153C11.1926 11.1191 11.4849 11.1555 11.7789 11.1571C11.8003 10.9069 11.7797 10.8433 11.9006 10.9386C12.0356 11.0451 12.236 11.2371 12.3073 11.3257C12.2134 11.4067 12.1057 11.5502 11.9859 11.6963Z" fill="#FFF101"/>
<path fill-rule="evenodd" clip-rule="evenodd" d="M14.6219 12.8829L14.7924 12.7981L14.7526 12.9901L14.9213 13.0758L14.7537 13.1649L14.7961 13.3554L14.6252 13.2742L14.5079 13.4269L14.4637 13.2368L14.2767 13.2356L14.3902 13.08L14.2737 12.9268L14.4614 12.9227L14.5033 12.7323L14.6219 12.8829Z" fill="#FFF101"/>
<path fill-rule="evenodd" clip-rule="evenodd" d="M14.8503 8.04514C14.7745 8.41003 14.4457 8.74385 14.0606 8.86116C13.9555 9.16967 14.1354 9.65199 14.3851 9.91927C15.4256 10.4228 16.5474 10.1979 17.1745 10.3029C17.3728 10.336 17.7944 10.1883 17.8485 9.80159C17.893 9.48367 18.0409 9.39902 18.106 8.27988C18.1412 7.67474 18.1294 7.14031 18.2041 6.90765C18.2788 6.67499 18.3642 6.4334 18.5802 6.34214C18.8774 6.21652 19.0662 5.98789 19.2785 5.91462C19.5384 5.82483 19.7232 5.77798 19.8405 5.68184C19.958 5.58569 19.9673 5.30801 19.662 5.24257C18.9726 5.09456 18.6165 5.51499 17.9634 5.39217C17.6548 5.33419 17.3871 5.35511 17.4118 5.77994C17.4365 6.20465 17.4547 6.79486 17.0747 7.55168C16.8194 8.06006 16.711 8.67951 16.8669 9.08893C16.621 8.93664 16.368 8.90532 16.0597 8.68636C15.7513 8.46728 15.3493 8.22863 14.8503 8.04514Z" fill="white"/>
<path fill-rule="evenodd" clip-rule="evenodd" d="M14.5029 8.61124C15.0395 8.81466 15.0185 9.02286 15.6974 9.17087C16.1056 9.2598 16.5771 9.44426 16.7782 9.56365L16.7998 9.47081C16.5988 9.35142 16.1272 9.16708 15.7191 9.07802C15.0626 8.9349 15.0606 8.73552 14.5757 8.53845C14.5591 8.55839 14.5188 8.59692 14.5029 8.61124Z" fill="#FFF101"/>
<path fill-rule="evenodd" clip-rule="evenodd" d="M14.8134 8.17578C14.875 8.21382 14.9418 8.24881 15.0028 8.27254C14.958 8.43156 14.7033 8.59645 14.7985 8.64501C14.8285 8.66079 14.9204 8.72049 14.969 8.75254C14.8931 8.70226 15.207 8.44905 15.2048 8.37113C15.5218 8.48122 15.7709 8.73407 15.9755 8.7929C15.9433 8.92159 15.7679 9.08746 15.8646 9.11278C15.9148 9.12428 16.0353 9.16122 16.1113 9.18336C16.0324 9.1589 16.179 9.03144 16.1696 8.95278C16.3387 9.01712 16.6527 9.15205 16.7854 9.23364L16.8668 9.08893C16.621 8.93663 16.368 8.90532 16.0597 8.68636C15.7513 8.46728 15.3493 8.22862 14.8503 8.04514C14.8416 8.08232 14.8242 8.14189 14.8134 8.17578Z" fill="#FFF101"/>
<path fill-rule="evenodd" clip-rule="evenodd" d="M17.2751 9.17786C17.096 8.78006 17.1752 8.137 17.3933 7.63022C17.6484 7.03707 17.6775 6.55278 17.6559 6.17015C17.7099 6.17113 17.7555 6.14141 17.8035 6.11963C18.3126 5.88759 18.6086 6.2893 18.4687 6.4093C18.5221 6.36428 18.5695 6.34826 18.6085 6.32967C18.6759 6.29884 18.6159 6.05639 18.375 5.93627C18.2724 5.88502 18.0794 5.88551 17.9631 5.91058C18.0579 5.79352 18.1242 5.75022 18.2549 5.72685C18.2569 5.78569 18.2406 5.8504 18.2192 5.89749C18.2627 5.90337 18.3134 5.90557 18.375 5.93627C18.4108 5.87242 18.4325 5.78141 18.426 5.68795C18.6671 5.6197 18.88 5.52783 19.113 5.54104C19.4861 5.5622 19.5825 5.82911 19.2785 5.91462C19.5385 5.82483 19.7232 5.77798 19.8406 5.68184C19.958 5.58569 19.9673 5.30801 19.6621 5.24257C18.9726 5.09456 18.6166 5.51499 17.9634 5.39217C17.6548 5.33419 17.3773 5.35597 17.4118 5.77994C17.4163 5.83584 17.4168 5.85015 17.4211 5.89896C17.4211 6.02691 17.249 6.12502 17.0654 5.99205C17.1995 6.177 17.2809 6.16025 17.4232 6.15866C17.4253 6.09493 17.5679 6.18655 17.6035 6.16808C17.6109 6.40245 17.5978 6.67425 17.5253 6.98312C17.4334 6.94043 17.328 6.90973 17.2953 7.00147C17.2801 7.05199 17.2637 7.10263 17.2451 7.15499C17.2777 7.06324 17.391 7.1008 17.4827 7.14349C17.4413 7.28551 17.3866 7.43523 17.3158 7.59254C17.234 7.77382 17.1692 7.97297 17.1288 8.1726C17.0321 8.14728 16.864 8.11425 16.8439 8.21713C16.8253 8.30752 16.8107 8.3978 16.803 8.486C16.8146 8.33321 16.9957 8.38019 17.0937 8.4011C17.0641 8.67511 17.0851 8.93664 17.1714 9.13774L17.2751 9.17786Z" fill="#FFF101"/>
<path fill-rule="evenodd" clip-rule="evenodd" d="M16.5586 10.0094C16.5786 10.1626 16.5656 10.2757 16.7811 10.2846C17.1335 10.2994 17.1049 10.3451 17.4565 10.1227C17.8143 9.89627 17.8238 9.94098 17.9181 9.41119C17.9412 9.28092 17.8908 9.28251 17.7308 9.21082C17.3863 9.05621 17.0852 9.06677 16.7811 8.97686C16.6633 9.27447 16.5241 9.74568 16.5586 10.0094Z" fill="#FFF101"/>
<path fill-rule="evenodd" clip-rule="evenodd" d="M17.2411 9.05833C17.4313 9.096 17.4013 9.09857 17.2373 9.27986C17.408 9.47509 17.5387 9.61245 17.6782 9.76804C17.8345 9.94223 17.8581 9.98138 17.7637 10.0409C17.6429 10.1172 17.5129 10.2023 17.4312 10.2599C17.2888 10.3602 17.2772 10.3257 17.21 10.1958C17.1428 10.066 17.0454 9.78408 16.8999 9.51619C16.6828 9.62163 16.6406 9.67227 16.6588 9.51472C16.6792 9.33857 16.7373 9.06041 16.7748 8.95129C16.8885 8.99606 17.0607 9.02236 17.2411 9.05833Z" fill="#FFF101"/>
<path fill-rule="evenodd" clip-rule="evenodd" d="M16.9018 6.06811L16.7468 5.95545L16.925 5.89551L16.9113 5.6993L17.0686 5.80719L17.2046 5.67337L17.223 5.86933L17.4076 5.89967L17.2729 6.03496L17.3654 6.20548L17.1803 6.18016L17.1121 6.36267L17.015 6.1941L16.8369 6.25123L16.9018 6.06811Z" fill="#FFF101"/>
<path d="M12.7444 4.66794C13.0447 4.54286 13.4066 4.76712 13.5042 5.03415C13.5496 5.15877 13.6158 5.29749 13.7209 5.49411C13.7346 5.51961 13.9505 5.91404 14.0168 6.04099C14.3484 6.67538 14.5324 7.19266 14.5823 7.76755C14.4797 8.15476 14.1606 8.54024 13.8606 8.5947C13.571 8.30284 13.1328 8.17432 12.7991 8.2861L12.7903 8.28024C12.7027 7.79306 12.6826 7.3225 12.7141 6.85837C12.7263 6.67891 12.716 6.54752 12.6809 6.31345C12.6663 6.21641 12.6646 6.20215 12.6594 6.16208C12.6488 6.07974 12.6431 6.01011 12.6428 5.94138C12.3874 6.26775 11.8458 6.48773 11.2786 6.51071C10.6095 6.53765 10.1915 6.71462 9.65259 7.08884C9.35309 7.29685 9.18206 7.17308 9.04614 6.77731C8.95618 6.51581 8.84625 6.36473 8.58325 6.08688C8.57315 6.07622 8.5728 6.07602 8.56274 6.0654C8.28706 5.77406 8.16662 5.60388 8.07251 5.30759C7.98491 5.03141 8.17508 4.83922 8.35571 4.91599C8.36802 4.92121 8.38035 4.92787 8.39282 4.93454C8.45095 4.96567 8.51116 5.01095 8.59009 5.08298C8.632 5.12123 8.79924 5.28239 8.8313 5.31247C8.88863 5.36621 8.95771 5.40932 9.07349 5.46677C9.07908 5.46954 9.09361 5.47655 9.11157 5.48532C9.08983 5.47712 9.06938 5.47216 9.04907 5.47067C8.96844 5.43001 8.91279 5.39407 8.86548 5.35739L8.86841 5.35641L8.86938 5.3447C8.8531 5.33184 8.83531 5.3242 8.81763 5.32028C8.77809 5.28294 8.62067 5.13152 8.58032 5.0947C8.50216 5.02336 8.44289 4.97866 8.38599 4.94821C8.37388 4.94174 8.36176 4.93569 8.34985 4.93063C8.18084 4.85898 8.00333 5.03877 8.08716 5.3027C8.18037 5.59616 8.2984 5.76497 8.57251 6.05466C8.58263 6.06535 8.5829 6.06545 8.59302 6.07614C8.85764 6.35568 8.9689 6.50809 9.05981 6.77243C9.19297 7.1601 9.35438 7.27708 9.6438 7.07614C10.1848 6.70039 10.6055 6.52318 11.2776 6.49606C11.8491 6.47292 12.3962 6.24911 12.6438 5.91891L12.6575 5.9238C12.6568 5.99756 12.6617 6.07139 12.6731 6.16013C12.6782 6.20004 12.681 6.21362 12.6956 6.31052C12.7309 6.5459 12.7411 6.6784 12.7288 6.85934C12.6975 7.3197 12.7168 7.78651 12.803 8.2695C13.141 8.16051 13.5787 8.29076 13.8635 8.582C14.1511 8.52701 14.4676 8.14522 14.5686 7.76559C14.5187 7.19597 14.3349 6.68057 14.0042 6.04782C13.938 5.92128 13.7229 5.52929 13.7083 5.50192C13.6028 5.30473 13.5362 5.16547 13.4905 5.04001C13.3957 4.78019 13.0413 4.55998 12.7493 4.68161C12.7097 4.6981 12.6714 4.71179 12.6292 4.7236C12.602 4.73119 12.5741 4.7384 12.5364 4.74704C12.1477 4.83603 11.9322 4.91173 11.3665 5.20798C11.3507 5.21622 11.3346 5.22489 11.3186 5.23337C11.1636 5.31543 10.6975 5.57477 10.6497 5.60056C10.4257 5.72123 10.2851 5.78418 10.1838 5.80563C9.84897 5.87638 9.67978 5.8734 9.52368 5.74509C9.47453 5.70466 9.4214 5.6686 9.36353 5.63376C9.34835 5.62462 9.33255 5.61631 9.31665 5.60739L9.32251 5.60153L9.32056 5.59274C9.33756 5.60225 9.35516 5.61035 9.37134 5.62009C9.4297 5.65523 9.4828 5.69252 9.53247 5.73337C9.684 5.8579 9.85013 5.86087 10.1809 5.79099C10.2804 5.76993 10.42 5.70692 10.6428 5.58688C10.6905 5.56119 11.1565 5.30188 11.3118 5.2197C11.3279 5.21118 11.3438 5.20258 11.3596 5.19431C11.9268 4.89729 12.1434 4.82069 12.5334 4.73141C12.5709 4.72284 12.5984 4.71646 12.6252 4.70895C12.6671 4.69725 12.7052 4.68426 12.7444 4.66794ZM12.7952 8.27243L12.8049 8.27829C12.8044 8.27551 12.8035 8.27228 12.803 8.2695C12.8004 8.27034 12.7978 8.27156 12.7952 8.27243ZM9.30298 5.59958V5.60056H9.30396C9.3082 5.60289 9.31248 5.60505 9.31665 5.60739L8.93677 6.07712L8.92505 6.07028C8.99934 5.74883 9.12292 5.57011 9.25317 5.57321C9.27051 5.58221 9.28707 5.59082 9.30298 5.59958ZM8.92603 6.06735L8.93872 6.07419C8.94137 6.06271 8.94474 6.05111 8.94751 6.04001L8.92603 6.06735ZM9.04907 5.47067C9.05509 5.47371 9.06135 5.47732 9.06763 5.48044C9.07351 5.48335 9.08851 5.49012 9.10669 5.49899C8.97413 5.44932 8.87565 5.52568 8.74048 5.81735L9.11841 5.50583C9.12314 5.50814 9.12814 5.51026 9.13306 5.51266L8.72388 5.85056L8.71313 5.84177C8.83693 5.56623 8.93323 5.46217 9.04907 5.47067ZM8.71509 5.83884L8.72583 5.8486C8.73059 5.83801 8.73581 5.82743 8.74048 5.81735L8.71509 5.83884ZM9.31372 5.60349C9.3107 5.60194 9.30698 5.60187 9.30396 5.60056L9.30298 5.59958L9.31177 5.59079L9.31372 5.60349ZM9.32056 5.58884V5.59274C9.31563 5.58999 9.31095 5.58671 9.30591 5.58395C9.31053 5.58584 9.31594 5.58648 9.32056 5.58884ZM9.21899 5.53708C9.25074 5.55298 9.27885 5.56913 9.30591 5.58395C9.28817 5.57672 9.2708 5.57363 9.25317 5.57321C9.23995 5.56635 9.2265 5.55794 9.21216 5.55075C9.19701 5.54317 9.16387 5.52771 9.13306 5.51266L9.13989 5.50778L9.13794 5.49802C9.1694 5.51338 9.20375 5.52944 9.21899 5.53708ZM8.81763 5.32028C8.81899 5.32157 8.82046 5.32318 8.82153 5.32419C8.83097 5.33303 8.84259 5.33928 8.85278 5.34763L8.84985 5.35056C8.85314 5.35268 8.85739 5.35389 8.8606 5.35641V5.35349C8.86223 5.35478 8.86382 5.3561 8.86548 5.35739L8.56567 5.56833L8.55493 5.55954C8.61612 5.39836 8.72367 5.29945 8.81763 5.32028ZM8.55786 5.55563L8.5686 5.5654C8.57191 5.55667 8.57577 5.54834 8.57935 5.54001L8.55786 5.55563ZM9.13208 5.50876C9.1282 5.50691 9.12419 5.50552 9.12036 5.50388L9.1311 5.49606L9.13208 5.50876ZM9.12036 5.50388L9.11841 5.50583C9.11423 5.50379 9.1106 5.5009 9.10669 5.49899C9.11114 5.50066 9.11583 5.50192 9.12036 5.50388ZM9.13794 5.49509V5.49802C9.12879 5.49355 9.11979 5.48933 9.11157 5.48532C9.12007 5.48853 9.12917 5.49092 9.13794 5.49509ZM8.8606 5.35349C8.85802 5.35145 8.8553 5.34969 8.85278 5.34763L8.8606 5.34372V5.35349Z" fill="black"/>
<path d="M13.0931 5.76703C13.0954 6.03355 13.188 6.55913 13.309 6.94379C13.4102 7.2658 13.4309 7.44734 13.4193 7.71722C13.4184 7.73868 13.4183 7.73882 13.4174 7.76019C13.407 7.98623 13.4102 8.10833 13.4447 8.31097L13.4359 8.31976C13.4085 8.3096 13.3606 8.29431 13.3344 8.28363C13.308 8.10598 13.3062 7.99511 13.3158 7.78656C13.3168 7.76485 13.3168 7.76424 13.3177 7.74261C13.3292 7.47478 13.309 7.29492 13.2084 6.97504C13.0871 6.58884 12.9936 6.06197 12.9965 5.78656L13.0931 5.76703ZM13.431 8.3139L13.4408 8.30511C13.4373 8.30383 13.4331 8.30262 13.4291 8.30121C13.4298 8.30526 13.4303 8.30978 13.431 8.3139ZM13.0062 5.7934C13.0085 6.05963 13.1012 6.58533 13.222 6.97015C13.3233 7.29201 13.344 7.47383 13.3324 7.74359C13.3314 7.76526 13.3314 7.76582 13.3304 7.78754C13.3209 7.99499 13.3227 8.10479 13.3431 8.27484C13.3618 8.27883 13.4009 8.29126 13.4291 8.30121C13.3963 8.10462 13.3925 7.98243 13.4027 7.76019C13.4037 7.73847 13.4037 7.73789 13.4047 7.71625C13.4162 7.44825 13.3959 7.26871 13.2953 6.94867C13.1739 6.56278 13.0814 6.03593 13.0883 5.77484L13.0062 5.7934Z" fill="black"/>
<path d="M12.817 5.92563C12.8162 6.06431 12.8526 6.38357 12.8912 6.61508C12.9119 6.60312 12.9405 6.59858 12.9869 6.59946C12.9962 6.59966 12.9965 6.60018 13.0054 6.60043C13.048 6.60166 13.0647 6.60066 13.0797 6.59653C13.0968 6.59175 13.1023 6.58318 13.0982 6.56528C13.0996 6.57098 13.1019 6.58252 13.105 6.59555C13.0998 6.60205 13.094 6.60825 13.0836 6.61118C13.0667 6.61588 13.0498 6.61635 13.0054 6.61508C12.9962 6.61482 12.9961 6.61529 12.9869 6.61508C12.9368 6.61412 12.9078 6.61771 12.8902 6.63168L12.8795 6.6268C12.8402 6.39389 12.8022 6.06759 12.8101 5.93344L12.6568 5.92368C12.6562 5.99744 12.662 6.07127 12.6734 6.16C12.6785 6.19996 12.6804 6.21364 12.6949 6.31039C12.7302 6.54572 12.7414 6.67836 12.7291 6.85922C12.6977 7.32223 12.7173 7.79227 12.7955 8.27231C12.8249 8.26328 12.875 8.25001 12.9156 8.24106C12.9156 8.24301 12.9166 8.24497 12.9166 8.24692L12.9224 8.24008C12.9203 8.24054 12.9177 8.24058 12.9156 8.24106C12.916 8.16497 12.9117 8.09016 12.9068 8.01938C12.9477 8.00906 12.9976 8.01122 13.0611 8.02231C13.0823 8.02602 13.1036 8.03029 13.1334 8.03696C13.2246 8.0574 13.2385 8.05984 13.2652 8.06039C13.2985 8.06105 13.3126 8.05168 13.3111 8.02719C13.3094 8.00059 13.3103 7.92919 13.313 7.8436C13.322 7.83754 13.3282 7.83036 13.3287 7.81821C13.3253 7.91437 13.324 7.99777 13.3257 8.02621C13.3279 8.06144 13.306 8.07683 13.2652 8.07602C13.2369 8.07545 13.2234 8.07245 13.1304 8.05161C13.1007 8.04495 13.0792 8.04063 13.0582 8.03696C12.9965 8.02622 12.9487 8.02424 12.9156 8.02524C12.9263 8.09022 12.932 8.16876 12.9312 8.24789L12.9254 8.25473C12.8842 8.26364 12.8303 8.2776 12.7906 8.2811C12.7029 7.79377 12.6829 7.32251 12.7144 6.85825C12.7266 6.67885 12.7163 6.54739 12.6812 6.31332C12.6666 6.21611 12.6639 6.2022 12.6588 6.16196C12.6473 6.07256 12.642 5.99802 12.65 5.91586L12.817 5.92563ZM13.1382 6.66879C13.1393 6.67316 13.1401 6.67306 13.1412 6.67758C13.1587 6.7499 13.1703 6.7949 13.1783 6.82114C13.1874 6.85476 13.1713 6.87456 13.1363 6.88168C13.1116 6.88666 13.0872 6.88642 13.0181 6.88266C12.998 6.88156 12.9867 6.88114 12.9742 6.88071C12.9216 6.87887 12.8841 6.88129 12.8589 6.88071C12.8804 6.96716 12.8819 7.04609 12.8736 7.26743C12.8655 7.48294 12.8659 7.59338 12.8843 7.72348C12.8872 7.74365 12.8904 7.76356 12.8941 7.78305C12.9214 7.77253 12.9703 7.78126 13.0943 7.81039C13.098 7.81126 13.0981 7.81141 13.1021 7.81235C13.1775 7.83003 13.2171 7.83737 13.2515 7.83969C13.2932 7.84247 13.3134 7.83491 13.314 7.81723C13.3137 7.82611 13.3133 7.83498 13.313 7.8436C13.3001 7.85237 13.2794 7.85724 13.2505 7.85532C13.2151 7.85293 13.1753 7.84483 13.0992 7.827C13.095 7.82602 13.0946 7.82602 13.0904 7.82504C12.9602 7.79444 12.9136 7.78739 12.8931 7.80063L12.8814 7.79575C12.8769 7.77297 12.873 7.74911 12.8697 7.72543C12.8512 7.59431 12.8508 7.48348 12.8589 7.26743C12.8672 7.0473 12.8651 6.96872 12.8492 6.87485C12.8812 6.86564 12.9209 6.86318 12.9752 6.86508C12.9876 6.86552 12.999 6.86594 13.0191 6.86703C13.087 6.87073 13.1112 6.87173 13.1343 6.86703C13.1613 6.86145 13.1699 6.84947 13.1636 6.82602C13.1556 6.7996 13.1442 6.75413 13.1265 6.68149C13.1254 6.67705 13.1256 6.67685 13.1246 6.6727C13.1261 6.67891 13.1135 6.63052 13.105 6.59555C13.112 6.58691 13.1163 6.57647 13.1129 6.56137L13.1382 6.66879ZM11.7613 6.14828H11.7603H11.7613ZM11.7281 5.01547L11.9732 5.94418C11.9621 5.92356 11.9527 5.90218 11.942 5.88168L11.7164 5.02914C11.719 5.02758 11.7214 5.02553 11.7242 5.02426L11.7144 5.01938L11.7164 5.02914C11.6536 5.06685 11.6563 5.18815 11.7173 5.37582C11.7643 5.52015 11.8455 5.69718 11.942 5.88168L11.9615 5.95297L11.9742 5.94711L11.9752 5.94907L11.9625 5.95493C11.8502 5.74688 11.7564 5.54288 11.7037 5.38071C11.6378 5.17808 11.637 5.0475 11.7183 5.01059L11.7281 5.01547Z" fill="black"/>
<path d="M8.35577 4.91653C8.36801 4.92173 8.38048 4.92748 8.39288 4.93411C8.45106 4.96525 8.51115 5.01143 8.59015 5.08353C8.63233 5.12206 8.7973 5.28096 8.83038 5.31204C8.79449 5.27452 8.7587 5.24797 8.72491 5.23196C8.66824 5.17784 8.60429 5.11708 8.58038 5.09525C8.50217 5.02386 8.44298 4.97824 8.38605 4.94778C8.37396 4.94132 8.3618 4.93525 8.34991 4.93021C8.18089 4.85862 8.0023 5.03928 8.08624 5.30325C8.17943 5.5966 8.29861 5.76468 8.57257 6.05423C8.58264 6.06486 8.58313 6.06521 8.59308 6.07571C8.85761 6.35516 8.96898 6.50783 9.05988 6.772C9.1215 6.95145 9.1868 7.0698 9.26984 7.1304C9.36856 7.20231 9.49023 7.18909 9.64386 7.07669L9.69659 7.0386C9.71077 7.0284 9.72206 7.01987 9.73761 7.00833C9.85506 6.93707 9.99697 7.05616 10.0023 7.24954C10.0415 7.13732 10.0411 7.06714 10.0052 6.98978C9.99843 6.97522 9.98978 6.96042 9.97882 6.94095C9.9741 6.93257 9.95472 6.89757 9.95831 6.89017C9.93984 6.90043 9.92488 6.89148 9.91437 6.86966C9.90723 6.85477 9.90236 6.837 9.89484 6.8013C9.89391 6.79688 9.89381 6.79593 9.89288 6.79153C9.88328 6.74589 9.87696 6.72618 9.86847 6.72025V6.70755C10.0934 6.56075 10.321 6.45024 10.5911 6.37747C10.6051 6.51364 10.6403 6.58331 10.7122 6.57083C10.7472 6.56268 10.7816 6.55597 10.8157 6.54935C10.8304 6.55597 10.8471 6.55757 10.8665 6.55423C10.8163 6.56301 10.7668 6.57343 10.7151 6.58548C10.6304 6.60037 10.5918 6.52334 10.5862 6.38528C10.3291 6.46344 10.104 6.5722 9.88214 6.71634C9.8909 6.72779 9.89788 6.74736 9.90656 6.7886C9.90746 6.79294 9.90762 6.79318 9.90851 6.79739C9.91579 6.83201 9.92067 6.84945 9.92706 6.86282C9.93432 6.87789 9.94148 6.88221 9.96124 6.87943C9.96687 6.8894 9.98678 6.92472 9.99152 6.93314C10.0026 6.95282 10.011 6.96804 10.0179 6.98294C10.0597 7.07296 10.0586 7.15542 10.0032 7.29446L9.98956 7.29153C10.0053 7.08474 9.86029 6.95239 9.7464 7.02103C9.73118 7.03237 9.7197 7.04099 9.70538 7.0513H9.70441C9.68314 7.06655 9.67078 7.07612 9.65265 7.08939C9.49423 7.20535 9.36539 7.21827 9.26105 7.14212C9.17516 7.07916 9.10862 6.95952 9.0462 6.77786C8.95621 6.51617 8.84557 6.36452 8.58234 6.08646C8.5726 6.07618 8.5728 6.07553 8.56281 6.06497C8.28724 5.77375 8.16667 5.60429 8.07257 5.30814C7.98468 5.03173 8.17504 4.83967 8.35577 4.91653ZM9.98956 7.2886L10.0032 7.29251C10.0044 7.27786 10.0026 7.26346 10.0023 7.24954C9.99795 7.26184 9.99488 7.27524 9.98956 7.2886ZM12.5267 5.50638L12.5443 5.6265C12.4251 5.80026 12.2239 5.95345 11.9759 6.05911C11.9765 6.06112 11.9864 6.09128 11.9896 6.1011C11.9952 6.11847 12.0008 6.13379 12.0062 6.14798C12.0508 6.26627 12.1037 6.31505 12.1819 6.27591C12.1617 6.28568 12.1398 6.29396 12.1185 6.30325C12.0661 6.29584 12.0263 6.24258 11.9925 6.15286C11.9871 6.13852 11.9816 6.12344 11.9759 6.10599C11.9725 6.09547 11.9616 6.06174 11.9661 6.05423C12.2159 5.94015 12.4144 5.78908 12.5306 5.62357L12.514 5.52493C12.5171 5.52037 12.5217 5.51683 12.5247 5.51224L12.512 5.50931L12.514 5.52493C12.2804 5.86402 11.7385 6.12409 11.1849 6.18216C10.6502 6.23815 10.2402 6.40388 9.8421 6.66946C9.82551 6.6381 9.80528 6.61919 9.75519 6.58255C9.74192 6.57285 9.73511 6.56869 9.72784 6.56302C9.5264 6.40626 9.43416 6.20856 9.44757 6.02591C9.45721 5.89511 9.52376 5.79888 9.59894 5.79349C9.61116 5.80014 9.62254 5.80849 9.63605 5.814C9.55645 5.78261 9.47306 5.88074 9.46222 6.02689C9.44921 6.20408 9.53918 6.39661 9.73663 6.55032C9.7437 6.55584 9.75004 6.56037 9.763 6.56985C9.81489 6.60781 9.83639 6.62829 9.84406 6.6597C10.2337 6.39004 10.6457 6.2228 11.1829 6.16653C11.7404 6.10817 12.2876 5.84518 12.513 5.50345L12.5267 5.50638ZM11.7698 6.14212C11.8144 6.30508 11.8689 6.39809 11.9398 6.37357C12.0039 6.352 12.063 6.32738 12.1185 6.30325C12.1395 6.30623 12.1624 6.30324 12.1878 6.29056C12.1146 6.32595 12.0339 6.35819 11.9446 6.38821C11.8608 6.4176 11.8039 6.31858 11.7659 6.15091C11.5825 6.21344 11.3847 6.25441 11.1917 6.27103C11.0322 6.28474 10.8814 6.30934 10.7444 6.33548C10.7589 6.47823 10.7932 6.55209 10.8646 6.53958C10.8482 6.54244 10.832 6.54618 10.8157 6.54935C10.7671 6.52732 10.7431 6.45105 10.7357 6.32864C10.879 6.29407 11.0305 6.27014 11.1907 6.25638C11.3824 6.23987 11.5784 6.19905 11.7698 6.14212ZM8.56085 5.26321C8.59845 5.21065 8.65769 5.20012 8.72491 5.23196C8.76739 5.27253 8.80604 5.30908 8.82062 5.32278C8.71863 5.21604 8.62271 5.20258 8.57257 5.27298C8.5205 5.34627 8.52903 5.49093 8.60675 5.65189C8.6664 5.77521 8.74643 5.87543 8.888 6.0181C8.90235 6.03255 9.0057 6.13424 9.03644 6.16556C9.04835 6.1777 9.05916 6.19019 9.06085 6.20071C9.1286 6.15239 9.21005 6.1251 9.28839 6.12845C9.27015 5.88381 9.42218 5.6481 9.50714 5.71341C9.50825 5.71425 9.5491 5.7466 9.56281 5.75638C9.58712 5.77371 9.61138 5.7869 9.63898 5.79837C9.62557 5.79344 9.61205 5.79255 9.59894 5.79349C9.58434 5.78554 9.56905 5.77908 9.55499 5.76907C9.5416 5.75953 9.50354 5.7294 9.49933 5.7261C9.4289 5.6713 9.28511 5.89367 9.30304 6.12845C9.31129 6.23476 9.39674 6.40646 9.48566 6.51126L9.47882 6.52396C9.3318 6.49583 9.26196 6.45516 9.17902 6.33646C9.2219 6.30843 9.27891 6.28958 9.33136 6.28372C9.33292 6.28753 9.33453 6.29065 9.33527 6.29251L9.34113 6.28275C9.33792 6.28301 9.3346 6.28336 9.33136 6.28372C9.32755 6.27441 9.32236 6.26167 9.32062 6.25735C9.30215 6.2114 9.2916 6.17478 9.29523 6.13626C9.22278 6.13569 9.1385 6.16384 9.05988 6.21243C9.04899 6.20105 9.03756 6.18937 9.0257 6.17728C8.99515 6.14614 8.89266 6.04338 8.87823 6.02884C8.73557 5.88507 8.65462 5.78394 8.59406 5.65872C8.51403 5.49301 8.50474 5.342 8.56085 5.26321ZM9.3382 6.29739C9.28656 6.30225 9.22943 6.32085 9.18878 6.33743C9.26726 6.43697 9.33132 6.47612 9.46124 6.50345C9.4147 6.4448 9.37046 6.37012 9.3382 6.29739ZM8.83136 5.31302L8.82159 5.32376L8.82062 5.32278L8.83136 5.31302Z" fill="black"/>
<path d="M12.702 8.66153C13.0729 8.5611 13.5511 8.65889 13.746 8.90469C13.65 9.31397 13.7632 9.77616 14.0223 10.0238L14.0214 10.0346C13.6634 10.3578 13.2856 10.6112 12.8866 10.8148C12.7694 10.8747 12.6696 10.9421 12.5604 11.0297C12.5334 11.0514 12.5062 11.0736 12.4716 11.1029C12.4672 11.1066 12.4049 11.1589 12.3866 11.1742C12.2998 11.2469 12.2347 11.2946 12.1649 11.3373C12.5621 11.4059 13.0155 11.7896 13.3182 12.2943C13.6752 12.8892 14.0305 13.1813 14.6083 13.4838C14.9292 13.6521 14.9124 13.8693 14.6542 14.1908C14.4822 14.4049 14.4141 14.5782 14.3143 14.9643C14.2056 15.3852 14.1298 15.5726 13.9286 15.8109C13.7446 16.0288 13.491 15.952 13.4637 15.7494C13.4541 15.677 13.4595 15.5948 13.4794 15.4809C13.4909 15.4147 13.5483 15.1404 13.5526 15.1186C13.5703 15.0295 13.5693 14.9585 13.5536 14.7699C13.5572 14.7943 13.5638 14.8157 13.5721 14.8354C13.5801 14.9428 13.5818 15.0059 13.5751 15.0648L13.5712 15.0629L13.5604 15.0688C13.5581 15.0892 13.5611 15.1079 13.5663 15.1254C13.5585 15.1637 13.5052 15.4189 13.494 15.4828C13.4744 15.5956 13.469 15.6769 13.4784 15.7475C13.5041 15.9369 13.7411 16.0083 13.9169 15.8002C14.1162 15.5641 14.1915 15.3792 14.2997 14.9604C14.4 14.5721 14.4697 14.3973 14.6434 14.1811C14.8964 13.866 14.9119 13.6601 14.6014 13.4975C14.0214 13.1938 13.6642 12.8999 13.3055 12.3022C13.0007 11.7939 12.5426 11.408 12.1464 11.3481L12.1444 11.3344C12.2191 11.29 12.2857 11.2397 12.3778 11.1625C12.3963 11.147 12.4595 11.094 12.4628 11.0912C12.4975 11.0618 12.5244 11.0388 12.5516 11.017C12.6615 10.9289 12.7626 10.8614 12.8807 10.8012C13.2764 10.5992 13.6506 10.3475 14.0057 10.0277C14.008 10.0299 14.0103 10.0324 14.0126 10.0346V10.0229C14.0106 10.0246 14.0077 10.026 14.0057 10.0277C13.7472 9.7746 13.6354 9.31183 13.7333 8.90762C13.544 8.67376 13.0714 8.57727 12.7079 8.6752C12.3582 8.93478 12.0672 9.26742 11.7909 9.6918C11.6359 9.92993 11.1579 10.7943 11.0497 10.9486C11.0324 10.9732 11.0147 10.9963 10.9979 11.018C10.8309 11.234 10.8276 11.6657 11.0741 11.8705C11.0856 11.88 11.0964 11.89 11.1073 11.8998C11.1406 11.9299 11.1704 11.9615 11.2059 12.0014C11.2206 12.0178 11.2988 12.1086 11.3251 12.1381C11.3785 12.1979 11.4322 12.2536 11.496 12.3139C11.6605 12.4693 11.8833 12.6462 12.1991 12.8656C12.3593 12.977 12.8624 13.3095 12.8632 13.31C13.0867 13.4607 13.2139 13.5584 13.2841 13.642C13.5096 13.9106 13.5921 14.0668 13.5643 14.2729C13.5528 14.3581 13.5513 14.4339 13.5546 14.5287L13.5458 14.5277L13.5399 14.5326C13.5364 14.4354 13.5379 14.3582 13.5497 14.2709C13.5768 14.0707 13.4953 13.9182 13.2723 13.6527C13.2034 13.5705 13.0777 13.4727 12.8553 13.3227C12.8511 13.3199 12.3511 12.9894 12.1913 12.8783C11.8748 12.6584 11.6514 12.4807 11.4862 12.3246C11.4223 12.2642 11.3689 12.2088 11.3153 12.1488C11.2894 12.1198 11.2115 12.0294 11.1962 12.0121C11.1609 11.9724 11.1304 11.9413 11.0975 11.9115C11.0868 11.9018 11.0756 11.8926 11.0643 11.8832C10.8109 11.6725 10.8155 11.2303 10.9872 11.0082C11.0037 10.9868 11.0209 10.9641 11.038 10.9398C11.1454 10.7868 11.6236 9.92192 11.7792 9.68301C12.0563 9.2573 12.3484 8.9234 12.702 8.66153ZM13.8973 15.2318L13.8954 15.2465C13.731 15.2718 13.5951 15.2224 13.5663 15.1254C13.5665 15.1242 13.5671 15.1232 13.5673 15.1225C13.57 15.1084 13.5702 15.0941 13.5721 15.0805L13.5751 15.0815C13.5752 15.0779 13.5747 15.0743 13.5751 15.0707H13.5741C13.5743 15.0687 13.5748 15.0668 13.5751 15.0648L13.8973 15.2318ZM13.5751 15.0815C13.5712 15.1898 13.699 15.251 13.8671 15.2328L13.8905 15.2455L13.8925 15.2309C13.8839 15.2322 13.8754 15.2319 13.8671 15.2328L13.5751 15.0815ZM13.5721 15.0805L13.5643 15.0766L13.5741 15.0707C13.5737 15.074 13.5726 15.0772 13.5721 15.0805ZM14.0507 14.9467L14.0487 14.9613C13.7542 14.987 13.6208 14.9496 13.5721 14.8354C13.5705 14.8135 13.5694 14.7899 13.5673 14.7641C13.5887 14.9176 13.6989 14.9711 14.0145 14.9477L14.0458 14.9613L14.0477 14.9467C14.0366 14.9477 14.0252 14.9469 14.0145 14.9477L13.5673 14.7592C13.5668 14.7541 13.5667 14.7488 13.5663 14.7436L14.0507 14.9467ZM13.5536 14.7699C13.5525 14.7629 13.5504 14.7559 13.5497 14.7484L13.5516 14.7455C13.5523 14.7539 13.5529 14.762 13.5536 14.7699ZM13.5663 14.7592L13.5546 14.7543L13.5643 14.7465C13.5647 14.7507 13.5658 14.7551 13.5663 14.7592ZM13.5409 14.5541C13.5441 14.5739 13.5495 14.5916 13.5585 14.6078C13.5609 14.6459 13.5623 14.6877 13.5663 14.7338C13.5666 14.7371 13.566 14.7404 13.5663 14.7436L13.5594 14.7406L13.5516 14.7455C13.5513 14.742 13.5519 14.7383 13.5516 14.7348C13.5457 14.6656 13.5433 14.6068 13.5409 14.5541ZM14.1307 14.64V14.6547C13.8312 14.747 13.623 14.7251 13.5585 14.6078C13.5572 14.5881 13.5563 14.5693 13.5555 14.5512C13.5796 14.6973 13.7789 14.7386 14.0946 14.6479L14.1278 14.6547L14.1268 14.64C14.1161 14.6433 14.1051 14.6449 14.0946 14.6479L13.5546 14.5443C13.5543 14.5391 13.5547 14.5339 13.5546 14.5287L14.1307 14.64ZM13.5409 14.5541C13.5399 14.548 13.5374 14.542 13.537 14.5356L13.5399 14.5326C13.5402 14.5397 13.5406 14.5468 13.5409 14.5541ZM13.5536 14.5443L13.5428 14.5424L13.5516 14.5346C13.5519 14.5379 13.5532 14.5411 13.5536 14.5443Z" fill="black"/>
<path d="M13.7304 9.42902C13.7356 9.45834 13.7475 9.50927 13.7519 9.53839C13.6137 9.65523 13.5332 9.70592 13.3339 9.81378C13.3175 9.82269 13.305 9.82957 13.2929 9.83624C13.0839 9.95145 12.9427 10.0649 12.7363 10.3079C12.4784 10.6114 12.09 10.959 11.8613 11.0941L11.7968 11.0159C12.0155 10.8807 12.4024 10.5332 12.6591 10.2308C12.8668 9.98627 13.01 9.87224 13.2206 9.75616C13.2327 9.7495 13.2452 9.74261 13.2617 9.7337C13.4752 9.61811 13.564 9.56108 13.7187 9.42413L13.7304 9.42902ZM13.7187 9.44269C13.5683 9.57503 13.4789 9.63351 13.2685 9.74738C13.2521 9.75627 13.2395 9.76319 13.2275 9.76984C13.0183 9.88511 12.8764 9.99835 12.6699 10.2415C12.4122 10.545 12.0243 10.8929 11.8056 11.0169L11.8622 11.0823C12.0809 10.9471 12.4686 10.5997 12.7255 10.2972C12.933 10.0529 13.0756 9.93857 13.2861 9.82257C13.2982 9.81589 13.3106 9.80901 13.3271 9.80011C13.5255 9.69269 13.6053 9.64212 13.7402 9.53448C13.734 9.51513 13.7245 9.47279 13.7187 9.44269ZM13.7187 9.44269C13.7216 9.44012 13.7255 9.43848 13.7285 9.43585L13.7167 9.43097C13.7174 9.43447 13.7179 9.43867 13.7187 9.44269Z" fill="black"/>
<path d="M12.5169 11.9505C12.4015 12.1565 12.2806 12.3439 12.1732 12.4729C12.0388 12.6343 11.9308 12.6996 11.8597 12.6438V12.6321L12.5052 11.9417L12.5169 11.9505ZM11.8753 12.635C11.8733 12.6337 11.8704 12.6336 11.8685 12.6321L11.8694 12.6429L11.8753 12.635C11.9377 12.6755 12.0361 12.6136 12.1614 12.4632C12.2572 12.3481 12.3621 12.1845 12.4661 12.0042L11.8753 12.635ZM12.7679 12.0423L12.7776 12.0315L12.7679 12.0432L12.597 11.8968C12.657 11.9432 12.7144 11.9917 12.7679 12.0423ZM12.4661 12.0042L12.5159 11.9524L12.5042 11.9427C12.4924 11.9638 12.4781 11.9835 12.4661 12.0042ZM13.6019 9.68484C13.6149 9.70095 13.6263 9.72688 13.64 9.76785C13.6457 9.78531 13.6702 9.86332 13.6771 9.88406C13.7027 9.96183 13.7268 10.0139 13.7484 10.0481C13.7966 10.0059 13.8586 9.96197 13.9241 9.92313L13.9329 9.92508C13.9603 9.95735 13.9989 9.99988 14.0218 10.0345C13.6639 10.3577 13.286 10.6111 12.887 10.8147C12.7698 10.8746 12.6691 10.9419 12.5599 11.0296C12.5329 11.0512 12.5065 11.0737 12.472 11.1028C12.472 11.1028 12.4058 11.1594 12.387 11.1751C12.2943 11.2528 12.2264 11.3021 12.1409 11.344L12.0657 11.1878C12.1809 11.1189 12.426 10.9241 12.597 10.7737C12.5765 10.7602 12.5575 10.7367 12.5335 10.6907C12.5267 10.6775 12.5223 10.6691 12.5198 10.6643C12.5149 10.6548 12.511 10.6475 12.5071 10.6409C12.485 10.6031 12.4703 10.5939 12.4525 10.6116C12.4565 10.6075 12.4644 10.5989 12.4739 10.5891C12.489 10.5919 12.5042 10.6063 12.5198 10.6331C12.5238 10.6399 12.5274 10.6478 12.5325 10.6575C12.535 10.6623 12.5396 10.67 12.5462 10.6829C12.5724 10.7333 12.5905 10.7585 12.6116 10.7679L12.6136 10.7805C12.4417 10.9323 12.1903 11.1308 12.0755 11.1907L12.1439 11.3343C12.2186 11.2899 12.2851 11.2396 12.3773 11.1624C12.3951 11.1474 12.4569 11.0956 12.4622 11.0911C12.497 11.0617 12.5239 11.0387 12.5511 11.0169C12.661 10.9287 12.762 10.8614 12.8802 10.8011C13.2782 10.5979 13.6553 10.3455 14.012 10.0345C13.9894 10.0118 13.9534 9.97081 13.9261 9.93875C13.9276 9.93786 13.9295 9.93768 13.931 9.9368L13.9222 9.93484C13.9233 9.93617 13.9249 9.9374 13.9261 9.93875C13.863 9.97648 13.8035 10.0189 13.7474 10.0589C13.7143 10.0221 13.6896 9.96836 13.6634 9.88895C13.6564 9.86787 13.6319 9.78971 13.6263 9.77274C13.6132 9.73356 13.6026 9.70886 13.5911 9.69461C13.5791 9.6798 13.5674 9.67788 13.5521 9.68875C13.5305 9.70361 13.466 9.73911 13.3987 9.77664C13.3895 9.77204 13.3804 9.77112 13.3704 9.77664C13.4449 9.73537 13.5212 9.69198 13.5443 9.67606C13.5659 9.6607 13.5852 9.6643 13.6019 9.68484ZM13.3987 9.77664C13.413 9.78375 13.4274 9.80099 13.4407 9.82938C13.4566 9.86312 13.4697 9.90304 13.4935 9.9827C13.5097 10.0371 13.51 10.039 13.5159 10.0579C13.5394 10.1324 13.558 10.1726 13.5745 10.1819L13.5755 10.1936C13.5039 10.2606 13.4222 10.3203 13.3226 10.3811C13.2584 10.4203 13.0471 10.537 13.0169 10.555C12.9377 10.6019 12.8829 10.642 12.8323 10.6839C12.8067 10.6572 12.7842 10.6201 12.7552 10.5618C12.7514 10.5541 12.7269 10.5031 12.72 10.4895C12.7073 10.4646 12.6975 10.4467 12.6878 10.4339C12.6677 10.4072 12.6515 10.4032 12.6341 10.4221C12.6158 10.4433 12.584 10.4778 12.5296 10.5335C12.5284 10.5347 12.5278 10.5343 12.5267 10.5354C12.5202 10.542 12.494 10.5686 12.4739 10.5891C12.47 10.5884 12.4663 10.587 12.4622 10.5882L12.4427 10.6009C12.4554 10.5877 12.5076 10.5342 12.5169 10.5247C12.5178 10.5238 12.518 10.5236 12.5189 10.5227C12.5731 10.4673 12.6061 10.4334 12.6243 10.4124C12.6491 10.3855 12.6735 10.3919 12.6985 10.4251C12.7089 10.4388 12.7196 10.4569 12.7327 10.4827C12.7398 10.4965 12.7654 10.5481 12.7689 10.555C12.7971 10.6117 12.8184 10.648 12.8323 10.6731C12.8738 10.6301 12.9297 10.589 13.0101 10.5413C13.0407 10.5231 13.2509 10.4074 13.3148 10.3684C13.4119 10.3092 13.491 10.2505 13.5609 10.1858C13.5429 10.1683 13.5238 10.1304 13.5023 10.0618C13.4964 10.0433 13.4959 10.0417 13.4798 9.98758C13.4562 9.9085 13.4425 9.86903 13.4271 9.83621C13.4084 9.79654 13.3923 9.78201 13.3773 9.79031C13.3846 9.78625 13.3914 9.78072 13.3987 9.77664Z" fill="black"/>
<path d="M14.6058 13.0768C14.4275 13.166 14.3912 13.3633 14.5052 13.4323L14.5501 13.4547C14.5832 13.4714 14.5867 13.4738 14.6077 13.484C14.7824 13.5701 14.8576 13.6793 14.847 13.8122C14.8382 13.9219 14.7735 14.043 14.6546 14.1911C14.4825 14.4052 14.4136 14.5781 14.3138 14.9645C14.2051 15.3854 14.1292 15.5719 13.928 15.8102C13.7441 16.0281 13.4917 15.9521 13.4642 15.7497C13.4545 15.6771 13.4599 15.5944 13.4798 15.4801C13.4914 15.4136 13.5487 15.1406 13.553 15.1188C13.5406 15.1676 13.5387 15.2112 13.5413 15.2487C13.5231 15.3369 13.5011 15.4448 13.4944 15.4831C13.4748 15.5956 13.4685 15.6762 13.4778 15.7467C13.5032 15.9364 13.7414 16.0087 13.9173 15.8004C14.1166 15.5643 14.1919 15.3794 14.3001 14.9606C14.4004 14.5723 14.4692 14.3975 14.6429 14.1813C14.76 14.0355 14.8238 13.9169 14.8323 13.8112C14.8424 13.6854 14.7714 13.5813 14.6019 13.4977C14.5808 13.4874 14.5773 13.485 14.5443 13.4684C14.528 13.4602 14.5154 13.4542 14.4984 13.446C14.3808 13.3749 14.408 13.1861 14.5648 13.0846C14.5771 13.0824 14.59 13.0787 14.6038 13.0768L14.5999 13.0622H14.6019L14.6058 13.0768ZM14.2278 13.9245C14.278 14.0721 14.2793 14.1558 14.223 14.2907C14.1783 14.2657 14.135 14.2224 14.1038 14.1774C14.1063 14.1739 14.1089 14.1717 14.1097 14.1706H14.098C14.0996 14.173 14.1021 14.1749 14.1038 14.1774C14.0969 14.187 14.0867 14.2037 14.0823 14.2096C14.0705 14.2256 14.0593 14.2388 14.0472 14.2516C14.0324 14.2673 14.0162 14.2817 14.0003 14.2848C14.0359 14.3509 14.1007 14.4134 14.18 14.4606C14.1668 14.5126 14.1639 14.5257 14.1351 14.653C14.0771 14.9087 14.0379 15.031 13.9573 15.1608C13.8607 15.3164 13.7408 15.4009 13.6478 15.3893C13.5837 15.3813 13.5471 15.3297 13.5413 15.2487C13.5545 15.1849 13.5649 15.131 13.5667 15.1217C13.5293 15.2682 13.5664 15.3633 13.6497 15.3737C13.7362 15.3843 13.8508 15.304 13.9446 15.153C14.0241 15.025 14.0637 14.9033 14.1214 14.6491C14.1502 14.522 14.1532 14.5088 14.1702 14.4655C14.0962 14.4279 14.0327 14.3678 13.9964 14.2946C13.8037 14.4332 13.5335 14.4133 13.5452 14.3034C13.546 14.2952 13.5472 14.2875 13.5491 14.2711C13.5554 14.2167 13.5567 14.1832 13.5501 14.1383C13.5526 14.1544 13.5587 14.168 13.5667 14.1803C13.5679 14.2084 13.5681 14.2361 13.5638 14.2731C13.5619 14.2891 13.5606 14.2964 13.5599 14.3044C13.5499 14.3958 13.8049 14.4154 13.9896 14.2819C14.0731 14.2214 14.1719 14.058 14.2142 13.9245H14.2278ZM14.2191 13.9489C14.1939 14.0206 14.1545 14.0979 14.1107 14.1637C14.1408 14.209 14.1857 14.252 14.22 14.2809C14.2629 14.1594 14.2619 14.0815 14.2191 13.9489ZM11.9564 11.5856C12.1589 11.6069 12.3847 11.7128 12.596 11.8854C12.6172 11.8605 12.6291 11.8466 12.6409 11.8317C12.6726 11.7919 12.6947 11.7574 12.7073 11.7253C12.7292 11.6694 12.7207 11.625 12.6732 11.5905C12.6899 11.6029 12.706 11.6169 12.723 11.6305C12.7358 11.6602 12.7358 11.6934 12.721 11.7311C12.7077 11.765 12.6852 11.8006 12.6526 11.8415C12.6405 11.8567 12.6281 11.871 12.597 11.8971C12.3778 11.727 12.1545 11.622 11.9603 11.5993L11.887 11.6628C11.8815 11.6622 11.8759 11.6603 11.8704 11.6598L11.8753 11.6735L11.887 11.6628C12.2836 11.7057 12.7694 12.0691 13.0941 12.5436C13.4075 13.0018 13.7488 13.2918 14.1673 13.5211C14.1497 13.5521 14.1441 13.5801 14.139 13.6442V13.6452C14.1378 13.6602 14.137 13.6685 14.136 13.6774C14.1075 13.939 13.9906 14.1216 13.8333 14.2008C13.7209 14.2573 13.6091 14.2455 13.5667 14.1803C13.5661 14.166 13.5661 14.1511 13.5638 14.1354C13.5775 14.2237 13.7004 14.2504 13.8265 14.1872C13.9792 14.1104 14.0933 13.9328 14.1214 13.6764C14.1224 13.6676 14.1231 13.6592 14.1243 13.6442V13.6422C14.1296 13.576 14.1354 13.5469 14.1575 13.5241C13.7401 13.3045 13.3963 13.0136 13.0814 12.5534C12.7545 12.0756 12.264 11.7095 11.8694 11.6754L11.8655 11.6618L11.9564 11.5856ZM13.6605 12.7692C13.7153 12.8388 13.6719 12.9133 13.5609 12.987C13.7538 13.1816 13.9555 13.3311 14.1849 13.4606C14.1898 13.4468 14.2026 13.4307 14.2376 13.3971C14.2409 13.3939 14.2411 13.3935 14.2444 13.3903C14.2661 13.3693 14.2786 13.3563 14.2855 13.3444C14.2927 13.3318 14.292 13.3242 14.2806 13.3083C14.2833 13.3032 14.3084 13.2552 14.3157 13.2419C14.3778 13.129 14.4398 13.0841 14.5989 13.0622C14.5864 13.0684 14.5759 13.0774 14.5648 13.0846C14.4371 13.1075 14.3832 13.1493 14.3284 13.2487C14.3213 13.2616 14.2956 13.3104 14.2903 13.3053C14.3071 13.3163 14.309 13.3331 14.2982 13.3522C14.2904 13.3658 14.2769 13.38 14.2542 13.402C14.2513 13.4048 14.2512 13.4052 14.2484 13.4079C14.2093 13.4453 14.1964 13.46 14.1956 13.4713L14.1849 13.4772C13.9515 13.3461 13.7462 13.1953 13.5511 12.986C13.6567 12.9054 13.6964 12.8382 13.6497 12.779C13.6255 12.7513 13.6027 12.7227 13.5794 12.694C13.5772 12.6779 13.5711 12.6616 13.5589 12.6461C13.592 12.6884 13.6255 12.7292 13.6605 12.7692ZM12.681 11.5778C12.7467 11.6264 12.8138 11.6835 12.8831 11.7497C12.9493 11.8113 12.8969 11.9124 12.7776 12.0309C12.9211 12.1666 13.0533 12.3257 13.1634 12.4928C13.2546 12.6311 13.35 12.7557 13.4398 12.8669C13.5505 12.7821 13.5943 12.7146 13.5482 12.6559C13.5583 12.6689 13.5692 12.6814 13.5794 12.694C13.587 12.7498 13.5372 12.8097 13.4388 12.8786C13.339 12.7659 13.2433 12.6405 13.1517 12.5016C13.0423 12.3356 12.9107 12.1776 12.7679 12.0319C12.8803 11.9094 12.9295 11.8136 12.8734 11.7614C12.8222 11.7126 12.7718 11.6696 12.723 11.6305C12.7147 11.6113 12.7021 11.5931 12.681 11.5778Z" fill="black"/>
<path d="M14.6235 12.873L14.7895 12.791L14.7993 12.7997L14.7563 12.9833L14.9243 13.0693V13.0829L14.7612 13.163L14.8032 13.3535L14.7934 13.3622L14.6313 13.2792L14.5131 13.4316L14.5004 13.4286L14.4633 13.2441L14.2768 13.2431L14.2709 13.2314L14.3842 13.0849L14.268 12.9316L14.2739 12.9189L14.4545 12.9208L14.4965 12.7304L14.5092 12.7275L14.6235 12.873ZM14.5024 13.4218L14.5151 13.4247L14.5112 13.4101L14.5024 13.4218ZM14.4614 12.9306L14.2885 12.9335L14.2797 12.9218L14.2739 12.9345L14.2885 12.9335L14.3959 13.0849L14.2914 13.2275H14.2768L14.2827 13.2402L14.2914 13.2275L14.4711 13.2353L14.5112 13.4101L14.6284 13.2675L14.7866 13.3417L14.7504 13.1581L14.9057 13.0751L14.9184 13.0829V13.0693L14.9057 13.0751L14.7455 12.9882L14.7817 12.8105L14.7953 12.8046L14.7856 12.7968L14.7817 12.8105L14.6254 12.8896L14.6166 12.8876L14.5063 12.748L14.4614 12.9306ZM14.7895 13.3574L14.7993 13.3486L14.7866 13.3417L14.7895 13.3574ZM14.4975 12.7372L14.5063 12.748L14.5102 12.7343L14.4975 12.7372Z" fill="black"/>
<path d="M18.7798 5.30579C19.1734 5.19642 19.3683 5.17207 19.6636 5.23547C19.9352 5.29381 19.9986 5.56169 19.8453 5.68762C19.7871 5.73533 19.712 5.77337 19.5963 5.81555C19.5419 5.83535 19.3182 5.90909 19.2808 5.922C19.2453 5.93424 19.2092 5.95137 19.1705 5.97375C19.1312 5.99649 19.0903 6.02349 19.0377 6.06165C19.0319 6.06583 19.0164 6.07585 18.9986 6.08899C19.0159 6.07339 19.0304 6.05781 19.0416 6.04016C19.0888 6.00628 19.1269 5.9813 19.1636 5.96008C19.1855 5.94746 19.2074 5.93826 19.2281 5.92883L19.2291 5.93372L19.2398 5.94055C19.2635 5.93128 19.2811 5.9167 19.2955 5.90051C19.362 5.87807 19.5434 5.81839 19.5914 5.8009C19.7058 5.75922 19.7798 5.72236 19.8365 5.6759C19.9801 5.55807 19.9203 5.30584 19.6607 5.25012C19.3682 5.18732 19.1752 5.21166 18.7838 5.32043C18.7703 5.32418 18.7699 5.32353 18.7564 5.32727C18.4076 5.42399 18.2223 5.44835 17.9625 5.39954C17.5758 5.3269 17.3984 5.41561 17.4195 5.77942C17.459 6.4588 17.3952 6.93018 17.0816 7.55481C16.8148 8.08614 16.725 8.69573 16.8736 9.08606L16.8629 9.09583C16.781 9.04512 16.7054 9.00952 16.5689 8.95422C16.3007 8.84557 16.2087 8.80153 16.0552 8.6925C15.6909 8.43371 15.2962 8.21705 14.8541 8.05383C14.8546 8.05145 14.8565 8.04938 14.857 8.047L14.8482 8.05188C14.8501 8.05259 14.8521 8.05312 14.8541 8.05383C14.7754 8.41587 14.4507 8.74985 14.0679 8.8634C13.9695 9.15233 14.1256 9.63034 14.3882 9.91223C14.5301 9.98085 14.6772 10.0385 14.8306 10.0851C15.3037 10.2285 15.6916 10.259 16.4615 10.2609C16.8564 10.2618 17.0107 10.2675 17.1754 10.295C17.437 10.3388 17.7954 10.1271 17.8414 9.8009C17.849 9.74671 17.8598 9.69663 17.8755 9.63977C17.8843 9.60807 17.9204 9.49146 17.9244 9.47864C17.9461 9.406 17.9625 9.34202 17.9791 9.26868C18.0331 9.03006 18.0734 8.72199 18.0992 8.27942C18.1091 8.10883 18.1117 8.0411 18.1246 7.67688C18.1407 7.2211 18.1551 7.03562 18.1968 6.9054C18.3059 6.56554 18.3938 6.41278 18.5777 6.33508C18.6513 6.30398 18.7177 6.2639 18.7925 6.21497L18.7964 6.22473L18.8023 6.22668C18.7259 6.27675 18.6577 6.31698 18.5826 6.34875C18.4041 6.4242 18.3192 6.5746 18.2115 6.91028C18.1703 7.03848 18.1553 7.22367 18.1392 7.67786C18.1263 8.04199 18.1228 8.10966 18.1129 8.2804C18.0871 8.72376 18.048 9.03305 17.9937 9.27258C17.9771 9.34609 17.9598 9.4098 17.938 9.48254C17.9412 9.47211 17.899 9.60864 17.8892 9.64368C17.8736 9.6999 17.8635 9.7494 17.856 9.80286C17.8089 10.1385 17.4425 10.3556 17.1734 10.3107C17.0096 10.2833 16.8558 10.2775 16.4615 10.2765C15.6903 10.2746 15.3015 10.2437 14.8267 10.0997C14.6725 10.053 14.5242 9.99549 14.3795 9.92493C14.1111 9.63764 13.9528 9.15358 14.0582 8.85364C14.4437 8.73618 14.7688 8.40239 14.8433 8.04309L14.8531 8.03821C15.2989 8.20218 15.6971 8.41913 16.064 8.67981C16.2162 8.7879 16.307 8.83147 16.5738 8.93958C16.7021 8.99157 16.7772 9.02718 16.8541 9.07336C16.7131 8.67779 16.8034 8.07479 17.0679 7.54797C17.3803 6.92596 17.4442 6.45742 17.4048 5.7804C17.383 5.40409 17.57 5.31083 17.9644 5.38489C18.2218 5.43328 18.4056 5.4088 18.7525 5.31262C18.7659 5.30889 18.7664 5.30952 18.7798 5.30579ZM18.8082 6.22864L18.8023 6.22668C18.8091 6.22223 18.8159 6.21766 18.8228 6.21301C18.8176 6.21769 18.8141 6.22442 18.8082 6.22864ZM18.8101 6.21985L18.7994 6.21594C18.8021 6.214 18.8037 6.21018 18.8062 6.20813L18.8101 6.21985ZM18.6089 5.62805C18.836 5.85529 18.9211 6.05681 18.855 6.17395C18.8414 6.18353 18.8272 6.19148 18.814 6.20032C18.9178 6.10402 18.852 5.90337 18.6216 5.66418L18.6109 5.63098L18.5992 5.63977C18.6071 5.6477 18.6141 5.65633 18.6216 5.66418L18.8052 6.20618C18.8009 6.20905 18.7968 6.21217 18.7925 6.21497L18.5972 5.63684L18.6089 5.62805ZM18.9654 6.10461L18.9722 6.10852C18.9422 6.13064 18.9106 6.1547 18.8961 6.16516C18.8712 6.18304 18.8459 6.19748 18.8228 6.21301C18.836 6.2011 18.8467 6.18867 18.855 6.17395C18.8655 6.1666 18.8774 6.16028 18.8882 6.15247C18.9028 6.142 18.9336 6.11779 18.9634 6.09583L18.9654 6.10461ZM18.8062 6.20813L18.8052 6.20618C18.8082 6.20424 18.8111 6.20229 18.814 6.20032C18.8113 6.20283 18.8092 6.20577 18.8062 6.20813ZM18.9761 6.11047L18.9722 6.10852C18.9814 6.10178 18.9903 6.09508 18.9986 6.08899C18.9913 6.09558 18.9845 6.10416 18.9761 6.11047ZM18.98 6.10266L18.9683 6.09778C18.972 6.09498 18.9746 6.09086 18.9781 6.08801L18.98 6.10266ZM18.9029 5.54993C19.0676 5.79937 19.1055 5.93916 19.0416 6.04016C19.0375 6.0431 19.0331 6.04587 19.0289 6.04895C19.0234 6.05292 19.0092 6.06127 18.9927 6.07336C19.0944 5.97802 19.0788 5.85141 18.9078 5.58606L18.9039 5.55286L18.8912 5.55872C18.8972 5.56779 18.9021 5.57728 18.9078 5.58606L18.9771 6.08508C18.9725 6.08845 18.9682 6.09234 18.9634 6.09583L18.8902 5.55579L18.9029 5.54993ZM18.9781 6.08801L18.9771 6.08508C18.9826 6.08107 18.9877 6.07704 18.9927 6.07336C18.9878 6.078 18.9836 6.08352 18.9781 6.08801ZM19.2447 5.93274L19.233 5.92688L19.2339 5.92493C19.2372 5.9235 19.2405 5.92237 19.2437 5.92102L19.2447 5.93274ZM19.2164 5.547C19.3313 5.68049 19.3634 5.82411 19.2955 5.90051C19.287 5.90337 19.2802 5.90588 19.2759 5.90735C19.2651 5.91109 19.2547 5.91639 19.2437 5.92102V5.92004C19.3482 5.86911 19.3332 5.72233 19.2193 5.57825L19.2183 5.55188L19.2037 5.55676C19.3367 5.71137 19.3546 5.87669 19.2339 5.92493C19.2318 5.92586 19.2302 5.92787 19.2281 5.92883L19.2017 5.55286L19.2164 5.547Z" fill="black"/>
<path d="M14.6339 8.55478C14.7748 8.61676 14.837 8.65377 15.0235 8.77939C15.2471 8.92998 15.4017 9.00085 15.7208 9.0704C16.1002 9.15323 16.5813 9.33247 16.8067 9.47275L16.7745 9.5704C16.5536 9.43928 16.0741 9.26117 15.6964 9.1788C15.3753 9.10882 15.2184 9.03747 14.9932 8.88583C14.8085 8.76141 14.7479 8.72431 14.6094 8.66318C14.5748 8.6479 14.5383 8.63276 14.5001 8.61826L14.4981 8.60556C14.5203 8.58567 14.5564 8.54996 14.5782 8.53134C14.5972 8.53906 14.6158 8.54684 14.6339 8.55478ZM14.5157 8.60751C14.5123 8.60621 14.5084 8.6049 14.5049 8.60361L14.5079 8.61728C14.5107 8.61472 14.5125 8.61049 14.5157 8.60751C14.5505 8.6209 14.5835 8.63546 14.6153 8.64951C14.7546 8.71102 14.816 8.74752 15.001 8.87216C15.2248 9.02284 15.3801 9.0936 15.6993 9.16318C16.0785 9.24584 16.5599 9.42479 16.7715 9.56161L16.796 9.47763C16.5754 9.34665 16.0959 9.16756 15.7178 9.08505C15.3971 9.01513 15.2405 8.94442 15.0157 8.79306C14.8298 8.6679 14.7679 8.63097 14.628 8.56943C14.6101 8.56154 14.5919 8.55283 14.5811 8.54306C14.5686 8.55809 14.5381 8.58675 14.5157 8.60751Z" fill="black"/>
<path d="M14.8531 8.03772C15.2989 8.2017 15.697 8.41959 16.064 8.6803C16.2161 8.78828 16.307 8.83196 16.5738 8.94006C16.711 8.99566 16.7883 9.03066 16.8736 9.09241L16.7818 9.23987C16.6672 9.16941 16.3834 9.04247 16.1744 8.96252C16.1739 8.98444 16.1669 9.0097 16.149 9.0426C16.1451 9.04981 16.141 9.05719 16.1353 9.06702C16.1079 9.11401 16.102 9.12483 16.0972 9.14124C16.0917 9.16053 16.0965 9.17101 16.1138 9.17639L16.1089 9.19104C16.0967 9.18747 16.0876 9.18433 16.064 9.17737C16.0393 9.17003 16.0387 9.17026 16.0132 9.16272C16.0104 9.16188 16.0102 9.1616 16.0074 9.16077C15.9336 9.13895 15.8894 9.12584 15.8629 9.11975C15.8286 9.11074 15.821 9.08537 15.8355 9.04651C15.8454 9.02019 15.845 9.02122 15.9019 8.92834C15.9153 8.90652 15.9253 8.88892 15.9341 8.87268C15.9509 8.84161 15.9622 8.81507 15.9732 8.80042C15.9187 8.78471 15.8595 8.75514 15.7838 8.70862C15.7392 8.68126 15.5706 8.57006 15.5689 8.56897C15.4303 8.4793 15.323 8.42172 15.2095 8.38147C15.2044 8.41154 15.1751 8.45115 15.0865 8.55237C15.0832 8.55609 15.0829 8.55646 15.0797 8.56018C15.0298 8.61724 15.0035 8.64975 14.9849 8.67932C14.9627 8.71489 14.9592 8.73641 14.9732 8.74573C14.9655 8.74065 14.9574 8.73607 14.9498 8.73108C14.9494 8.7154 14.9573 8.69541 14.9722 8.67151C14.9914 8.64083 15.0181 8.60758 15.0689 8.54944C15.0721 8.54578 15.0726 8.54614 15.0757 8.5426C15.1693 8.43577 15.1983 8.39732 15.1978 8.3717L15.2066 8.36389C15.3241 8.40471 15.4342 8.46404 15.5767 8.55627C15.5794 8.55801 15.7461 8.66757 15.7906 8.69495C15.8656 8.74106 15.9247 8.76995 15.983 8.79456C15.9766 8.81998 15.9644 8.84811 15.9468 8.88049C15.9379 8.89697 15.928 8.91422 15.9146 8.93616C15.8587 9.02736 15.8585 9.02676 15.8492 9.05139C15.8374 9.08275 15.8418 9.09869 15.8658 9.1051C15.8925 9.11123 15.9372 9.12421 16.0113 9.14612C16.0141 9.14695 16.0144 9.14628 16.0172 9.14709C16.0428 9.15471 16.0431 9.15536 16.0679 9.16272C16.0739 9.16449 16.0791 9.16532 16.0836 9.16663C16.0809 9.1581 16.0801 9.14816 16.0836 9.13635C16.0889 9.1181 16.0943 9.10782 16.1226 9.0592C16.1284 9.0493 16.1324 9.04194 16.1363 9.03479C16.1557 8.99912 16.1651 8.97389 16.1627 8.95374L16.1724 8.94592C16.3829 9.02601 16.672 9.1556 16.7789 9.2301L16.8629 9.09534C16.7811 9.0447 16.7053 9.00899 16.5689 8.95374C16.3008 8.84513 16.2087 8.802 16.0552 8.69299C15.6892 8.43297 15.2922 8.21543 14.857 8.04651C14.8497 8.0779 14.8337 8.13055 14.8209 8.17151C14.8196 8.17075 14.8182 8.17032 14.817 8.16956L14.8199 8.17834C14.8205 8.1763 14.8202 8.17362 14.8209 8.17151C14.8837 8.21008 14.948 8.24371 15.0093 8.27502C15.0072 8.2827 15.0047 8.29057 15.0015 8.29846C14.9831 8.34451 14.9516 8.39044 14.899 8.45276C14.8899 8.46356 14.8523 8.50746 14.8433 8.51819C14.8239 8.54137 14.8098 8.55878 14.8004 8.57385C14.7792 8.60762 14.7791 8.62677 14.8013 8.63831C14.8239 8.65021 14.8845 8.68835 14.9498 8.73108C14.95 8.74287 14.9552 8.75262 14.9654 8.7594C14.8924 8.71124 14.8201 8.66499 14.7955 8.65198C14.7629 8.63534 14.7629 8.60592 14.7886 8.56506C14.7986 8.54923 14.8126 8.5312 14.8326 8.50745C14.8421 8.49615 14.8793 8.45259 14.8882 8.44202C14.9396 8.38114 14.9703 8.33654 14.9879 8.2926C14.9909 8.28507 14.9941 8.27782 15.0005 8.27991C14.9416 8.25696 14.8748 8.22222 14.8101 8.18225L14.8062 8.17346C14.8193 8.13211 14.8361 8.07567 14.8531 8.03772ZM16.0836 9.16663C16.087 9.17766 16.0944 9.18649 16.1089 9.19104L16.1129 9.17639C16.1037 9.17373 16.0966 9.17047 16.0836 9.16663ZM17.1851 8.44788C17.4129 8.4498 17.6285 8.46747 17.7886 8.50061C17.9886 8.54206 18.096 8.60638 18.0855 8.69885L18.0767 8.70471L17.1832 8.4635L17.1851 8.44788ZM18.0709 8.6969L18.0806 8.69006L18.0699 8.68713C18.0699 8.69034 18.0712 8.69363 18.0709 8.6969ZM18.0699 8.68713C18.0701 8.6113 17.9707 8.55358 17.7857 8.51526C17.6422 8.48556 17.4536 8.46983 17.2515 8.46545L18.0699 8.68713ZM17.1851 8.4635C17.2073 8.46369 17.2296 8.46498 17.2515 8.46545L17.1871 8.44885L17.1851 8.4635ZM17.1431 8.17346H17.1422L17.1265 8.17151V8.17053L17.1431 8.17346Z" fill="black"/>
<path d="M17.8006 6.11243C18.0306 6.00762 18.2397 6.02257 18.3836 6.1261C18.4852 6.19918 18.5302 6.30503 18.4998 6.3761C18.4887 6.38358 18.4776 6.39167 18.4637 6.40344C18.5297 6.34681 18.4902 6.2218 18.3748 6.13879C18.2351 6.0385 18.032 6.0243 17.8065 6.12708C17.7983 6.13077 17.7915 6.13367 17.7772 6.14075C17.7759 6.14137 17.7755 6.1411 17.7742 6.14172C17.7195 6.16869 17.6921 6.17879 17.6629 6.17004C17.6905 6.65889 17.6222 7.11662 17.4002 7.63293C17.1695 8.16903 17.1129 8.79909 17.282 9.17493L17.2723 9.18469L17.1649 9.14075C17.0811 8.94565 17.0558 8.68701 17.0926 8.40833C17.0904 8.40785 17.0639 8.40228 17.0555 8.40051C17.0253 8.39416 17.0014 8.39033 16.9783 8.38782C16.875 8.37659 16.8167 8.40293 16.8104 8.48645C16.8123 8.46435 16.8153 8.44196 16.8182 8.41907C16.8468 8.37755 16.9014 8.3638 16.9793 8.37219C17.003 8.37476 17.0277 8.37941 17.0584 8.38586C17.0669 8.38764 17.092 8.39302 17.1004 8.40149C17.0697 8.68604 17.0952 8.9427 17.1736 9.13098L17.2625 9.16516C17.0996 8.78311 17.1574 8.15957 17.3865 7.62708C17.6077 7.11283 17.6762 6.65711 17.6561 6.16223C17.6897 6.16281 17.7156 6.15409 17.7684 6.12805C17.7696 6.12743 17.77 6.1277 17.7713 6.12708C17.7857 6.11999 17.7923 6.11619 17.8006 6.11243ZM17.2684 9.18079L17.2772 9.17102L17.2625 9.16516C17.2647 9.1703 17.2661 9.17574 17.2684 9.18079ZM17.2674 7.10852C17.3097 7.07476 17.3848 7.09094 17.4901 7.14563C17.447 7.29293 17.3909 7.44297 17.3221 7.59583C17.2398 7.77819 17.1756 7.97681 17.1268 8.17981C16.9698 8.13874 16.8664 8.14169 16.8514 8.21887C16.8368 8.28937 16.826 8.35582 16.8182 8.41907C16.8063 8.43631 16.7978 8.45772 16.7957 8.48547C16.803 8.40168 16.8168 8.31243 16.8367 8.21594C16.8545 8.1248 16.9646 8.12168 17.1219 8.17102C17.1621 7.97261 17.2266 7.77247 17.3094 7.58899C17.3778 7.43697 17.4325 7.28773 17.4793 7.15051C17.3544 7.09242 17.2772 7.08646 17.2518 7.15735C17.2575 7.14121 17.2619 7.1247 17.2674 7.10852ZM18.7801 5.30579C19.1735 5.19648 19.3686 5.17208 19.6639 5.23547C19.9353 5.29397 19.9982 5.56183 19.8445 5.68762C19.7863 5.73531 19.7113 5.77239 19.5955 5.81458C19.5412 5.83437 19.3192 5.90885 19.2811 5.922L19.2801 5.92102C19.3286 5.90738 19.3672 5.88771 19.3973 5.86536C19.4724 5.84016 19.5592 5.81233 19.5906 5.8009C19.705 5.75924 19.7791 5.72231 19.8358 5.6759C19.9795 5.55819 19.9204 5.30599 19.6609 5.25012C19.3684 5.18731 19.1746 5.21163 18.783 5.32043C18.7701 5.32403 18.7697 5.32364 18.7567 5.32727C18.4077 5.42404 18.2217 5.44843 17.9617 5.39954C17.7832 5.36603 17.6537 5.36721 17.5623 5.41223C17.4534 5.46601 17.4028 5.58322 17.4188 5.77942C17.4206 5.80199 17.4206 5.80202 17.4236 5.8429C17.4238 5.84435 17.4236 5.8446 17.4236 5.84583C17.425 5.86409 17.4268 5.87859 17.4285 5.89856C17.4285 6.04008 17.2615 6.10973 17.1004 6.02063C17.0916 6.00975 17.0802 6.00002 17.0711 5.98743L17.0613 5.99817C17.0739 6.00729 17.0876 6.01357 17.1004 6.02063C17.1477 6.07945 17.188 6.11597 17.2322 6.13391C17.274 6.15077 17.3062 6.15323 17.3943 6.15149C17.4083 6.15122 17.4146 6.15117 17.4158 6.15833C17.4166 6.13659 17.431 6.12691 17.4539 6.12805C17.4696 6.12889 17.487 6.13394 17.5193 6.14465C17.5215 6.14537 17.5221 6.14492 17.5242 6.14563C17.5726 6.1617 17.5908 6.16623 17.6004 6.16125L17.6111 6.16809C17.6198 6.44548 17.5974 6.70814 17.5223 6.99036C17.4027 6.93474 17.3283 6.93201 17.3026 7.00403C17.2918 7.03975 17.279 7.07397 17.2674 7.10852C17.2548 7.11858 17.2449 7.13322 17.2381 7.15247C17.256 7.10213 17.2721 7.0517 17.2879 6.99915C17.3181 6.91454 17.4017 6.91751 17.5184 6.98157C17.5826 6.70839 17.6045 6.44927 17.5965 6.1759C17.5826 6.17815 17.5629 6.17475 17.5193 6.16028L17.4529 6.14368C17.4373 6.1429 17.4312 6.14713 17.4236 6.16614C17.4153 6.16623 17.4085 6.16684 17.3943 6.16711C17.3041 6.1689 17.2706 6.16551 17.2264 6.14758C17.1713 6.1251 17.1192 6.07877 17.0594 5.99622L17.0692 5.98547C17.2319 6.10335 17.4138 6.03776 17.4139 5.89954C17.4122 5.88021 17.4113 5.86597 17.41 5.84778C17.4099 5.84619 17.4091 5.84546 17.409 5.84387C17.406 5.80319 17.4059 5.80298 17.4041 5.7804C17.3877 5.57863 17.4407 5.4554 17.5555 5.39856C17.6504 5.35166 17.783 5.35076 17.9647 5.38489C18.222 5.43328 18.4057 5.40886 18.7527 5.31262C18.7662 5.30889 18.7666 5.30953 18.7801 5.30579ZM19.1131 5.53333C19.2895 5.54333 19.4186 5.61012 19.4559 5.70032C19.4809 5.76141 19.4584 5.81996 19.3973 5.86536C19.3414 5.88411 19.2922 5.90183 19.2762 5.90735C19.4154 5.86819 19.4759 5.78792 19.4432 5.70715C19.4088 5.62307 19.2839 5.55869 19.1121 5.54895C19.0233 5.54396 18.9334 5.55357 18.8309 5.57727C18.7585 5.59401 18.7292 5.60304 18.5584 5.65637C18.5046 5.67318 18.4666 5.68459 18.4334 5.68762C18.4394 5.77335 18.4206 5.86029 18.3787 5.92981C18.5899 6.03558 18.7081 6.29267 18.6111 6.33704C18.6067 6.33914 18.6062 6.33874 18.6014 6.34094C18.5217 6.37722 18.5115 6.38309 18.4734 6.41516C18.4861 6.40425 18.4937 6.3905 18.4998 6.3761C18.5203 6.36236 18.5431 6.35113 18.5955 6.32727C18.6003 6.32506 18.6006 6.32462 18.6053 6.32239C18.6857 6.28559 18.5744 6.04458 18.3719 5.94348C18.2803 5.89773 18.0961 5.88979 17.9647 5.91809L17.9578 5.9054C18.0547 5.78594 18.1231 5.74283 18.2625 5.72668C18.2643 5.77956 18.2497 5.84008 18.2283 5.89075C18.2261 5.89047 18.2238 5.89033 18.2195 5.88977L18.2254 5.90051C18.2268 5.89746 18.227 5.89389 18.2283 5.89075C18.23 5.89095 18.2319 5.89133 18.2352 5.89172C18.3024 5.89983 18.3327 5.90699 18.369 5.93274C18.4057 5.86711 18.4244 5.77669 18.4236 5.68079C18.462 5.66993 18.4999 5.65846 18.5535 5.64172C18.7249 5.58821 18.755 5.57948 18.8279 5.56262C18.9317 5.53865 19.0228 5.52823 19.1131 5.53333ZM18.2557 5.7345C18.1341 5.75629 18.0694 5.79512 17.9813 5.90051C18.0532 5.88733 18.1372 5.88375 18.2137 5.89075C18.2357 5.84108 18.2491 5.77984 18.2557 5.7345Z" fill="black"/>
</g>
</svg>
