<svg width="28" height="20" viewBox="0 0 28 20" fill="none" xmlns="http://www.w3.org/2000/svg">
<rect x="0.25" y="0.25" width="27.5" height="19.5" rx="1.75" fill="white" stroke="#F5F5F5" stroke-width="0.5"/>
<mask id="mask0_16378_6265" style="mask-type:luminance" maskUnits="userSpaceOnUse" x="0" y="0" width="28" height="20">
<rect x="0.25" y="0.25" width="27.5" height="19.5" rx="1.75" fill="white" stroke="white" stroke-width="0.5"/>
</mask>
<g mask="url(#mask0_16378_6265)">
<path fill-rule="evenodd" clip-rule="evenodd" d="M0 6.66667H28V0H0V6.66667Z" fill="#38BB56"/>
<path fill-rule="evenodd" clip-rule="evenodd" d="M0 20H28V13.3333H0V20Z" fill="#DE1B27"/>
<path d="M2.33334 13.3333C2.51733 13.3333 2.66618 13.4824 2.66635 13.6664V14.3333C2.66635 14.5174 2.51744 14.6664 2.33334 14.6664H1.66635C1.48241 14.6662 1.33334 14.5173 1.33334 14.3333V13.6664C1.33352 13.4825 1.48251 13.3335 1.66635 13.3333H2.33334ZM5.00034 13.3333C5.18417 13.3335 5.33317 13.4825 5.33334 13.6664V14.3333C5.33334 14.5173 5.18428 14.6662 5.00034 14.6664H4.33334C4.14925 14.6664 4.00034 14.5174 4.00034 14.3333V13.6664C4.00051 13.4824 4.14936 13.3333 4.33334 13.3333H5.00034ZM7.66635 13.3333C7.85034 13.3333 8.00016 13.4824 8.00034 13.6664V14.3333C8.00034 14.5174 7.85045 14.6664 7.66635 14.6664H7.00034C6.81624 14.6664 6.66635 14.5174 6.66635 14.3333V13.6664C6.66653 13.4824 6.81635 13.3333 7.00034 13.3333H7.66635ZM10.3333 13.3333C10.5173 13.3333 10.6662 13.4824 10.6664 13.6664V14.3333C10.6664 14.5174 10.5174 14.6664 10.3333 14.6664H9.66635C9.48241 14.6662 9.33334 14.5173 9.33334 14.3333V13.6664C9.33352 13.4825 9.48251 13.3335 9.66635 13.3333H10.3333ZM13.0003 13.3333C13.1842 13.3335 13.3332 13.4825 13.3333 13.6664V14.3333C13.3333 14.5173 13.1843 14.6662 13.0003 14.6664H12.3333C12.1492 14.6664 12.0003 14.5174 12.0003 14.3333V13.6664C12.0005 13.4824 12.1494 13.3333 12.3333 13.3333H13.0003ZM15.6664 13.3333C15.8503 13.3333 16.0002 13.4824 16.0003 13.6664V14.3333C16.0003 14.5174 15.8504 14.6664 15.6664 14.6664H15.0003C14.8162 14.6664 14.6664 14.5174 14.6664 14.3333V13.6664C14.6665 13.4824 14.8163 13.3333 15.0003 13.3333H15.6664ZM18.3333 13.3333C18.5173 13.3333 18.6662 13.4824 18.6664 13.6664V14.3333C18.6664 14.5174 18.5174 14.6664 18.3333 14.6664H17.6664C17.4824 14.6662 17.3333 14.5173 17.3333 14.3333V13.6664C17.3335 13.4825 17.4825 13.3335 17.6664 13.3333H18.3333ZM21.0003 13.3333C21.1842 13.3335 21.3332 13.4825 21.3333 13.6664V14.3333C21.3333 14.5173 21.1843 14.6662 21.0003 14.6664H20.3333C20.1492 14.6664 20.0003 14.5174 20.0003 14.3333V13.6664C20.0005 13.4824 20.1494 13.3333 20.3333 13.3333H21.0003ZM23.6664 13.3333C23.8503 13.3333 24.0002 13.4824 24.0003 13.6664V14.3333C24.0003 14.5174 23.8504 14.6664 23.6664 14.6664H23.0003C22.8162 14.6664 22.6664 14.5174 22.6664 14.3333V13.6664C22.6665 13.4824 22.8163 13.3333 23.0003 13.3333H23.6664ZM26.3333 13.3333C26.5173 13.3333 26.6662 13.4824 26.6664 13.6664V14.3333C26.6664 14.5174 26.5174 14.6664 26.3333 14.6664H25.6664C25.4824 14.6662 25.3333 14.5173 25.3333 14.3333V13.6664C25.3335 13.4825 25.4825 13.3335 25.6664 13.3333H26.3333ZM2.33334 5.33334C2.51733 5.33334 2.66618 5.48241 2.66635 5.66635V6.33334C2.66635 6.51744 2.51744 6.66635 2.33334 6.66635H1.66635C1.48241 6.66618 1.33334 6.51733 1.33334 6.33334V5.66635C1.33352 5.48251 1.48251 5.33352 1.66635 5.33334H2.33334ZM5.00034 5.33334C5.18417 5.33352 5.33317 5.48251 5.33334 5.66635V6.33334C5.33334 6.51733 5.18428 6.66618 5.00034 6.66635H4.33334C4.14925 6.66635 4.00034 6.51744 4.00034 6.33334V5.66635C4.00051 5.48241 4.14936 5.33334 4.33334 5.33334H5.00034ZM7.66635 5.33334C7.85034 5.33334 8.00016 5.48241 8.00034 5.66635V6.33334C8.00034 6.51744 7.85045 6.66635 7.66635 6.66635H7.00034C6.81624 6.66635 6.66635 6.51744 6.66635 6.33334V5.66635C6.66653 5.48241 6.81635 5.33334 7.00034 5.33334H7.66635ZM10.3333 5.33334C10.5173 5.33334 10.6662 5.48241 10.6664 5.66635V6.33334C10.6664 6.51744 10.5174 6.66635 10.3333 6.66635H9.66635C9.48241 6.66618 9.33334 6.51733 9.33334 6.33334V5.66635C9.33352 5.48251 9.48251 5.33352 9.66635 5.33334H10.3333ZM13.0003 5.33334C13.1842 5.33352 13.3332 5.48251 13.3333 5.66635V6.33334C13.3333 6.51733 13.1843 6.66618 13.0003 6.66635H12.3333C12.1492 6.66635 12.0003 6.51744 12.0003 6.33334V5.66635C12.0005 5.48241 12.1494 5.33334 12.3333 5.33334H13.0003ZM15.6664 5.33334C15.8503 5.33334 16.0002 5.48241 16.0003 5.66635V6.33334C16.0003 6.51744 15.8504 6.66635 15.6664 6.66635H15.0003C14.8162 6.66635 14.6664 6.51744 14.6664 6.33334V5.66635C14.6665 5.48241 14.8163 5.33334 15.0003 5.33334H15.6664ZM18.3333 5.33334C18.5173 5.33334 18.6662 5.48241 18.6664 5.66635V6.33334C18.6664 6.51744 18.5174 6.66635 18.3333 6.66635H17.6664C17.4824 6.66618 17.3333 6.51733 17.3333 6.33334V5.66635C17.3335 5.48251 17.4825 5.33352 17.6664 5.33334H18.3333ZM21.0003 5.33334C21.1842 5.33352 21.3332 5.48251 21.3333 5.66635V6.33334C21.3333 6.51733 21.1843 6.66618 21.0003 6.66635H20.3333C20.1492 6.66635 20.0003 6.51744 20.0003 6.33334V5.66635C20.0005 5.48241 20.1494 5.33334 20.3333 5.33334H21.0003ZM23.6664 5.33334C23.8503 5.33334 24.0002 5.48241 24.0003 5.66635V6.33334C24.0003 6.51744 23.8504 6.66635 23.6664 6.66635H23.0003C22.8162 6.66635 22.6664 6.51744 22.6664 6.33334V5.66635C22.6665 5.48241 22.8163 5.33334 23.0003 5.33334H23.6664ZM26.3333 5.33334C26.5173 5.33334 26.6662 5.48241 26.6664 5.66635V6.33334C26.6664 6.51744 26.5174 6.66635 26.3333 6.66635H25.6664C25.4824 6.66618 25.3333 6.51733 25.3333 6.33334V5.66635C25.3335 5.48251 25.4825 5.33352 25.6664 5.33334H26.3333Z" fill="white" fill-opacity="0.5"/>
<mask id="path-6-inside-1_16378_6265" fill="white">
<path fill-rule="evenodd" clip-rule="evenodd" d="M12.6535 8.52115C12.252 8.88694 12 9.41405 12 10C12 11.1046 12.8954 12 14 12C15.1046 12 16 11.1046 16 10C16 9.42511 15.7574 8.90686 15.3691 8.54203"/>
</mask>
<path d="M12.6535 8.52115L12.2045 8.02833C11.6702 8.51513 11.3333 9.2187 11.3333 10H12H12.6667C12.6667 9.60939 12.8338 9.25875 13.1025 9.01397L12.6535 8.52115ZM12 10H11.3333C11.3333 11.4728 12.5272 12.6667 14 12.6667V12V11.3333C13.2636 11.3333 12.6667 10.7364 12.6667 10H12ZM14 12V12.6667C15.4728 12.6667 16.6667 11.4728 16.6667 10H16H15.3333C15.3333 10.7364 14.7364 11.3333 14 11.3333V12ZM16 10H16.6667C16.6667 9.23352 16.3424 8.5417 15.8255 8.05613L15.3691 8.54203L14.9126 9.02793C15.1724 9.27202 15.3333 9.61669 15.3333 10H16Z" fill="#D80915" mask="url(#path-6-inside-1_16378_6265)"/>
<rect x="13.3333" y="9.33334" width="1.33333" height="2.66667" rx="0.666667" fill="#D80915"/>
</g>
</svg>
