<svg width="28" height="20" viewBox="0 0 28 20" fill="none" xmlns="http://www.w3.org/2000/svg">
<rect width="28" height="20" rx="2" fill="white"/>
<mask id="mask0_16378_6375" style="mask-type:luminance" maskUnits="userSpaceOnUse" x="0" y="0" width="28" height="20">
<rect width="28" height="20" rx="2" fill="white"/>
</mask>
<g mask="url(#mask0_16378_6375)">
<path fill-rule="evenodd" clip-rule="evenodd" d="M0 5.33333H28V0H0V5.33333Z" fill="#262626"/>
<path fill-rule="evenodd" clip-rule="evenodd" d="M0 20H28V14.6667H0V20Z" fill="#018301"/>
<path fill-rule="evenodd" clip-rule="evenodd" d="M0 14.6666H28V5.33331H0V14.6666Z" fill="white"/>
<path fill-rule="evenodd" clip-rule="evenodd" d="M0 13.3334H28V6.66669H0V13.3334Z" fill="#DC0808"/>
<path fill-rule="evenodd" clip-rule="evenodd" d="M14 16.6666C15.3333 16.6666 17.3333 14.0501 17.3333 9.99998C17.3333 5.94989 15.3333 3.33331 14 3.33331C12.6667 3.33331 10.6667 5.94989 10.6667 9.99998C10.6667 14.0501 12.6667 16.6666 14 16.6666Z" fill="#BC0000"/>
<mask id="mask1_16378_6375" style="mask-type:luminance" maskUnits="userSpaceOnUse" x="10" y="3" width="8" height="14">
<path fill-rule="evenodd" clip-rule="evenodd" d="M14 16.6666C15.3333 16.6666 17.3333 14.0501 17.3333 9.99998C17.3333 5.94989 15.3333 3.33331 14 3.33331C12.6667 3.33331 10.6667 5.94989 10.6667 9.99998C10.6667 14.0501 12.6667 16.6666 14 16.6666Z" fill="white"/>
</mask>
<g mask="url(#mask1_16378_6375)">
<path fill-rule="evenodd" clip-rule="evenodd" d="M8.66665 17.3333C10.5076 17.3333 12 14.05 12 9.99996C12 5.94987 10.5076 2.66663 8.66665 2.66663C6.8257 2.66663 5.33331 5.94987 5.33331 9.99996C5.33331 14.05 6.8257 17.3333 8.66665 17.3333Z" fill="#262626"/>
<path fill-rule="evenodd" clip-rule="evenodd" d="M19.3333 17.3333C21.1743 17.3333 22.6667 14.05 22.6667 9.99996C22.6667 5.94987 21.1743 2.66663 19.3333 2.66663C17.4924 2.66663 16 5.94987 16 9.99996C16 14.05 17.4924 17.3333 19.3333 17.3333Z" fill="#262626"/>
<g filter="url(#filter0_d_16378_6375)">
<path d="M14.0003 11.9996C14.3683 12.0003 14.6663 13.1943 14.6663 14.6666C14.6663 16.139 14.3683 17.3329 14.0003 17.3336C13.6321 17.3336 13.3333 16.1394 13.3333 14.6666C13.3333 13.1939 13.6321 11.9996 14.0003 11.9996ZM14.0003 7.99963C14.3683 8.00016 14.6663 8.89554 14.6663 9.99963C14.6663 11.1039 14.3683 11.9991 14.0003 11.9996C13.6321 11.9996 13.3333 11.1042 13.3333 9.99963C13.3334 8.89521 13.6322 7.99963 14.0003 7.99963ZM14.0003 2.66663C14.3683 2.66733 14.6663 3.86129 14.6663 5.33362C14.6663 6.80579 14.3683 7.99893 14.0003 7.99963C13.6321 7.99963 13.3334 6.80623 13.3333 5.33362C13.3333 3.86086 13.6321 2.66663 14.0003 2.66663Z" fill="url(#paint0_linear_16378_6375)"/>
</g>
</g>
</g>
<defs>
<filter id="filter0_d_16378_6375" x="13.3333" y="2.66663" width="1.33301" height="15.667" filterUnits="userSpaceOnUse" color-interpolation-filters="sRGB">
<feFlood flood-opacity="0" result="BackgroundImageFix"/>
<feColorMatrix in="SourceAlpha" type="matrix" values="0 0 0 0 0 0 0 0 0 0 0 0 0 0 0 0 0 0 127 0" result="hardAlpha"/>
<feOffset dy="1"/>
<feColorMatrix type="matrix" values="0 0 0 0 0 0 0 0 0 0 0 0 0 0 0 0 0 0 0.06 0"/>
<feBlend mode="normal" in2="BackgroundImageFix" result="effect1_dropShadow_16378_6375"/>
<feBlend mode="normal" in="SourceGraphic" in2="effect1_dropShadow_16378_6375" result="shape"/>
</filter>
<linearGradient id="paint0_linear_16378_6375" x1="13.3333" y1="2.66663" x2="13.3333" y2="17.3336" gradientUnits="userSpaceOnUse">
<stop stop-color="white"/>
<stop offset="1" stop-color="#F0F0F0"/>
</linearGradient>
</defs>
</svg>
