<svg width="28" height="20" viewBox="0 0 28 20" fill="none" xmlns="http://www.w3.org/2000/svg">
<rect width="28" height="20" rx="2" fill="white"/>
<mask id="mask0_16378_6391" style="mask-type:luminance" maskUnits="userSpaceOnUse" x="0" y="0" width="28" height="20">
<rect width="28" height="20" rx="2" fill="white"/>
</mask>
<g mask="url(#mask0_16378_6391)">
<rect width="28" height="20" fill="#F22A46"/>
<path fill-rule="evenodd" clip-rule="evenodd" d="M14 13.3334C15.8409 13.3334 17.3333 11.841 17.3333 10C17.3333 8.15907 15.8409 6.66669 14 6.66669C12.159 6.66669 10.6667 8.15907 10.6667 10C10.6667 11.841 12.159 13.3334 14 13.3334Z" fill="#FFF04D"/>
<path d="M16.0456 5.75287L18.5719 4.26654L17.6852 7.06146L20.6071 6.8183L18.5954 8.95111L21.3336 9.99994L18.5954 11.0488L20.6071 13.1816L17.6852 12.9384L18.5719 15.7333L16.0456 14.247L15.6315 17.1494L13.9997 14.7138L12.3678 17.1494L11.9547 14.247L9.4274 15.7333L10.3151 12.9384L7.39322 13.1816L9.40494 11.0488L6.66666 9.99994L9.40494 8.95111L7.39322 6.8183L10.3151 7.06146L9.4274 4.26654L11.9547 5.75287L12.3678 2.85052L13.9997 5.28607L15.6315 2.85052L16.0456 5.75287ZM13.9997 5.33295C11.4225 5.33312 9.33368 7.42274 9.33365 9.99994C9.33365 12.5772 11.4225 14.6668 13.9997 14.6669C16.577 14.6669 18.6667 12.5773 18.6667 9.99994C18.6666 7.42264 16.577 5.33295 13.9997 5.33295Z" fill="#FFF04D"/>
</g>
</svg>
