<svg width="28" height="20" viewBox="0 0 28 20" fill="none" xmlns="http://www.w3.org/2000/svg">
<rect width="28" height="20" rx="2" fill="white"/>
<mask id="mask0_16378_6334" style="mask-type:luminance" maskUnits="userSpaceOnUse" x="0" y="0" width="28" height="20">
<rect width="28" height="20" rx="2" fill="white"/>
</mask>
<g mask="url(#mask0_16378_6334)">
<path fill-rule="evenodd" clip-rule="evenodd" d="M0 5.33333H28V0H0V5.33333Z" fill="#0F3EB6"/>
<path fill-rule="evenodd" clip-rule="evenodd" d="M0 20H28V14.6667H0V20Z" fill="#0F3EB6"/>
<path fill-rule="evenodd" clip-rule="evenodd" d="M0 14.6666H28V5.33331H0V14.6666Z" fill="#ED1A3C"/>
<path d="M11.3337 13.3333H8.66669L9.99969 10.6663H11.3337V13.3333ZM15.9997 13.3333H11.9997V10.6663H15.9997V13.3333ZM19.3337 13.3333H16.6667V10.6663H17.9997L19.3337 13.3333ZM10.6667 8.00031C11.0348 8.00031 11.3335 8.29828 11.3337 8.66632V10.0003H9.99969V8.66632C9.99987 8.29828 10.2986 8.00031 10.6667 8.00031ZM13.9997 7.33331C14.3679 7.33331 14.6667 7.63212 14.6667 8.00031V8.72687H15.9997V10.0003H11.9997V8.72687H13.3337V8.00031C13.3337 7.63222 13.6317 7.33349 13.9997 7.33331ZM17.3337 8.00031C17.7016 8.00048 17.9995 8.29839 17.9997 8.66632V10.0003H16.6667V8.66632C16.6669 8.29828 16.9656 8.00031 17.3337 8.00031Z" fill="white"/>
</g>
</svg>
