<svg width="28" height="20" viewBox="0 0 28 20" fill="none" xmlns="http://www.w3.org/2000/svg">
<rect x="0.25" y="0.25" width="27.5" height="19.5" rx="1.75" fill="white" stroke="#F5F5F5" stroke-width="0.5"/>
<mask id="mask0_16378_5827" style="mask-type:luminance" maskUnits="userSpaceOnUse" x="0" y="0" width="28" height="20">
<rect x="0.25" y="0.25" width="27.5" height="19.5" rx="1.75" fill="white" stroke="white" stroke-width="0.5"/>
</mask>
<g mask="url(#mask0_16378_5827)">
<path fill-rule="evenodd" clip-rule="evenodd" d="M0 5.33333H28V0H0V5.33333Z" fill="#FFCB49"/>
<path fill-rule="evenodd" clip-rule="evenodd" d="M0 14.6667H28V9.33333H0V14.6667Z" fill="#DC1D34"/>
<path fill-rule="evenodd" clip-rule="evenodd" d="M0 20H28V14.6667H0V20Z" fill="#4985D4"/>
<path fill-rule="evenodd" clip-rule="evenodd" d="M0 20L13.3333 10L0 0V20Z" fill="#4BA343"/>
<path d="M5.33331 6C5.67861 6 6.0137 6.04371 6.33331 6.12598C4.60808 6.57002 3.33331 8.13616 3.33331 10C3.33331 11.8638 4.60808 13.43 6.33331 13.874C6.0137 13.9563 5.67861 14 5.33331 14C3.12417 14 1.33331 12.2091 1.33331 10C1.33331 7.79086 3.12417 6 5.33331 6ZM7.33331 12C7.7015 12 8.00031 12.2988 8.00031 12.667C8.00013 13.035 7.70139 13.333 7.33331 13.333C6.96523 13.333 6.6665 13.035 6.66632 12.667C6.66632 12.2988 6.96512 12 7.33331 12ZM7.33331 9.33301C7.7015 9.33301 8.00031 9.63181 8.00031 10C8.00031 10.3682 7.7015 10.667 7.33331 10.667C6.96512 10.667 6.66632 10.3682 6.66632 10C6.66632 9.63181 6.96512 9.33301 7.33331 9.33301ZM7.33331 6.66699C7.70139 6.66699 8.00013 6.96497 8.00031 7.33301C8.00031 7.7012 7.7015 8 7.33331 8C6.96512 8 6.66632 7.7012 6.66632 7.33301C6.6665 6.96497 6.96523 6.66699 7.33331 6.66699Z" fill="white"/>
</g>
</svg>
