<svg width="28" height="20" viewBox="0 0 28 20" fill="none" xmlns="http://www.w3.org/2000/svg">
<rect x="0.25" y="0.25" width="27.5" height="19.5" rx="1.75" fill="white" stroke="#F5F5F5" stroke-width="0.5"/>
<mask id="mask0_16378_6399" style="mask-type:luminance" maskUnits="userSpaceOnUse" x="0" y="0" width="28" height="20">
<rect x="0.25" y="0.25" width="27.5" height="19.5" rx="1.75" fill="white" stroke="white" stroke-width="0.5"/>
</mask>
<g mask="url(#mask0_16378_6399)">
<path fill-rule="evenodd" clip-rule="evenodd" d="M14 14.6666C16.5773 14.6666 18.6666 12.5773 18.6666 9.99998C18.6666 7.42265 16.5773 5.33331 14 5.33331C11.4227 5.33331 9.33331 7.42265 9.33331 9.99998C9.33331 12.5773 11.4227 14.6666 14 14.6666Z" fill="#E01B41"/>
<mask id="mask1_16378_6399" style="mask-type:luminance" maskUnits="userSpaceOnUse" x="9" y="5" width="10" height="10">
<path fill-rule="evenodd" clip-rule="evenodd" d="M14 14.6666C16.5773 14.6666 18.6666 12.5773 18.6666 9.99998C18.6666 7.42265 16.5773 5.33331 14 5.33331C11.4227 5.33331 9.33331 7.42265 9.33331 9.99998C9.33331 12.5773 11.4227 14.6666 14 14.6666Z" fill="white"/>
</mask>
<g mask="url(#mask1_16378_6399)">
<path fill-rule="evenodd" clip-rule="evenodd" d="M9.33332 10.6666C10.6666 11.9166 12.6666 12.6666 14 10.6666C15.3333 8.66663 18 8.66663 18.6666 10.6666C19.3333 12.6666 18.6666 14.6666 18.6666 14.6666H9.33332C9.33332 14.6666 7.99998 9.41663 9.33332 10.6666Z" fill="#0E4B9C"/>
</g>
<path opacity="0.75" d="M5.20581 12.7678C5.36518 12.6759 5.56883 12.7306 5.66089 12.8899L7.32788 15.7766C7.41989 15.936 7.36508 16.1396 7.20581 16.2317L6.62866 16.5657C6.46923 16.6577 6.26465 16.603 6.17261 16.4436L4.50659 13.5569C4.41454 13.3975 4.46923 13.1929 4.62866 13.1008L5.20581 12.7678ZM22.3386 12.8899C22.4307 12.7305 22.6352 12.6758 22.7947 12.7678L23.3718 13.1008C23.5312 13.1929 23.5859 13.3975 23.4939 13.5569L21.8269 16.4436C21.7349 16.6028 21.5312 16.6574 21.3718 16.5657L20.7947 16.2317C20.6352 16.1396 20.5806 15.936 20.6726 15.7766L22.3386 12.8899ZM6.93823 11.7678C7.09761 11.6761 7.30134 11.7306 7.39331 11.8899L9.05933 14.7766C9.15128 14.9359 9.09729 15.1395 8.93823 15.2317L8.36011 15.5657C8.20078 15.6574 7.99704 15.6028 7.90503 15.4436L6.23804 12.5569C6.146 12.3975 6.20072 12.1929 6.36011 12.1008L6.93823 11.7678ZM20.6072 11.8899C20.6993 11.7306 20.9029 11.6758 21.0623 11.7678L21.6394 12.1008C21.7988 12.1929 21.8535 12.3975 21.7615 12.5569L20.0945 15.4436C20.0024 15.6028 19.7987 15.6576 19.6394 15.5657L19.0623 15.2317C18.9029 15.1396 18.8482 14.936 18.9402 14.7766L20.6072 11.8899ZM7.90503 4.55688C7.99705 4.39751 8.2007 4.3429 8.36011 4.43481L8.93823 4.76782C9.09742 4.85993 9.15126 5.06357 9.05933 5.2229L7.39331 8.10962C7.3013 8.26899 7.09764 8.32359 6.93823 8.23169L6.36011 7.89868C6.201 7.80663 6.14632 7.60289 6.23804 7.4436L7.90503 4.55688ZM19.6394 4.43481C19.7988 4.34277 20.0024 4.39745 20.0945 4.55688L21.7615 7.4436C21.8534 7.60301 21.7988 7.80667 21.6394 7.89868L21.0623 8.23169C20.9028 8.32374 20.6992 8.26905 20.6072 8.10962L18.9402 5.2229C18.8484 5.06351 18.9029 4.85982 19.0623 4.76782L19.6394 4.43481ZM6.17261 3.55688C6.26465 3.39745 6.46923 3.34277 6.62866 3.43481L7.20581 3.76782C7.36513 3.8598 7.41965 4.06352 7.32788 4.2229L5.66089 7.10962C5.56884 7.26905 5.36524 7.32374 5.20581 7.23169L4.62866 6.89868C4.46926 6.80665 4.41462 6.60302 4.50659 6.4436L6.17261 3.55688ZM21.3718 3.43481C21.5312 3.34286 21.7349 3.39749 21.8269 3.55688L23.4939 6.4436C23.5856 6.60291 23.531 6.80664 23.3718 6.89868L22.7947 7.23169C22.6352 7.32374 22.4307 7.26905 22.3386 7.10962L20.6726 4.2229C20.5806 4.06349 20.6353 3.85985 20.7947 3.76782L21.3718 3.43481Z" fill="#262626"/>
</g>
</svg>
