<svg width="28" height="20" viewBox="0 0 28 20" fill="none" xmlns="http://www.w3.org/2000/svg">
<rect width="28" height="20" rx="2" fill="white"/>
<mask id="mask0_16378_6353" style="mask-type:luminance" maskUnits="userSpaceOnUse" x="0" y="0" width="28" height="20">
<rect width="28" height="20" rx="2" fill="white"/>
</mask>
<g mask="url(#mask0_16378_6353)">
<rect width="28" height="20" fill="#30C6E0"/>
<path fill-rule="evenodd" clip-rule="evenodd" d="M14 14C16.2091 14 18 12.2091 18 10C18 7.79086 16.2091 6 14 6C11.7909 6 10 7.79086 10 10C10 12.2091 11.7909 14 14 14Z" fill="#FFCD4B"/>
<path d="M16.0456 5.75287L18.5719 4.26654L17.6852 7.06146L20.6071 6.8183L18.5954 8.95111L21.3336 9.99994L18.5954 11.0488L20.6071 13.1816L17.6852 12.9384L18.5719 15.7333L16.0456 14.247L15.6315 17.1494L13.9997 14.7138L12.3678 17.1494L11.9547 14.247L9.4274 15.7333L10.3151 12.9384L7.39322 13.1816L9.40494 11.0488L6.66666 9.99994L9.40494 8.95111L7.39322 6.8183L10.3151 7.06146L9.4274 4.26654L11.9547 5.75287L12.3678 2.85052L13.9997 5.28607L15.6315 2.85052L16.0456 5.75287ZM13.9997 5.33295C11.4225 5.33312 9.33368 7.42274 9.33365 9.99994C9.33365 12.5772 11.4225 14.6668 13.9997 14.6669C16.577 14.6669 18.6667 12.5773 18.6667 9.99994C18.6666 7.42264 16.577 5.33295 13.9997 5.33295Z" fill="#FFCD4B"/>
<path d="M2.33334 17.3333C2.51733 17.3333 2.66618 17.4824 2.66635 17.6663V18.3333C2.66635 18.5174 2.51744 18.6663 2.33334 18.6663H1.66635C1.48241 18.6661 1.33334 18.5173 1.33334 18.3333V17.6663C1.33352 17.4825 1.48251 17.3335 1.66635 17.3333H2.33334ZM3.66635 16.0003C3.85045 16.0003 4.00034 16.1492 4.00034 16.3333V17.0003C4.00016 17.1843 3.85034 17.3333 3.66635 17.3333H3.00034C2.81635 17.3333 2.66653 17.1843 2.66635 17.0003V16.3333C2.66635 16.1492 2.81624 16.0003 3.00034 16.0003H3.66635ZM2.33334 14.6663C2.51744 14.6663 2.66635 14.8162 2.66635 15.0003V15.6663C2.66635 15.8504 2.51744 16.0003 2.33334 16.0003H1.66635C1.48241 16.0001 1.33334 15.8503 1.33334 15.6663V15.0003C1.33334 14.8163 1.48241 14.6665 1.66635 14.6663H2.33334ZM3.66635 13.3333C3.85034 13.3333 4.00016 13.4824 4.00034 13.6663V14.3333C4.00034 14.5174 3.85045 14.6663 3.66635 14.6663H3.00034C2.81624 14.6663 2.66635 14.5174 2.66635 14.3333V13.6663C2.66653 13.4824 2.81635 13.3333 3.00034 13.3333H3.66635ZM2.33334 12.0003C2.51744 12.0003 2.66635 12.1492 2.66635 12.3333V13.0003C2.66618 13.1842 2.51733 13.3333 2.33334 13.3333H1.66635C1.48251 13.3331 1.33352 13.1841 1.33334 13.0003V12.3333C1.33334 12.1493 1.48241 12.0005 1.66635 12.0003H2.33334ZM3.66635 10.6663C3.85045 10.6663 4.00034 10.8162 4.00034 11.0003V11.6663C4.00034 11.8504 3.85045 12.0003 3.66635 12.0003H3.00034C2.81624 12.0003 2.66635 11.8504 2.66635 11.6663V11.0003C2.66635 10.8162 2.81624 10.6663 3.00034 10.6663H3.66635ZM2.33334 9.33331C2.51733 9.33331 2.66618 9.48238 2.66635 9.66632V10.3333C2.66635 10.5174 2.51744 10.6663 2.33334 10.6663H1.66635C1.48241 10.6661 1.33334 10.5173 1.33334 10.3333V9.66632C1.33352 9.48248 1.48251 9.33349 1.66635 9.33331H2.33334ZM3.66635 8.00031C3.85045 8.00031 4.00034 8.14922 4.00034 8.33331V9.00031C4.00016 9.18425 3.85034 9.33331 3.66635 9.33331H3.00034C2.81635 9.33331 2.66653 9.18425 2.66635 9.00031V8.33331C2.66635 8.14922 2.81624 8.00031 3.00034 8.00031H3.66635ZM2.33334 6.66632C2.51744 6.66632 2.66635 6.81621 2.66635 7.00031V7.66632C2.66635 7.85042 2.51744 8.00031 2.33334 8.00031H1.66635C1.48241 8.00013 1.33334 7.85031 1.33334 7.66632V7.00031C1.33334 6.81632 1.48241 6.6665 1.66635 6.66632H2.33334ZM3.66635 5.33331C3.85034 5.33331 4.00016 5.48238 4.00034 5.66632V6.33331C4.00034 6.51741 3.85045 6.66632 3.66635 6.66632H3.00034C2.81624 6.66632 2.66635 6.51741 2.66635 6.33331V5.66632C2.66653 5.48238 2.81635 5.33331 3.00034 5.33331H3.66635ZM2.33334 4.00031C2.51744 4.00031 2.66635 4.14922 2.66635 4.33331V5.00031C2.66618 5.18425 2.51733 5.33331 2.33334 5.33331H1.66635C1.48251 5.33314 1.33352 5.18414 1.33334 5.00031V4.33331C1.33334 4.14933 1.48241 4.00048 1.66635 4.00031H2.33334ZM3.66635 2.66632C3.85045 2.66632 4.00034 2.81621 4.00034 3.00031V3.66632C4.00034 3.85042 3.85045 4.00031 3.66635 4.00031H3.00034C2.81624 4.00031 2.66635 3.85042 2.66635 3.66632V3.00031C2.66635 2.81621 2.81624 2.66632 3.00034 2.66632H3.66635ZM2.33334 1.33331C2.51733 1.33331 2.66618 1.48238 2.66635 1.66632V2.33331C2.66635 2.51741 2.51744 2.66632 2.33334 2.66632H1.66635C1.48241 2.66614 1.33334 2.5173 1.33334 2.33331V1.66632C1.33352 1.48248 1.48251 1.33349 1.66635 1.33331H2.33334Z" fill="#FFCD4B"/>
</g>
</svg>
