<svg width="28" height="20" viewBox="0 0 28 20" fill="none" xmlns="http://www.w3.org/2000/svg">
<rect x="0.25" y="0.25" width="27.5" height="19.5" rx="1.75" fill="white" stroke="#F5F5F5" stroke-width="0.5"/>
<mask id="mask0_16378_6486" style="mask-type:luminance" maskUnits="userSpaceOnUse" x="0" y="0" width="28" height="20">
<rect x="0.25" y="0.25" width="27.5" height="19.5" rx="1.75" fill="white" stroke="white" stroke-width="0.5"/>
</mask>
<g mask="url(#mask0_16378_6486)">
<path d="M28 18.667H0V16H28V18.667ZM28 13.333H13.333V10.667H28V13.333ZM28 8H13.333V5.33301H28V8ZM28 2.66699H13.333V0H28V2.66699Z" fill="#E1244A"/>
<rect width="13.3333" height="13.3333" fill="#0C3F8E"/>
<path fill-rule="evenodd" clip-rule="evenodd" d="M6.66669 8.22669L4.31555 9.90275L5.18304 7.14875L2.86246 5.43062L5.74974 5.40462L6.66669 2.66669L7.58363 5.40462L10.4709 5.43062L8.15034 7.14875L9.01783 9.90275L6.66669 8.22669Z" fill="white"/>
</g>
</svg>
