<svg width="28" height="20" viewBox="0 0 28 20" fill="none" xmlns="http://www.w3.org/2000/svg">
<rect width="28" height="20" rx="2" fill="white"/>
<mask id="mask0_16378_6669" style="mask-type:luminance" maskUnits="userSpaceOnUse" x="0" y="0" width="28" height="20">
<rect width="28" height="20" rx="2" fill="white"/>
</mask>
<g mask="url(#mask0_16378_6669)">
<rect width="28" height="20" fill="#E6BE53"/>
<path fill-rule="evenodd" clip-rule="evenodd" d="M1.33331 17.6666C1.33331 18.2189 1.78103 18.6666 2.33331 18.6666H25.6666C26.2189 18.6666 26.6666 18.2189 26.6666 17.6666V2.33331C26.6666 1.78103 26.2189 1.33331 25.6666 1.33331H2.33331C1.78103 1.33331 1.33331 1.78103 1.33331 2.33331V17.6666Z" fill="#E01826"/>
<path d="M8.49249 5.12036C8.82928 4.67131 9.53693 4.81416 9.67316 5.35864L9.98175 6.59595C9.99351 6.64293 10.0109 6.68835 10.0325 6.73169L10.6185 7.90356C10.6505 7.96752 10.6929 8.02584 10.7435 8.07642L11.054 8.38696C11.2082 8.54114 11.2081 8.79132 11.054 8.94556C10.8634 9.13612 10.9156 9.45778 11.1566 9.57837L11.4798 9.7395C11.7189 9.85901 12.0003 9.68549 12.0003 9.41821C12.0003 9.36239 12.0134 9.30701 12.0384 9.25708L12.4515 8.42993C12.5798 8.17327 12.5294 7.86331 12.3265 7.6604L11.3333 6.66626L11.3206 6.65356C10.9993 6.33186 11.0869 5.78975 11.4935 5.58618L11.5706 5.5481C11.8272 5.42001 12.1373 5.47029 12.3401 5.6731L13.5286 6.86157C13.789 7.12192 14.2107 7.12191 14.471 6.86157L14.6663 6.66626L15.6605 5.6731C15.8634 5.47029 16.1734 5.41979 16.43 5.5481L16.5062 5.58618C16.9131 5.78968 17.0006 6.33181 16.679 6.65356L16.6663 6.66626L15.6732 7.6604C15.4703 7.86331 15.4198 8.1733 15.5482 8.42993L15.9622 9.25708C15.9872 9.30701 16.0003 9.36239 16.0003 9.41821C16.0003 9.6855 16.2817 9.85904 16.5208 9.7395L16.8431 9.57837C17.0842 9.45782 17.1362 9.13615 16.9456 8.94556C16.7917 8.79131 16.7915 8.54108 16.9456 8.38696L17.2571 8.07642C17.3077 8.02582 17.3501 7.96753 17.3821 7.90356L17.9671 6.73169C17.9888 6.68834 18.0061 6.64295 18.0179 6.59595L18.3265 5.35864C18.4627 4.81411 19.1703 4.67134 19.5071 5.12036L20.5335 6.48853C20.6201 6.60392 20.6663 6.74467 20.6663 6.88892V9.17603C20.6663 9.27947 20.6423 9.38135 20.596 9.47388L20.0482 10.5696C20.0161 10.6337 19.9738 10.6927 19.9232 10.7434L18.7435 11.9231C18.6928 11.9738 18.6337 12.0161 18.5696 12.0481L17.3958 12.635C17.3545 12.6556 17.3092 12.6662 17.263 12.6663C16.9485 12.6663 16.8481 13.0909 17.1292 13.2317L17.2845 13.3088C17.3169 13.3251 17.3467 13.3466 17.3724 13.3723L17.6663 13.6663C17.8504 13.8504 18.1492 13.8504 18.3333 13.6663C18.5174 13.4824 18.8163 13.4823 19.0003 13.6663L19.054 13.7209C19.2206 13.8876 19.2618 14.1419 19.1566 14.3528L18.8509 14.9651C18.7379 15.1908 18.5066 15.3333 18.2542 15.3333H17.4905C17.3871 15.3332 17.2852 15.3092 17.1927 15.2629L16.1985 14.7659C16.0697 14.7014 15.9652 14.5969 15.9007 14.468L15.598 13.8635C15.4676 13.6029 15.1205 13.5462 14.9144 13.7522C14.7704 13.8961 14.7478 14.1219 14.8607 14.2913L15.6302 15.4456C15.8342 15.7517 15.7516 16.1651 15.4456 16.3694L14.3694 17.0872C14.1456 17.2361 13.854 17.2362 13.6302 17.0872L12.555 16.3694C12.2488 16.1652 12.1655 15.7519 12.3694 15.4456L13.139 14.2913C13.2519 14.1218 13.2292 13.8962 13.0853 13.7522C12.8791 13.5464 12.532 13.6029 12.4017 13.8635L12.0989 14.468C12.0344 14.5969 11.93 14.7014 11.8011 14.7659L10.8069 15.2629C10.7145 15.3091 10.6125 15.3333 10.5091 15.3333H9.74542C9.49295 15.3333 9.26169 15.1909 9.14874 14.9651L8.84308 14.3528C8.73792 14.142 8.77916 13.8876 8.94562 13.7209L9.00031 13.6663C9.18431 13.4826 9.48232 13.4826 9.66632 13.6663C9.85042 13.8504 10.1492 13.8504 10.3333 13.6663L10.6282 13.3723C10.6539 13.3466 10.6836 13.3251 10.7161 13.3088L10.8704 13.2317C11.1518 13.091 11.0512 12.6663 10.7366 12.6663C10.6905 12.6662 10.6451 12.6556 10.6038 12.635L9.42999 12.0481C9.36597 12.0161 9.30776 11.9737 9.25714 11.9231L8.07648 10.7434C8.02581 10.6927 7.98352 10.6337 7.95148 10.5696L7.40363 9.47388C7.35742 9.38138 7.33333 9.27942 7.33331 9.17603V6.88892C7.33331 6.74467 7.38055 6.60392 7.4671 6.48853L8.49249 5.12036ZM13.7894 3.40356C13.9262 3.35801 14.0745 3.35797 14.2112 3.40356L14.9769 3.65845C15.4469 3.81519 15.5879 4.41251 15.2376 4.76294L14.8616 5.13794C14.7367 5.26281 14.5676 5.33314 14.3909 5.33325H13.6097C13.4329 5.33325 13.263 5.26296 13.138 5.13794L12.763 4.76294C12.4126 4.41251 12.5536 3.81517 13.0237 3.65845L13.7894 3.40356Z" fill="#E6BE53"/>
<path fill-rule="evenodd" clip-rule="evenodd" d="M12.6667 11.3333C12.6667 11.5788 13.0801 11.6604 13.1997 11.4461C13.4321 11.0295 13.7161 10.6666 14 10.6666C14.284 10.6666 14.5679 11.0295 14.8004 11.4461C14.92 11.6604 15.3334 11.5788 15.3334 11.3333C15.3334 10.2287 14.7364 9.33331 14 9.33331C13.2636 9.33331 12.6667 10.2287 12.6667 11.3333Z" fill="#215F90"/>
</g>
</svg>
