<svg width="28" height="20" viewBox="0 0 28 20" fill="none" xmlns="http://www.w3.org/2000/svg">
<rect width="28" height="20" rx="2" fill="white"/>
<mask id="mask0_16378_6643" style="mask-type:luminance" maskUnits="userSpaceOnUse" x="0" y="0" width="28" height="20">
<rect width="28" height="20" rx="2" fill="white"/>
</mask>
<g mask="url(#mask0_16378_6643)">
<rect width="28" height="20" fill="#E81B26"/>
<path fill-rule="evenodd" clip-rule="evenodd" d="M14 13.3334C15.841 13.3334 17.3334 11.841 17.3334 10C17.3334 8.15907 15.841 6.66669 14 6.66669C12.1591 6.66669 10.6667 8.15907 10.6667 10C10.6667 11.841 12.1591 13.3334 14 13.3334Z" fill="#FFE94F"/>
<path d="M10.208 12.7194C10.4093 12.9996 10.6404 13.257 10.8975 13.486L1.96191 23.5309L-0.714844 20.5582L10.208 12.7194ZM28.7148 20.5582L26.0381 23.5309L17.1016 13.486C17.3587 13.257 17.5896 12.9996 17.791 12.7194L28.7148 20.5582ZM16 19.9996H12L13.084 14.5758C13.3802 14.6348 13.6864 14.6666 14 14.6666C14.3132 14.6666 14.6191 14.6347 14.915 14.5758L16 19.9996ZM9.37988 9.33948C9.34933 9.55514 9.33302 9.77553 9.33301 9.99963C9.33301 10.2233 9.34946 10.4436 9.37988 10.6588L0 11.9996V7.99963L9.37988 9.33948ZM28 11.9996L18.6191 10.6588C18.6496 10.4435 18.667 10.2233 18.667 9.99963C18.667 9.77549 18.6497 9.55519 18.6191 9.33948L28 7.99963V11.9996ZM10.8984 6.51331C10.6415 6.74206 10.4103 6.99899 10.209 7.27893L-0.714844 -0.557983L1.96191 -3.53064L10.8984 6.51331ZM28.7148 -0.557983L17.79 7.27893C17.5887 6.99898 17.3576 6.74206 17.1006 6.51331L26.0381 -3.53064L28.7148 -0.557983ZM14.915 5.42346C14.6191 5.36463 14.3132 5.33362 14 5.33362C13.6865 5.33362 13.3802 5.3645 13.084 5.42346L12 -0.000366211H16L14.915 5.42346Z" fill="#FFE94F"/>
</g>
</svg>
