<svg width="28" height="20" viewBox="0 0 28 20" fill="none" xmlns="http://www.w3.org/2000/svg">
<rect width="28" height="20" rx="2" fill="white"/>
<mask id="mask0_16378_6540" style="mask-type:luminance" maskUnits="userSpaceOnUse" x="0" y="0" width="28" height="20">
<rect width="28" height="20" rx="2" fill="white"/>
</mask>
<g mask="url(#mask0_16378_6540)">
<path fill-rule="evenodd" clip-rule="evenodd" d="M0 20H28V0H0V20Z" fill="#079D7B"/>
<path d="M17.5548 14.6664C16.5836 15.5002 15.3468 16.0003 14.0001 16.0004C12.6534 16.0004 11.4167 15.5002 10.4454 14.6664H17.5548ZM11.2726 11.8695C11.8758 11.8877 12.8727 12.0004 14.0001 12.0004C15.1072 12.0004 16.0883 11.8926 16.6945 11.8715C16.4995 11.9214 16.3073 11.9655 16.1193 12.0004H19.3331C19.175 12.4749 18.9626 12.9222 18.7032 13.3334H9.297C9.03752 12.9221 8.82427 12.475 8.66614 12.0004H11.84C11.6541 11.9641 11.4646 11.9204 11.2726 11.8695ZM14.0001 5.33337C15.0411 5.33354 15.8848 6.82568 15.8849 8.66638C15.8849 8.95865 15.8604 9.24197 15.8204 9.51208C15.9237 9.4803 16.0289 9.44993 16.1359 9.42126C17.914 8.94481 19.501 9.1025 19.6808 9.77283C19.8432 10.3788 18.7995 11.1942 17.2843 11.6976C17.0147 10.906 15.6473 10.6664 14.0001 10.6664C12.3507 10.6664 10.9811 10.9064 10.714 11.7006C9.21982 11.1962 8.19505 10.3893 8.35559 9.78845C8.53522 9.11807 10.1223 8.96046 11.9005 9.43689C11.9947 9.46213 12.0875 9.48929 12.1788 9.51697C12.1384 9.24544 12.1154 8.96034 12.1154 8.66638C12.1155 6.82558 12.9591 5.33337 14.0001 5.33337Z" fill="white"/>
<path d="M8.66699 5.99969C9.03503 5.99987 9.33301 6.29861 9.33301 6.66669C9.33301 7.03477 9.03503 7.3335 8.66699 7.33368C8.2988 7.33368 8 7.03488 8 6.66669C8 6.2985 8.2988 5.99969 8.66699 5.99969ZM19.333 5.99969C19.7012 5.99969 20 6.2985 20 6.66669C20 7.03488 19.7012 7.33368 19.333 7.33368C18.965 7.3335 18.667 7.03477 18.667 6.66669C18.667 6.29861 18.965 5.99987 19.333 5.99969ZM10.667 3.99969C11.035 3.99987 11.333 4.29861 11.333 4.66669C11.333 5.03477 11.035 5.3335 10.667 5.33368C10.2988 5.33368 10 5.03488 10 4.66669C10 4.2985 10.2988 3.99969 10.667 3.99969ZM17.333 3.99969C17.7012 3.99969 18 4.2985 18 4.66669C18 5.03488 17.7012 5.33368 17.333 5.33368C16.965 5.3335 16.667 5.03477 16.667 4.66669C16.667 4.29861 16.965 3.99987 17.333 3.99969ZM14 2.66669C14.3682 2.66669 14.667 2.96549 14.667 3.33368C14.6668 3.70172 14.3681 3.99969 14 3.99969C13.6319 3.99969 13.3332 3.70172 13.333 3.33368C13.333 2.96549 13.6318 2.66669 14 2.66669Z" fill="#FCD117"/>
</g>
</svg>
