<svg width="28" height="20" viewBox="0 0 28 20" fill="none" xmlns="http://www.w3.org/2000/svg">
<rect width="28" height="20" rx="2" fill="white"/>
<mask id="mask0_16378_6559" style="mask-type:luminance" maskUnits="userSpaceOnUse" x="0" y="0" width="28" height="20">
<rect width="28" height="20" rx="2" fill="white"/>
</mask>
<g mask="url(#mask0_16378_6559)">
<rect width="28" height="20" fill="#07319C"/>
<path fill-rule="evenodd" clip-rule="evenodd" d="M17.3334 9.99998C17.3334 8.90624 17.3334 7.61312 17.3334 6.6658C17.3334 5.92942 17.9303 5.33331 18.6667 5.33331H22.6667C23.4031 5.33331 24 5.92942 24 6.6658C24 7.61313 24 8.90624 24 9.99998C24 13.3333 20.6667 14.6666 20.6667 14.6666C20.6667 14.6666 17.3334 13.3333 17.3334 9.99998Z" fill="#08B9D6"/>
<mask id="mask1_16378_6559" style="mask-type:luminance" maskUnits="userSpaceOnUse" x="17" y="5" width="7" height="10">
<path fill-rule="evenodd" clip-rule="evenodd" d="M17.3334 9.99998C17.3334 8.90624 17.3334 7.61312 17.3334 6.6658C17.3334 5.92942 17.9303 5.33331 18.6667 5.33331H22.6667C23.4031 5.33331 24 5.92942 24 6.6658C24 7.61313 24 8.90624 24 9.99998C24 13.3333 20.6667 14.6666 20.6667 14.6666C20.6667 14.6666 17.3334 13.3333 17.3334 9.99998Z" fill="white"/>
</mask>
<g mask="url(#mask1_16378_6559)">
<path fill-rule="evenodd" clip-rule="evenodd" d="M17.3334 12H24V14.6667H21.3334H20H17.3334L17.3334 12Z" fill="#A63D09"/>
<path d="M21.3337 7.99963H22.6667V9.33362H21.3337V11.9996H19.9998V9.33362H18.6667V7.99963H19.9998V6.66663H21.3337V7.99963Z" fill="#262626"/>
</g>
<path d="M12.333 0.495117C12.333 0.710418 12.2289 0.912945 12.0537 1.03809L7.66699 4.1709V5.17969L11.7646 8.69238C12.1547 9.02696 11.9182 9.66674 11.4043 9.66699C11.2889 9.66699 11.176 9.63057 11.082 9.56348L6.55859 6.33301H5.42871L0.176758 9.61621L-0.333008 9.93457V8.49512L-0.193359 8.39551L4.33301 5.16211V4.15234L-0.216797 0.25293L-0.901367 -0.333008H0.773438L0.860352 -0.271484L5.43945 3H6.57129L11.8232 -0.282227L12.333 -0.601562V0.495117Z" fill="#DB1E36" stroke="white" stroke-width="0.666667"/>
<path fill-rule="evenodd" clip-rule="evenodd" d="M0 3.33333V6H4.66667V9.33333C4.66667 9.70152 4.96514 10 5.33333 10H6.66667C7.03486 10 7.33333 9.70152 7.33333 9.33333V6H12C12.3682 6 12.6667 5.70152 12.6667 5.33333V4C12.6667 3.63181 12.3682 3.33333 12 3.33333H7.33333V0H4.66667V3.33333H0Z" fill="white"/>
<path fill-rule="evenodd" clip-rule="evenodd" d="M0 4H5.33333V3.33333V0H6.66667V3.33333V4H12V5.33333H6.66667V6V9.33333H5.33333V6V5.33333H0V4Z" fill="#DB1E36"/>
</g>
</svg>
