<svg width="28" height="20" viewBox="0 0 28 20" fill="none" xmlns="http://www.w3.org/2000/svg">
<rect x="0.25" y="0.25" width="27.5" height="19.5" rx="1.75" fill="white" stroke="#F5F5F5" stroke-width="0.5"/>
<mask id="mask0_16378_6661" style="mask-type:luminance" maskUnits="userSpaceOnUse" x="0" y="0" width="28" height="20">
<rect x="0.25" y="0.25" width="27.5" height="19.5" rx="1.75" fill="white" stroke="white" stroke-width="0.5"/>
</mask>
<g mask="url(#mask0_16378_6661)">
<path fill-rule="evenodd" clip-rule="evenodd" d="M14.6667 20H28V0H14.6667V20Z" fill="#DE233C"/>
<mask id="path-4-outside-1_16378_6661" maskUnits="userSpaceOnUse" x="1.66669" y="1.66669" width="6" height="6" fill="black">
<rect fill="white" x="1.66669" y="1.66669" width="6" height="6"/>
<path d="M5.33368 3.99969H6.66669V5.33368H5.33368V6.66669H3.99969V5.33368H2.66669V3.99969H3.99969V2.66669H5.33368V3.99969Z"/>
</mask>
<path d="M5.33368 3.99969H6.66669V5.33368H5.33368V6.66669H3.99969V5.33368H2.66669V3.99969H3.99969V2.66669H5.33368V3.99969Z" fill="#CCCCCD"/>
<path d="M5.33368 3.99969H4.66701V4.66636H5.33368V3.99969ZM6.66669 3.99969H7.33335V3.33303H6.66669V3.99969ZM6.66669 5.33368V6.00035H7.33335V5.33368H6.66669ZM5.33368 5.33368V4.66701H4.66701V5.33368H5.33368ZM5.33368 6.66669V7.33335H6.00035V6.66669H5.33368ZM3.99969 6.66669H3.33303V7.33335H3.99969V6.66669ZM3.99969 5.33368H4.66636V4.66701H3.99969V5.33368ZM2.66669 5.33368H2.00002V6.00035H2.66669V5.33368ZM2.66669 3.99969V3.33303H2.00002V3.99969H2.66669ZM3.99969 3.99969V4.66636H4.66636V3.99969H3.99969ZM3.99969 2.66669V2.00002H3.33303V2.66669H3.99969ZM5.33368 2.66669H6.00035V2.00002H5.33368V2.66669ZM5.33368 3.99969V4.66636H6.66669V3.99969V3.33303H5.33368V3.99969ZM6.66669 3.99969H6.00002V5.33368H6.66669H7.33335V3.99969H6.66669ZM6.66669 5.33368V4.66701H5.33368V5.33368V6.00035H6.66669V5.33368ZM5.33368 5.33368H4.66701V6.66669H5.33368H6.00035V5.33368H5.33368ZM5.33368 6.66669V6.00002H3.99969V6.66669V7.33335H5.33368V6.66669ZM3.99969 6.66669H4.66636V5.33368H3.99969H3.33303V6.66669H3.99969ZM3.99969 5.33368V4.66701H2.66669V5.33368V6.00035H3.99969V5.33368ZM2.66669 5.33368H3.33335V3.99969H2.66669H2.00002V5.33368H2.66669ZM2.66669 3.99969V4.66636H3.99969V3.99969V3.33303H2.66669V3.99969ZM3.99969 3.99969H4.66636V2.66669H3.99969H3.33303V3.99969H3.99969ZM3.99969 2.66669V3.33335H5.33368V2.66669V2.00002H3.99969V2.66669ZM5.33368 2.66669H4.66701V3.99969H5.33368H6.00035V2.66669H5.33368Z" fill="#7B716A" fill-opacity="0.66" mask="url(#path-4-outside-1_16378_6661)"/>
<path fill-rule="evenodd" clip-rule="evenodd" d="M4.66667 5.33333C5.03486 5.33333 5.33333 5.03486 5.33333 4.66667C5.33333 4.29848 5.03486 4 4.66667 4C4.29848 4 4 4.29848 4 4.66667C4 5.03486 4.29848 5.33333 4.66667 5.33333Z" fill="#7B716A"/>
</g>
</svg>
