<svg width="28" height="20" viewBox="0 0 28 20" fill="none" xmlns="http://www.w3.org/2000/svg">
<rect width="28" height="20" rx="2" fill="white"/>
<mask id="mask0_16378_6587" style="mask-type:luminance" maskUnits="userSpaceOnUse" x="0" y="0" width="28" height="20">
<rect width="28" height="20" rx="2" fill="white"/>
</mask>
<g mask="url(#mask0_16378_6587)">
<path d="M28 20H0V18.667H28V20ZM28 17.333H0V16H28V17.333ZM28 14.667H0V13.333H28V14.667ZM28 12H0V10.667H28V12ZM28 9.33301H13.333V8H28V9.33301ZM28 6.66699H13.333V5.33301H28V6.66699ZM28 4H13.333V2.66699H28V4ZM28 1.33301H13.333V0H28V1.33301Z" fill="#E1244A"/>
<rect width="16" height="10.6667" fill="#0C3F8E"/>
<path d="M6.66666 1.33331C7.61099 1.33331 8.47849 1.66105 9.16275 2.20831C8.80073 2.07356 8.40862 2.00031 7.99966 2.00031C6.15886 2.00048 4.66666 3.49247 4.66666 5.33331C4.66666 7.17415 6.15886 8.66614 7.99966 8.66632C8.40874 8.66632 8.80064 8.59217 9.16275 8.45734C8.47842 9.00483 7.61121 9.33331 6.66666 9.33331C4.45752 9.33331 2.66666 7.54245 2.66666 5.33331C2.66666 3.12417 4.45752 1.33331 6.66666 1.33331ZM11.1413 4.34796L12.7516 3.67023L11.7331 5.09015L13.2663 5.92706L11.5211 6.01495L11.8239 7.73566L10.6667 6.42706L9.50943 7.73566L9.81216 6.01495L8.06705 5.92706L9.60025 5.09015L8.5817 3.67023L10.192 4.34796L10.6667 2.66632L11.1413 4.34796Z" fill="#FFD34F"/>
</g>
</svg>
