<svg width="28" height="20" viewBox="0 0 28 20" fill="none" xmlns="http://www.w3.org/2000/svg">
<rect x="0.25" y="0.25" width="27.5" height="19.5" rx="1.75" fill="white" stroke="#F5F5F5" stroke-width="0.5"/>
<path fill-rule="evenodd" clip-rule="evenodd" d="M0 2C0 0.895431 0.89543 -1.06478e-09 2 0L2.46482 4.56679e-10C2.59643 5.84276e-10 2.7251 0.0389587 2.83462 0.111966L15.0026 8.22393C16.1002 8.9557 15.5822 10.6667 14.263 10.6667H8L15.9961 17.6632C16.9226 18.474 16.3492 20 15.1181 20H2C0.895428 20 0 19.1046 0 18V2Z" fill="white"/>
<mask id="mask0_16378_6770" style="mask-type:luminance" maskUnits="userSpaceOnUse" x="0" y="0" width="17" height="20">
<path fill-rule="evenodd" clip-rule="evenodd" d="M0 2C0 0.895431 0.89543 -1.06478e-09 2 0L2.46482 4.56679e-10C2.59643 5.84276e-10 2.7251 0.0389587 2.83462 0.111966L15.0026 8.22393C16.1002 8.9557 15.5822 10.6667 14.263 10.6667H8L15.9961 17.6632C16.9226 18.474 16.3492 20 15.1181 20H2C0.895428 20 0 19.1046 0 18V2Z" fill="white"/>
</mask>
<g mask="url(#mask0_16378_6770)">
<path d="M2.46484 0.666992L14.6328 8.77832C15.1816 9.1442 14.9223 10 14.2627 10H8C7.72226 10 7.47366 10.1726 7.37598 10.4326C7.27857 10.6923 7.35198 10.9851 7.56055 11.168L15.5566 18.165C16.0199 18.5704 15.7337 19.3329 15.1182 19.333H0.666992V0.666992H2.46484Z" fill="#EE1B44" stroke="#0543A8" stroke-width="1.33333" stroke-linejoin="round"/>
<path d="M6.27563 13.7239L7.79712 13.6467L6.66626 14.6672L7.79712 15.6877L6.27563 15.6096L6.35376 17.1301L5.33325 16.0002L4.31274 17.1301L4.38989 15.6096L2.86938 15.6877L3.99927 14.6672L2.86938 13.6467L4.38989 13.7239L4.31274 12.2034L5.33325 13.3333L6.35376 12.2034L6.27563 13.7239ZM6.04028 6.62622L7.18091 6.56763L6.33325 7.33325L6.8479 7.7981C7.23176 7.69272 7.58644 7.55137 7.89966 7.37622C7.58887 8.50404 6.55798 9.33311 5.3313 9.33325C4.10454 9.33312 3.07285 8.50413 2.76196 7.37622C3.07595 7.55188 3.43161 7.69365 3.81665 7.79907L4.33325 7.33325L3.4856 6.56763L4.62622 6.62622L4.56763 5.4856L5.33325 6.33325L6.09888 5.4856L6.04028 6.62622Z" fill="white"/>
</g>
</svg>
