<svg width="28" height="20" viewBox="0 0 28 20" fill="none" xmlns="http://www.w3.org/2000/svg">
<rect x="0.25" y="0.25" width="27.5" height="19.5" rx="1.75" fill="white" stroke="#F5F5F5" stroke-width="0.5"/>
<mask id="mask0_16378_6813" style="mask-type:luminance" maskUnits="userSpaceOnUse" x="0" y="0" width="28" height="20">
<rect x="0.25" y="0.25" width="27.5" height="19.5" rx="1.75" fill="white" stroke="white" stroke-width="0.5"/>
</mask>
<g mask="url(#mask0_16378_6813)">
<path d="M28 9.33331V20.0003H0L13.333 10.0003L12.4434 9.33331H28Z" fill="#DD1C34"/>
<path d="M28 0V9.33301H12.4434L0 0H28Z" fill="#0D4BC3"/>
<path d="M2.00031 15.9997C2.36835 15.9999 2.66632 16.2986 2.66632 16.6667C2.66632 17.0348 2.36835 17.3335 2.00031 17.3337C1.63212 17.3337 1.33331 17.0349 1.33331 16.6667C1.33331 16.2985 1.63212 15.9997 2.00031 15.9997ZM5.50909 8.96649C5.57845 9.02309 5.64183 9.08669 5.69855 9.15594L7.7464 8.7243L5.99347 9.86493C5.99793 9.90924 6.00029 9.95421 6.00031 9.99969C6.00031 10.0451 5.99789 10.0903 5.99347 10.1345L7.7464 11.2761L5.69952 10.8425C5.64259 10.9122 5.57881 10.976 5.50909 11.0329L5.94269 13.0798L4.80109 11.3268C4.75688 11.3313 4.71169 11.3337 4.66632 11.3337C4.62084 11.3337 4.57586 11.3313 4.53156 11.3268L3.39093 13.0798L3.82257 11.0319C3.75331 10.9752 3.68972 10.9118 3.63312 10.8425L1.58722 11.2761L3.33917 10.1345C3.33475 10.0903 3.33331 10.045 3.33331 9.99969C3.33332 9.95424 3.33472 9.90922 3.33917 9.86493L1.58722 8.7243L3.63409 9.15692C3.69076 9.0876 3.75423 9.02414 3.82355 8.96747L3.39093 6.92059L4.53156 8.67255C4.57584 8.66809 4.62086 8.6667 4.66632 8.66669C4.71167 8.66669 4.7569 8.66813 4.80109 8.67255L5.94269 6.92059L5.50909 8.96649ZM10.0003 9.33368C10.3682 9.33386 10.6661 9.63176 10.6663 9.99969C10.6663 10.3678 10.3683 10.6665 10.0003 10.6667C9.63212 10.6667 9.33331 10.3679 9.33331 9.99969C9.33349 9.63165 9.63222 9.33368 10.0003 9.33368ZM2.00031 2.66669C2.36835 2.66686 2.66632 2.9656 2.66632 3.33368C2.66614 3.70161 2.36824 3.99952 2.00031 3.99969C1.63222 3.99969 1.33349 3.70172 1.33331 3.33368C1.33331 2.96549 1.63212 2.66669 2.00031 2.66669Z" fill="#FDD64D"/>
</g>
</svg>
