<svg width="28" height="20" viewBox="0 0 28 20" fill="none" xmlns="http://www.w3.org/2000/svg">
<rect x="0.25" y="0.25" width="27.5" height="19.5" rx="1.75" fill="white" stroke="#F5F5F5" stroke-width="0.5"/>
<mask id="mask0_16378_6997" style="mask-type:luminance" maskUnits="userSpaceOnUse" x="0" y="0" width="28" height="20">
<rect x="0.25" y="0.25" width="27.5" height="19.5" rx="1.75" fill="white" stroke="white" stroke-width="0.5"/>
</mask>
<g mask="url(#mask0_16378_6997)">
<path fill-rule="evenodd" clip-rule="evenodd" d="M0 10.6667H28V0H0V10.6667Z" fill="#E12237"/>
<path d="M6.66666 1.33331C7.61099 1.33331 8.47849 1.66105 9.16275 2.20831C8.80073 2.07356 8.40862 2.00031 7.99966 2.00031C6.15886 2.00048 4.66666 3.49247 4.66666 5.33331C4.66666 7.17415 6.15886 8.66614 7.99966 8.66632C8.40874 8.66632 8.80064 8.59217 9.16275 8.45734C8.47842 9.00483 7.61121 9.33331 6.66666 9.33331C4.45752 9.33331 2.66666 7.54245 2.66666 5.33331C2.66666 3.12417 4.45752 1.33331 6.66666 1.33331ZM8.66666 6.66632C9.03485 6.66632 9.33365 6.96512 9.33365 7.33331C9.33365 7.7015 9.03485 8.00031 8.66666 8.00031C8.29847 8.00031 7.99966 7.7015 7.99966 7.33331C7.99966 6.96512 8.29847 6.66632 8.66666 6.66632ZM11.3336 6.66632C11.7017 6.6665 11.9997 6.96523 11.9997 7.33331C11.9997 7.70139 11.7017 8.00013 11.3336 8.00031C10.9655 8.00031 10.6667 7.7015 10.6667 7.33331C10.6667 6.96512 10.9655 6.66632 11.3336 6.66632ZM7.33365 4.00031C7.70158 4.00048 7.99949 4.29839 7.99966 4.66632C7.99966 5.0344 7.70169 5.33314 7.33365 5.33331C6.96546 5.33331 6.66666 5.03451 6.66666 4.66632C6.66683 4.29828 6.96557 4.00031 7.33365 4.00031ZM12.6667 4.00031C13.0347 4.00031 13.3335 4.29828 13.3336 4.66632C13.3336 5.03451 13.0348 5.33331 12.6667 5.33331C12.2985 5.33331 11.9997 5.03451 11.9997 4.66632C11.9998 4.29828 12.2986 4.00031 12.6667 4.00031ZM9.99966 2.00031C10.3677 2.00031 10.6665 2.29828 10.6667 2.66632C10.6667 3.03451 10.3679 3.33331 9.99966 3.33331C9.63162 3.33314 9.33365 3.0344 9.33365 2.66632C9.33382 2.29839 9.63173 2.00048 9.99966 2.00031Z" fill="white"/>
</g>
</svg>
