<svg width="28" height="20" viewBox="0 0 28 20" fill="none" xmlns="http://www.w3.org/2000/svg">
<rect x="0.25" y="0.25" width="27.5" height="19.5" rx="1.75" fill="white" stroke="#F5F5F5" stroke-width="0.5"/>
<mask id="mask0_16378_6943" style="mask-type:luminance" maskUnits="userSpaceOnUse" x="0" y="0" width="28" height="20">
<rect x="0.25" y="0.25" width="27.5" height="19.5" rx="1.75" fill="white" stroke="white" stroke-width="0.5"/>
</mask>
<g mask="url(#mask0_16378_6943)">
<path fill-rule="evenodd" clip-rule="evenodd" d="M0 13.3334H28V6.66669H0V13.3334Z" fill="#0C47B7"/>
<path fill-rule="evenodd" clip-rule="evenodd" d="M0 20H28V13.3333H0V20Z" fill="#E53B35"/>
<path d="M13.0504 3.33301C14.125 3.33303 15.0071 4.18298 15.0484 5.25684L15.3082 11.9971C15.3316 12.6073 15.0746 13.1953 14.6109 13.5928L11.7359 16.0576C10.7373 16.9136 9.26286 16.9136 8.26422 16.0576L5.38922 13.5928C4.92553 13.1953 4.66852 12.6073 4.69196 11.9971L4.95074 5.25684C4.99205 4.18297 5.87511 3.33301 6.94977 3.33301H13.0504Z" fill="#F73744" stroke="white" stroke-width="1.33333"/>
<mask id="mask1_16378_6943" style="mask-type:luminance" maskUnits="userSpaceOnUse" x="4" y="2" width="12" height="16">
<path d="M13.0504 3.33301C14.125 3.33303 15.0071 4.18298 15.0484 5.25684L15.3082 11.9971C15.3316 12.6073 15.0746 13.1953 14.6109 13.5928L11.7359 16.0576C10.7373 16.9136 9.26286 16.9136 8.26422 16.0576L5.38922 13.5928C4.92553 13.1953 4.66852 12.6073 4.69196 11.9971L4.95074 5.25684C4.99205 4.18297 5.87511 3.33301 6.94977 3.33301H13.0504Z" fill="white" stroke="white" stroke-width="1.33333"/>
</mask>
<g mask="url(#mask1_16378_6943)">
<path fill-rule="evenodd" clip-rule="evenodd" d="M9.33331 11C9.33331 10.8159 9.18407 10.6666 8.99998 10.6666H7.66665C7.48255 10.6666 7.33331 10.5174 7.33331 10.3333V9.66665C7.33331 9.48255 7.48255 9.33331 7.66665 9.33331H8.99998C9.18407 9.33331 9.33331 9.18407 9.33331 8.99998V8.33331C9.33331 8.14922 9.18407 7.99998 8.99998 7.99998H8.33331C8.14922 7.99998 7.99998 7.85074 7.99998 7.66665V6.99998C7.99998 6.81589 8.14922 6.66665 8.33331 6.66665H8.99998C9.18407 6.66665 9.33331 6.51741 9.33331 6.33331V5.66665C9.33331 5.48255 9.48255 5.33331 9.66665 5.33331H10.3333C10.5174 5.33331 10.6666 5.48255 10.6666 5.66665V6.33331C10.6666 6.51741 10.8159 6.66665 11 6.66665H11.6666C11.8507 6.66665 12 6.81588 12 6.99998V7.66665C12 7.85074 11.8507 7.99998 11.6666 7.99998H11C10.8159 7.99998 10.6666 8.14922 10.6666 8.33331V8.99998C10.6666 9.18407 10.8159 9.33331 11 9.33331H12.3333C12.5174 9.33331 12.6666 9.48255 12.6666 9.66665V10.3333C12.6666 10.5174 12.5174 10.6666 12.3333 10.6666H11C10.8159 10.6666 10.6666 10.8159 10.6666 11V13C10.6666 13.1841 10.5174 13.3333 10.3333 13.3333H9.66665C9.48255 13.3333 9.33331 13.1841 9.33331 13V11Z" fill="white"/>
<path d="M10 12.6667C10.5303 12.6667 10.9864 12.9772 11.2012 13.4255C12.8234 13.6805 14 14.4384 14 15.3337C13.9996 16.4381 12.2089 17.3337 10 17.3337C7.79108 17.3337 6.00035 16.4381 6 15.3337C6 14.4386 7.17614 13.6807 8.79785 13.4255C9.01259 12.977 9.46956 12.6667 10 12.6667Z" fill="#1251A1"/>
</g>
</g>
</svg>
