<svg width="28" height="20" viewBox="0 0 28 20" fill="none" xmlns="http://www.w3.org/2000/svg">
<rect x="0.25" y="0.25" width="27.5" height="19.5" rx="1.75" fill="white" stroke="#F5F5F5" stroke-width="0.5"/>
<mask id="mask0_16378_5959" style="mask-type:luminance" maskUnits="userSpaceOnUse" x="0" y="0" width="28" height="20">
<rect x="0.25" y="0.25" width="27.5" height="19.5" rx="1.75" fill="white" stroke="white" stroke-width="0.5"/>
</mask>
<g mask="url(#mask0_16378_5959)">
<path fill-rule="evenodd" clip-rule="evenodd" d="M0 6.66667H28V0H0V6.66667Z" fill="#1B57C4"/>
<path fill-rule="evenodd" clip-rule="evenodd" d="M0 20H28V13.3333H0V20Z" fill="#1B57C4"/>
<path d="M15.5989 7.86945C16.2462 8.35599 16.6663 9.12821 16.6663 10.0003C16.6662 11.4728 15.4728 12.6661 14.0003 12.6663C12.5276 12.6663 11.3335 11.4729 11.3333 10.0003C11.3333 9.1283 11.7535 8.356 12.4007 7.86945L13.3333 10.6663H14.6663L15.5989 7.86945Z" fill="url(#paint0_linear_16378_5959)"/>
<path fill-rule="evenodd" clip-rule="evenodd" d="M14 7.33333L14.6666 10.6667H13.3333L14 7.33333Z" fill="#F9C92E"/>
</g>
<defs>
<linearGradient id="paint0_linear_16378_5959" x1="11.3333" y1="7.86945" x2="11.3333" y2="12.6663" gradientUnits="userSpaceOnUse">
<stop stop-color="#3C7839"/>
<stop offset="1" stop-color="#31642E"/>
</linearGradient>
</defs>
</svg>
