<svg width="28" height="20" viewBox="0 0 28 20" fill="none" xmlns="http://www.w3.org/2000/svg">
<rect x="0.25" y="0.25" width="27.5" height="19.5" rx="1.75" fill="white" stroke="#F5F5F5" stroke-width="0.5"/>
<mask id="mask0_16378_7064" style="mask-type:luminance" maskUnits="userSpaceOnUse" x="0" y="0" width="28" height="20">
<rect x="0.25" y="0.25" width="27.5" height="19.5" rx="1.75" fill="white" stroke="white" stroke-width="0.5"/>
</mask>
<g mask="url(#mask0_16378_7064)">
<path fill-rule="evenodd" clip-rule="evenodd" d="M0 6.66667H28V0H0V6.66667Z" fill="#D9101C"/>
<path fill-rule="evenodd" clip-rule="evenodd" d="M0 20H28V13.3333H0V20Z" fill="#0F7811"/>
<path d="M14.0003 9.33301C14.3683 9.33318 14.6663 9.63192 14.6663 10C14.6663 10.1207 14.6335 10.3768 14.5775 10.667H15.3333C15.7014 10.667 16.0001 10.965 16.0003 11.333C16.0003 11.7012 15.7015 12 15.3333 12H12.6663C12.2983 11.9998 12.0003 11.7011 12.0003 11.333C12.0005 10.9651 12.2984 10.6672 12.6663 10.667H13.4232C13.3671 10.3768 13.3333 10.1207 13.3333 10C13.3333 9.63181 13.6321 9.33301 14.0003 9.33301ZM10.0003 9.33301C10.3683 9.33318 10.6663 9.63192 10.6663 10C10.6663 10.3681 10.3683 10.6668 10.0003 10.667C9.63212 10.667 9.33331 10.3682 9.33331 10C9.33331 9.63181 9.63212 9.33301 10.0003 9.33301ZM18.0003 9.33301C18.3683 9.33318 18.6663 9.63192 18.6663 10C18.6663 10.3681 18.3683 10.6668 18.0003 10.667C17.6321 10.667 17.3333 10.3682 17.3333 10C17.3333 9.63181 17.6321 9.33301 18.0003 9.33301ZM12.6663 8C13.0345 8 13.3333 8.2988 13.3333 8.66699C13.3331 9.03503 13.0344 9.33301 12.6663 9.33301C12.2984 9.33283 12.0005 9.03492 12.0003 8.66699C12.0003 8.29891 12.2983 8.00018 12.6663 8ZM15.3333 8C15.7015 8 16.0003 8.2988 16.0003 8.66699C16.0001 9.03503 15.7014 9.33301 15.3333 9.33301C14.9652 9.33301 14.6665 9.03503 14.6663 8.66699C14.6663 8.2988 14.9651 8 15.3333 8Z" fill="#FAD14E"/>
</g>
</svg>
