<svg width="28" height="20" viewBox="0 0 28 20" fill="none" xmlns="http://www.w3.org/2000/svg">
<rect width="28" height="20" rx="2" fill="white"/>
<mask id="mask0_16378_7099" style="mask-type:luminance" maskUnits="userSpaceOnUse" x="0" y="0" width="28" height="20">
<rect width="28" height="20" rx="2" fill="white"/>
</mask>
<g mask="url(#mask0_16378_7099)">
<rect width="28" height="20" fill="#E92434"/>
<path d="M14 4C17.3137 4 20 6.68629 20 10C20 13.3137 17.3137 16 14 16C10.6863 16 8 13.3137 8 10C8 6.68629 10.6863 4 14 4ZM14 5.33301C11.4227 5.33301 9.33301 7.42267 9.33301 10C9.33301 12.5773 11.4227 14.667 14 14.667C14.6433 14.667 15.2559 14.5362 15.8135 14.3008C13.6654 14.0439 12 12.2172 12 10C12 7.78273 13.6654 5.95511 15.8135 5.69824C15.256 5.4629 14.6431 5.33301 14 5.33301ZM15.2764 9.51074L13.4219 10.0264L15.2129 10.7324L15.1289 12.6553L16.3545 11.1699L18.1572 11.8438L17.124 10.2197L18.3213 8.71289L16.458 9.19434L15.3945 7.58984L15.2764 9.51074Z" fill="white"/>
</g>
</svg>
