<svg width="28" height="20" viewBox="0 0 28 20" fill="none" xmlns="http://www.w3.org/2000/svg">
<rect width="28" height="20" rx="2" fill="white"/>
<mask id="mask0_16378_7110" style="mask-type:luminance" maskUnits="userSpaceOnUse" x="0" y="0" width="28" height="20">
<rect width="28" height="20" rx="2" fill="white"/>
</mask>
<g mask="url(#mask0_16378_7110)">
<rect width="28" height="20" fill="#E92434"/>
<path fill-rule="evenodd" clip-rule="evenodd" d="M19.0208 10.7684L17.796 12.2534L17.8795 10.3302L16.0887 9.62426L17.9434 9.10933L18.0615 7.18802L19.1244 8.7929L20.9881 8.31145L19.7902 9.81825L20.8241 11.442L19.0208 10.7684Z" fill="white"/>
<path d="M12.6667 4C14.5912 4 16.3021 4.90758 17.4001 6.31641C16.5532 5.70135 15.4899 5.33308 14.3337 5.33301C11.5723 5.33301 9.33368 7.42267 9.33368 10C9.33368 12.5773 11.5723 14.667 14.3337 14.667C15.4901 14.6669 16.5531 14.2979 17.4001 13.6826C16.3022 15.0918 14.5915 16 12.6667 16C9.35298 16 6.66669 13.3137 6.66669 10C6.66669 6.68629 9.35298 4 12.6667 4Z" fill="white"/>
</g>
</svg>
