<svg width="28" height="20" viewBox="0 0 28 20" fill="none" xmlns="http://www.w3.org/2000/svg">
<rect width="28" height="20" rx="2" fill="white"/>
<mask id="mask0_16378_7236" style="mask-type:luminance" maskUnits="userSpaceOnUse" x="0" y="0" width="28" height="20">
<rect width="28" height="20" rx="2" fill="white"/>
</mask>
<g mask="url(#mask0_16378_7236)">
<path d="M28 20H0V18.667H28V20ZM28 17.333H0V16H28V17.333ZM28 14.667H0V13.333H28V14.667ZM28 12H0V10.667H28V12ZM28 9.33301H0V8H28V9.33301ZM28 6.66699H0V5.33301H28V6.66699ZM28 4H0V2.66699H28V4ZM28 1.33301H0V0H28V1.33301Z" fill="#D02F44"/>
<rect width="12" height="9.33333" fill="#46467F"/>
<g filter="url(#filter0_d_16378_7236)">
<path d="M2.00031 6.66632C2.36835 6.6665 2.66632 6.96523 2.66632 7.33331C2.66632 7.70139 2.36835 8.00013 2.00031 8.00031C1.63212 8.00031 1.33331 7.7015 1.33331 7.33331C1.33331 6.96512 1.63212 6.66632 2.00031 6.66632ZM4.66632 6.66632C5.03451 6.66632 5.33331 6.96512 5.33331 7.33331C5.33331 7.7015 5.03451 8.00031 4.66632 8.00031C4.29828 8.00013 4.00031 7.70139 4.00031 7.33331C4.00031 6.96523 4.29828 6.6665 4.66632 6.66632ZM7.33331 6.66632C7.7015 6.66632 8.00031 6.96512 8.00031 7.33331C8.00031 7.7015 7.7015 8.00031 7.33331 8.00031C6.96512 8.00031 6.66632 7.7015 6.66632 7.33331C6.66632 6.96512 6.96512 6.66632 7.33331 6.66632ZM10.0003 6.66632C10.3683 6.6665 10.6663 6.96523 10.6663 7.33331C10.6663 7.70139 10.3683 8.00013 10.0003 8.00031C9.63212 8.00031 9.33331 7.7015 9.33331 7.33331C9.33331 6.96512 9.63212 6.66632 10.0003 6.66632ZM3.33331 5.33331C3.7015 5.33331 4.00031 5.63212 4.00031 6.00031C4.00013 6.36835 3.70139 6.66632 3.33331 6.66632C2.96523 6.66632 2.6665 6.36835 2.66632 6.00031C2.66632 5.63212 2.96512 5.33331 3.33331 5.33331ZM6.00031 5.33331C6.36835 5.33349 6.66632 5.63222 6.66632 6.00031C6.66614 6.36824 6.36824 6.66614 6.00031 6.66632C5.63222 6.66632 5.33349 6.36835 5.33331 6.00031C5.33331 5.63212 5.63212 5.33331 6.00031 5.33331ZM8.66632 5.33331C9.03451 5.33331 9.33331 5.63212 9.33331 6.00031C9.33314 6.36835 9.0344 6.66632 8.66632 6.66632C8.29839 6.66614 8.00048 6.36824 8.00031 6.00031C8.00031 5.63222 8.29828 5.33349 8.66632 5.33331ZM2.00031 4.00031C2.36824 4.00048 2.66614 4.29839 2.66632 4.66632C2.66632 5.0344 2.36835 5.33314 2.00031 5.33331C1.63212 5.33331 1.33331 5.03451 1.33331 4.66632C1.33349 4.29828 1.63222 4.00031 2.00031 4.00031ZM4.66632 4.00031C5.0344 4.00031 5.33314 4.29828 5.33331 4.66632C5.33331 5.03451 5.03451 5.33331 4.66632 5.33331C4.29828 5.33314 4.00031 5.0344 4.00031 4.66632C4.00048 4.29839 4.29839 4.00048 4.66632 4.00031ZM7.33331 4.00031C7.70139 4.00031 8.00013 4.29828 8.00031 4.66632C8.00031 5.03451 7.7015 5.33331 7.33331 5.33331C6.96512 5.33331 6.66632 5.03451 6.66632 4.66632C6.6665 4.29828 6.96523 4.00031 7.33331 4.00031ZM10.0003 4.00031C10.3682 4.00048 10.6661 4.29839 10.6663 4.66632C10.6663 5.0344 10.3683 5.33314 10.0003 5.33331C9.63212 5.33331 9.33331 5.03451 9.33331 4.66632C9.33349 4.29828 9.63222 4.00031 10.0003 4.00031ZM3.33331 2.66632C3.7015 2.66632 4.00031 2.96512 4.00031 3.33331C4.00031 3.7015 3.7015 4.00031 3.33331 4.00031C2.96512 4.00031 2.66632 3.7015 2.66632 3.33331C2.66632 2.96512 2.96512 2.66632 3.33331 2.66632ZM6.00031 2.66632C6.36835 2.6665 6.66632 2.96523 6.66632 3.33331C6.66632 3.70139 6.36835 4.00013 6.00031 4.00031C5.63212 4.00031 5.33331 3.7015 5.33331 3.33331C5.33331 2.96512 5.63212 2.66632 6.00031 2.66632ZM8.66632 2.66632C9.03451 2.66632 9.33331 2.96512 9.33331 3.33331C9.33331 3.7015 9.03451 4.00031 8.66632 4.00031C8.29828 4.00013 8.00031 3.70139 8.00031 3.33331C8.00031 2.96523 8.29828 2.6665 8.66632 2.66632ZM2.00031 1.33331C2.36835 1.33349 2.66632 1.63222 2.66632 2.00031C2.66614 2.36824 2.36824 2.66614 2.00031 2.66632C1.63222 2.66632 1.33349 2.36835 1.33331 2.00031C1.33331 1.63212 1.63212 1.33331 2.00031 1.33331ZM4.66632 1.33331C5.03451 1.33331 5.33331 1.63212 5.33331 2.00031C5.33314 2.36835 5.0344 2.66632 4.66632 2.66632C4.29839 2.66614 4.00048 2.36824 4.00031 2.00031C4.00031 1.63222 4.29828 1.33349 4.66632 1.33331ZM7.33331 1.33331C7.7015 1.33331 8.00031 1.63212 8.00031 2.00031C8.00013 2.36835 7.70139 2.66632 7.33331 2.66632C6.96523 2.66632 6.6665 2.36835 6.66632 2.00031C6.66632 1.63212 6.96512 1.33331 7.33331 1.33331ZM10.0003 1.33331C10.3683 1.33349 10.6663 1.63222 10.6663 2.00031C10.6661 2.36824 10.3682 2.66614 10.0003 2.66632C9.63222 2.66632 9.33349 2.36835 9.33331 2.00031C9.33331 1.63212 9.63212 1.33331 10.0003 1.33331Z" fill="url(#paint0_linear_16378_7236)"/>
</g>
</g>
<defs>
<filter id="filter0_d_16378_7236" x="1.33331" y="1.33331" width="9.33301" height="7.66699" filterUnits="userSpaceOnUse" color-interpolation-filters="sRGB">
<feFlood flood-opacity="0" result="BackgroundImageFix"/>
<feColorMatrix in="SourceAlpha" type="matrix" values="0 0 0 0 0 0 0 0 0 0 0 0 0 0 0 0 0 0 127 0" result="hardAlpha"/>
<feOffset dy="1"/>
<feColorMatrix type="matrix" values="0 0 0 0 0 0 0 0 0 0 0 0 0 0 0 0 0 0 0.06 0"/>
<feBlend mode="normal" in2="BackgroundImageFix" result="effect1_dropShadow_16378_7236"/>
<feBlend mode="normal" in="SourceGraphic" in2="effect1_dropShadow_16378_7236" result="shape"/>
</filter>
<linearGradient id="paint0_linear_16378_7236" x1="1.33331" y1="1.33331" x2="1.33331" y2="8.00031" gradientUnits="userSpaceOnUse">
<stop stop-color="white"/>
<stop offset="1" stop-color="#F0F0F0"/>
</linearGradient>
</defs>
</svg>
