<svg width="28" height="20" viewBox="0 0 28 20" fill="none" xmlns="http://www.w3.org/2000/svg">
<rect x="0.25" y="0.25" width="27.5" height="19.5" rx="1.75" fill="white" stroke="#F5F5F5" stroke-width="0.5"/>
<mask id="mask0_16378_7221" style="mask-type:luminance" maskUnits="userSpaceOnUse" x="0" y="0" width="28" height="20">
<rect x="0.25" y="0.25" width="27.5" height="19.5" rx="1.75" fill="white" stroke="white" stroke-width="0.5"/>
</mask>
<g mask="url(#mask0_16378_7221)">
<path d="M28 19.9997H0V18.6667H28V19.9997ZM28 13.3337V15.9997H0V13.3337H28ZM13.333 7.99969H28V10.6667H13.333V7.99969ZM13.333 2.66669H28V5.33368H13.333V2.66669Z" fill="#0E4DC5"/>
<path d="M7.78189 4.43353L9.1608 3.62299L8.67642 5.1474L10.2702 5.01459L9.17349 6.17767L10.6667 6.74994L9.17349 7.3222L10.2702 8.48529L8.67642 8.35345L9.1608 9.87787L7.78189 9.06635L7.5563 10.6503L6.66666 9.32123L5.77701 10.6503L5.55142 9.06635L4.17252 9.87787L4.65689 8.35345L3.06314 8.48529L4.15982 7.3222L2.66666 6.74994L4.15982 6.17767L3.06314 5.01459L4.65689 5.1474L4.17252 3.62299L5.55142 4.43353L5.77701 2.85052L6.66666 4.17963L7.5563 2.85052L7.78189 4.43353ZM6.66666 4.20502C5.26094 4.20502 4.12092 5.34426 4.12076 6.74994C4.12076 8.15575 5.26084 9.29584 6.66666 9.29584C8.07247 9.29584 9.21255 8.15575 9.21255 6.74994C9.21239 5.34426 8.07237 4.20502 6.66666 4.20502ZM6.66666 4.66693C7.77123 4.66693 8.66666 5.56236 8.66666 6.66693C8.66651 7.77138 7.77114 8.66693 6.66666 8.66693C5.56218 8.66693 4.6668 7.77138 4.66666 6.66693C4.66666 5.56236 5.56209 4.66693 6.66666 4.66693Z" fill="#FED443"/>
</g>
</svg>
