<svg width="28" height="20" viewBox="0 0 28 20" fill="none" xmlns="http://www.w3.org/2000/svg">
<rect x="0.25" y="0.25" width="27.5" height="19.5" rx="1.75" fill="white" stroke="#F5F5F5" stroke-width="0.5"/>
<mask id="mask0_16378_7191" style="mask-type:luminance" maskUnits="userSpaceOnUse" x="0" y="0" width="28" height="20">
<rect x="0.25" y="0.25" width="27.5" height="19.5" rx="1.75" fill="white" stroke="white" stroke-width="0.5"/>
</mask>
<g mask="url(#mask0_16378_7191)">
<path fill-rule="evenodd" clip-rule="evenodd" d="M0 6.66667H28V0H0V6.66667Z" fill="#04AAC8"/>
<path fill-rule="evenodd" clip-rule="evenodd" d="M0 20H28V13.3333H0V20Z" fill="#23C840"/>
<path d="M4.66669 1.33331C5.07889 1.33331 5.46168 1.45844 5.77997 1.67218C5.74249 1.66966 5.7048 1.66632 5.66669 1.66632C4.74621 1.66632 3.99969 2.41284 3.99969 3.33331C3.99969 4.25379 4.74621 5.00031 5.66669 5.00031C5.70482 5.00031 5.74247 4.99599 5.77997 4.99347C5.46159 5.20739 5.07909 5.33331 4.66669 5.33331C3.56212 5.33331 2.66669 4.43788 2.66669 3.33331C2.66669 2.22874 3.56212 1.33331 4.66669 1.33331ZM7.33368 4.00031C7.70161 4.00048 7.99952 4.29839 7.99969 4.66632C7.99969 5.0344 7.70172 5.33314 7.33368 5.33331C6.96549 5.33331 6.66669 5.03451 6.66669 4.66632C6.66686 4.29828 6.9656 4.00031 7.33368 4.00031ZM9.99969 4.00031C10.3678 4.00031 10.6665 4.29828 10.6667 4.66632C10.6667 5.03451 10.3679 5.33331 9.99969 5.33331C9.63165 5.33314 9.33368 5.0344 9.33368 4.66632C9.33386 4.29839 9.63176 4.00048 9.99969 4.00031ZM12.6667 4.00031C13.0348 4.00031 13.3335 4.29828 13.3337 4.66632C13.3337 5.03451 13.0349 5.33331 12.6667 5.33331C12.2985 5.33331 11.9997 5.03451 11.9997 4.66632C11.9999 4.29828 12.2986 4.00031 12.6667 4.00031ZM9.99969 1.33331C10.3679 1.33331 10.6667 1.63212 10.6667 2.00031C10.6665 2.36835 10.3678 2.66632 9.99969 2.66632C9.63176 2.66614 9.33386 2.36824 9.33368 2.00031C9.33368 1.63222 9.63165 1.33349 9.99969 1.33331ZM12.6667 1.33331C13.0349 1.33331 13.3337 1.63212 13.3337 2.00031C13.3335 2.36835 13.0348 2.66632 12.6667 2.66632C12.2986 2.66632 11.9999 2.36835 11.9997 2.00031C11.9997 1.63212 12.2985 1.33331 12.6667 1.33331Z" fill="white"/>
</g>
</svg>
