<svg width="28" height="20" viewBox="0 0 28 20" fill="none" xmlns="http://www.w3.org/2000/svg">
<rect width="28" height="20" rx="2" fill="white"/>
<mask id="mask0_16378_7320" style="mask-type:luminance" maskUnits="userSpaceOnUse" x="0" y="0" width="28" height="20">
<rect width="28" height="20" rx="2" fill="white"/>
</mask>
<g mask="url(#mask0_16378_7320)">
<path fill-rule="evenodd" clip-rule="evenodd" d="M0 13.3333H28V6.66663H0V13.3333Z" fill="#063191"/>
<path fill-rule="evenodd" clip-rule="evenodd" d="M0 20H28V13.3334H0V20Z" fill="#E2213B"/>
<path d="M10.0003 10.667C10.3683 10.6672 10.6662 10.9651 10.6664 11.333C10.6664 11.7011 10.3684 11.9998 10.0003 12C9.63215 12 9.33334 11.7012 9.33334 11.333C9.33352 10.965 9.63225 10.667 10.0003 10.667ZM18.0003 10.667C18.3683 10.6672 18.6662 10.9651 18.6664 11.333C18.6664 11.7011 18.3684 11.9998 18.0003 12C17.6321 12 17.3333 11.7012 17.3333 11.333C17.3335 10.965 17.6323 10.667 18.0003 10.667ZM11.3333 8.66699C11.7014 8.66699 12.0002 8.96497 12.0003 9.33301C12.0003 9.7012 11.7015 10 11.3333 10C10.9652 10 10.6664 9.7012 10.6664 9.33301C10.6665 8.96497 10.9653 8.66699 11.3333 8.66699ZM16.6664 8.66699C17.0344 8.66699 17.3332 8.96497 17.3333 9.33301C17.3333 9.7012 17.0345 10 16.6664 10C16.2983 9.99982 16.0003 9.70109 16.0003 9.33301C16.0005 8.96508 16.2984 8.66717 16.6664 8.66699ZM14.0003 8C14.3684 8.00018 14.6664 8.29891 14.6664 8.66699C14.6662 9.03492 14.3683 9.33283 14.0003 9.33301C13.6323 9.33301 13.3335 9.03503 13.3333 8.66699C13.3333 8.2988 13.6321 8 14.0003 8Z" fill="white"/>
<path fill-rule="evenodd" clip-rule="evenodd" d="M0 6.66667H28V0H0V6.66667Z" fill="#FFD044"/>
</g>
</svg>
