<svg width="28" height="20" viewBox="0 0 28 20" fill="none" xmlns="http://www.w3.org/2000/svg">
<rect width="28" height="20" rx="2" fill="white"/>
<mask id="mask0_16378_7298" style="mask-type:luminance" maskUnits="userSpaceOnUse" x="0" y="0" width="28" height="20">
<rect width="28" height="20" rx="2" fill="white"/>
</mask>
<g mask="url(#mask0_16378_7298)">
<rect width="28" height="20" fill="#07319C"/>
<path fill-rule="evenodd" clip-rule="evenodd" d="M17.3333 10C17.3333 8.9063 17.3333 7.61319 17.3333 6.66586C17.3333 5.92948 17.9303 5.33337 18.6666 5.33337H22.6666C23.403 5.33337 24 5.92948 24 6.66586C24 7.61319 24 8.9063 24 10C24 13.3334 20.6666 14.6667 20.6666 14.6667C20.6666 14.6667 17.3333 13.3334 17.3333 10Z" fill="#008339"/>
<mask id="mask1_16378_7298" style="mask-type:luminance" maskUnits="userSpaceOnUse" x="17" y="5" width="7" height="10">
<path fill-rule="evenodd" clip-rule="evenodd" d="M17.3333 10C17.3333 8.9063 17.3333 7.61319 17.3333 6.66586C17.3333 5.92948 17.9303 5.33337 18.6666 5.33337H22.6666C23.403 5.33337 24 5.92948 24 6.66586C24 7.61319 24 8.9063 24 10C24 13.3334 20.6666 14.6667 20.6666 14.6667C20.6666 14.6667 17.3333 13.3334 17.3333 10Z" fill="white"/>
</mask>
<g mask="url(#mask1_16378_7298)">
<path d="M19.3336 10.6667C19.7017 10.6669 19.9996 10.9657 19.9996 11.3337C19.9995 11.7017 19.7015 11.9996 19.3336 11.9998C18.9655 11.9998 18.6668 11.7018 18.6666 11.3337C18.6666 10.9656 18.9654 10.6667 19.3336 10.6667ZM21.9996 10.6667C22.3678 10.6667 22.6666 10.9656 22.6666 11.3337C22.6665 11.7018 22.3677 11.9998 21.9996 11.9998C21.6317 11.9996 21.3338 11.7017 21.3336 11.3337C21.3336 10.9657 21.6316 10.6669 21.9996 10.6667ZM19.3336 9.33374C19.7015 9.33392 19.9995 9.63182 19.9996 9.99976C19.9996 10.3678 19.7017 10.6666 19.3336 10.6667C18.9654 10.6667 18.6666 10.3679 18.6666 9.99976C18.6668 9.63172 18.9655 9.33374 19.3336 9.33374ZM21.9996 9.33374C22.3677 9.33374 22.6665 9.63172 22.6666 9.99976C22.6666 10.3679 22.3678 10.6667 21.9996 10.6667C21.6316 10.6666 21.3336 10.3678 21.3336 9.99976C21.3338 9.63182 21.6317 9.33392 21.9996 9.33374ZM19.3336 7.99976C19.7017 7.99993 19.9996 8.29867 19.9996 8.66675C19.9996 9.03483 19.7017 9.33356 19.3336 9.33374C18.9654 9.33374 18.6666 9.03494 18.6666 8.66675C18.6666 8.29856 18.9654 7.99976 19.3336 7.99976ZM21.9996 7.99976C22.3678 7.99976 22.6666 8.29856 22.6666 8.66675C22.6666 9.03494 22.3678 9.33374 21.9996 9.33374C21.6316 9.33356 21.3336 9.03483 21.3336 8.66675C21.3336 8.29867 21.6316 7.99993 21.9996 7.99976ZM19.3336 6.66675C19.7017 6.66692 19.9996 6.96566 19.9996 7.33374C19.9995 7.70167 19.7015 7.99958 19.3336 7.99976C18.9655 7.99976 18.6668 7.70178 18.6666 7.33374C18.6666 6.96555 18.9654 6.66675 19.3336 6.66675ZM21.9996 6.66675C22.3678 6.66675 22.6666 6.96555 22.6666 7.33374C22.6665 7.70178 22.3677 7.99976 21.9996 7.99976C21.6317 7.99958 21.3338 7.70167 21.3336 7.33374C21.3336 6.96566 21.6316 6.66692 21.9996 6.66675Z" fill="#FFD033"/>
<path fill-rule="evenodd" clip-rule="evenodd" d="M20.6667 11.3334C21.0349 11.3334 21.3333 10.4379 21.3333 9.33337C21.3333 8.2288 21.0349 7.33337 20.6667 7.33337C20.2985 7.33337 20 8.2288 20 9.33337C20 10.4379 20.2985 11.3334 20.6667 11.3334Z" fill="white"/>
</g>
<path d="M16.6667 13.3333C16.6667 14.6048 18.4879 15.3333 20.6667 15.3333C22.8455 15.3333 24.6667 14.6048 24.6667 13.3333C24.6667 12.9651 24.3682 12.6666 24 12.6666C23.6318 12.6666 23.3334 12.9651 23.3334 13.3333C23.3334 13.346 23.1718 13.4989 22.7761 13.6571C22.239 13.8719 21.4824 14 20.6667 14C19.851 14 19.0943 13.8719 18.5573 13.6571C18.1616 13.4989 18 13.346 18 13.3333C18 12.9651 17.7015 12.6666 17.3334 12.6666C16.9652 12.6666 16.6667 12.9651 16.6667 13.3333Z" fill="#FFD033"/>
<path d="M12.333 0.495117C12.333 0.710418 12.2289 0.912945 12.0537 1.03809L7.66699 4.1709V5.17969L11.7646 8.69238C12.1547 9.02696 11.9182 9.66674 11.4043 9.66699C11.2889 9.66699 11.176 9.63057 11.082 9.56348L6.55859 6.33301H5.42871L0.176758 9.61621L-0.333008 9.93457V8.49512L-0.193359 8.39551L4.33301 5.16211V4.15234L-0.216797 0.25293L-0.901367 -0.333008H0.773438L0.860352 -0.271484L5.43945 3H6.57129L11.8232 -0.282227L12.333 -0.601562V0.495117Z" fill="#DB1E36" stroke="white" stroke-width="0.666667"/>
<path fill-rule="evenodd" clip-rule="evenodd" d="M0 3.33333V6H4.66667V9.33333C4.66667 9.70152 4.96514 10 5.33333 10H6.66667C7.03486 10 7.33333 9.70152 7.33333 9.33333V6H12C12.3682 6 12.6667 5.70152 12.6667 5.33333V4C12.6667 3.63181 12.3682 3.33333 12 3.33333H7.33333V0H4.66667V3.33333H0Z" fill="white"/>
<path fill-rule="evenodd" clip-rule="evenodd" d="M0 4H5.33333V3.33333V0H6.66667V3.33333V4H12V5.33333H6.66667V6V9.33333H5.33333V6V5.33333H0V4Z" fill="#DB1E36"/>
</g>
</svg>
