<svg width="28" height="20" viewBox="0 0 28 20" fill="none" xmlns="http://www.w3.org/2000/svg">
<rect width="28" height="20" rx="2" fill="white"/>
<mask id="mask0_16378_7268" style="mask-type:luminance" maskUnits="userSpaceOnUse" x="0" y="0" width="28" height="20">
<rect width="28" height="20" rx="2" fill="white"/>
</mask>
<g mask="url(#mask0_16378_7268)">
<rect width="28" height="20" fill="#E31F37"/>
<path fill-rule="evenodd" clip-rule="evenodd" d="M-1.33334 10.6666H14.6667V-1.33337H-1.33334V10.6666Z" fill="#083B9A"/>
<path d="M7.33356 8.66663L7.60992 9.60999L6.66656 9.33362L5.72418 9.60999L5.99957 8.66663L5.72418 7.72424L6.66656 7.99963L7.60992 7.72424L7.33356 8.66663ZM8.33356 6.66663C8.51741 6.66675 8.66634 6.81581 8.66656 6.99963C8.66656 7.18365 8.51755 7.3335 8.33356 7.33362C8.14946 7.33362 7.99957 7.18373 7.99957 6.99963C7.9998 6.81573 8.1496 6.66663 8.33356 6.66663ZM4.66656 5.33362L4.94293 6.276L3.99957 5.99963L3.05719 6.276L3.33356 5.33362L3.05719 4.39026L3.99957 4.66663L4.94293 4.39026L4.66656 5.33362ZM10.6666 4.66663L10.9429 5.60999L9.99957 5.33362L9.05719 5.60999L9.33356 4.66663L9.05719 3.72424L9.99957 3.99963L10.9429 3.72424L10.6666 4.66663ZM7.33356 1.99963L7.60992 2.94299L6.66656 2.66663L5.72418 2.94299L5.99957 1.99963L5.72418 1.05725L6.66656 1.33362L7.60992 1.05725L7.33356 1.99963Z" fill="white"/>
</g>
</svg>
