<svg width="28" height="20" viewBox="0 0 28 20" fill="none" xmlns="http://www.w3.org/2000/svg">
<rect width="28" height="20" rx="2" fill="white"/>
<mask id="mask0_16378_7380" style="mask-type:luminance" maskUnits="userSpaceOnUse" x="0" y="0" width="28" height="20">
<rect width="28" height="20" rx="2" fill="white"/>
</mask>
<g mask="url(#mask0_16378_7380)">
<rect width="28" height="20" fill="#19BFBF"/>
<path d="M13.9997 2.66663C18.0496 2.66663 21.3335 5.9497 21.3336 9.99963C21.3336 14.0497 18.0498 17.3336 13.9997 17.3336C9.94973 17.3334 6.66666 14.0496 6.66666 9.99963C6.66683 5.9498 9.94983 2.6668 13.9997 2.66663ZM12.0163 10.6666C12.1136 12.9143 12.6993 14.9002 13.6139 15.985C13.7415 15.9931 13.87 15.9996 13.9997 15.9996C14.1293 15.9996 14.2578 15.9931 14.3854 15.985C15.3002 14.9003 15.8867 12.9145 15.984 10.6666H12.0163ZM17.319 10.6666C17.2459 12.5277 16.8644 14.2509 16.2145 15.5748C18.234 14.7719 19.7138 12.9061 19.9616 10.6666H17.319ZM8.03775 10.6666C8.28548 12.9057 9.76486 14.7716 11.7838 15.5748C11.1341 14.251 10.7544 12.5274 10.6813 10.6666H8.03775ZM13.9997 3.99963C13.8701 3.99964 13.7415 4.0052 13.6139 4.01331C12.6988 5.09794 12.1136 7.08513 12.0163 9.33362H15.984C15.8867 7.08491 15.3007 5.09787 14.3854 4.01331C14.2578 4.00521 14.1293 3.99963 13.9997 3.99963ZM16.2145 4.42346C16.8648 5.74765 17.2459 7.47181 17.319 9.33362H19.9616C19.714 7.09366 18.2343 5.2265 16.2145 4.42346ZM11.7838 4.42346C9.76449 5.22674 8.28528 7.09406 8.03775 9.33362H10.6813C10.7544 7.47212 11.1337 5.74756 11.7838 4.42346Z" fill="white"/>
</g>
</svg>
