<svg width="28" height="20" viewBox="0 0 28 20" fill="none" xmlns="http://www.w3.org/2000/svg">
<rect width="28" height="20" rx="2" fill="#009F60"/>
<mask id="mask0_16378_7683" style="mask-type:luminance" maskUnits="userSpaceOnUse" x="0" y="0" width="28" height="20">
<rect width="28" height="20" rx="2" fill="white"/>
</mask>
<g mask="url(#mask0_16378_7683)">
<rect x="24" y="10.6666" width="4" height="9.33333" fill="#EA8B42"/>
<path fill-rule="evenodd" clip-rule="evenodd" d="M20 20H24V10.6666H20V20Z" fill="#1A1919"/>
<path fill-rule="evenodd" clip-rule="evenodd" d="M16 20H20V10.6666H16V20Z" fill="#DB3C36"/>
<path fill-rule="evenodd" clip-rule="evenodd" d="M21.0141 3.48403C20.9222 3.48662 20.8547 3.45479 20.8305 3.40128C20.9804 3.31337 21.0817 3.33298 21.2073 3.44498C21.2315 3.35741 21.2073 3.25986 21.1542 3.20137C21.101 3.14287 21.0575 3.14287 20.9852 3.13788C20.9126 3.13307 20.8401 3.11363 20.7918 3.11363C20.721 2.95758 20.5436 3.02365 20.3732 3.08765C20.0961 3.19156 19.8472 3.38029 19.7354 3.56868C19.6844 3.65487 19.6782 3.68877 19.6468 3.73763C19.6727 3.73436 19.671 3.73436 19.6871 3.72455C19.6677 3.93909 19.642 4.13728 19.6806 4.26408C19.6324 4.44937 19.671 4.56636 19.7289 4.62485C19.787 4.68335 19.811 4.70778 19.8208 4.77608C19.8304 4.84421 19.8594 4.90752 19.9077 4.94657C19.9561 4.98563 19.985 5.04412 19.9898 5.07836C19.9946 5.11242 20.1441 5.25935 20.2072 5.29771C20.2314 5.31216 20.2362 5.34158 20.2653 5.38047C20.2024 5.75105 20.4537 6.12163 20.3956 6.48722C20.4392 6.49203 20.4971 6.48722 20.5552 6.47259C20.6034 6.78451 20.6324 6.93573 20.3618 7.02829C20.0913 7.12102 19.9434 7.21221 20.0188 7.31595C20.072 7.38907 20.182 7.32541 20.2508 7.26227C20.3039 7.21358 20.3666 7.16971 20.415 7.15509C20.4633 7.14046 20.4731 7.15509 20.4488 7.2184C20.4246 7.28188 20.2943 7.41831 20.2893 7.48662C20.2845 7.55492 20.3425 7.6036 20.4344 7.54993C20.5261 7.49625 20.6068 7.35586 20.6276 7.27208C20.642 7.21358 20.6663 7.17453 20.6613 7.27208C20.6565 7.36963 20.5986 7.54511 20.729 7.57436C20.8595 7.6036 20.8982 7.44756 20.8547 7.30614C20.8112 7.1649 20.7968 7.08679 20.816 7.0381C20.8353 6.98924 20.8547 6.96016 20.9029 6.97462C20.9512 6.98924 21.0479 6.9698 21.0431 6.89186C21.0381 6.81393 20.9706 6.75044 20.8933 6.79431C20.816 6.83819 20.758 6.83165 20.7918 6.73582C20.816 6.66752 20.8595 6.58459 20.8643 6.53109C20.9174 6.60902 21.2169 6.61883 21.3378 6.54571C21.3668 6.69195 21.4441 6.82356 21.275 6.96016C21.1058 7.09659 20.9706 7.22821 20.9754 7.32576C20.9804 7.4233 21.0189 7.48163 21.1058 7.43294C21.1928 7.38425 21.2459 7.31595 21.2653 7.25264C21.2846 7.18915 21.3234 7.18915 21.304 7.26726C21.2846 7.3452 21.2509 7.45737 21.2653 7.52567C21.2798 7.5938 21.3861 7.59879 21.4295 7.5353C21.473 7.47199 21.4633 7.38907 21.4537 7.30614C21.4441 7.22322 21.4586 7.13565 21.4778 7.10141C21.4972 7.06735 21.5358 7.01849 21.5745 7.11122C21.6133 7.20378 21.6325 7.2769 21.7098 7.30133C21.7871 7.32576 21.845 7.29152 21.8306 7.19896C21.8161 7.1064 21.7146 7.00386 21.6133 6.92593C21.5118 6.84799 21.5456 6.80894 21.5504 6.73582C21.5552 6.6627 21.5408 6.53109 21.5358 6.47259C21.6277 6.54089 21.7292 6.53109 21.7773 6.53109C21.8257 6.53109 21.905 6.51612 21.8257 6.44335C21.6662 6.29711 21.7194 6.2092 21.6083 6.10201C21.4972 5.99483 21.3957 5.82898 21.362 5.68773C21.328 5.54631 21.2536 5.28791 21.1058 5.15629C21.0237 5.08317 20.9996 4.88326 21.0189 4.6541C21.0381 4.42494 21.0431 4.17152 20.8353 4.05453C20.6276 3.93754 20.6324 3.83999 20.7001 3.73763C20.7676 3.63526 20.8545 3.53513 20.9658 3.52791C20.9908 3.52636 21.0486 3.52154 21.0721 3.50434C21.0616 3.49625 21.0446 3.48335 21.0141 3.48403Z" fill="#EA8B42"/>
<path fill-rule="evenodd" clip-rule="evenodd" d="M19.6629 4.01066C19.6578 4.10976 19.6602 4.19698 19.6806 4.26408C19.6324 4.44937 19.671 4.56636 19.7289 4.62486C19.7871 4.68335 19.8111 4.70778 19.8208 4.77608C19.8304 4.84421 19.8594 4.90752 19.9077 4.94658C19.9561 4.98563 19.9851 5.04412 19.9899 5.07836C19.9947 5.11243 20.1441 5.25935 20.2072 5.29772C20.2314 5.31217 20.2362 5.34159 20.2653 5.38047C20.2391 5.53445 20.2667 5.68843 20.3044 5.84206C19.9629 6.128 19.6259 5.99311 19.7677 5.70064C19.4841 5.92808 18.9947 5.92172 19.1043 5.70064C18.6597 5.85668 18.5245 5.72662 18.5824 5.58365C18.2089 5.73316 18.0155 5.59019 18.0671 5.4861C17.7579 5.57058 17.5581 5.51862 17.5259 5.46666C17.4939 5.4147 17.571 5.29772 17.642 5.23922C17.5002 5.29118 17.3649 5.29118 17.236 5.27174C17.1073 5.25212 17.1395 5.21307 17.1652 5.15458C17.1911 5.09608 17.2249 5.00352 17.3279 4.91251C17.0816 4.9612 16.7723 4.99544 16.5549 4.92215C16.514 4.90838 16.4439 4.8929 16.4872 4.8492C16.5308 4.80533 16.6612 4.69797 16.8207 4.62967C16.4583 4.68335 15.7722 4.7224 15.579 4.50305C15.7674 4.54193 16.0089 4.464 16.1636 4.40068C15.5548 4.33238 14.7239 3.91311 14.7141 3.50365C14.8881 3.78632 15.1878 3.88387 15.4873 3.97161C15.0813 3.73264 14.9123 3.44498 14.8979 3.25488C15.1297 3.47922 15.4823 3.73264 15.8303 3.79131C15.5838 3.65969 15.2649 3.27449 15.178 3.00627C15.3568 3.16713 15.8157 3.42554 16.1298 3.50847C15.9124 3.3378 15.5598 2.93316 15.579 2.70898C15.6611 2.79191 15.8641 2.94778 16.2795 3.19157C16.695 3.43535 16.9204 3.41746 17.2635 3.49058C17.2007 3.4061 17.1443 3.29393 17.1395 3.26468C17.241 3.27931 17.3375 3.31836 17.6274 3.49866C17.9173 3.67913 18.5507 3.73436 18.9126 3.89367C19.1781 4.01066 19.5567 3.93754 19.6629 4.01066Z" fill="#EA8B42"/>
<path fill-rule="evenodd" clip-rule="evenodd" d="M21.8495 6.51441C21.8654 6.50167 21.8654 6.47965 21.8257 6.44335C21.6662 6.29711 21.7194 6.2092 21.6083 6.10202C21.4972 5.99484 21.3957 5.82899 21.362 5.68774C21.328 5.54632 21.2536 5.28791 21.1058 5.1563C21.0237 5.08318 20.9996 4.88327 21.0189 4.6541C21.0354 4.45797 21.0414 4.24413 20.9125 4.1132C21.154 4.0449 21.3765 4.0301 21.4537 4.10804C21.8546 4.00567 22.2026 3.97471 22.544 3.95217C22.9369 3.92602 23.6776 3.75707 24.206 3.39957C24.1737 3.52963 23.9934 3.72456 23.8322 3.8221C24.3669 3.69204 25.0112 3.45152 25.5587 3.04206C25.5522 3.32817 25.3204 3.54253 25.185 3.6597C25.5587 3.45152 26.1061 3.19157 26.2929 2.86658C26.375 3.19965 25.8164 3.63527 25.5134 3.87578C25.8227 3.72628 26.2221 3.58813 26.3768 3.36705C26.3735 3.63681 26.0224 3.97161 25.6874 4.16653C26.0289 4.03664 26.409 3.90004 26.6279 3.69858C26.6536 3.97006 25.6069 4.59406 25.0883 4.76456C25.5393 4.6541 26.1254 4.5046 26.3831 4.34856C26.3702 4.40378 26.2652 4.4812 26.1887 4.53763C25.8736 4.77058 25.3904 4.89565 25.0948 4.95311C25.1336 5.1157 25.082 5.20671 24.9016 5.21961C24.7213 5.23268 24.2848 5.16284 24.0659 5.05221C24.0337 5.07165 23.9949 5.07836 23.9514 5.08318C24.164 5.24404 24.2365 5.36103 24.1929 5.42933C24.1496 5.49763 23.9973 5.48524 23.8814 5.46099C23.9732 5.71939 23.6663 5.70236 23.4104 5.55595C23.5118 5.68774 23.5264 5.79974 23.3862 5.82899C23.2461 5.85823 23.1349 5.8486 22.9996 5.76068C22.99 5.85823 22.8966 5.92327 22.7726 5.89075C23.1978 6.14916 23.1736 6.24344 23.1011 6.34081C23.0288 6.43836 22.775 6.41892 22.6398 6.33118C22.5818 6.53109 22.3508 6.53178 22.1783 6.37264C22.1768 6.4523 22.0122 6.6104 21.8495 6.51441Z" fill="#EA8B42"/>
<path fill-rule="evenodd" clip-rule="evenodd" d="M19.8772 7.49465C19.8843 7.43306 19.8901 7.36149 19.9415 7.3159C19.9931 7.27031 20.0253 7.23142 20.0704 7.27684C20.1155 7.32244 20.0865 7.36476 20.0253 7.3842C19.9641 7.40364 19.9223 7.45887 19.9125 7.49465C19.9029 7.53044 19.8707 7.54988 19.8772 7.49465Z" fill="black"/>
<path fill-rule="evenodd" clip-rule="evenodd" d="M20.2281 7.79369C20.1962 7.69149 20.2122 7.55971 20.2475 7.52066C20.283 7.4816 20.3281 7.45562 20.3699 7.49468C20.4117 7.53373 20.4278 7.58896 20.3505 7.62147C20.2821 7.6502 20.2765 7.72212 20.2734 7.77425C20.2701 7.8262 20.2475 7.85545 20.2281 7.79369Z" fill="black"/>
<path fill-rule="evenodd" clip-rule="evenodd" d="M20.6792 7.53043C20.6543 7.57224 20.6855 7.7417 20.7693 7.78385C20.8287 7.81379 20.8563 7.80673 20.8208 7.75134C20.7855 7.69611 20.7983 7.64415 20.8177 7.61491C20.8369 7.58566 20.8338 7.5337 20.7918 7.50772C20.75 7.48157 20.6984 7.49792 20.6792 7.53043Z" fill="black"/>
<path fill-rule="evenodd" clip-rule="evenodd" d="M21.0431 7.37768C20.99 7.33743 20.9401 7.38577 20.9207 7.41983C20.882 7.48814 20.9111 7.58568 20.9723 7.64091C21.0335 7.69614 21.0238 7.62147 21.0044 7.58895C20.9852 7.55644 20.9819 7.4914 21.0238 7.48487C21.0656 7.4785 21.0947 7.41657 21.0431 7.37768Z" fill="black"/>
<path fill-rule="evenodd" clip-rule="evenodd" d="M21.3458 7.4882C21.2941 7.47289 21.2428 7.52726 21.2492 7.59229C21.254 7.64081 21.2589 7.70274 21.3071 7.73526C21.3395 7.75693 21.362 7.77104 21.3458 7.71255C21.3297 7.65405 21.3556 7.60519 21.3844 7.58902C21.4134 7.57285 21.4005 7.50455 21.3458 7.4882Z" fill="black"/>
<path fill-rule="evenodd" clip-rule="evenodd" d="M21.7742 7.21186C21.7367 7.23836 21.7388 7.29978 21.7742 7.32249C21.8096 7.3452 21.8612 7.37771 21.8516 7.43294C21.8418 7.48816 21.8708 7.50778 21.8966 7.44601C21.9224 7.38425 21.9256 7.29324 21.8966 7.25092C21.8675 7.20859 21.8063 7.18915 21.7742 7.21186Z" fill="black"/>
<path d="M20.3693 3.07727C20.6329 2.97826 20.7394 2.9713 20.7921 3.10266C20.8152 3.10268 20.8274 3.10423 20.8956 3.11536C20.9345 3.1217 20.9595 3.12533 20.9855 3.12708C20.9938 3.12764 20.9943 3.12753 21.0021 3.12805C21.0637 3.13222 21.09 3.13793 21.1212 3.15833C21.135 3.16733 21.1486 3.17947 21.1622 3.19446C21.219 3.25713 21.2422 3.35858 21.2179 3.44739L21.2003 3.45325C21.0739 3.34061 20.977 3.32737 20.84 3.39661C20.8624 3.4462 20.9269 3.47618 21.0138 3.47375C21.0414 3.47313 21.0582 3.48006 21.0782 3.51282C21.0571 3.52833 21.0174 3.53506 20.9669 3.53821C20.8747 3.5442 20.7935 3.61538 20.7091 3.74329C20.633 3.85832 20.6599 3.94311 20.8409 4.04504C21.0207 4.14636 21.0572 4.32342 21.0294 4.6554C21.0091 4.89652 21.0391 5.08238 21.1134 5.14856C21.2362 5.25821 21.3151 5.44792 21.3722 5.68567C21.4048 5.82176 21.5035 5.98581 21.6154 6.09387C21.6417 6.11929 21.6608 6.14568 21.6759 6.17493C21.6845 6.1916 21.6912 6.20655 21.7013 6.23352C21.7366 6.32759 21.7606 6.36915 21.8331 6.43567C21.8729 6.47221 21.8808 6.50265 21.8566 6.52258C21.8402 6.53573 21.8103 6.5421 21.7775 6.54211C21.7694 6.54217 21.7691 6.54194 21.7599 6.54211C21.6819 6.54355 21.6311 6.53671 21.5734 6.50793C21.5645 6.5035 21.5564 6.49769 21.548 6.49231C21.5497 6.5116 21.5529 6.5385 21.5538 6.54895C21.5559 6.57287 21.5574 6.59416 21.5587 6.61438C21.5621 6.6655 21.5626 6.70644 21.5607 6.73645C21.5599 6.74782 21.5592 6.75796 21.5568 6.77356C21.5523 6.80206 21.551 6.81004 21.5519 6.82239C21.554 6.85313 21.5728 6.8807 21.6202 6.91711C21.7443 7.01259 21.8275 7.11171 21.8409 7.19739C21.8559 7.29369 21.7954 7.33984 21.7062 7.31165C21.6518 7.29435 21.6242 7.2581 21.5919 7.18079C21.5879 7.17122 21.5698 7.12778 21.5646 7.11536C21.5488 7.07761 21.5342 7.06581 21.5216 7.06946C21.5109 7.07278 21.499 7.08627 21.4874 7.10657C21.4676 7.14201 21.4554 7.22996 21.464 7.30481C21.4786 7.43123 21.4766 7.48569 21.4386 7.54114C21.3901 7.61208 21.2717 7.60549 21.255 7.52747C21.2475 7.49144 21.2513 7.44394 21.2648 7.38098C21.2685 7.36367 21.2729 7.34536 21.2784 7.32336C21.28 7.31708 21.2914 7.27566 21.2941 7.26477C21.3015 7.23473 21.2988 7.21824 21.297 7.2179C21.2937 7.21799 21.2829 7.23173 21.2755 7.25598C21.2538 7.32673 21.1955 7.39538 21.1115 7.4425C21.0226 7.49226 20.9708 7.44147 20.965 7.32629C20.9605 7.23453 21.0622 7.11874 21.2687 6.95227C21.3088 6.91988 21.3357 6.88615 21.3517 6.85168C21.3804 6.7895 21.3756 6.7414 21.3439 6.61926C21.337 6.59286 21.3337 6.57589 21.3302 6.55969C21.207 6.62352 20.9483 6.61759 20.8702 6.54993C20.8651 6.57629 20.8553 6.60813 20.8302 6.66809C20.8151 6.70404 20.8085 6.72074 20.8019 6.73938C20.7875 6.7801 20.7905 6.80188 20.8048 6.80774C20.8203 6.81406 20.8509 6.80619 20.8878 6.78528C20.9675 6.74005 21.0477 6.79879 21.0538 6.89075C21.0585 6.9671 20.9691 7.00555 20.8995 6.9845C20.8637 6.97387 20.8475 6.98873 20.8263 7.04211C20.8092 7.0854 20.8202 7.15631 20.8654 7.30286C20.9157 7.46641 20.858 7.61451 20.7267 7.58508C20.6463 7.56707 20.6256 7.50319 20.6368 7.39172C20.6382 7.37791 20.6399 7.36449 20.6427 7.34387C20.6488 7.29896 20.6497 7.28862 20.6505 7.27161C20.6511 7.26002 20.6497 7.25024 20.6495 7.24231C20.6462 7.25129 20.6409 7.2621 20.6378 7.27454C20.613 7.3747 20.5249 7.50973 20.4396 7.55969C20.348 7.61296 20.2725 7.57071 20.2784 7.48547C20.2809 7.45415 20.3038 7.41426 20.3497 7.34973C20.356 7.34093 20.3561 7.3409 20.3624 7.33215C20.4205 7.25186 20.4302 7.23699 20.4386 7.21497C20.4598 7.15974 20.4568 7.15346 20.4181 7.16516C20.3745 7.17835 20.3142 7.21908 20.2579 7.27063C20.1625 7.35818 20.061 7.39268 20.0099 7.32239C19.9695 7.26675 19.9863 7.21147 20.0538 7.1593C20.1134 7.11336 20.214 7.06723 20.3585 7.0177C20.5872 6.93942 20.6047 6.86436 20.5577 6.48352C20.4996 6.49812 20.44 6.5029 20.3849 6.48547C20.4086 6.33637 20.3902 6.21634 20.3195 5.9425C20.2471 5.66248 20.2282 5.53621 20.257 5.38684C20.2494 5.37681 20.243 5.367 20.2365 5.35559C20.2341 5.35145 20.2254 5.33576 20.2228 5.33118C20.2155 5.31882 20.2092 5.31147 20.2013 5.30676C20.1327 5.26486 19.9857 5.11772 19.9796 5.0802C19.9744 5.04301 19.9427 4.98864 19.9015 4.9552C19.8529 4.91591 19.8211 4.85149 19.8107 4.77747C19.8024 4.71988 19.7897 4.70132 19.7218 4.63293C19.6504 4.56085 19.6261 4.43075 19.67 4.2677C19.6403 4.16985 19.6433 4.07516 19.671 3.78137C19.6727 3.76394 19.673 3.75225 19.674 3.74231C19.6709 3.74339 19.6677 3.74548 19.6632 3.74622C19.6571 3.74713 19.6569 3.74711 19.6486 3.74817L19.6378 3.73157C19.6442 3.72169 19.6499 3.71186 19.6554 3.70129C19.6599 3.69239 19.6597 3.69205 19.6642 3.68274C19.666 3.67873 19.6827 3.64483 19.6886 3.63293C19.6996 3.61064 19.7118 3.58871 19.7267 3.5636C19.8402 3.37229 20.091 3.18164 20.3693 3.07727ZM20.7823 3.11829C20.7271 2.9965 20.6297 3.00291 20.3771 3.09778C20.1031 3.20055 19.8551 3.38761 19.7443 3.57434C19.7297 3.59892 19.7179 3.62091 19.7072 3.6427C19.7007 3.65572 19.683 3.694 19.6837 3.6925C19.6792 3.70187 19.6787 3.70177 19.674 3.71106C19.6718 3.71523 19.6684 3.7188 19.6661 3.72278C19.6671 3.72249 19.6682 3.72314 19.6691 3.72278C19.6713 3.72178 19.6736 3.72001 19.6818 3.71497L19.6974 3.72571C19.6959 3.74267 19.6952 3.75489 19.6925 3.78333C19.6651 4.07329 19.6619 4.16705 19.6906 4.26672C19.6484 4.42902 19.6709 4.5511 19.7365 4.61731C19.8078 4.68908 19.8221 4.71104 19.8312 4.77454C19.8409 4.84353 19.8702 4.90303 19.9142 4.9386C19.9597 4.97538 19.9941 5.03445 20.0001 5.07727C20.0052 5.10649 20.1498 5.24979 20.213 5.28821C20.2244 5.29504 20.2325 5.30438 20.2413 5.31946C20.2438 5.32366 20.2527 5.34075 20.255 5.34485C20.2611 5.35545 20.2667 5.36472 20.2755 5.38196C20.2494 5.53559 20.2684 5.66043 20.34 5.93762C20.4114 6.21421 20.4303 6.33602 20.3966 6.47668C20.4397 6.48145 20.4966 6.47608 20.5656 6.47083C20.6272 6.87017 20.6076 6.95529 20.3654 7.03821C20.223 7.08702 20.1247 7.13275 20.0675 7.17688C20.0081 7.22269 19.9948 7.26481 20.0275 7.30969C20.0676 7.36481 20.1563 7.33394 20.2433 7.25403C20.3017 7.2005 20.365 7.15895 20.4122 7.14465C20.4711 7.12697 20.4856 7.15269 20.4591 7.2218C20.4496 7.24677 20.4405 7.26118 20.38 7.34485C20.3737 7.35364 20.3736 7.35362 20.3673 7.36243C20.3238 7.42355 20.3018 7.4617 20.2999 7.48743C20.2952 7.5547 20.3516 7.58606 20.4288 7.54114C20.5087 7.49439 20.5938 7.36455 20.6173 7.26965C20.6254 7.23666 20.6354 7.21113 20.6456 7.20422C20.6582 7.19587 20.6681 7.20582 20.671 7.22083C20.6731 7.23154 20.6732 7.24868 20.672 7.27258C20.6711 7.29053 20.6695 7.30094 20.6632 7.3468C20.6604 7.36712 20.6597 7.38023 20.6583 7.39368C20.6481 7.49562 20.6654 7.54876 20.7316 7.5636C20.841 7.58804 20.891 7.45998 20.8448 7.30969C20.7982 7.15839 20.7863 7.08401 20.8058 7.0343C20.8306 6.9716 20.8566 6.94905 20.9064 6.96399C20.9637 6.98116 21.0358 6.95034 21.0323 6.8927C21.0274 6.81492 20.9631 6.76723 20.8986 6.80383C20.8563 6.82778 20.8204 6.83675 20.797 6.82727C20.769 6.81584 20.7638 6.78252 20.7814 6.73254L20.8107 6.66028C20.8407 6.58851 20.8511 6.55845 20.8536 6.5304L20.8732 6.52551C20.9233 6.59777 21.2161 6.6065 21.3322 6.53625L21.3488 6.54407C21.3527 6.56387 21.357 6.58205 21.3654 6.61438C21.3983 6.74122 21.403 6.79297 21.3712 6.86145C21.3538 6.89903 21.3239 6.93454 21.2814 6.96887C21.0814 7.13016 20.9824 7.24385 20.9865 7.32532C20.9916 7.42676 21.0291 7.46399 21.1007 7.42395C21.1803 7.37939 21.235 7.31447 21.255 7.24915C21.2655 7.21509 21.2829 7.19323 21.3009 7.19641C21.3209 7.20019 21.3248 7.22844 21.3146 7.26965C21.3119 7.28061 21.3016 7.32177 21.2999 7.32825C21.2944 7.35008 21.2899 7.36785 21.2863 7.38489C21.2732 7.44549 21.2687 7.49122 21.2755 7.52356C21.2879 7.58099 21.3822 7.58618 21.421 7.52942C21.4381 7.50458 21.4472 7.47942 21.4503 7.44543L21.4435 7.30774C21.4343 7.22871 21.4464 7.13581 21.4689 7.09583C21.4832 7.07071 21.4978 7.05318 21.5157 7.04797C21.5417 7.04049 21.5646 7.06096 21.5841 7.10754C21.5895 7.12056 21.6077 7.16389 21.6115 7.17297C21.6416 7.245 21.666 7.27629 21.713 7.29114C21.7877 7.31473 21.8329 7.28013 21.8204 7.20032C21.8079 7.12181 21.7265 7.02694 21.6066 6.93469C21.5548 6.89492 21.5331 6.86199 21.5304 6.82434C21.5294 6.80954 21.5305 6.80027 21.5353 6.76965C21.5376 6.75502 21.5395 6.74583 21.5402 6.73547C21.5421 6.7067 21.5406 6.66645 21.5372 6.61633C21.5359 6.59625 21.5344 6.57472 21.5323 6.5509C21.531 6.53544 21.5264 6.48379 21.5255 6.47375L21.5421 6.46399C21.5552 6.47371 21.569 6.48232 21.5831 6.48938C21.6369 6.51613 21.6843 6.52199 21.7589 6.52063C21.7686 6.52045 21.7689 6.52069 21.7775 6.52063C21.8057 6.52061 21.8315 6.51518 21.8429 6.50598C21.8544 6.49652 21.8502 6.48035 21.8185 6.45129C21.743 6.38208 21.7172 6.33828 21.6808 6.24133C21.6709 6.21514 21.6654 6.2004 21.6573 6.18469C21.6433 6.1575 21.6253 6.13325 21.6007 6.1095C21.4859 5.99867 21.3853 5.83088 21.3517 5.69055C21.2955 5.45667 21.2175 5.26992 21.0988 5.16418C21.0177 5.09187 20.987 4.90097 21.0079 4.65344C21.0351 4.32926 21 4.15923 20.8302 4.0636C20.6389 3.95587 20.6082 3.85761 20.6915 3.73157C20.7793 3.59859 20.8641 3.52334 20.965 3.51672C21.0109 3.51388 21.0493 3.50769 21.0656 3.51282C21.0488 3.49988 21.0364 3.49482 21.0148 3.49524C20.92 3.4979 20.8475 3.46413 20.8253 3.39172C20.9695 3.30721 21.0728 3.31871 21.1993 3.4259C21.2152 3.34809 21.195 3.2627 21.1466 3.20911C21.1342 3.19543 21.1216 3.18483 21.1095 3.17688C21.0822 3.159 21.0593 3.15347 21.0011 3.14954C20.993 3.149 20.9929 3.14913 20.9845 3.14856C20.9575 3.14677 20.9316 3.14333 20.8917 3.13684C20.8253 3.12601 20.8134 3.12452 20.7823 3.11829ZM19.6603 3.72473C19.6546 3.72559 19.6542 3.72559 19.6456 3.72668L19.6554 3.74329C19.6596 3.73668 19.6624 3.72948 19.6661 3.72278C19.6646 3.72325 19.6629 3.7243 19.6603 3.72473ZM21.1974 3.4425L21.214 3.43665C21.2094 3.43256 21.2039 3.42974 21.1993 3.4259C21.1982 3.43125 21.1988 3.43724 21.1974 3.4425Z" fill="black"/>
<path d="M15.5862 2.70142C15.688 2.8042 15.922 2.96912 16.2845 3.18188C16.5092 3.31375 16.681 3.37459 16.9066 3.41626L17.2405 3.47485C17.1879 3.39901 17.135 3.30012 17.1292 3.26685L17.1409 3.25415C17.2536 3.27039 17.3616 3.3206 17.6331 3.4895C17.7639 3.57094 17.9238 3.61895 18.3118 3.70923C18.3206 3.71127 18.3209 3.71117 18.3294 3.71313C18.6427 3.78603 18.7828 3.8248 18.9173 3.88403C18.9874 3.91485 19.0697 3.93431 19.1673 3.94556C19.2332 3.95314 19.281 3.95595 19.4017 3.96021C19.5669 3.96604 19.6275 3.97347 19.6693 4.0022L19.6732 4.01099C19.6674 4.12127 19.6724 4.20095 19.6907 4.26685C19.6486 4.42912 19.6711 4.55124 19.7366 4.61743C19.8079 4.68913 19.8223 4.71113 19.8314 4.77466C19.8411 4.84348 19.8705 4.90216 19.9144 4.93774C19.9597 4.97439 19.9941 5.03363 20.0003 5.07642C20.0043 5.10488 20.1498 5.24977 20.2132 5.28833C20.2244 5.29512 20.2318 5.30474 20.2405 5.31958C20.243 5.32382 20.2529 5.34105 20.2552 5.34497C20.2613 5.35558 20.2669 5.36476 20.2757 5.38208C20.2531 5.51456 20.2673 5.6472 20.3109 5.84985C20.1493 5.98511 19.9753 6.03722 19.8519 5.99829C19.7386 5.96249 19.6952 5.85846 19.7444 5.72876C19.6125 5.82326 19.4371 5.87997 19.2884 5.87915C19.1356 5.87828 19.0513 5.81772 19.0872 5.71704C18.7169 5.84198 18.5141 5.77224 18.5677 5.59985C18.26 5.71593 18.0077 5.63674 18.053 5.49927C17.7908 5.56743 17.5623 5.54516 17.5169 5.47192C17.4884 5.42504 17.5355 5.33029 17.6048 5.26001C17.4876 5.29564 17.3691 5.30271 17.2347 5.28247C17.1727 5.27303 17.1415 5.25842 17.1331 5.23364C17.1268 5.21465 17.129 5.2083 17.1526 5.15649C17.1539 5.15366 17.1543 5.15357 17.1556 5.15063C17.1556 5.15064 17.1707 5.11453 17.1761 5.10278C17.1854 5.08231 17.195 5.06427 17.2054 5.04614C17.2296 5.00381 17.259 4.96485 17.2962 4.92798C16.9935 4.98487 16.7352 4.99396 16.5511 4.93188C16.546 4.93019 16.5282 4.92458 16.5237 4.9231C16.4984 4.91465 16.4829 4.90716 16.473 4.89673C16.4579 4.881 16.4601 4.86195 16.4798 4.84204C16.5396 4.78175 16.6463 4.7036 16.7591 4.64673C16.2334 4.71692 15.7289 4.68966 15.5706 4.51001L15.5814 4.49243C15.728 4.52263 15.9158 4.48347 16.1194 4.40454C15.4521 4.31496 14.7127 3.88202 14.7034 3.50415L14.723 3.49829C14.858 3.71765 15.0394 3.8193 15.4095 3.93384C15.0894 3.72582 14.9034 3.46969 14.887 3.2561L14.9056 3.24731C15.1692 3.50241 15.4835 3.69987 15.7718 3.76685C15.5333 3.61176 15.2502 3.26211 15.1683 3.01001L15.1849 2.99829C15.3669 3.16203 15.7896 3.39236 16.0823 3.48267C15.816 3.25884 15.5526 2.89817 15.5687 2.70825L15.5862 2.70142ZM15.5921 2.73462C15.6004 2.93161 15.8732 3.29384 16.136 3.50024L16.1273 3.5188C15.846 3.44453 15.4123 3.21283 15.2025 3.03931C15.1976 3.02685 15.1917 3.01519 15.1878 3.00317L15.1712 3.01392C15.1808 3.02251 15.1917 3.03039 15.2025 3.03931C15.3042 3.30288 15.603 3.65736 15.8353 3.78149L15.8284 3.802C15.5271 3.75117 15.1939 3.54885 14.9134 3.28345C14.9119 3.27351 14.9092 3.26389 14.9085 3.25415L14.8909 3.26294C14.8982 3.26999 14.906 3.27648 14.9134 3.28345C14.9454 3.49953 15.1487 3.75971 15.4925 3.96216L15.4847 3.98169C15.077 3.86224 14.8769 3.76074 14.7308 3.54614C14.7283 3.53172 14.7253 3.51742 14.7249 3.50317L14.7054 3.50903C14.7134 3.522 14.7225 3.53394 14.7308 3.54614C14.7936 3.90787 15.5212 4.31759 16.1644 4.38989L16.1673 4.4104C15.9591 4.49561 15.7651 4.53779 15.6087 4.51587C15.6013 4.50926 15.5935 4.50343 15.5872 4.49634L15.5765 4.51392C15.5868 4.51604 15.598 4.51438 15.6087 4.51587C15.7884 4.67551 16.3008 4.69603 16.8187 4.61938L16.8245 4.63989C16.6945 4.69568 16.5625 4.78817 16.4944 4.85669C16.4825 4.86872 16.4817 4.87568 16.4876 4.88208C16.4944 4.88912 16.5085 4.89523 16.5306 4.90259C16.5349 4.90403 16.553 4.91071 16.5579 4.91235C16.7443 4.97519 17.0119 4.96357 17.3255 4.90161L17.3353 4.92017C17.3289 4.92587 17.3285 4.92642 17.3226 4.93188C17.2505 4.99951 17.2296 5.03527 17.1751 5.15845C17.1736 5.16192 17.1737 5.16287 17.1722 5.16626C17.1523 5.20985 17.15 5.21591 17.1536 5.22681C17.1586 5.24123 17.1832 5.25269 17.2376 5.26099C17.3841 5.28308 17.5114 5.27514 17.638 5.22876L17.6487 5.24731C17.5708 5.31152 17.5104 5.42056 17.5355 5.46118C17.5757 5.52488 17.8043 5.54696 18.0648 5.47583L18.0765 5.49048C18.015 5.61441 18.2643 5.69919 18.5784 5.57349L18.5921 5.58813C18.5258 5.75282 18.7182 5.82502 19.1009 5.69067L19.1136 5.70532C19.067 5.79938 19.1388 5.85678 19.2884 5.85767C19.4433 5.85852 19.6308 5.79706 19.761 5.69263L19.7776 5.70532C19.7131 5.83859 19.7487 5.9431 19.8577 5.97778C19.9733 6.01434 20.1413 5.96516 20.2943 5.84497C20.2464 5.65021 20.2319 5.51486 20.2571 5.38696C20.2497 5.37697 20.2431 5.36707 20.2366 5.35571C20.2342 5.35152 20.2252 5.33423 20.223 5.33032C20.2158 5.31803 20.2093 5.31158 20.2015 5.30688C20.133 5.26514 19.985 5.11788 19.9788 5.08032C19.9736 5.04301 19.9421 4.98874 19.9007 4.95532C19.8521 4.91603 19.8203 4.85161 19.8099 4.77759C19.8016 4.71985 19.7893 4.70086 19.721 4.63208C19.6498 4.55985 19.6262 4.42986 19.6702 4.26685C19.6516 4.20536 19.6465 4.12621 19.6517 4.01782C19.6532 4.01874 19.6551 4.0188 19.6566 4.01978L19.6526 4.01001C19.6525 4.0126 19.6518 4.01527 19.6517 4.01782C19.6146 3.99494 19.5545 3.98709 19.4017 3.98169C19.28 3.97739 19.2313 3.97475 19.1644 3.96704C19.0647 3.95556 18.9809 3.93541 18.9085 3.90356C18.7757 3.84511 18.637 3.80712 18.3255 3.73462C18.3165 3.73254 18.3159 3.73182 18.3069 3.72974C17.9163 3.63884 17.7551 3.59128 17.6214 3.50806C17.3678 3.35031 17.2594 3.29824 17.1566 3.27954C17.154 3.27252 17.1504 3.26724 17.1497 3.26294L17.138 3.27563C17.1442 3.27653 17.1503 3.2784 17.1566 3.27954C17.1732 3.32443 17.2236 3.41977 17.2718 3.48462L17.261 3.50122C17.1895 3.48598 17.1516 3.47885 17.014 3.4563C16.9656 3.44836 16.9346 3.44364 16.9026 3.43774C16.6747 3.39564 16.5008 3.33363 16.2737 3.20044C15.9312 2.99941 15.704 2.83965 15.5921 2.73462ZM15.5716 2.71704C15.5776 2.7231 15.5852 2.72815 15.5921 2.73462C15.5917 2.72611 15.5895 2.71807 15.5901 2.71021L15.5716 2.71704Z" fill="black"/>
<path d="M26.3038 2.86414C26.331 2.97496 26.2915 3.10113 26.1954 3.24109C26.1107 3.36439 25.9853 3.4947 25.8214 3.63757C25.7482 3.70135 25.6958 3.74149 25.586 3.82898C25.5981 3.82344 25.6109 3.81837 25.6241 3.81238C25.6555 3.79814 25.7642 3.74928 25.7716 3.74597C26.1101 3.59351 26.2741 3.49573 26.3683 3.36121L26.3878 3.36707C26.385 3.59793 26.1229 3.89862 25.7804 4.12C25.7813 4.11963 25.7823 4.11939 25.7833 4.11902C25.8233 4.10385 25.854 4.09147 25.8839 4.07996C26.2543 3.93703 26.4697 3.8288 26.6202 3.69031L26.6388 3.69714C26.6604 3.92595 25.8667 4.46215 25.2599 4.70886C25.8415 4.5627 26.1842 4.45712 26.378 4.33972L26.3936 4.35144C26.3868 4.38017 26.3591 4.41391 26.3136 4.45398C26.2962 4.46927 26.2762 4.48501 26.253 4.50281C26.2367 4.51537 26.2239 4.52569 26.1954 4.54675C25.9299 4.74304 25.5308 4.87977 25.1056 4.95105C25.147 5.12542 25.0837 5.21736 24.9024 5.23035C24.6979 5.24517 24.2636 5.16416 24.0714 5.0614C24.0457 5.07688 24.0171 5.08284 23.9747 5.08875C24.1718 5.24118 24.2505 5.35969 24.2022 5.43542C24.1627 5.49753 24.0451 5.50305 23.8946 5.47351C23.9306 5.5911 23.8859 5.65987 23.7774 5.67078C23.6876 5.67978 23.5626 5.64582 23.4425 5.58386C23.5306 5.71485 23.519 5.81239 23.3888 5.83972C23.24 5.87079 23.1309 5.85424 23.006 5.77625C22.9901 5.86203 22.9158 5.9149 22.8185 5.90808C23.1533 6.1168 23.2052 6.21903 23.1095 6.34753C23.0376 6.44367 22.7927 6.4349 22.6446 6.34558C22.5818 6.53189 22.3633 6.54545 22.1847 6.3905C22.1641 6.50126 21.982 6.60485 21.8438 6.52332L21.8429 6.50574C21.8544 6.49638 21.8502 6.48007 21.8185 6.45105C21.7431 6.3819 21.7172 6.33799 21.6808 6.24109C21.6709 6.21492 21.6654 6.20019 21.6573 6.18445C21.6433 6.1573 21.6252 6.13395 21.6007 6.11023C21.4858 5.99935 21.3853 5.83077 21.3517 5.69031C21.2955 5.45642 21.2174 5.26968 21.0987 5.16394C21.0177 5.09151 20.987 4.90071 21.0079 4.6532C21.0308 4.3807 21.0104 4.22862 20.9044 4.12097L20.9093 4.10242C21.172 4.02812 21.3848 4.02292 21.4513 4.09753C21.7961 4.00952 22.0899 3.97121 22.5431 3.94128C23.0486 3.90763 23.7447 3.69876 24.2003 3.3905L24.2159 3.40222C24.1869 3.51907 24.0372 3.68904 23.8839 3.79675C24.4956 3.64161 25.0777 3.38765 25.5518 3.03308L25.5694 3.04187C25.5645 3.25755 25.4516 3.42545 25.2501 3.61121C25.3488 3.55739 25.5182 3.46614 25.5811 3.43054C25.9509 3.22147 26.1751 3.04929 26.2833 2.86121L26.3038 2.86414ZM26.2843 2.89734C26.1684 3.07943 25.9476 3.24794 25.5919 3.4491C25.5068 3.49721 25.2289 3.64747 25.1905 3.66882L25.1778 3.65125C25.4055 3.45427 25.532 3.28188 25.545 3.06433C25.5515 3.05953 25.559 3.0555 25.5655 3.05066L25.5479 3.04187C25.5478 3.04945 25.5455 3.05686 25.545 3.06433C25.0578 3.42371 24.4609 3.68062 23.8351 3.83289L23.8292 3.81824H23.8282L23.8263 3.81335C23.9794 3.72065 24.1392 3.54624 24.1856 3.42371C24.1941 3.41813 24.2037 3.41372 24.212 3.40808L24.1954 3.39734C24.1932 3.40596 24.1891 3.41445 24.1856 3.42371C23.7267 3.72494 23.0449 3.92943 22.545 3.96277C22.0929 3.99262 21.8 4.03129 21.4464 4.11609C21.3789 4.04792 21.1795 4.05117 20.9317 4.11902C20.9278 4.11465 20.9242 4.10959 20.92 4.10535L20.9151 4.1239C20.9206 4.12235 20.9263 4.1205 20.9317 4.11902C21.0179 4.21486 21.0422 4.34114 21.0343 4.54187L21.0167 4.54578L21.0138 4.56628C21.0159 4.56747 21.0184 4.56805 21.0206 4.56921V4.57117L21.0235 4.57019C21.0264 4.57169 21.0295 4.57264 21.0323 4.5741C21.0309 4.59983 21.0317 4.62702 21.0294 4.65515C21.009 4.89639 21.039 5.08211 21.1134 5.14832C21.2363 5.25795 21.3151 5.44759 21.3722 5.68542C21.4048 5.82171 21.5033 5.98649 21.6153 6.0946C21.6417 6.12002 21.6608 6.14544 21.6759 6.17468C21.6845 6.19148 21.691 6.20703 21.7013 6.23425C21.7365 6.32803 21.7607 6.36902 21.8331 6.43542C21.8652 6.46476 21.8747 6.48947 21.8653 6.50867C21.8621 6.50702 21.8577 6.50662 21.8546 6.50476L21.8565 6.52234C21.8613 6.51845 21.863 6.51335 21.8653 6.50867C21.9955 6.57562 22.1662 6.47055 22.1681 6.37195L22.1856 6.36511C22.3597 6.52557 22.5766 6.51198 22.63 6.328L22.6456 6.32214C22.7841 6.41201 23.0278 6.42228 23.0929 6.33484C23.1823 6.21472 23.129 6.12046 22.7667 5.90027L22.7755 5.88074C22.8886 5.91031 22.98 5.85455 22.9893 5.75964L23.005 5.75183C23.1299 5.833 23.2359 5.84913 23.3839 5.81824C23.5053 5.79292 23.5073 5.69982 23.4015 5.56238L23.4161 5.54675C23.5431 5.61934 23.6815 5.6587 23.7755 5.64929C23.8745 5.63926 23.9116 5.57856 23.8712 5.46472L23.8839 5.45007C24.0322 5.4811 24.1498 5.47661 24.1837 5.42371C24.2244 5.3599 24.1465 5.24386 23.9454 5.09167L23.9503 5.07214C24.0026 5.06635 24.0336 5.05917 24.0704 5.04285C24.2693 5.14336 24.6996 5.22329 24.9005 5.20886C25.0684 5.19685 25.1231 5.1174 25.0929 4.94226C25.5236 4.85849 25.9204 4.72312 26.1827 4.52917C26.2109 4.50839 26.2233 4.49852 26.2393 4.48621C26.2624 4.46849 26.2828 4.45246 26.2999 4.43738C26.3258 4.41455 26.3431 4.39252 26.3556 4.37488C26.3667 4.36868 26.3784 4.36355 26.3888 4.3573L26.3731 4.34656C26.371 4.3554 26.3634 4.36381 26.3556 4.37488C26.1344 4.49793 25.7496 4.61396 25.0909 4.77527L25.0851 4.75476C25.6718 4.56185 26.577 3.97341 26.6134 3.72253C26.6201 3.71671 26.6284 3.71285 26.6349 3.70691L26.6173 3.70007C26.6179 3.70735 26.6145 3.71455 26.6134 3.72253C26.4614 3.85491 26.2486 3.96274 25.8917 4.10046C25.8618 4.11198 25.831 4.12339 25.7911 4.13855C25.7411 4.15752 25.7131 4.16844 25.6915 4.17664L25.6817 4.1571C26.0435 3.94661 26.3319 3.63711 26.3604 3.40027C26.3682 3.39064 26.3788 3.38293 26.3858 3.37292L26.3663 3.36707C26.3662 3.37809 26.3618 3.38889 26.3604 3.40027C26.2606 3.52438 26.0981 3.62241 25.7804 3.7655C25.7734 3.76864 25.6643 3.81766 25.6329 3.83191C25.5889 3.8519 25.5518 3.86914 25.5177 3.88562L25.5069 3.86707C25.6656 3.74111 25.7213 3.69625 25.8077 3.62097C25.9702 3.4793 26.0944 3.35081 26.1778 3.22937C26.2628 3.10568 26.2976 2.99472 26.2843 2.89734ZM20.2589 5.51355H20.2579L20.2423 5.50085C20.1981 5.56024 20.0866 5.69211 20.0157 5.76843L20.0313 5.7821V5.78308L20.0157 5.76843L20.2423 5.49988L20.2589 5.51355ZM20.2491 5.35339C20.1769 5.43966 19.9582 5.60209 19.7735 5.71179L19.7608 5.69421L20.1427 5.4071C20.1688 5.39309 20.1939 5.37472 20.2188 5.35242C20.1379 5.43932 19.9348 5.59049 19.7618 5.69324L19.7745 5.71082L20.2472 5.35535L20.2325 5.33972H20.2345V5.33777L20.2491 5.35339ZM19.7393 5.32214C19.5908 5.44201 19.2753 5.64228 19.1046 5.70789L19.0958 5.68835L19.0968 5.68738L19.1065 5.70691L19.4073 5.52429C19.4218 5.51549 19.4359 5.50593 19.4503 5.49695L19.7393 5.32214ZM19.8507 5.41394L19.8448 5.41687L19.8468 5.41785C19.7544 5.50846 19.564 5.6311 19.3976 5.703L19.6173 5.56238C19.5415 5.60957 19.4591 5.65465 19.3819 5.68738L19.3907 5.70593L19.3897 5.70691L19.38 5.68835L19.8214 5.40613C19.8223 5.4066 19.8234 5.40664 19.8243 5.4071C19.8283 5.40333 19.8334 5.401 19.837 5.39734L19.8507 5.41394ZM19.7315 5.30164C19.5876 5.41919 19.2696 5.61914 19.0987 5.68542L19.7315 5.30164ZM19.7354 5.16199C19.7157 5.17671 19.6973 5.19166 19.6788 5.20496C19.6096 5.2546 19.5485 5.29357 19.4972 5.32117C19.4404 5.35177 19.3927 5.37285 19.3536 5.38855C19.1932 5.47164 18.9995 5.56305 18.8585 5.62L18.8497 5.59949L19.2481 5.41394C19.2491 5.41401 19.2501 5.41488 19.2511 5.41492C19.2731 5.40395 19.2952 5.39358 19.3165 5.38269L19.3526 5.36609C19.389 5.35109 19.434 5.33139 19.4874 5.30261C19.5378 5.27551 19.5976 5.2365 19.6661 5.18738C19.69 5.17025 19.7153 5.15226 19.7413 5.13269C19.7431 5.13132 19.7444 5.12919 19.7462 5.12781C19.7419 5.13947 19.7385 5.15094 19.7354 5.16199ZM19.3468 5.39148C19.3073 5.4068 19.2768 5.41595 19.2511 5.41492C19.1133 5.48333 18.9649 5.55336 18.8507 5.59949L18.8595 5.61902L19.3468 5.39148ZM19.1505 5.30457C18.976 5.40314 18.6805 5.55485 18.5782 5.5907L18.5694 5.57117L18.5704 5.57019L18.5792 5.58972L19.1495 5.30359L19.1505 5.30457ZM19.1495 5.28015C18.9861 5.37306 18.7027 5.5174 18.587 5.56238L19.1495 5.28015ZM19.8243 5.4071C19.7829 5.44655 19.724 5.49255 19.6563 5.53699L19.8448 5.41687C19.8376 5.414 19.8309 5.41045 19.8243 5.4071ZM18.755 5.1239C18.6745 5.17599 18.6147 5.21217 18.5509 5.24988L18.7716 5.13953C18.6671 5.20721 18.5984 5.25051 18.5108 5.30066C18.4499 5.33556 18.3917 5.36737 18.336 5.39441C18.2343 5.44376 18.1445 5.47725 18.0694 5.49304L18.0626 5.47351L18.754 5.12292L18.755 5.1239ZM18.0645 5.47253L18.0724 5.49207L18.1778 5.43835C18.137 5.45333 18.099 5.4653 18.0645 5.47253ZM18.7784 5.30066L18.505 5.42859C18.4613 5.44372 18.4184 5.45824 18.3741 5.46765L18.38 5.48718L18.379 5.48816L18.3722 5.46863L18.9415 5.20105C18.9441 5.20117 18.9467 5.20098 18.9493 5.20105C18.9041 5.22768 18.8289 5.27126 18.7784 5.30066ZM18.754 5.34167C18.6263 5.412 18.5069 5.45929 18.3829 5.48621L18.505 5.42859C18.5829 5.40159 18.6615 5.36717 18.7433 5.32214C18.7525 5.31706 18.7642 5.30894 18.7784 5.30066L18.9923 5.20105H18.9933C18.9623 5.21782 18.8076 5.31212 18.754 5.34167ZM20.2306 5.32214L20.2345 5.33777L20.1427 5.4071C20.0494 5.45722 19.9497 5.45675 19.8507 5.4198C19.8493 5.41929 19.8481 5.41837 19.8468 5.41785C19.8486 5.41605 19.8509 5.41474 19.8526 5.41296L19.839 5.39539L19.8214 5.40613C19.737 5.36226 19.7023 5.28023 19.7354 5.16199C19.7413 5.15765 19.7481 5.15376 19.754 5.14929C19.7575 5.14667 19.7603 5.14315 19.7638 5.1405L19.7647 5.14148V5.13953C19.7708 5.13492 19.7771 5.13057 19.7833 5.12585L20.2306 5.32214ZM18.1778 5.43835C18.2236 5.42158 18.2733 5.40058 18.3263 5.37488C18.3815 5.34808 18.4396 5.31675 18.5001 5.2821C18.5179 5.27188 18.5341 5.25978 18.5509 5.24988L18.1778 5.43835ZM19.7647 5.14148C19.7167 5.27719 19.7566 5.36151 19.8585 5.39929C19.9789 5.44422 20.0972 5.43136 20.2052 5.33386L20.2227 5.34167L20.2188 5.3241C20.2148 5.32803 20.2092 5.33018 20.2052 5.33386L19.7647 5.14148ZM19.2413 5.12878C19.1614 5.24393 19.1497 5.30406 19.1964 5.36414C19.2235 5.3989 19.2631 5.40054 19.338 5.37195C19.3309 5.3756 19.3237 5.37902 19.3165 5.38269L19.2481 5.41394C19.2196 5.41204 19.198 5.40096 19.1798 5.37781C19.1615 5.35427 19.1531 5.33013 19.1505 5.30457C19.155 5.30202 19.1598 5.3002 19.1642 5.29773L19.1534 5.2782L19.1642 5.29773L19.1495 5.30359C19.1454 5.26003 19.163 5.21101 19.2052 5.14539C19.2172 5.14038 19.229 5.13442 19.2413 5.12878ZM18.7657 4.85437C18.6791 5.01143 18.7392 5.15792 18.919 5.17957C19.0048 5.18979 19.1105 5.16518 19.2257 5.11316C19.218 5.12414 19.2117 5.13522 19.2052 5.14539C19.1293 5.17688 19.0579 5.19609 18.9933 5.20105L18.9952 5.20007L18.9845 5.18054L18.9942 5.20007L18.9923 5.20105C18.9775 5.20215 18.9633 5.20142 18.9493 5.20105C18.9629 5.19304 18.9737 5.1863 18.9806 5.1825L18.9415 5.20105C18.9329 5.20064 18.9244 5.20204 18.9161 5.20105C18.8542 5.1936 18.8066 5.17067 18.7716 5.13953H18.7706L18.7774 5.1366L18.7765 5.13562H18.7784L18.7677 5.11707L18.754 5.12292C18.7227 5.08716 18.707 5.04252 18.7071 4.99207C18.7112 4.98961 18.7157 4.98771 18.7198 4.98523L18.7101 4.9657L18.7081 4.96667H18.7091L18.7188 4.98523L18.7071 4.99011V4.99207C18.3947 5.17914 18.1875 5.28382 17.9581 5.34265L17.9513 5.32214L18.7032 4.96863C18.6313 5.01178 18.5653 5.05103 18.503 5.08582L18.7071 4.99011C18.7075 4.94933 18.7183 4.90592 18.7403 4.86121C18.7489 4.85942 18.7571 4.85633 18.7657 4.85437ZM17.9532 5.32117L17.9601 5.34167L18.1075 5.27234C18.056 5.29094 18.0054 5.30779 17.9532 5.32117ZM19.7364 5.29871L19.7481 5.31531L19.7472 5.31726L19.7491 5.31628L19.7481 5.31531H19.7501L19.7384 5.29773L19.7364 5.29871ZM18.4366 4.88269C18.3286 4.94114 18.2093 4.99914 18.0938 5.05164L18.4767 4.88464C18.1959 5.03942 17.8297 5.20188 17.6446 5.24988L17.6378 5.22937L18.4298 4.88269C18.432 4.88297 18.4344 4.88243 18.4366 4.88269ZM17.962 5.11023C17.8345 5.16413 17.72 5.20753 17.6397 5.22839L17.6466 5.2489L17.962 5.11023ZM19.3731 5.24304L19.3595 5.22644L19.3604 5.22546L19.3741 5.24207C19.4077 5.20817 19.4977 5.13505 19.5958 5.06042L19.6143 5.0575L19.3731 5.24304ZM19.3634 5.22253C19.3962 5.19064 19.4688 5.13233 19.5509 5.06921L19.5675 5.06531L19.3634 5.22253ZM19.7647 5.13953L19.7638 5.1405L19.754 5.1366L19.7677 5.13074C19.7666 5.13365 19.7658 5.13666 19.7647 5.13953ZM18.7765 5.13562C18.7746 5.13681 18.7724 5.13738 18.7706 5.13855C18.7652 5.13367 18.7597 5.12923 18.755 5.1239C18.7585 5.12159 18.763 5.12041 18.7667 5.11804L18.7765 5.13562ZM19.2413 5.12878L19.2433 5.12683L19.2481 5.12585C19.2459 5.12691 19.2436 5.12775 19.2413 5.12878ZM19.2433 5.12683L19.2384 5.12781L19.2452 5.1239C19.2445 5.12487 19.2439 5.12587 19.2433 5.12683ZM19.7462 5.12781C19.7468 5.12627 19.7475 5.12448 19.7481 5.12292L19.7589 5.11804C19.7546 5.12129 19.7504 5.1246 19.7462 5.12781ZM19.587 5.03992C19.5745 5.04938 19.563 5.05988 19.5509 5.06921L19.2481 5.12585C19.2719 5.11474 19.2961 5.10312 19.3204 5.08972L19.587 5.03992ZM19.9532 4.99402C19.9495 4.99698 19.8843 5.04908 19.8624 5.06628C19.8344 5.08829 19.8079 5.107 19.7833 5.12585L19.7628 5.11707L19.7589 5.11804C19.787 5.09661 19.8164 5.07418 19.8487 5.04871C19.8605 5.03945 19.8849 5.02002 19.9054 5.00378L19.9483 4.99597L19.9395 4.97742C19.9371 4.97935 19.9224 4.99032 19.9054 5.00378L19.6143 5.0575L19.6515 5.0282L19.9444 4.97546L19.9532 4.99402ZM19.2257 5.11316L19.2276 5.11121L19.2345 5.10632L19.2452 5.10339C19.2386 5.10655 19.2323 5.11019 19.2257 5.11316ZM19.795 4.70007C19.6449 4.87016 19.4777 5.00295 19.3204 5.08972L19.2452 5.10339C19.411 5.02446 19.5935 4.88882 19.7579 4.70789L19.7882 4.70398L19.7794 4.6864C19.7727 4.69401 19.7647 4.70043 19.7579 4.70789L19.3507 4.7655C19.3655 4.75598 19.3809 4.74649 19.3966 4.73621L19.7852 4.6825L19.795 4.70007ZM18.3028 4.78601L18.297 4.78796C18.1092 4.87093 17.778 4.98749 17.5196 5.06433L18.297 4.78796C18.2938 4.78152 18.2906 4.77522 18.2882 4.76843C18.0978 4.85254 17.7586 4.97222 17.4991 5.04871L17.505 5.06824V5.06921L17.4981 5.04871L18.2872 4.76746L18.2882 4.76843C18.2903 4.7675 18.2929 4.7674 18.295 4.76648L18.3028 4.78601ZM19.5958 5.06042L19.5675 5.06531L19.6065 5.03601L19.6378 5.03015C19.624 5.04053 19.6094 5.05004 19.5958 5.06042ZM19.6065 5.03601L19.587 5.03992C19.673 4.97462 19.7653 4.90943 19.8302 4.86511L19.6065 5.03601ZM19.6515 5.0282L19.6378 5.03015C19.7156 4.97178 19.7938 4.91471 19.8497 4.87683L19.6515 5.0282ZM19.5558 4.6073C19.5337 4.62199 19.4549 4.67454 19.4386 4.68542C19.405 4.70785 19.3717 4.72578 19.3419 4.745L19.3556 4.74304L19.6788 4.55261C19.6459 4.57336 19.6108 4.59601 19.5675 4.62488C19.5456 4.63949 19.4666 4.69307 19.4503 4.70398C19.4323 4.71597 19.4134 4.72515 19.3966 4.73621L19.3556 4.74304L19.3067 4.77234L19.3507 4.7655C19.2006 4.86208 19.0938 4.9234 18.9786 4.96667L18.9698 4.94714L19.252 4.77917L19.297 4.77332C19.3115 4.76419 19.3265 4.7549 19.3419 4.745L19.3018 4.74988L19.67 4.53308C19.6362 4.55436 19.6003 4.57762 19.5558 4.6073ZM19.1622 4.85632C19.095 4.89322 19.0347 4.92252 18.9718 4.94617L18.9806 4.9657L19.1622 4.85632ZM18.0792 4.57898C17.8484 4.72848 17.5436 4.87028 17.3263 4.90222L17.3311 4.92175L17.3292 4.92273L17.3233 4.90222L18.0724 4.578C18.0746 4.57844 18.0769 4.57856 18.0792 4.57898ZM18.1056 4.58679C17.8725 4.74036 17.5595 4.88622 17.3341 4.92078L17.4308 4.87878C17.5958 4.8358 17.7899 4.74813 17.962 4.64929L18.1056 4.58679ZM18.7403 4.86121C18.6487 4.88033 18.5602 4.88777 18.4796 4.88367L18.4913 4.87878L18.4903 4.87781H18.4923L18.4845 4.86218C18.567 4.86595 18.6579 4.85666 18.752 4.83582C18.7473 4.84404 18.7444 4.85302 18.7403 4.86121ZM18.4903 4.87781C18.4868 4.87978 18.4832 4.88169 18.4796 4.88367C18.465 4.88293 18.4506 4.8843 18.4366 4.88269C18.4499 4.87548 18.4637 4.86937 18.4767 4.86218C18.4789 4.86231 18.4812 4.86207 18.4835 4.86218L18.4903 4.87781ZM18.3194 4.59656L18.3243 4.59558C18.2661 4.68714 18.2974 4.84404 18.4327 4.86121C18.4467 4.86296 18.4611 4.86133 18.4757 4.86218L18.4298 4.88269C18.3634 4.87426 18.3205 4.83605 18.297 4.78796C18.299 4.78705 18.3018 4.78691 18.3038 4.78601L18.295 4.7655L18.2872 4.76746C18.2674 4.71094 18.2732 4.64497 18.3018 4.59363C18.3097 4.59324 18.3175 4.59321 18.3253 4.59265L18.3194 4.59656ZM19.8565 4.87195H19.8546L19.8429 4.85535H19.8438L19.8565 4.87195ZM18.4845 4.86218H18.4835L18.4825 4.85925H18.4835L18.4845 4.86218ZM18.7657 4.85437C18.7666 4.85272 18.7677 4.85114 18.7686 4.84949L18.8253 4.84167C18.8055 4.84703 18.7854 4.84989 18.7657 4.85437ZM18.7686 4.84949L18.7647 4.85046L18.7716 4.8446C18.7706 4.84624 18.7696 4.84785 18.7686 4.84949ZM19.252 4.77917L18.8253 4.84167C18.8671 4.83037 18.9087 4.81646 18.9503 4.80164L19.3018 4.74988L19.252 4.77917ZM19.297 4.77332C19.259 4.79719 19.225 4.82058 19.1915 4.83972L19.3067 4.77234L19.297 4.77332ZM18.752 4.83582L18.754 4.83386L18.7608 4.82898L18.8204 4.82019C18.7976 4.82638 18.7746 4.83081 18.752 4.83582ZM19.4913 4.48132C19.367 4.60763 19.1634 4.7257 18.9503 4.80164L18.8204 4.82019C19.0611 4.75486 19.3075 4.62592 19.4561 4.48523L19.4884 4.4823L19.4874 4.48132C19.4887 4.48115 19.49 4.4815 19.4913 4.48132ZM18.5733 4.72156L18.5724 4.72253L18.5655 4.703L18.5665 4.70203L18.5733 4.72156ZM19.0128 4.5282C18.8748 4.60176 18.7218 4.67321 18.5802 4.71863L18.9913 4.53015L19.0128 4.5282ZM18.9561 4.53406C18.8308 4.59812 18.6966 4.66014 18.5714 4.70007L18.9278 4.53699L18.9561 4.53406ZM16.3653 4.27917L16.3741 4.27625C16.3729 4.27747 16.3714 4.27891 16.3702 4.28015H16.3653C16.3665 4.28102 16.3681 4.28124 16.3692 4.2821C16.3223 4.33471 16.3375 4.40219 16.4024 4.46082C16.6492 4.68411 17.261 4.68294 17.8487 4.48718L17.8927 4.49304C17.893 4.49399 17.8932 4.49504 17.8936 4.49597C17.288 4.70672 16.6482 4.71114 16.3888 4.47644C16.3577 4.44843 16.338 4.41749 16.3282 4.3866L16.337 4.38562L16.336 4.36316H16.3331L16.3341 4.38562C16.3323 4.38542 16.3301 4.38576 16.3282 4.38562V4.3866L16.1651 4.41296L16.1593 4.39148L16.1622 4.3905L16.1681 4.41199C16.2128 4.39334 16.2838 4.38236 16.3282 4.38562C16.3259 4.37824 16.3223 4.3715 16.3214 4.36414L16.1642 4.38953C16.2091 4.37175 16.275 4.3616 16.3214 4.36316V4.36414L16.3263 4.36316C16.3247 4.36307 16.323 4.36321 16.3214 4.36316C16.3174 4.33029 16.3278 4.29903 16.3526 4.27039C16.3565 4.27366 16.3611 4.27597 16.3653 4.27917ZM21.5226 4.46082C21.52 4.47779 21.5124 4.49224 21.5069 4.50671L21.4893 4.51257L21.4874 4.5321C21.4898 4.53349 21.4928 4.5337 21.4952 4.53503C21.421 4.6639 21.2175 4.66842 21.0323 4.5741C21.0324 4.57214 21.0322 4.57018 21.0323 4.56824L21.0538 4.56335C21.2496 4.66134 21.4579 4.64087 21.4952 4.47351L21.5138 4.47058L21.5011 4.45789C21.4732 4.6461 21.2405 4.66681 21.0333 4.55359C21.0335 4.54964 21.0341 4.54576 21.0343 4.54187L21.5099 4.4491L21.5226 4.46082ZM18.4034 4.12195C18.2029 4.17056 17.9871 4.28961 17.9347 4.3866C17.8854 4.47801 17.9069 4.51512 18.006 4.54285C18.2941 4.62375 18.6364 4.54958 18.8985 4.36609L18.9112 4.37195C18.9127 4.37471 18.9134 4.37805 18.9151 4.38074C18.8061 4.4578 18.6832 4.5152 18.5558 4.55164L18.3175 4.57507L18.3097 4.57996C18.3067 4.5843 18.3044 4.58902 18.3018 4.59363C18.2365 4.59684 18.1718 4.59524 18.1085 4.58582H18.1095L18.1085 4.58484H18.1114L18.1017 4.56628L18.0724 4.578C18.0481 4.57337 18.0237 4.56999 18.0001 4.56335C17.9434 4.54747 17.9072 4.52678 17.8936 4.49597C17.8962 4.49509 17.8989 4.4949 17.9015 4.49402L17.8995 4.47449L17.9005 4.45398L17.8888 4.45105C17.8915 4.4296 17.9005 4.40468 17.9161 4.37585C17.9411 4.32981 17.9992 4.2815 18.0733 4.23621C18.0885 4.23352 18.1034 4.23336 18.1173 4.23035V4.20886C18.1589 4.18635 18.2043 4.16558 18.2511 4.14734C18.305 4.1433 18.356 4.13519 18.4034 4.12195ZM18.9278 4.53699L18.3243 4.59558C18.3249 4.59459 18.3256 4.59363 18.3263 4.59265C18.4032 4.5871 18.4801 4.57327 18.5558 4.55164L18.9884 4.50964L18.9278 4.53699ZM18.1085 4.58484V4.58582C18.0986 4.58434 18.089 4.58078 18.0792 4.57898C18.0858 4.57468 18.0932 4.57157 18.0997 4.56726L18.1085 4.58484ZM21.9815 4.45398C21.9844 4.45508 21.9874 4.45585 21.9903 4.45691C21.9079 4.57986 21.656 4.62372 21.4952 4.53503C21.4958 4.53401 21.4966 4.53314 21.4972 4.5321L21.5235 4.52429C21.6764 4.59606 21.902 4.55347 21.9815 4.45007V4.45398ZM21.0333 4.55359C21.0331 4.55844 21.0326 4.5633 21.0323 4.56824L21.0235 4.57019C21.0226 4.56972 21.0215 4.56969 21.0206 4.56921L21.0245 4.54968C21.0273 4.55126 21.0305 4.55206 21.0333 4.55359ZM18.9913 4.53015L18.9561 4.53406C18.9733 4.5253 18.9902 4.51662 19.0069 4.50769L19.0528 4.50281L18.9913 4.53015ZM21.504 4.5155C21.5016 4.52113 21.5 4.52688 21.4972 4.5321L21.4952 4.53308L21.4981 4.51355C21.4999 4.51457 21.5022 4.51452 21.504 4.5155ZM19.4561 4.48523L19.0128 4.5282C19.0301 4.51897 19.0478 4.51117 19.0645 4.50183L19.1915 4.49011C19.2698 4.49779 19.3594 4.49535 19.4561 4.48425V4.48523ZM22.0196 4.36609C22.0206 4.38673 22.0164 4.40559 22.0099 4.42371L21.9972 4.42859C22.0055 4.41226 22.0122 4.39543 22.0128 4.37683L21.5235 4.52429C21.517 4.52123 21.5102 4.51898 21.504 4.5155C21.5052 4.51266 21.5058 4.50966 21.5069 4.50671L22.0196 4.36609ZM19.1114 4.47839C19.0966 4.48707 19.08 4.4932 19.0645 4.50183L19.0528 4.50281L19.1095 4.47839C19.099 4.47628 19.089 4.47307 19.0792 4.47058C19.0561 4.48377 19.0312 4.49468 19.0069 4.50769L18.9884 4.50964L19.0772 4.4696L19.0792 4.47058C19.0864 4.46644 19.0946 4.46398 19.1017 4.45984L19.1114 4.47839ZM22.4786 4.28015C22.44 4.49309 22.2225 4.54235 21.9903 4.45691C21.9912 4.45567 21.9915 4.45425 21.9923 4.453L22.0196 4.44324C22.2254 4.51163 22.408 4.46897 22.4513 4.2948L22.4718 4.28894L22.4581 4.27722C22.4226 4.47137 22.2223 4.51718 22.003 4.43835C22.0054 4.43344 22.008 4.42884 22.0099 4.42371L22.4649 4.26843L22.4786 4.28015ZM17.8966 4.49402L17.8927 4.49304C17.8905 4.4875 17.8886 4.48165 17.8878 4.47546C17.889 4.47502 17.8904 4.47493 17.8917 4.47449H17.8946L17.8966 4.49402ZM18.922 4.30945C18.9017 4.4142 19.0801 4.48346 19.336 4.47546L19.1915 4.49011C19.1631 4.48733 19.1365 4.48337 19.1114 4.47839H19.1124L19.1026 4.45886L19.0772 4.4696C18.9994 4.44968 18.9417 4.42094 18.9151 4.38074C18.9188 4.37814 18.9232 4.37654 18.9268 4.3739L18.9249 4.35535L18.9015 4.34265C18.8994 4.3313 18.8992 4.31983 18.9015 4.3075H18.9122L18.922 4.30945ZM17.8878 4.47058V4.47253L17.8927 4.47351L17.8917 4.47449C17.8904 4.47461 17.8891 4.47437 17.8878 4.47449V4.47546C17.8749 4.47994 17.8616 4.48289 17.8487 4.48718L17.795 4.47937C17.8279 4.47796 17.8589 4.47707 17.8878 4.47449V4.47253L17.8722 4.46863L17.8878 4.47058ZM19.4874 4.48132C19.4769 4.48274 19.4665 4.48307 19.4561 4.48425C19.4636 4.47716 19.4726 4.47187 19.4796 4.46472L19.4874 4.48132ZM17.7979 4.45789C17.7567 4.45973 17.7125 4.46172 17.6661 4.46179L16.4112 4.28601C16.4277 4.29531 16.4462 4.30423 16.4669 4.31238C16.6873 4.3991 17.2605 4.46244 17.6661 4.46179L17.795 4.47937C17.39 4.49679 16.7071 4.43046 16.4591 4.33289C16.423 4.31868 16.3937 4.30017 16.3692 4.2821L16.3702 4.28015L16.4093 4.28503C16.3945 4.27658 16.3815 4.26772 16.3702 4.25867L17.7979 4.45789ZM19.6524 4.45105C19.5975 4.46433 19.5436 4.47411 19.4913 4.48132C19.4922 4.48041 19.4943 4.48029 19.4952 4.47937L19.4864 4.46277C19.5243 4.45751 19.563 4.44984 19.6026 4.44128L19.6524 4.45105ZM19.4864 4.46277C19.4341 4.47003 19.3838 4.47397 19.336 4.47546L19.4864 4.46179V4.46277ZM17.8995 4.47253V4.47449C17.8984 4.4746 17.8968 4.47438 17.8956 4.47449V4.47156L17.8995 4.47253ZM17.8956 4.47156L17.8878 4.47058C17.8874 4.46501 17.8871 4.45911 17.8878 4.453C17.8907 4.45274 17.8937 4.45328 17.8966 4.453L17.8956 4.47156ZM17.8722 4.46863L17.7979 4.45789C17.8072 4.45747 17.8163 4.45742 17.8253 4.45691L17.8722 4.46863ZM17.0606 4.24304L17.8888 4.45105L17.8878 4.453C17.868 4.4548 17.8471 4.45568 17.8253 4.45691L16.8936 4.22351C16.948 4.23133 17.0039 4.23709 17.0606 4.24304ZM22.003 4.43835C22.0004 4.44385 21.9956 4.44778 21.9923 4.453L21.9884 4.45496V4.44128C21.9898 4.43914 21.992 4.43762 21.9933 4.43542C21.9964 4.43662 21.9998 4.43721 22.003 4.43835ZM19.6563 4.45203L19.6524 4.45105C19.6534 4.45081 19.6544 4.45032 19.6554 4.45007L19.6563 4.45203ZM19.6602 4.42859V4.45007C19.6587 4.45045 19.6569 4.4497 19.6554 4.45007V4.43152C19.6378 4.4359 19.6199 4.43755 19.6026 4.44128L18.922 4.30945L18.9229 4.3075C18.9528 4.30735 18.9834 4.30682 19.0147 4.30457L19.6602 4.42859ZM21.9972 4.42859C21.996 4.43094 21.9946 4.43312 21.9933 4.43542C21.992 4.43496 21.9906 4.43492 21.9893 4.43445L21.9884 4.44128C21.9863 4.44441 21.9839 4.44705 21.9815 4.45007V4.43445L21.9972 4.42859ZM18.7169 4.29187L18.7188 4.29285L18.7198 4.29382C18.5561 4.38224 18.4434 4.4231 18.2481 4.44812L18.4073 4.39539C18.358 4.40762 18.3052 4.41974 18.2433 4.42761L18.2462 4.44812L18.2452 4.4491L18.2413 4.42761L18.6798 4.28308C18.6821 4.2836 18.6843 4.28454 18.6866 4.28503C18.6938 4.28122 18.7017 4.2783 18.7091 4.27429L18.7169 4.29187ZM18.9161 4.37488L18.9112 4.37195C18.9092 4.36815 18.9079 4.36417 18.9063 4.36023C18.9087 4.35856 18.9118 4.35801 18.9142 4.35632L18.9161 4.37488ZM18.8253 4.30457L18.9015 4.34265C18.9026 4.34872 18.9041 4.35446 18.9063 4.36023C18.9037 4.36212 18.9012 4.36422 18.8985 4.36609L18.7647 4.29773C18.7844 4.30028 18.8045 4.30303 18.8253 4.30457ZM18.6866 4.28503C18.6399 4.30975 18.597 4.32996 18.5548 4.34753L18.7179 4.2948L18.7169 4.29187C18.7065 4.29002 18.6966 4.28717 18.6866 4.28503ZM18.7726 4.27722C18.8173 4.28274 18.8648 4.28598 18.9151 4.28601L18.9034 4.29382C18.902 4.29835 18.9023 4.30309 18.9015 4.3075C18.8753 4.30719 18.85 4.30639 18.8253 4.30457L18.7726 4.27722ZM18.9229 4.3075C18.9193 4.30751 18.9158 4.30751 18.9122 4.3075L18.9239 4.29968C18.9231 4.30222 18.9235 4.30499 18.9229 4.3075ZM19.1456 4.27039L19.1446 4.29089C19.1004 4.29803 19.0569 4.30153 19.0147 4.30457L18.9181 4.28601C18.9719 4.28593 19.0283 4.28256 19.087 4.27527L19.1397 4.29089L19.1407 4.26941C19.1227 4.27231 19.1047 4.27308 19.087 4.27527L18.421 4.07996C18.4205 4.07501 18.4178 4.07034 18.4181 4.06531L18.4034 4.07507L18.421 4.07996C18.4217 4.08705 18.4228 4.09355 18.4249 4.10046L18.422 4.09949L18.421 4.11804C18.4182 4.11889 18.415 4.1182 18.4122 4.11902L18.4405 4.13269C18.4805 4.19253 18.574 4.24082 18.7042 4.26648L18.7647 4.29773C18.7492 4.29571 18.7337 4.29547 18.7188 4.29285L18.711 4.27332L18.6798 4.28308C18.5339 4.25053 18.4323 4.18991 18.4044 4.11316L18.4132 4.11804L18.4142 4.09753L18.419 4.09851L18.422 4.09949L18.4229 4.09851L18.3976 4.08582C18.3966 4.07856 18.3962 4.0708 18.3966 4.06335L18.4102 4.05359L19.1456 4.27039ZM18.7726 4.27722C18.7488 4.27429 18.7261 4.27079 18.7042 4.26648L18.4405 4.13269C18.4334 4.12203 18.4284 4.11174 18.4249 4.10046L18.7726 4.27722ZM16.9024 4.203C17.2999 4.2594 17.7815 4.26421 18.0606 4.21667L18.0899 4.22449C18.084 4.22792 18.079 4.23272 18.0733 4.23621C17.8294 4.27947 17.4276 4.28154 17.0606 4.24304L16.9024 4.203ZM16.381 4.09363L16.378 4.0946H16.38C16.2962 4.12491 16.2933 4.1971 16.3702 4.25867H16.3683L16.3585 4.2616C16.356 4.26413 16.3549 4.26779 16.3526 4.27039C16.3321 4.25282 16.3176 4.23418 16.3077 4.2157C16.3093 4.21584 16.311 4.21653 16.3126 4.21667L16.3165 4.19519L16.296 4.18933C16.2852 4.14642 16.305 4.10718 16.3565 4.08289C16.3642 4.08684 16.3727 4.0898 16.381 4.09363ZM18.1124 4.23035L18.0899 4.22449C18.0974 4.22013 18.1046 4.21507 18.1124 4.21082V4.23035ZM18.1173 4.20886C18.1157 4.20969 18.1139 4.20998 18.1124 4.21082L18.1134 4.20984C18.097 4.21341 18.0789 4.21357 18.0606 4.21667L17.5685 4.09265C17.5857 4.09098 17.6024 4.08704 17.6192 4.08289L18.1173 4.20886ZM15.5821 4.00964C15.7433 4.09321 15.9347 4.1467 16.1768 4.17761L16.3067 4.21472L16.3077 4.2157C15.9517 4.18358 15.6928 4.11319 15.4854 3.9823L15.5821 4.00964ZM16.3145 4.19519L16.3106 4.2157L16.3067 4.21472C16.3027 4.20699 16.2981 4.1999 16.296 4.19226C16.3021 4.19283 16.3084 4.19464 16.3145 4.19519ZM16.296 4.18933V4.19226C15.9483 4.15971 15.6951 4.09116 15.4933 3.96277L15.4845 3.98132L15.4815 3.98035L15.4903 3.96082L16.296 4.18933ZM18.3976 4.08582C18.3981 4.09039 18.3984 4.095 18.3995 4.09949C18.3947 4.10086 18.3898 4.10211 18.3849 4.10339L17.63 3.73523C17.6295 3.88568 17.7262 4.03452 17.9024 4.08777C18.0767 4.14027 18.2468 4.13919 18.3849 4.10339L18.3868 4.10437C18.3415 4.1159 18.2955 4.13001 18.2511 4.14734C18.141 4.15558 18.0197 4.14538 17.8966 4.10828C17.8362 4.09008 17.7854 4.06051 17.7433 4.02429C17.7446 4.02325 17.7468 4.0234 17.7481 4.02234L17.7452 4.00378L17.7101 3.99207C17.6527 3.92957 17.6173 3.85268 17.6095 3.77234C17.6132 3.77353 17.6166 3.77627 17.6202 3.77722L17.629 3.75867L17.6085 3.74304C17.6083 3.73458 17.6081 3.72611 17.6085 3.71765L17.6241 3.70789L18.3976 4.08582ZM22.8683 4.15027V4.15125L22.8624 4.13074L22.8643 4.12976L22.8683 4.15027ZM23.8351 3.83875H23.836C23.8306 3.84077 23.5403 3.94605 23.4366 3.9823C23.4051 3.99333 23.3743 4.00348 23.3448 4.01355C23.134 4.08542 22.9746 4.13252 22.8722 4.15027L23.8351 3.83875ZM23.4298 3.96179C23.3982 3.97282 23.3675 3.98299 23.338 3.99304C23.1281 4.06459 22.9693 4.11032 22.8683 4.12781L23.8194 3.82117C23.7686 3.83957 23.5234 3.92905 23.4298 3.96179ZM18.4112 4.11902C18.4128 4.11864 18.4145 4.11841 18.4161 4.11804H18.4093L18.4112 4.11902ZM18.4044 4.11316L18.3868 4.10437C18.3911 4.10328 18.3952 4.1015 18.3995 4.10046C18.4006 4.10484 18.4028 4.10887 18.4044 4.11316ZM18.4044 4.09949C18.4028 4.09987 18.4011 4.10007 18.3995 4.10046V4.09949C18.401 4.09906 18.4029 4.09992 18.4044 4.09949C18.4067 4.09894 18.4089 4.09806 18.4112 4.09753H18.4132C18.4103 4.09841 18.4073 4.09865 18.4044 4.09949ZM16.3878 4.09656L16.38 4.0946L16.3819 4.09363C16.3839 4.09454 16.3858 4.09566 16.3878 4.09656ZM17.4171 4.05359C17.4306 4.05816 17.4442 4.06137 17.4581 4.06433L17.5685 4.09265C17.4821 4.10099 17.3936 4.07904 17.3214 4.03015L17.4171 4.05359ZM16.2989 3.83972C16.3672 3.80964 16.5325 3.82528 16.7931 3.87488C16.7931 3.88263 16.7938 3.88997 16.795 3.89734C16.537 3.84801 16.3705 3.83159 16.3077 3.85925C16.2291 3.89421 16.2217 3.96159 16.3058 4.02625C16.3276 4.04299 16.355 4.05818 16.3868 4.07312H16.378C16.3704 4.07569 16.3631 4.07978 16.3565 4.08289C16.332 4.07028 16.3101 4.05763 16.2921 4.04382C16.242 4.00526 16.2208 3.96301 16.2247 3.92566L16.2335 3.92859L16.2403 3.9071C16.2369 3.90574 16.233 3.90453 16.2296 3.9032C16.2399 3.87761 16.2637 3.85541 16.2989 3.83972ZM17.7384 4.02429L17.7374 4.01843C17.7395 4.02028 17.7412 4.02248 17.7433 4.02429C17.706 4.0535 17.6638 4.07189 17.6192 4.08289L17.5704 4.07019C17.6226 4.06452 17.672 4.04701 17.7159 4.01648L17.7384 4.02429ZM16.8038 3.89929L16.8175 3.90222C16.84 3.99206 16.9689 4.0413 17.1847 3.995L17.2286 4.00671C16.9712 4.07238 16.8141 4.01001 16.795 3.89734C16.7979 3.8979 16.8008 3.89872 16.8038 3.89929ZM17.2735 3.995C17.2879 4.00877 17.305 4.01907 17.3214 4.03015L17.2286 4.00671C17.2434 4.00293 17.259 4.00064 17.2745 3.99597L17.2286 3.98425C17.2328 3.98316 17.2371 3.98249 17.2413 3.98132L17.2735 3.995ZM17.7374 4.01843C17.7339 4.01533 17.73 4.01285 17.7267 4.00964C17.7291 4.00781 17.7331 4.00765 17.7354 4.00574L17.7374 4.01843ZM17.7101 3.99207C17.7155 3.99799 17.7208 4.00401 17.7267 4.00964C17.7232 4.01224 17.7194 4.01405 17.7159 4.01648L17.212 3.85535C17.2098 3.84879 17.206 3.84264 17.2042 3.83582L17.1905 3.84851L17.212 3.85535C17.2346 3.92175 17.2777 3.97267 17.3311 4.00964L17.2755 3.99597C17.2773 3.99542 17.2795 3.99556 17.2813 3.995L17.2823 3.97449L17.2462 3.95984C17.219 3.92567 17.1959 3.88659 17.1837 3.8407L17.1974 3.828L17.7101 3.99207ZM17.2735 3.99402C17.2682 3.98889 17.2648 3.98193 17.2599 3.97644C17.2645 3.97508 17.2698 3.97593 17.2745 3.97449L17.2735 3.99402ZM16.8233 3.80554L16.8165 3.80945L16.8263 3.81335C16.8271 3.8112 16.8272 3.80868 16.8282 3.80652C16.8467 3.80982 16.8661 3.8138 16.8878 3.81433L17.2462 3.95984C17.2507 3.9655 17.255 3.97111 17.2599 3.97644C17.2536 3.97827 17.2474 3.97964 17.2413 3.98132L16.8263 3.81335C16.8169 3.83631 16.8146 3.85824 16.8155 3.87878L16.8087 3.87781H16.8077C16.8028 3.87686 16.7979 3.8758 16.7931 3.87488C16.793 3.85236 16.7972 3.82858 16.8077 3.80359C16.8127 3.80484 16.818 3.80451 16.8233 3.80554ZM16.0323 3.83777C16.0547 3.84418 16.0742 3.8496 16.0929 3.85535C16.1403 3.86997 16.1839 3.88542 16.2296 3.9032V3.90417L16.2393 3.9071L16.2325 3.92761C16.23 3.9266 16.2272 3.92567 16.2247 3.92468V3.92566L15.8272 3.80261C15.8767 3.81734 16.0164 3.85647 16.0265 3.85925C16.0488 3.86567 16.0684 3.87109 16.087 3.87683C16.1349 3.89158 16.1786 3.90666 16.2247 3.92468C16.2255 3.91769 16.227 3.91078 16.2296 3.90417L15.8331 3.78113L16.0323 3.83777ZM16.6915 3.54773L16.7022 3.55652C16.703 3.55491 16.7034 3.55321 16.7042 3.55164C16.7157 3.55457 16.7268 3.55877 16.7384 3.5614L16.9923 3.79089L16.9864 3.80945C16.9505 3.81424 16.9176 3.81506 16.8878 3.81433L16.8243 3.78894L16.8106 3.7948C16.8093 3.79762 16.8089 3.80079 16.8077 3.80359C16.7511 3.78943 16.7109 3.76311 16.6876 3.72253C16.6858 3.71936 16.6853 3.71509 16.6837 3.71179L16.6886 3.69324L16.6739 3.68738C16.66 3.64052 16.6646 3.58743 16.6837 3.54578C16.6863 3.54648 16.6889 3.54704 16.6915 3.54773ZM16.7022 3.55652C16.6817 3.60279 16.68 3.66603 16.7061 3.71179C16.742 3.77405 16.8236 3.80329 16.9581 3.78992L16.9776 3.8075L16.9835 3.78894C16.9749 3.79009 16.9663 3.7891 16.9581 3.78992L16.7022 3.55652ZM16.8282 3.80652C16.8266 3.80622 16.825 3.80586 16.8233 3.80554L16.8302 3.80359C16.8297 3.80461 16.8287 3.8055 16.8282 3.80652ZM17.6251 3.75671L17.6163 3.77527L17.6095 3.77039C17.6088 3.76326 17.6097 3.75606 17.6095 3.7489C17.6152 3.7509 17.6198 3.75529 17.6251 3.75671ZM17.6085 3.74304C17.6085 3.74501 17.6094 3.74694 17.6095 3.7489C17.5895 3.74187 17.5672 3.73261 17.544 3.7196L17.6095 3.77039V3.77234C17.4981 3.73666 17.323 3.59603 17.253 3.49695L17.336 3.56042C17.3082 3.53267 17.2843 3.50559 17.2677 3.48132L17.252 3.495L17.2501 3.49304L17.2647 3.47839L17.6085 3.74304ZM17.6143 3.72742L17.63 3.73523C17.63 3.7297 17.6297 3.72416 17.63 3.71863L17.6143 3.72742ZM16.6837 3.71179V3.71375L16.6817 3.71277V3.70886C16.6822 3.70993 16.6832 3.71074 16.6837 3.71179ZM16.6739 3.68738C16.6742 3.68837 16.6746 3.68932 16.6749 3.69031C16.426 3.64642 16.2458 3.58908 16.1319 3.495L16.1212 3.51355L16.2061 3.54382C16.2924 3.59376 16.4033 3.63218 16.5411 3.66296L16.6788 3.71277C16.4224 3.66809 16.2371 3.6098 16.1183 3.5116L16.129 3.49304L16.6739 3.68738ZM16.6876 3.69324L16.6817 3.70886C16.679 3.70283 16.6769 3.69666 16.6749 3.69031C16.679 3.69103 16.6834 3.69252 16.6876 3.69324ZM16.88 3.56531L16.8741 3.58582C16.8286 3.58035 16.7834 3.57165 16.7384 3.5614L16.7052 3.53113L16.6886 3.53406C16.6865 3.53771 16.6855 3.54189 16.6837 3.54578C16.3979 3.46828 16.1254 3.30106 15.8917 3.07898L15.9044 3.0614L16.88 3.56531ZM16.8702 3.58484L16.877 3.56433C16.8536 3.56151 16.8301 3.55577 16.8067 3.55164L16.8702 3.58484ZM16.7042 3.55164C16.6999 3.55054 16.6958 3.54887 16.6915 3.54773L16.7071 3.5448C16.7059 3.54695 16.7053 3.54939 16.7042 3.55164ZM15.8946 3.08093L15.9688 3.11902C15.9481 3.10066 15.9265 3.08253 15.9063 3.06335L15.8946 3.08093ZM26.2843 2.89734C26.2899 2.88857 26.2968 2.88079 26.3018 2.87195L26.2823 2.86902C26.2846 2.87812 26.283 2.88798 26.2843 2.89734Z" fill="black"/>
<path d="M21.9292 6.09412C21.9512 6.1207 21.973 6.14639 21.9937 6.17029C22.07 6.25835 22.135 6.32446 22.1851 6.36365L22.1714 6.38123C22.1199 6.34096 22.0543 6.27308 21.9771 6.18396C21.9563 6.16001 21.9346 6.1344 21.9126 6.10779C21.8388 6.01844 21.7789 5.94119 21.6968 5.8324C21.7028 5.82862 21.709 5.82534 21.7144 5.82068C21.7959 5.92872 21.8558 6.00533 21.9292 6.09412ZM21.7661 5.50525C21.9603 5.74016 22.493 6.2353 22.6451 6.32166L22.6343 6.34021C22.4844 6.25489 21.9808 5.787 21.771 5.54236C21.769 5.52963 21.7652 5.51839 21.7622 5.5072L21.7661 5.50525ZM21.6626 5.84802C21.7216 5.97376 21.754 6.06423 21.7495 6.10291C21.7421 6.16346 21.7194 6.1903 21.6587 6.17615L21.6636 6.15466C21.7088 6.1652 21.7219 6.15032 21.7281 6.10095C21.7321 6.06802 21.7001 5.97728 21.6421 5.85388C21.6493 5.85296 21.6558 5.85001 21.6626 5.84802ZM22.0689 5.45154C22.1856 5.61004 22.5739 5.84029 22.771 5.8783L22.7671 5.89978C22.566 5.86111 22.1768 5.62936 22.0542 5.46619C22.0593 5.46122 22.0648 5.45716 22.0689 5.45154ZM21.7603 5.49548C21.7614 5.49923 21.7612 5.5033 21.7622 5.5072L21.7495 5.51892C21.7559 5.52666 21.7639 5.53409 21.771 5.54236C21.7768 5.57893 21.7814 5.6223 21.7788 5.6781C21.776 5.73817 21.7513 5.78906 21.7144 5.82068C21.7125 5.81813 21.7105 5.81545 21.7085 5.81287L21.6919 5.82556C21.6936 5.8278 21.6951 5.83018 21.6968 5.8324C21.686 5.8392 21.6749 5.84442 21.6626 5.84802C21.6605 5.84358 21.6589 5.83888 21.6568 5.83435L21.6372 5.84314C21.6389 5.84663 21.6405 5.85044 21.6421 5.85388C21.6185 5.85691 21.5928 5.85426 21.5659 5.84412C21.4633 5.80532 21.3847 5.72019 21.3326 5.61462L21.3521 5.60486C21.402 5.70599 21.477 5.78703 21.5738 5.82361C21.6717 5.86061 21.7522 5.78665 21.7574 5.67712C21.7615 5.58812 21.7537 5.53194 21.7368 5.48669C21.7448 5.4896 21.7524 5.493 21.7603 5.49548ZM22.3208 5.20544C22.4655 5.35815 22.8545 5.67715 23.0064 5.75232L22.9966 5.77185C22.8429 5.69572 22.4551 5.3783 22.3072 5.22302C22.313 5.21776 22.3172 5.21263 22.3208 5.20544ZM22.0298 5.19275C22.0353 5.19518 22.0411 5.19639 22.0464 5.19861C22.1803 5.31558 22.439 5.50827 22.6773 5.67419L22.6646 5.69177C22.4412 5.53621 22.2007 5.35731 22.0601 5.23865C22.0515 5.22326 22.0416 5.20797 22.0298 5.19275C22.0244 5.19036 22.0187 5.18852 22.0132 5.18591L22.0181 5.17908C22.022 5.18374 22.0262 5.18805 22.0298 5.19275ZM21.0659 5.34998C21.1351 5.4485 21.1641 5.51342 21.2076 5.6449L21.188 5.65173C21.1451 5.52188 21.1161 5.4592 21.0484 5.36267L21.0659 5.34998ZM20.6138 5.30408C20.653 5.42212 20.7202 5.54462 20.7788 5.59119L20.7661 5.60779C20.7034 5.55812 20.6337 5.43275 20.5933 5.31091L20.6138 5.30408ZM22.6656 5.06873C22.6765 5.06967 22.6872 5.07102 22.6978 5.07166C22.8881 5.23569 23.2183 5.45242 23.4146 5.54626L23.4058 5.5658C23.2011 5.46798 22.8518 5.23886 22.6636 5.07166L22.6656 5.06873ZM21.0181 4.77478C21.179 4.98637 21.4769 5.4323 21.5259 5.55212L21.5064 5.55994C21.4582 5.44223 21.1601 4.99724 21.0005 4.78748L21.0181 4.77478ZM21.1499 4.60388C21.183 4.88855 21.4299 5.29315 21.6431 5.42029C21.8212 5.52623 21.9995 5.51587 22.0533 5.43787C22.1139 5.34944 22.0531 5.18258 21.854 5.07361C21.6781 4.97716 21.4501 4.7752 21.3433 4.62634L21.3609 4.61365C21.4658 4.7599 21.6917 4.95918 21.8648 5.05408C21.9282 5.08884 21.9768 5.13131 22.0142 5.17419L22.0093 5.18494C22.0104 5.18545 22.0121 5.1854 22.0132 5.18591L22.0074 5.19373C22.0226 5.20765 22.0407 5.22225 22.0601 5.23865C22.1043 5.31755 22.1082 5.39499 22.0708 5.44958L22.0689 5.45154C22.0671 5.44909 22.0647 5.44712 22.063 5.4447L22.0454 5.45642C22.0478 5.45987 22.0516 5.46268 22.0542 5.46619C21.999 5.52026 21.8872 5.53558 21.7603 5.49548C21.7586 5.49006 21.7593 5.48403 21.7574 5.47888L21.7368 5.48572V5.48669C21.7025 5.47413 21.6663 5.45966 21.6314 5.43884C21.4124 5.30808 21.1633 4.89785 21.1294 4.60681L21.1499 4.60388ZM22.8804 5.06287C22.9403 5.1082 23.041 5.17199 23.1822 5.25037C23.2021 5.26143 23.223 5.27273 23.2447 5.28455C23.3201 5.32572 23.5474 5.44621 23.5699 5.45837L23.5601 5.47791C23.5397 5.46686 23.3108 5.34455 23.2349 5.3031C23.2132 5.29127 23.1924 5.28001 23.1724 5.26892C23.0164 5.18233 22.9082 5.11507 22.8501 5.06775C22.8607 5.06637 22.8708 5.06477 22.8804 5.06287ZM22.9868 5.01208C23.3793 5.26006 23.63 5.39136 23.8843 5.45056L23.8794 5.47107C23.6207 5.41083 23.3673 5.27847 22.9693 5.02673C22.9759 5.02177 22.9822 5.01777 22.9868 5.01208ZM20.774 5.01404C20.7828 5.11094 20.8212 5.23207 20.8638 5.30701L20.8452 5.31775C20.8011 5.24019 20.7616 5.11602 20.7525 5.01599L20.774 5.01404ZM23.1695 4.97595C23.2127 4.99445 23.3691 5.0626 23.3902 5.07166C23.4117 5.08091 23.4125 5.08098 23.4341 5.09021C23.6801 5.19532 23.835 5.25555 23.94 5.28259L23.9341 5.3031C23.8276 5.27565 23.6724 5.21535 23.4253 5.10974C23.4038 5.10053 23.4037 5.10036 23.3824 5.09119C23.3623 5.08259 23.2057 5.01529 23.1617 4.99646C23.0936 4.96737 23.04 4.9443 22.9947 4.92615C22.9909 4.91752 22.9841 4.90994 22.9781 4.90076L22.98 4.89783C23.0301 4.91755 23.0899 4.94195 23.1695 4.97595ZM20.0249 4.35779C20.0156 4.47702 20.0818 4.70799 20.1499 4.78943C20.1672 4.92323 20.2578 5.1091 20.3843 5.23669L20.3687 5.25134C20.239 5.1205 20.1468 4.93093 20.1314 4.79822C20.0618 4.71794 19.9936 4.48059 20.0034 4.35583L20.0249 4.35779ZM22.1812 4.9281C22.1943 4.93404 22.2072 4.94003 22.2202 4.94568C22.2642 4.99789 22.3046 5.06196 22.3238 5.12341C22.3344 5.15772 22.3311 5.18491 22.3208 5.20544C22.3197 5.20427 22.318 5.20367 22.3169 5.20251L22.3013 5.21716C22.3032 5.21914 22.3052 5.22099 22.3072 5.22302C22.2906 5.238 22.2677 5.247 22.2359 5.24451C22.1653 5.2391 22.1107 5.22534 22.0464 5.19861C22.0377 5.19101 22.0286 5.18406 22.021 5.17712L22.0181 5.17908C22.0168 5.17749 22.0156 5.17578 22.0142 5.17419L22.0191 5.16638C22.0967 5.20337 22.1563 5.21682 22.2368 5.22302C22.2971 5.22781 22.3237 5.19613 22.3033 5.13025C22.2815 5.05999 22.2326 4.98304 22.1802 4.93005L22.1812 4.9281ZM21.2564 4.62146C21.2985 4.74822 21.6034 5.131 21.7447 5.22009L21.7329 5.23865C21.5876 5.14691 21.2795 4.75984 21.2359 4.6283L21.2564 4.62146ZM20.4253 4.2406C20.4107 4.42318 20.4211 4.59106 20.4536 4.68494C20.4629 4.71165 20.4693 4.74312 20.4781 4.80017C20.4821 4.82652 20.4849 4.8415 20.4868 4.85388C20.4902 4.8751 20.4933 4.89349 20.4966 4.91052C20.5122 4.99188 20.5326 5.05117 20.564 5.09607L20.5464 5.10876C20.5128 5.06078 20.4913 4.99875 20.4751 4.91443C20.4718 4.89718 20.4687 4.87914 20.4654 4.85779C20.4634 4.84524 20.4616 4.82974 20.4576 4.8031C20.449 4.74735 20.4428 4.71684 20.4341 4.69177C20.4004 4.59453 20.389 4.42394 20.4038 4.23865L20.4253 4.2406ZM23.021 4.8197C23.0752 4.82652 23.1214 4.8283 23.1675 4.82751C23.5361 4.90443 23.8673 4.99632 23.9585 5.07458L23.9449 5.09119C23.8465 5.00663 23.4382 4.90012 23.021 4.8197ZM21.6255 4.55798C21.8555 4.76401 22.3077 4.99682 22.5806 5.03845C22.7258 5.06043 22.8531 5.05718 22.9243 5.02966C22.9962 5.00176 23.0047 4.95303 22.939 4.88025C22.9114 4.84976 22.8742 4.81942 22.8306 4.78845C22.8469 4.79153 22.8625 4.79452 22.8775 4.79724C22.9073 4.82056 22.9337 4.84347 22.9546 4.86658C22.9647 4.87781 22.971 4.89018 22.9781 4.90076L22.9722 4.91736C22.9795 4.92021 22.987 4.92306 22.9947 4.92615C23.0096 4.96013 23.0063 4.98854 22.9868 5.01208C22.9834 5.00992 22.9796 5.00841 22.9761 5.00623L22.9654 5.0238C22.9667 5.02467 22.9679 5.02587 22.9693 5.02673C22.9587 5.03466 22.9475 5.04422 22.9322 5.05017C22.9172 5.05595 22.8994 5.05913 22.8804 5.06287C22.874 5.05805 22.8673 5.05462 22.8618 5.05017L22.8482 5.06677L22.8501 5.06775C22.8061 5.07347 22.7546 5.07504 22.6978 5.07166C22.6913 5.06611 22.6844 5.06145 22.6783 5.05603L22.6656 5.06873C22.6373 5.06628 22.6077 5.06449 22.5777 5.05994C22.4759 5.04446 22.3504 5.00216 22.2202 4.94568C22.2115 4.93532 22.2049 4.92357 22.1958 4.91443L22.1812 4.9281C21.9687 4.83161 21.7498 4.69904 21.6109 4.57458L21.6255 4.55798ZM24.1851 4.77869C24.1945 4.79682 24.1988 4.81608 24.2007 4.8363C24.1985 4.8361 24.1961 4.83652 24.1939 4.8363L24.1919 4.85876C24.1955 4.8591 24.1991 4.85844 24.2027 4.85876C24.202 4.8835 24.1969 4.90823 24.188 4.93201C24.1842 4.93112 24.18 4.93194 24.1763 4.93103L24.1714 4.95251C24.1739 4.95313 24.1767 4.95289 24.1792 4.95349C24.1545 5.00522 24.1137 5.0485 24.0689 5.06287L24.063 5.04236C24.1444 5.01606 24.2143 4.87764 24.1665 4.78748C24.1729 4.78441 24.1793 4.78212 24.1851 4.77869ZM21.4478 4.58337C21.5453 4.69426 21.8681 4.94173 22.0132 5.00037L22.0054 5.0199C21.8569 4.9599 21.5308 4.71125 21.4312 4.59802L21.4478 4.58337ZM24.188 4.93201C24.3975 4.97992 24.864 4.99138 25.0894 4.94177L25.0943 4.96326C24.8644 5.01387 24.3899 5.00289 24.1792 4.95349C24.1826 4.9465 24.1853 4.93929 24.188 4.93201ZM21.8843 4.52283C22.1299 4.66219 22.46 4.81951 22.689 4.90271L22.6822 4.92224C22.4519 4.83861 22.1203 4.68136 21.8736 4.54138L21.8843 4.52283ZM19.938 4.79333C19.9494 4.81139 19.9643 4.83041 19.982 4.85095C19.9966 4.86795 20.0081 4.88105 20.0308 4.90466L20.0161 4.92029C19.9931 4.89623 19.9803 4.88307 19.9654 4.8656C19.9472 4.84438 19.9324 4.82409 19.9204 4.80505C19.9105 4.78922 19.9028 4.77414 19.898 4.76013L19.9175 4.7533C19.9217 4.76542 19.929 4.77898 19.938 4.79333ZM25.0913 4.77185C24.8978 4.8645 24.5178 4.88749 24.2027 4.85876C24.2029 4.85115 24.2014 4.84381 24.2007 4.8363C24.5132 4.86525 24.8926 4.84228 25.0826 4.75134L25.0913 4.77185ZM24.2134 4.46228C24.2619 4.4955 24.2892 4.53981 24.2954 4.58728C24.2905 4.58853 24.2858 4.59092 24.2808 4.59216L24.2857 4.61267C24.2896 4.61169 24.2935 4.60975 24.2974 4.60876C24.2972 4.63807 24.2889 4.66751 24.272 4.69568C24.2623 4.69712 24.2525 4.70014 24.2427 4.70154L24.2456 4.72302C24.2478 4.72271 24.2503 4.72138 24.2525 4.72107C24.2368 4.74005 24.2181 4.75874 24.1939 4.77478C24.1913 4.77649 24.1878 4.77706 24.1851 4.77869C24.1841 4.7767 24.1843 4.7738 24.1831 4.77185L24.1646 4.78259C24.1654 4.784 24.1658 4.78604 24.1665 4.78748C24.0227 4.85635 23.7267 4.83648 23.5415 4.75623V4.7533C23.5544 4.75162 23.567 4.74937 23.5796 4.74744C23.7726 4.82019 24.0649 4.83465 24.1822 4.7572C24.3062 4.67521 24.3047 4.54581 24.1958 4.47595C24.2 4.47266 24.2054 4.47052 24.2095 4.46716C24.2111 4.46589 24.2118 4.46366 24.2134 4.46228ZM24.2534 4.12439C24.2959 4.14383 24.3172 4.1765 24.3208 4.22107C24.3156 4.22303 24.3105 4.22593 24.3052 4.22791L24.313 4.24841C24.3153 4.24755 24.3175 4.24634 24.3199 4.24548C24.3191 4.25848 24.3194 4.27224 24.3159 4.2865C24.3036 4.3375 24.2738 4.3933 24.2417 4.43298C24.2313 4.43532 24.2211 4.43949 24.2105 4.44177L24.2134 4.4613V4.46228C24.21 4.45997 24.2072 4.45666 24.2036 4.45447L24.1919 4.47302C24.1932 4.47381 24.1946 4.47515 24.1958 4.47595C24.0098 4.62434 23.8268 4.70944 23.5796 4.74744C23.5697 4.74369 23.5597 4.74075 23.5503 4.73669L23.5415 4.7533C23.5257 4.75535 23.51 4.7604 23.4937 4.76208L23.4927 4.75818C23.5024 4.75073 23.5114 4.74445 23.5171 4.73572C23.5087 4.73671 23.5004 4.73971 23.4917 4.7406L23.4927 4.75818C23.4653 4.77919 23.4233 4.79742 23.3638 4.80798C23.2876 4.82157 23.2277 4.82649 23.1675 4.82751C23.121 4.81781 23.0742 4.80734 23.0269 4.79822C23.1478 4.81317 23.229 4.80984 23.3599 4.7865C23.4591 4.76889 23.506 4.73787 23.5083 4.69763C23.5103 4.66086 23.4764 4.61211 23.4126 4.55798C23.3095 4.47053 23.0093 4.36574 22.7613 4.31482C22.7683 4.30938 22.7743 4.303 22.7808 4.29724C22.8122 4.30391 22.8441 4.31252 22.8765 4.32068C22.8755 4.32127 22.8746 4.32204 22.8736 4.32263L22.8843 4.34119C22.8919 4.33674 22.8999 4.33278 22.9077 4.32849C22.9776 4.34692 23.0478 4.36801 23.1138 4.39099C23.1122 4.39126 23.1105 4.3917 23.1089 4.39197L23.1128 4.41345C23.1274 4.41091 23.1432 4.40916 23.1597 4.40662C23.2764 4.44996 23.3754 4.49819 23.4273 4.54236C23.4325 4.54679 23.4371 4.55166 23.4419 4.55603H23.44L23.438 4.57751C23.4467 4.57839 23.4557 4.57691 23.4644 4.57751C23.5083 4.62197 23.5318 4.66232 23.5298 4.69861C23.5291 4.71168 23.5251 4.72369 23.5181 4.73474C23.7972 4.70186 23.994 4.61439 24.1958 4.45056C24.2352 4.41851 24.28 4.34543 24.2954 4.28162C24.3138 4.20555 24.2919 4.15297 24.2222 4.13416C24.2326 4.13084 24.2431 4.12776 24.2534 4.12439ZM22.981 4.79236L22.9781 4.81091C22.9923 4.81359 23.0068 4.81696 23.021 4.8197C22.979 4.81442 22.9323 4.8072 22.8775 4.79724C22.8655 4.78786 22.8537 4.77731 22.8404 4.76794C22.894 4.77802 22.9399 4.7862 22.981 4.79236ZM23.0269 4.79822C23.0122 4.79641 22.997 4.79475 22.981 4.79236L22.982 4.78943C22.9968 4.79222 23.0121 4.79536 23.0269 4.79822ZM22.8306 4.78845C22.829 4.78816 22.8273 4.78875 22.8257 4.78845V4.78552C22.8273 4.78661 22.8291 4.78736 22.8306 4.78845ZM22.2154 4.47302C22.4554 4.55581 22.6884 4.66088 22.8404 4.76794C22.8369 4.76729 22.8332 4.76764 22.8296 4.76697L22.8257 4.78552C22.676 4.68048 22.4458 4.57538 22.2085 4.49353L22.2154 4.47302ZM20.5972 4.53552C20.6083 4.57863 20.6156 4.61148 20.6187 4.64392C20.623 4.69066 20.619 4.73148 20.604 4.76599L20.5835 4.7572C20.5969 4.72644 20.6013 4.68932 20.5972 4.64587C20.5943 4.61487 20.5875 4.58335 20.5767 4.54138C20.5726 4.52574 20.5728 4.52495 20.5689 4.51013L20.5894 4.50525C20.5933 4.51986 20.5931 4.52002 20.5972 4.53552ZM20.271 4.40759C20.246 4.51848 20.248 4.64768 20.2798 4.74353L20.2603 4.75037C20.2271 4.65057 20.2237 4.51724 20.2495 4.40271L20.271 4.40759ZM25.6919 4.17615C25.6606 4.18879 25.6283 4.20379 25.5943 4.22107C25.5475 4.24485 25.2832 4.39842 25.189 4.44568C24.9278 4.57665 24.6409 4.66534 24.2525 4.72107C24.2595 4.71251 24.2667 4.70462 24.272 4.69568C24.6466 4.64005 24.9252 4.55353 25.1792 4.42615C25.2727 4.37926 25.5371 4.22561 25.5845 4.20154C25.6189 4.18405 25.6513 4.16947 25.6831 4.15662L25.6919 4.17615ZM20.7154 4.36365C20.7516 4.48288 20.7743 4.62824 20.7691 4.69373L20.7476 4.69177C20.7525 4.62923 20.7304 4.48631 20.6949 4.36951L20.7154 4.36365ZM22.2857 4.45837C22.4415 4.47194 22.5962 4.4957 22.7749 4.53259C22.8466 4.54738 22.9204 4.56438 23.0152 4.5863C23.0478 4.59385 23.2151 4.63282 23.2632 4.64392L23.2583 4.66443C23.2101 4.65332 23.0428 4.61434 23.0103 4.60681C22.9157 4.58493 22.8415 4.56882 22.7701 4.55408C22.5922 4.51738 22.4386 4.49333 22.2837 4.47986L22.2857 4.45837ZM25.8941 3.88904C25.5145 4.20152 24.9494 4.44493 24.2974 4.60876C24.2974 4.60151 24.2964 4.59445 24.2954 4.58728C24.9432 4.42417 25.5043 4.18203 25.8804 3.87244L25.8941 3.88904ZM22.8765 4.32068C23.1118 4.18381 23.4987 4.12159 23.7554 4.18005C23.7954 4.18919 23.8289 4.20272 23.857 4.21619L23.8618 4.23572C23.869 4.23404 23.8762 4.23158 23.8833 4.22986C23.924 4.25488 23.9488 4.28448 23.9566 4.3197C23.9679 4.37115 23.9425 4.4281 23.896 4.47205C23.8159 4.54768 23.643 4.58997 23.4644 4.57751C23.4574 4.57045 23.45 4.56328 23.4419 4.55603C23.6234 4.57394 23.8028 4.53066 23.8814 4.45642C23.9229 4.4172 23.9445 4.36745 23.9351 4.32458C23.9233 4.2712 23.8649 4.22754 23.7515 4.20154C23.5073 4.14577 23.1401 4.20217 22.9077 4.32849C22.8973 4.32574 22.8869 4.32329 22.8765 4.32068ZM19.8648 4.23279C19.8483 4.30413 19.8611 4.47535 19.8843 4.56873L19.8638 4.57361C19.8398 4.47716 19.8268 4.3031 19.8443 4.22791L19.8648 4.23279ZM25.5181 3.88318C25.4411 3.9227 25.3743 3.95957 25.2505 4.02869C25.2365 4.03652 25.2363 4.03642 25.2222 4.04431C24.7858 4.28806 24.5595 4.38953 24.2144 4.46326L24.2134 4.4613C24.2226 4.45315 24.2326 4.44424 24.2417 4.43298C24.5664 4.36037 24.7907 4.26075 25.2115 4.02576C25.2257 4.0178 25.2265 4.01809 25.2408 4.01013C25.3645 3.94105 25.4312 3.90422 25.5083 3.86462L25.5181 3.88318ZM22.8648 4.07556C22.8939 4.15314 22.8534 4.23321 22.7808 4.29724C22.7734 4.29567 22.7657 4.29384 22.7583 4.29236L22.7544 4.31384C22.7567 4.3143 22.759 4.31436 22.7613 4.31482C22.6697 4.38539 22.5369 4.42981 22.4136 4.40662L22.4175 4.38513C22.6422 4.42744 22.9034 4.23845 22.8443 4.0824L22.8648 4.07556ZM23.7388 4.35388C23.6001 4.35388 23.3324 4.37996 23.1597 4.40662C23.1448 4.40107 23.1293 4.39638 23.1138 4.39099C23.283 4.36192 23.5869 4.33142 23.7388 4.33142V4.35388ZM20.1783 3.52673C20.137 3.6309 20.1143 3.8554 20.1265 3.9408C20.1293 3.96057 20.1285 3.96461 20.1206 4.03943C20.1073 4.16691 20.1129 4.26282 20.1548 4.38708L20.1343 4.39392C20.0913 4.26618 20.0855 4.16694 20.0992 4.0365C20.1066 3.96518 20.1074 3.96075 20.105 3.94373C20.0923 3.85464 20.116 3.62663 20.1587 3.51892L20.1783 3.52673ZM20.3286 3.63318C20.2824 3.82478 20.2841 4.18957 20.3286 4.33923L20.3081 4.34509C20.2625 4.19154 20.261 3.82342 20.3081 3.6283L20.3286 3.63318ZM25.8169 3.47302C25.678 3.58342 25.5269 3.68492 25.3648 3.77869C25.0505 3.96044 24.7891 4.07171 24.3199 4.24548C24.3204 4.23694 24.3215 4.229 24.3208 4.22107C24.7835 4.04956 25.0431 3.93995 25.354 3.76013C25.5152 3.6669 25.6652 3.5661 25.8033 3.45642L25.8169 3.47302ZM25.1958 3.66736C25.0489 3.81199 24.664 3.99099 24.2534 4.12439C24.2446 4.12035 24.2357 4.11537 24.2251 4.11267L24.2193 4.13318L24.2222 4.13416C24.1093 4.17008 23.995 4.20296 23.8833 4.22986C23.8752 4.22488 23.8664 4.22071 23.857 4.21619V4.21423C24.388 4.08922 24.9912 3.83874 25.1812 3.65173L25.1958 3.66736ZM21.4615 4.11951C21.3741 4.14436 21.3249 4.16911 21.232 4.22888L21.2212 4.21033C21.3157 4.14957 21.366 4.12354 21.4556 4.09802L21.4615 4.11951ZM20.4595 3.70349C20.4544 3.86495 20.5301 4.07393 20.6548 4.21326L20.6392 4.22693C20.5109 4.08361 20.4329 3.87037 20.438 3.70349H20.4595ZM19.9908 4.01208C19.9823 4.05961 19.9848 4.13746 19.9956 4.21423L19.9742 4.21716C19.9631 4.13858 19.9604 4.05941 19.9693 4.00916L19.9908 4.01208ZM19.8745 3.83826C19.8534 3.91115 19.8454 4.0137 19.8511 4.09216L19.8296 4.09412C19.8237 4.01325 19.8321 3.90806 19.854 3.8324L19.8745 3.83826ZM20.6958 3.11169C20.6843 3.11418 20.6803 3.12203 20.6773 3.13806C20.6599 3.14192 20.639 3.14908 20.4947 3.20642C20.4838 3.19786 20.4733 3.19466 20.4605 3.20056L20.4683 3.21912C20.3076 3.2885 20.0347 3.48098 19.8648 3.65466C19.8385 3.68151 19.8183 3.69489 19.7954 3.70154C19.7896 3.70321 19.7838 3.70473 19.7749 3.70642C19.7391 3.71328 19.7229 3.71779 19.6909 3.73474L19.6802 3.71619C19.7147 3.69786 19.733 3.6922 19.771 3.68494C19.7793 3.68336 19.7846 3.68248 19.7896 3.68103C19.8086 3.6755 19.8254 3.66428 19.8492 3.64001C20.0268 3.45833 20.315 3.25581 20.4761 3.19177C20.4761 3.19177 20.577 3.15113 20.6011 3.14197C20.6389 3.12765 20.6679 3.1178 20.6958 3.11169ZM20.8355 3.4115C20.7795 3.44062 20.7387 3.48333 20.7046 3.54333L20.6861 3.53162C20.7221 3.46834 20.7659 3.4231 20.8257 3.39197L20.8355 3.4115ZM20.7017 3.1322C20.698 3.13316 20.6966 3.14112 20.6949 3.16443C20.6934 3.184 20.692 3.1909 20.69 3.20154C20.6829 3.23888 20.6651 3.26525 20.6294 3.27869C20.5729 3.29973 20.5381 3.28729 20.5064 3.25037C20.5056 3.24944 20.4909 3.23121 20.4868 3.22693C20.4797 3.21968 20.4752 3.21832 20.4693 3.22107L20.4683 3.21912C20.4738 3.21674 20.4787 3.21338 20.4839 3.2113C20.4876 3.20986 20.4912 3.20781 20.4947 3.20642C20.4967 3.20804 20.4995 3.20923 20.5015 3.2113C20.5062 3.21621 20.5218 3.23549 20.522 3.23572C20.5484 3.26647 20.5748 3.2751 20.6226 3.2572C20.6501 3.24672 20.6637 3.22768 20.6695 3.19763C20.6713 3.18811 20.672 3.18127 20.6734 3.16248C20.6741 3.15265 20.676 3.14473 20.6773 3.13806C20.6838 3.13661 20.6897 3.1347 20.7017 3.1322ZM20.7945 3.12439C20.7621 3.12359 20.733 3.12602 20.7036 3.1322H20.7017L20.7007 3.11072C20.7312 3.10443 20.7611 3.10209 20.7945 3.10291V3.12439Z" fill="black"/>
<path d="M20.7925 5.90686C20.7962 5.90848 20.7997 5.91011 20.8033 5.91174C20.922 6.13604 20.9729 6.42037 20.9312 6.57483L20.9107 6.56897C20.9525 6.41405 20.8971 6.11767 20.7701 5.89417L20.772 5.89221C20.7799 5.89727 20.7857 5.9038 20.7925 5.90686ZM20.8013 6.39807C20.8615 6.44144 20.9005 6.49431 20.9117 6.56311L20.8912 6.56702C20.8811 6.50442 20.8446 6.45603 20.7886 6.41565C20.7665 6.39972 20.7526 6.3909 20.7261 6.3678C20.6828 6.41534 20.6009 6.47124 20.5562 6.48108L20.5513 6.46057C20.5908 6.45213 20.6695 6.39815 20.7232 6.3512C20.7634 6.3726 20.7781 6.38134 20.8013 6.39807ZM21.3043 6.07874C21.306 6.09684 21.3092 6.11977 21.3111 6.14807C21.3125 6.16937 21.3187 6.27759 21.3209 6.3092C21.3285 6.42111 21.336 6.49585 21.3463 6.54358L21.3257 6.54749C21.3153 6.49839 21.307 6.42283 21.2994 6.31018C21.2972 6.27766 21.291 6.16898 21.2896 6.14905C21.2864 6.10148 21.2837 6.06992 21.2808 6.04944C21.2895 6.06015 21.2972 6.06993 21.3043 6.07874ZM21.1334 6.22913C21.1658 6.30746 21.1859 6.43021 21.1793 6.50452L21.1578 6.50256C21.1641 6.43189 21.1449 6.31314 21.1138 6.23792L21.1334 6.22913ZM20.3101 5.37268C20.3683 5.3756 20.3918 5.38239 20.4205 5.41272C20.4381 5.43143 20.4553 5.45887 20.4732 5.49768C20.5356 5.63334 20.7178 5.84988 20.8013 5.88733C20.9462 5.95244 21.0422 6.02571 21.0738 6.12854C21.1308 5.99922 21.1438 5.92199 21.1011 5.82874L21.1187 5.81702C21.1312 5.83261 21.1451 5.84919 21.1597 5.86682C21.3976 6.15341 21.3829 6.13392 21.397 6.20178C21.414 6.28302 21.4809 6.39762 21.5474 6.47034L21.5308 6.48499C21.4619 6.40967 21.3934 6.29216 21.3755 6.20667C21.3669 6.16535 21.3684 6.15917 21.3043 6.07874C21.3031 6.06609 21.3026 6.05522 21.3013 6.04651L21.2808 6.04944C21.2486 6.00982 21.2052 5.95525 21.1431 5.88049C21.1412 5.87819 21.1391 5.87591 21.1373 5.87366C21.158 5.95341 21.1421 6.02906 21.0923 6.14124C21.0871 6.15309 21.0868 6.15309 21.0816 6.16467L21.0611 6.16272C21.0428 6.05562 20.9497 5.97909 20.8033 5.91174C20.7983 5.90237 20.7938 5.89257 20.7886 5.88342L20.772 5.89221C20.6774 5.83124 20.5131 5.6357 20.4537 5.50647C20.4367 5.46972 20.4206 5.4441 20.4048 5.42737C20.381 5.40224 20.3621 5.39683 20.3091 5.39417C20.2862 5.39302 20.2776 5.39266 20.2642 5.39124L20.2662 5.36975C20.279 5.37112 20.2875 5.37155 20.3101 5.37268ZM20.6763 5.92834C20.7166 6.04099 20.7567 6.20879 20.7603 6.27502L20.7388 6.27698C20.7355 6.21333 20.6956 6.04622 20.6558 5.93518L20.6763 5.92834ZM20.4351 5.71057C20.4732 5.82562 20.5032 5.96342 20.5064 6.04456L20.4849 6.04553C20.4819 5.96675 20.4521 5.83076 20.4146 5.71741L20.4351 5.71057Z" fill="black"/>
</g>
</svg>
