<svg viewBox="0 0 18 18" fill="none" xmlns="http://www.w3.org/2000/svg">
<path fill-rule="evenodd" clip-rule="evenodd" d="M17.28 9.19584C17.28 8.58425 17.2251 7.99619 17.1232 7.43164H9V10.7679H13.6418C13.4419 11.8461 12.8342 12.7595 11.9207 13.3711V15.5352H14.7082C16.3391 14.0337 17.28 11.8225 17.28 9.19584Z" fill="#4285F4"/>
<path fill-rule="evenodd" clip-rule="evenodd" d="M9.00009 17.6249C11.3288 17.6249 13.2812 16.8526 14.7083 15.5353L11.9208 13.3712C11.1485 13.8887 10.1605 14.1945 9.00009 14.1945C6.75367 14.1945 4.85225 12.6773 4.17401 10.6387H1.29248V12.8733C2.71169 15.6921 5.6285 17.6249 9.00009 17.6249Z" fill="#34A853"/>
<path fill-rule="evenodd" clip-rule="evenodd" d="M4.17392 10.6386C4.00142 10.1211 3.90341 9.56834 3.90341 8.99987C3.90341 8.43141 4.00142 7.87862 4.17392 7.36112V5.12646H1.29239C0.708239 6.29084 0.375 7.60811 0.375 8.99987C0.375 10.3916 0.708239 11.7089 1.29239 12.8733L4.17392 10.6386Z" fill="#FBBC05"/>
<path fill-rule="evenodd" clip-rule="evenodd" d="M9.00009 3.8054C10.2664 3.8054 11.4033 4.24057 12.2972 5.09523L14.771 2.62142C13.2773 1.22966 11.3249 0.375 9.00009 0.375C5.6285 0.375 2.71169 2.30778 1.29248 5.12659L4.17401 7.36125C4.85225 5.32261 6.75367 3.8054 9.00009 3.8054Z" fill="#EA4335"/>
</svg>
